M48
;GenerationSoftware,Autodesk,EAGLE,9.6.2*%
;CreationDate,2021-08-12T23:10:51Z*%
FMAT,2
ICI,OFF
METRIC,TZ,000.000
T7C0.800
T6C0.813
T5C1.000
T4C1.016
T3C1.500
T2C3.200
%
G90
M71
T2
X4120Y4310
X86606Y55316
X86606Y4262
X4120Y55364
T3
X56078Y8850
X49078Y8850
T4
X3048Y10414
X73660Y3302
X71120Y3302
X7366Y20066
X3048Y12954
X3048Y15494
X85344Y41402
X87884Y41402
X85344Y46228
X87884Y46228
X28448Y49784
X76200Y3302
X78740Y3302
X66548Y57658
X66548Y55118
X66548Y52578
X66548Y50038
X66548Y47498
X66548Y44958
X66548Y42418
X66548Y39878
X7366Y22606
X28448Y57404
X36068Y49784
X36068Y52324
X36068Y54864
X36068Y57404
X28448Y54864
X28448Y52324
X44196Y57404
X44196Y54864
X44196Y52324
X52324Y57404
X7366Y25146
X7366Y27686
X3302Y38354
X3302Y40894
X3302Y43434
X3302Y45974
X52324Y49784
X52324Y52324
X52324Y54864
X44196Y49784
T5
X81280Y30861
X81280Y33401
X58420Y15621
X58420Y18161
X81280Y28321
X81280Y25781
X81280Y23241
X81280Y20701
X81280Y15621
X81280Y9271
X78740Y9271
X76200Y9271
X73660Y9271
X71120Y9271
X68580Y9271
X66040Y9271
X63500Y9271
X60960Y9271
X40640Y13589
X54828Y6350
X50328Y6350
X40640Y8509
X17780Y8509
X40640Y26289
X40640Y23749
X40640Y21209
X40640Y18669
X40640Y16129
X58420Y33401
X40640Y11049
X17780Y26289
X17780Y23749
X17780Y21209
X17780Y18669
X17780Y16129
X17780Y13589
X17780Y11049
X81280Y18161
X58420Y30861
X58420Y28321
X58420Y25781
X58420Y23241
X58420Y20701
T6
X43688Y13716
X15224Y3564
X15224Y11184
X12938Y8636
X12938Y3556
X46228Y16256
X51308Y13716
X14746Y47486
X14746Y39866
X9398Y45974
X6858Y45974
X9398Y43688
X6858Y43688
X53848Y19558
X53848Y27178
X53848Y16256
T7
X44034Y4622
X11938Y39116
X6858Y39370
X17200Y38600
X20600Y42000
X55690Y13614
X75346Y43234
X10414Y8636
X7366Y32258
X7366Y8890
X7366Y16256
X5158Y35484
M30