M48
;GenerationSoftware,Autodesk,EAGLE,9.6.2*%
;CreationDate,2021-07-27T22:13:25Z*%
FMAT,2
ICI,OFF
METRIC,TZ,000.000
T7C0.800
T6C0.813
T5C1.000
T4C1.016
T3C1.500
T2C3.200
%
G90
M71
T2
X4120Y55364
X86606Y4262
X86606Y55316
X4120Y4310
T3
X49078Y8850
X56078Y8850
T4
X24384Y52578
X78740Y3302
X66548Y39878
X66548Y42418
X66548Y44958
X66548Y47498
X66548Y50038
X66548Y52578
X66548Y55118
X66548Y57658
X71120Y3302
X24384Y55118
X24384Y57658
X31242Y50038
X31242Y52578
X31242Y55118
X31242Y57658
X37592Y50038
X87884Y46228
X85344Y46228
X87884Y41402
X85344Y41402
X43688Y50038
X43688Y52578
X43688Y55118
X43688Y57658
X76200Y3302
X37592Y52578
X37592Y55118
X37592Y57658
X3048Y18034
X3048Y15494
X3048Y12954
X24384Y50038
X73660Y3302
X3048Y25654
X3048Y28194
X3048Y30734
X3048Y33274
T5
X78740Y9271
X58420Y28321
X58420Y30861
X58420Y33401
X81280Y18161
X81280Y20701
X81280Y23241
X81280Y25781
X81280Y28321
X81280Y30861
X81280Y33401
X58420Y15621
X81280Y15621
X81280Y9271
X58420Y20701
X76200Y9271
X73660Y9271
X71120Y9271
X68580Y9271
X66040Y9271
X63500Y9271
X60960Y9271
X40640Y16129
X40640Y13589
X58420Y23241
X17780Y11049
X17780Y13589
X17780Y16129
X17780Y18669
X17780Y21209
X17780Y23749
X17780Y26289
X40640Y11049
X54828Y6350
X50328Y6350
X40640Y8509
X17780Y8509
X40640Y26289
X40640Y23749
X40640Y21209
X40640Y18669
X58420Y18161
X58420Y25781
T6
X9652Y34544
X11414Y3556
X11414Y8636
X14716Y11184
X14716Y3564
X53848Y16256
X14746Y39866
X7112Y34544
X9652Y30734
X7112Y30734
X53848Y19558
X53848Y27178
X14746Y47486
X43688Y13716
X51308Y13716
X46228Y16256
T7
X17200Y38600
X44034Y4622
X8206Y23800
X75346Y43234
X55690Y13614
X20600Y42000
M30