G04 EAGLE Gerber X2 export*
%TF.Part,Single*%
%TF.FileFunction,Copper,L1,Top,Mixed*%
%TF.FilePolarity,Positive*%
%TF.GenerationSoftware,Autodesk,EAGLE,9.1.0*%
%TF.CreationDate,2020-08-08T12:39:32Z*%
G75*
%MOMM*%
%FSLAX34Y34*%
%LPD*%
%AMOC8*
5,1,8,0,0,1.08239X$1,22.5*%
G01*
%ADD10P,1.853918X8X112.500000*%
%ADD11P,1.853918X8X292.500000*%
%ADD12C,1.900000*%
%ADD13P,2.056541X8X22.500000*%
%ADD14P,2.597736X8X22.500000*%
%ADD15C,1.916000*%
%ADD16P,1.853918X8X202.500000*%
%ADD17P,1.853918X8X22.500000*%
%ADD18C,1.200000*%
%ADD19C,2.000000*%


D10*
X510540Y99060D03*
X510540Y124460D03*
X149700Y45800D03*
X149700Y122000D03*
D11*
X121760Y93980D03*
X121760Y43180D03*
D12*
X177800Y120650D03*
X177800Y146050D03*
X177800Y171450D03*
X177800Y196850D03*
X177800Y222250D03*
X177800Y247650D03*
X177800Y273050D03*
X406400Y120650D03*
X406400Y146050D03*
X406400Y171450D03*
X406400Y196850D03*
X406400Y222250D03*
X406400Y247650D03*
X406400Y273050D03*
X177800Y95250D03*
X406400Y95250D03*
D13*
X460100Y38100D03*
X505100Y38100D03*
D14*
X517600Y63100D03*
X447600Y63100D03*
D15*
X32440Y101680D02*
X13280Y101680D01*
X13280Y127080D02*
X32440Y127080D01*
X32440Y152480D02*
X13280Y152480D01*
X13280Y177880D02*
X32440Y177880D01*
X32440Y203280D02*
X13280Y203280D01*
X15820Y284480D02*
X34980Y284480D01*
X34980Y309880D02*
X15820Y309880D01*
X15820Y335280D02*
X34980Y335280D01*
X34980Y360680D02*
X15820Y360680D01*
X228600Y384120D02*
X228600Y403280D01*
X254000Y403280D02*
X254000Y384120D01*
X279400Y384120D02*
X279400Y403280D01*
X304800Y403280D02*
X304800Y384120D01*
X330200Y384120D02*
X330200Y403280D01*
X549220Y215900D02*
X568380Y215900D01*
X568380Y190500D02*
X549220Y190500D01*
X549220Y165100D02*
X568380Y165100D01*
X568380Y139700D02*
X549220Y139700D01*
X549220Y114300D02*
X568380Y114300D01*
D16*
X510540Y144780D03*
X434340Y144780D03*
D15*
X535940Y307920D02*
X535940Y327080D01*
X510540Y327080D02*
X510540Y307920D01*
X485140Y307920D02*
X485140Y327080D01*
X459740Y327080D02*
X459740Y307920D01*
D11*
X150000Y424060D03*
X150000Y347860D03*
D17*
X508000Y274320D03*
X533400Y274320D03*
X459740Y248920D03*
X485140Y248920D03*
D18*
X300000Y466000D02*
X266000Y432000D01*
X300000Y466000D02*
X301000Y466000D01*
D19*
X266000Y432000D03*
X301000Y466000D03*
D18*
X572000Y378000D02*
X605000Y411000D01*
X572000Y378000D02*
X570000Y378000D01*
X63000Y126000D02*
X63000Y88000D01*
X74000Y77000D01*
X394000Y360000D02*
X428000Y394000D01*
D19*
X605000Y411000D03*
X570000Y378000D03*
X63000Y126000D03*
X74000Y77000D03*
X428000Y394000D03*
X394000Y360000D03*
M02*
