G04 EAGLE Gerber X2 export*
%TF.Part,Single*%
%TF.FileFunction,Copper,L2,Bot,Mixed*%
%TF.FilePolarity,Positive*%
%TF.GenerationSoftware,Autodesk,EAGLE,9.1.0*%
%TF.CreationDate,2020-08-08T12:39:32Z*%
G75*
%MOMM*%
%FSLAX34Y34*%
%LPD*%
%AMOC8*
5,1,8,0,0,1.08239X$1,22.5*%
G01*
%ADD10P,1.853918X8X112.500000*%
%ADD11P,1.853918X8X292.500000*%
%ADD12C,1.900000*%
%ADD13P,2.056541X8X22.500000*%
%ADD14P,2.597736X8X22.500000*%
%ADD15C,1.916000*%
%ADD16P,1.853918X8X202.500000*%
%ADD17P,1.853918X8X22.500000*%
%ADD18C,1.200000*%
%ADD19C,2.000000*%


D10*
X510540Y99060D03*
X510540Y124460D03*
X149700Y45800D03*
X149700Y122000D03*
D11*
X121760Y93980D03*
X121760Y43180D03*
D12*
X177800Y120650D03*
X177800Y146050D03*
X177800Y171450D03*
X177800Y196850D03*
X177800Y222250D03*
X177800Y247650D03*
X177800Y273050D03*
X406400Y120650D03*
X406400Y146050D03*
X406400Y171450D03*
X406400Y196850D03*
X406400Y222250D03*
X406400Y247650D03*
X406400Y273050D03*
X177800Y95250D03*
X406400Y95250D03*
D13*
X460100Y38100D03*
X505100Y38100D03*
D14*
X517600Y63100D03*
X447600Y63100D03*
D15*
X32440Y101680D02*
X13280Y101680D01*
X13280Y127080D02*
X32440Y127080D01*
X32440Y152480D02*
X13280Y152480D01*
X13280Y177880D02*
X32440Y177880D01*
X32440Y203280D02*
X13280Y203280D01*
X15820Y284480D02*
X34980Y284480D01*
X34980Y309880D02*
X15820Y309880D01*
X15820Y335280D02*
X34980Y335280D01*
X34980Y360680D02*
X15820Y360680D01*
X228600Y384120D02*
X228600Y403280D01*
X254000Y403280D02*
X254000Y384120D01*
X279400Y384120D02*
X279400Y403280D01*
X304800Y403280D02*
X304800Y384120D01*
X330200Y384120D02*
X330200Y403280D01*
X549220Y215900D02*
X568380Y215900D01*
X568380Y190500D02*
X549220Y190500D01*
X549220Y165100D02*
X568380Y165100D01*
X568380Y139700D02*
X549220Y139700D01*
X549220Y114300D02*
X568380Y114300D01*
D16*
X510540Y144780D03*
X434340Y144780D03*
D15*
X535940Y307920D02*
X535940Y327080D01*
X510540Y327080D02*
X510540Y307920D01*
X485140Y307920D02*
X485140Y327080D01*
X459740Y327080D02*
X459740Y307920D01*
D11*
X150000Y424060D03*
X150000Y347860D03*
D17*
X508000Y274320D03*
X533400Y274320D03*
X459740Y248920D03*
X485140Y248920D03*
D18*
X510000Y99000D02*
X493000Y82000D01*
X493000Y51000D01*
X505000Y39000D01*
X510000Y99000D02*
X510540Y99060D01*
X505000Y39000D02*
X505100Y38100D01*
X410000Y168000D02*
X407000Y171000D01*
X410000Y168000D02*
X488000Y168000D01*
X488000Y85000D01*
X407000Y171000D02*
X406400Y171450D01*
X488000Y85000D02*
X493000Y82000D01*
X132000Y359000D02*
X26572Y359000D01*
X132000Y359000D02*
X205000Y432000D01*
X266000Y432000D01*
X301000Y466000D02*
X321000Y446000D01*
X623000Y446000D01*
X623000Y427000D01*
X640000Y410000D01*
X640000Y109000D01*
X623000Y92000D01*
X516000Y92000D01*
X516000Y97000D01*
X26572Y359000D02*
X25400Y360680D01*
X510540Y99060D02*
X516000Y97000D01*
D19*
X266000Y432000D03*
X301000Y466000D03*
D18*
X177000Y320000D02*
X150000Y347000D01*
X177000Y320000D02*
X177000Y274000D01*
X150000Y347000D02*
X150000Y347860D01*
X177000Y274000D02*
X177800Y273050D01*
X177800Y120650D02*
X149700Y122000D01*
X144597Y127103D01*
X142368Y127103D01*
X149700Y124540D02*
X25400Y284480D01*
X149700Y124540D02*
X149700Y122000D01*
X379730Y68580D02*
X406400Y95250D01*
X379730Y68580D02*
X114300Y68580D01*
X96520Y86360D01*
X96520Y147664D02*
X44724Y199460D01*
X96520Y101600D02*
X96520Y86360D01*
X96520Y101600D02*
X96520Y147664D01*
X22940Y101600D02*
X22860Y101680D01*
X22940Y101600D02*
X96520Y101600D01*
X375920Y93980D02*
X406400Y95250D01*
X375920Y93980D02*
X353060Y124460D01*
X353060Y360680D01*
X373380Y383540D01*
X418000Y359000D02*
X459000Y318000D01*
X418000Y359000D02*
X418000Y370000D01*
X404000Y384000D01*
X379000Y384000D01*
X459000Y318000D02*
X459740Y317500D01*
X379000Y384000D02*
X373380Y383540D01*
X38100Y203200D02*
X22860Y203280D01*
X38100Y203200D02*
X44724Y199460D01*
X177800Y95250D02*
X181700Y99150D01*
X186706Y99150D01*
X297556Y210000D02*
X300000Y210000D01*
X297556Y210000D02*
X186706Y99150D01*
X300000Y210000D02*
X305000Y215000D01*
X304800Y393700D01*
X177800Y457200D02*
X150000Y424060D01*
X177800Y457200D02*
X276860Y457200D01*
X304800Y421640D01*
X304800Y393700D01*
X177800Y95250D02*
X121760Y93980D01*
X304800Y421640D02*
X318041Y421640D01*
X321261Y424860D01*
X560660Y424860D01*
X558800Y139700D02*
X584200Y139700D01*
X599440Y160020D01*
X599440Y381000D01*
X560660Y424860D01*
X511000Y144000D02*
X511000Y125000D01*
X510540Y124460D01*
X511000Y144000D02*
X510540Y144780D01*
X517000Y144000D02*
X541000Y144000D01*
X543000Y142000D01*
X553000Y142000D01*
X517000Y144000D02*
X510540Y144780D01*
X553000Y142000D02*
X558800Y139700D01*
X181000Y226000D02*
X178000Y223000D01*
X181000Y226000D02*
X228000Y226000D01*
X228000Y393000D01*
X178000Y223000D02*
X177800Y222250D01*
X228000Y393000D02*
X228600Y393700D01*
X407000Y196000D02*
X538000Y196000D01*
X543000Y191000D01*
X558000Y191000D01*
X407000Y196000D02*
X406400Y196850D01*
X558000Y191000D02*
X558800Y190500D01*
X114226Y233213D02*
X43919Y303520D01*
X168894Y149950D02*
X173900Y149950D01*
X177800Y146050D01*
X114226Y204619D02*
X114226Y233213D01*
X114226Y204619D02*
X168894Y149950D01*
X43919Y303520D02*
X38100Y309880D01*
X25400Y309880D01*
X178000Y172000D02*
X231000Y172000D01*
X254000Y195000D01*
X254000Y393700D01*
X178000Y172000D02*
X177800Y171450D01*
X407000Y145000D02*
X434000Y145000D01*
X407000Y145000D02*
X407000Y146000D01*
X434000Y145000D02*
X434340Y144780D01*
X407000Y146000D02*
X406400Y146050D01*
X410000Y219000D02*
X407000Y222000D01*
X410000Y219000D02*
X558000Y219000D01*
X558000Y216000D01*
X407000Y222000D02*
X406400Y222250D01*
X558000Y216000D02*
X558800Y215900D01*
X459000Y248000D02*
X407000Y248000D01*
X459000Y248000D02*
X459740Y248920D01*
X407000Y248000D02*
X406400Y247650D01*
X66040Y335280D02*
X25400Y335280D01*
X141060Y228584D02*
X168894Y200750D01*
X141060Y260260D02*
X66040Y335280D01*
X141060Y260260D02*
X141060Y228584D01*
X168894Y200750D02*
X173900Y200750D01*
X177800Y196850D01*
X407000Y274000D02*
X419000Y286000D01*
X485000Y286000D01*
X485000Y317000D01*
X407000Y274000D02*
X406400Y273050D01*
X485000Y317000D02*
X485140Y317500D01*
X508000Y271000D02*
X486000Y249000D01*
X508000Y271000D02*
X508000Y274320D01*
X486000Y249000D02*
X485140Y248920D01*
X510000Y280000D02*
X510000Y317000D01*
X510540Y317500D01*
X510000Y280000D02*
X508000Y274320D01*
X147080Y43180D02*
X121760Y43180D01*
X147080Y43180D02*
X149700Y45800D01*
X423000Y45800D01*
X430959Y45800D01*
X437659Y39100D01*
X459100Y39100D02*
X460100Y38100D01*
X459100Y39100D02*
X437659Y39100D01*
X330200Y393700D02*
X341360Y404860D01*
X428000Y404860D01*
X523240Y404860D01*
X535940Y383540D01*
X535940Y378000D01*
X535940Y317500D01*
X533000Y312000D02*
X533000Y275000D01*
X533400Y274320D01*
X533000Y312000D02*
X535940Y317500D01*
X559000Y115000D02*
X617000Y115000D01*
X620000Y118000D01*
X620000Y396000D01*
X605000Y411000D01*
X570000Y378000D02*
X535940Y378000D01*
X559000Y115000D02*
X558800Y114300D01*
X410000Y117000D02*
X407000Y120000D01*
X410000Y117000D02*
X428000Y117000D01*
X428000Y78000D01*
X423000Y73000D01*
X423000Y45800D01*
X407000Y120000D02*
X406400Y120650D01*
X63000Y126000D02*
X63000Y149000D01*
X74000Y77000D02*
X106000Y45000D01*
X116000Y45000D01*
X121760Y43180D01*
X384000Y350000D02*
X394000Y360000D01*
X384000Y350000D02*
X384000Y138000D01*
X401000Y121000D01*
X428000Y394000D02*
X428000Y404860D01*
X406400Y120650D02*
X401000Y121000D01*
D19*
X605000Y411000D03*
X570000Y378000D03*
X63000Y126000D03*
X74000Y77000D03*
X428000Y394000D03*
X394000Y360000D03*
D18*
X58420Y152400D02*
X22860Y152480D01*
X58420Y152400D02*
X63000Y149000D01*
M02*
