G04 EAGLE Gerber X2 export*
%TF.Part,Single*%
%TF.FileFunction,Copper,L2,Bot,Mixed*%
%TF.FilePolarity,Positive*%
%TF.GenerationSoftware,Autodesk,EAGLE,9.1.0*%
%TF.CreationDate,2020-08-16T13:30:31Z*%
G75*
%MOMM*%
%FSLAX34Y34*%
%LPD*%
%AMOC8*
5,1,8,0,0,1.08239X$1,22.5*%
G01*
%ADD10C,0.152400*%
%ADD11P,1.853918X8X22.500000*%
%ADD12P,1.853918X8X112.500000*%
%ADD13P,1.853918X8X292.500000*%
%ADD14C,1.900000*%
%ADD15P,2.056541X8X22.500000*%
%ADD16P,2.597736X8X22.500000*%
%ADD17C,1.916000*%
%ADD18P,1.853918X8X202.500000*%
%ADD19C,1.200000*%
%ADD20C,2.000000*%


D10*
X710438Y161812D02*
X710438Y148254D01*
X707726Y145542D01*
X702303Y145542D01*
X699591Y148254D01*
X699591Y161812D01*
X694066Y156389D02*
X694066Y145542D01*
X694066Y150965D02*
X688643Y156389D01*
X685932Y156389D01*
X680423Y161812D02*
X680423Y145542D01*
X672289Y145542D01*
X669577Y148254D01*
X669577Y153677D01*
X672289Y156389D01*
X680423Y156389D01*
X661340Y156389D02*
X655917Y156389D01*
X653205Y153677D01*
X653205Y145542D01*
X661340Y145542D01*
X664052Y148254D01*
X661340Y150965D01*
X653205Y150965D01*
X647680Y145542D02*
X647680Y156389D01*
X639545Y156389D01*
X636834Y153677D01*
X636834Y145542D01*
X702303Y131332D02*
X707726Y131332D01*
X710438Y128620D01*
X710438Y117774D01*
X707726Y115062D01*
X702303Y115062D01*
X699591Y117774D01*
X699591Y128620D01*
X702303Y131332D01*
X691355Y125909D02*
X683220Y125909D01*
X691355Y125909D02*
X694066Y123197D01*
X694066Y117774D01*
X691355Y115062D01*
X683220Y115062D01*
X674983Y117774D02*
X674983Y128620D01*
X674983Y117774D02*
X672272Y115062D01*
X672272Y125909D02*
X677695Y125909D01*
X664069Y115062D02*
X658646Y115062D01*
X655934Y117774D01*
X655934Y123197D01*
X658646Y125909D01*
X664069Y125909D01*
X666781Y123197D01*
X666781Y117774D01*
X664069Y115062D01*
X710438Y100852D02*
X710438Y84582D01*
X710438Y100852D02*
X702303Y100852D01*
X699591Y98140D01*
X699591Y92717D01*
X702303Y90005D01*
X710438Y90005D01*
X705015Y90005D02*
X699591Y84582D01*
X691355Y84582D02*
X685932Y84582D01*
X683220Y87294D01*
X683220Y92717D01*
X685932Y95429D01*
X691355Y95429D01*
X694066Y92717D01*
X694066Y87294D01*
X691355Y84582D01*
X677695Y84582D02*
X677695Y100852D01*
X677695Y84582D02*
X669560Y84582D01*
X666848Y87294D01*
X666848Y92717D01*
X669560Y95429D01*
X677695Y95429D01*
X658612Y84582D02*
X653188Y84582D01*
X650477Y87294D01*
X650477Y92717D01*
X653188Y95429D01*
X658612Y95429D01*
X661323Y92717D01*
X661323Y87294D01*
X658612Y84582D01*
X642240Y87294D02*
X642240Y98140D01*
X642240Y87294D02*
X639528Y84582D01*
X639528Y95429D02*
X644952Y95429D01*
D11*
X528320Y124460D03*
X553720Y124460D03*
D12*
X149700Y45800D03*
X149700Y122000D03*
D13*
X121760Y93980D03*
X121760Y43180D03*
D14*
X177800Y120650D03*
X177800Y146050D03*
X177800Y171450D03*
X177800Y196850D03*
X177800Y222250D03*
X177800Y247650D03*
X177800Y273050D03*
X406400Y120650D03*
X406400Y146050D03*
X406400Y171450D03*
X406400Y196850D03*
X406400Y222250D03*
X406400Y247650D03*
X406400Y273050D03*
X177800Y95250D03*
X406400Y95250D03*
D15*
X475340Y40640D03*
X520340Y40640D03*
D16*
X532840Y65640D03*
X462840Y65640D03*
D17*
X32440Y101680D02*
X13280Y101680D01*
X13280Y127080D02*
X32440Y127080D01*
X32440Y152480D02*
X13280Y152480D01*
X13280Y177880D02*
X32440Y177880D01*
X32440Y203280D02*
X13280Y203280D01*
X15820Y284480D02*
X34980Y284480D01*
X34980Y309880D02*
X15820Y309880D01*
X15820Y335280D02*
X34980Y335280D01*
X34980Y360680D02*
X15820Y360680D01*
X228600Y384120D02*
X228600Y403280D01*
X254000Y403280D02*
X254000Y384120D01*
X279400Y384120D02*
X279400Y403280D01*
X304800Y403280D02*
X304800Y384120D01*
X330200Y384120D02*
X330200Y403280D01*
X449580Y403280D02*
X449580Y384120D01*
X474980Y384120D02*
X474980Y403280D01*
X500380Y403280D02*
X500380Y384120D01*
X525780Y384120D02*
X525780Y403280D01*
X551180Y403280D02*
X551180Y384120D01*
D18*
X551180Y154940D03*
X474980Y154940D03*
D17*
X518740Y228600D02*
X537900Y228600D01*
X537900Y254000D02*
X518740Y254000D01*
X518740Y279400D02*
X537900Y279400D01*
X537900Y304800D02*
X518740Y304800D01*
D13*
X150000Y424060D03*
X150000Y347860D03*
D11*
X464820Y223520D03*
X490220Y223520D03*
X464820Y254000D03*
X490220Y254000D03*
D17*
X650820Y289560D02*
X669980Y289560D01*
X669980Y264160D02*
X650820Y264160D01*
X650820Y238760D02*
X669980Y238760D01*
D19*
X26572Y359000D02*
X25400Y360680D01*
X507000Y54000D02*
X520000Y41000D01*
X407670Y170180D02*
X407601Y170182D01*
X407533Y170187D01*
X407465Y170197D01*
X407397Y170210D01*
X407330Y170226D01*
X407264Y170246D01*
X407200Y170270D01*
X407137Y170297D01*
X407075Y170328D01*
X407015Y170362D01*
X406957Y170399D01*
X406901Y170439D01*
X406848Y170482D01*
X406797Y170528D01*
X406748Y170577D01*
X406702Y170628D01*
X406659Y170681D01*
X406619Y170737D01*
X406582Y170795D01*
X406548Y170855D01*
X406517Y170917D01*
X406490Y170980D01*
X406466Y171044D01*
X406446Y171110D01*
X406430Y171177D01*
X406417Y171245D01*
X406407Y171313D01*
X406402Y171381D01*
X406400Y171450D01*
X407670Y170180D02*
X434340Y170180D01*
X507000Y103140D02*
X507006Y103655D01*
X507025Y104170D01*
X507056Y104684D01*
X507100Y105198D01*
X507155Y105710D01*
X507224Y106221D01*
X507304Y106729D01*
X507397Y107236D01*
X507502Y107741D01*
X507620Y108242D01*
X507749Y108741D01*
X507890Y109236D01*
X508043Y109728D01*
X508209Y110216D01*
X508385Y110700D01*
X508574Y111180D01*
X508774Y111654D01*
X508985Y112124D01*
X509208Y112589D01*
X509442Y113048D01*
X509687Y113501D01*
X509943Y113948D01*
X510209Y114389D01*
X510486Y114824D01*
X510774Y115251D01*
X511072Y115672D01*
X511380Y116085D01*
X511697Y116490D01*
X512025Y116888D01*
X512362Y117278D01*
X512708Y117659D01*
X513063Y118032D01*
X513428Y118397D01*
X513801Y118752D01*
X514182Y119098D01*
X514572Y119435D01*
X514970Y119763D01*
X515375Y120080D01*
X515788Y120388D01*
X516209Y120686D01*
X516636Y120974D01*
X517071Y121251D01*
X517512Y121517D01*
X517959Y121773D01*
X518412Y122018D01*
X518871Y122252D01*
X519336Y122475D01*
X519806Y122686D01*
X520280Y122886D01*
X520760Y123075D01*
X521244Y123251D01*
X521732Y123417D01*
X522224Y123570D01*
X522719Y123711D01*
X523218Y123840D01*
X523719Y123958D01*
X524224Y124063D01*
X524731Y124156D01*
X525239Y124236D01*
X525750Y124305D01*
X526262Y124360D01*
X526776Y124404D01*
X527290Y124435D01*
X527805Y124454D01*
X528320Y124460D01*
X507000Y103140D02*
X507000Y54000D01*
X561340Y91440D02*
X560542Y91450D01*
X559745Y91479D01*
X558948Y91527D01*
X558153Y91594D01*
X557360Y91681D01*
X556569Y91786D01*
X555781Y91911D01*
X554996Y92055D01*
X554215Y92218D01*
X553438Y92400D01*
X552665Y92600D01*
X551898Y92819D01*
X551136Y93056D01*
X550380Y93312D01*
X549631Y93586D01*
X548888Y93878D01*
X548153Y94188D01*
X547425Y94515D01*
X546706Y94860D01*
X545995Y95222D01*
X545293Y95602D01*
X544600Y95998D01*
X543917Y96411D01*
X543245Y96840D01*
X542583Y97285D01*
X541931Y97746D01*
X541291Y98223D01*
X540663Y98715D01*
X540047Y99222D01*
X539444Y99744D01*
X538853Y100280D01*
X538275Y100831D01*
X537711Y101395D01*
X537160Y101973D01*
X536624Y102564D01*
X536102Y103167D01*
X535595Y103783D01*
X535103Y104411D01*
X534626Y105051D01*
X534165Y105703D01*
X533720Y106365D01*
X533291Y107037D01*
X532878Y107720D01*
X532482Y108413D01*
X532102Y109115D01*
X531740Y109826D01*
X531395Y110545D01*
X531068Y111273D01*
X530758Y112008D01*
X530466Y112751D01*
X530192Y113500D01*
X529936Y114256D01*
X529699Y115018D01*
X529480Y115785D01*
X529280Y116558D01*
X529098Y117335D01*
X528935Y118116D01*
X528791Y118901D01*
X528666Y119689D01*
X528561Y120480D01*
X528474Y121273D01*
X528407Y122068D01*
X528359Y122865D01*
X528330Y123662D01*
X528320Y124460D01*
X561340Y91440D02*
X589280Y91440D01*
X590078Y91450D01*
X590875Y91479D01*
X591672Y91527D01*
X592467Y91594D01*
X593260Y91681D01*
X594051Y91786D01*
X594839Y91911D01*
X595624Y92055D01*
X596405Y92218D01*
X597182Y92400D01*
X597955Y92600D01*
X598722Y92819D01*
X599484Y93056D01*
X600240Y93312D01*
X600989Y93586D01*
X601732Y93878D01*
X602467Y94188D01*
X603195Y94515D01*
X603914Y94860D01*
X604625Y95222D01*
X605327Y95602D01*
X606020Y95998D01*
X606703Y96411D01*
X607375Y96840D01*
X608037Y97285D01*
X608689Y97746D01*
X609329Y98223D01*
X609957Y98715D01*
X610573Y99222D01*
X611176Y99744D01*
X611767Y100280D01*
X612345Y100831D01*
X612909Y101395D01*
X613460Y101973D01*
X613996Y102564D01*
X614518Y103167D01*
X615025Y103783D01*
X615517Y104411D01*
X615994Y105051D01*
X616455Y105703D01*
X616900Y106365D01*
X617329Y107037D01*
X617742Y107720D01*
X618138Y108413D01*
X618518Y109115D01*
X618880Y109826D01*
X619225Y110545D01*
X619552Y111273D01*
X619862Y112008D01*
X620154Y112751D01*
X620428Y113500D01*
X620684Y114256D01*
X620921Y115018D01*
X621140Y115785D01*
X621340Y116558D01*
X621522Y117335D01*
X621685Y118116D01*
X621829Y118901D01*
X621954Y119689D01*
X622059Y120480D01*
X622146Y121273D01*
X622213Y122068D01*
X622261Y122865D01*
X622290Y123662D01*
X622300Y124460D01*
X96520Y416560D02*
X96520Y447040D01*
X96520Y416560D02*
X96504Y415210D01*
X96455Y413860D01*
X96373Y412512D01*
X96259Y411167D01*
X96113Y409824D01*
X95934Y408486D01*
X95722Y407152D01*
X95479Y405824D01*
X95204Y404502D01*
X94896Y403187D01*
X94557Y401880D01*
X94187Y400581D01*
X93785Y399292D01*
X93352Y398013D01*
X92889Y396745D01*
X92395Y395488D01*
X91870Y394244D01*
X91316Y393012D01*
X90732Y391794D01*
X90119Y390591D01*
X89477Y389403D01*
X88807Y388231D01*
X88108Y387075D01*
X87382Y385937D01*
X86628Y384817D01*
X85848Y383715D01*
X85041Y382632D01*
X84208Y381569D01*
X83350Y380526D01*
X82467Y379505D01*
X81559Y378505D01*
X80628Y377527D01*
X79673Y376572D01*
X78695Y375641D01*
X77695Y374733D01*
X76674Y373850D01*
X75631Y372992D01*
X74568Y372159D01*
X73485Y371352D01*
X72383Y370572D01*
X71263Y369818D01*
X70125Y369092D01*
X68969Y368393D01*
X67797Y367723D01*
X66609Y367081D01*
X65406Y366468D01*
X64188Y365884D01*
X62956Y365330D01*
X61712Y364805D01*
X60455Y364311D01*
X59187Y363848D01*
X57908Y363415D01*
X56619Y363013D01*
X55320Y362643D01*
X54013Y362304D01*
X52698Y361996D01*
X51376Y361721D01*
X50048Y361478D01*
X48714Y361266D01*
X47376Y361087D01*
X46033Y360941D01*
X44688Y360827D01*
X43340Y360745D01*
X41990Y360696D01*
X40640Y360680D01*
X25400Y360680D01*
X434340Y170180D02*
X434342Y170364D01*
X434349Y170548D01*
X434360Y170732D01*
X434376Y170915D01*
X434396Y171098D01*
X434420Y171281D01*
X434449Y171463D01*
X434482Y171644D01*
X434520Y171824D01*
X434561Y172004D01*
X434608Y172182D01*
X434658Y172359D01*
X434713Y172535D01*
X434772Y172709D01*
X434835Y172882D01*
X434903Y173053D01*
X434974Y173223D01*
X435050Y173391D01*
X435129Y173557D01*
X435213Y173721D01*
X435300Y173883D01*
X435392Y174043D01*
X435487Y174201D01*
X435586Y174356D01*
X435689Y174509D01*
X435795Y174659D01*
X435905Y174807D01*
X436019Y174952D01*
X436136Y175094D01*
X436256Y175233D01*
X436380Y175369D01*
X436507Y175503D01*
X436637Y175633D01*
X436771Y175760D01*
X436907Y175884D01*
X437046Y176004D01*
X437188Y176121D01*
X437333Y176235D01*
X437481Y176345D01*
X437631Y176451D01*
X437784Y176554D01*
X437939Y176653D01*
X438097Y176748D01*
X438257Y176840D01*
X438419Y176927D01*
X438583Y177011D01*
X438749Y177090D01*
X438917Y177166D01*
X439087Y177237D01*
X439258Y177305D01*
X439431Y177368D01*
X439605Y177427D01*
X439781Y177482D01*
X439958Y177532D01*
X440136Y177579D01*
X440316Y177620D01*
X440496Y177658D01*
X440677Y177691D01*
X440859Y177720D01*
X441042Y177744D01*
X441225Y177764D01*
X441408Y177780D01*
X441592Y177791D01*
X441776Y177798D01*
X441960Y177800D01*
X485140Y177800D01*
X486183Y177787D01*
X487226Y177750D01*
X488268Y177687D01*
X489307Y177598D01*
X490345Y177485D01*
X491379Y177347D01*
X492410Y177184D01*
X493436Y176996D01*
X494458Y176783D01*
X495474Y176545D01*
X496484Y176283D01*
X497487Y175997D01*
X498483Y175687D01*
X499472Y175352D01*
X500452Y174994D01*
X501423Y174612D01*
X502385Y174207D01*
X503336Y173779D01*
X504277Y173328D01*
X505207Y172854D01*
X506125Y172358D01*
X507031Y171840D01*
X507924Y171300D01*
X508803Y170739D01*
X509669Y170156D01*
X510521Y169553D01*
X511357Y168930D01*
X512179Y168286D01*
X512984Y167623D01*
X513774Y166941D01*
X514546Y166239D01*
X515302Y165520D01*
X516040Y164782D01*
X516759Y164026D01*
X517461Y163254D01*
X518143Y162464D01*
X518806Y161659D01*
X519450Y160837D01*
X520073Y160001D01*
X520676Y159149D01*
X521259Y158283D01*
X521820Y157404D01*
X522360Y156511D01*
X522878Y155605D01*
X523374Y154687D01*
X523848Y153757D01*
X524299Y152816D01*
X524727Y151865D01*
X525132Y150903D01*
X525514Y149932D01*
X525872Y148952D01*
X526207Y147963D01*
X526517Y146967D01*
X526803Y145964D01*
X527065Y144954D01*
X527303Y143938D01*
X527516Y142916D01*
X527704Y141890D01*
X527867Y140859D01*
X528005Y139825D01*
X528118Y138787D01*
X528207Y137748D01*
X528270Y136706D01*
X528307Y135663D01*
X528320Y134620D01*
X528320Y124460D01*
X121920Y472440D02*
X121306Y472433D01*
X120693Y472410D01*
X120080Y472373D01*
X119469Y472321D01*
X118858Y472255D01*
X118250Y472173D01*
X117644Y472077D01*
X117040Y471967D01*
X116439Y471842D01*
X115841Y471702D01*
X115247Y471548D01*
X114657Y471379D01*
X114071Y471197D01*
X113490Y471000D01*
X112913Y470789D01*
X112342Y470565D01*
X111776Y470327D01*
X111216Y470075D01*
X110663Y469809D01*
X110116Y469531D01*
X109576Y469239D01*
X109043Y468934D01*
X108518Y468616D01*
X108000Y468286D01*
X107491Y467944D01*
X106990Y467589D01*
X106498Y467222D01*
X106015Y466844D01*
X105541Y466454D01*
X105077Y466052D01*
X104622Y465640D01*
X104178Y465216D01*
X103744Y464782D01*
X103320Y464338D01*
X102908Y463883D01*
X102506Y463419D01*
X102116Y462945D01*
X101738Y462462D01*
X101371Y461970D01*
X101016Y461469D01*
X100674Y460960D01*
X100344Y460442D01*
X100026Y459917D01*
X99721Y459384D01*
X99429Y458844D01*
X99151Y458297D01*
X98885Y457744D01*
X98633Y457184D01*
X98395Y456618D01*
X98171Y456047D01*
X97960Y455470D01*
X97763Y454889D01*
X97581Y454303D01*
X97412Y453713D01*
X97258Y453119D01*
X97118Y452521D01*
X96993Y451920D01*
X96883Y451316D01*
X96787Y450710D01*
X96705Y450102D01*
X96639Y449491D01*
X96587Y448880D01*
X96550Y448267D01*
X96527Y447654D01*
X96520Y447040D01*
X121920Y472440D02*
X607060Y472440D01*
X607428Y472436D01*
X607796Y472422D01*
X608164Y472400D01*
X608531Y472369D01*
X608897Y472329D01*
X609262Y472280D01*
X609626Y472222D01*
X609988Y472156D01*
X610349Y472081D01*
X610707Y471997D01*
X611064Y471905D01*
X611418Y471804D01*
X611769Y471694D01*
X612118Y471576D01*
X612464Y471450D01*
X612807Y471315D01*
X613146Y471172D01*
X613482Y471021D01*
X613814Y470862D01*
X614142Y470694D01*
X614466Y470519D01*
X614786Y470336D01*
X615101Y470146D01*
X615412Y469948D01*
X615717Y469742D01*
X616018Y469529D01*
X616313Y469309D01*
X616603Y469082D01*
X616887Y468848D01*
X617166Y468607D01*
X617439Y468360D01*
X617705Y468106D01*
X617966Y467845D01*
X618220Y467579D01*
X618467Y467306D01*
X618708Y467027D01*
X618942Y466743D01*
X619169Y466453D01*
X619389Y466158D01*
X619602Y465857D01*
X619808Y465552D01*
X620006Y465241D01*
X620196Y464926D01*
X620379Y464606D01*
X620554Y464282D01*
X620722Y463954D01*
X620881Y463622D01*
X621032Y463286D01*
X621175Y462947D01*
X621310Y462604D01*
X621436Y462258D01*
X621554Y461909D01*
X621664Y461558D01*
X621765Y461204D01*
X621857Y460847D01*
X621941Y460489D01*
X622016Y460128D01*
X622082Y459766D01*
X622140Y459402D01*
X622189Y459037D01*
X622229Y458671D01*
X622260Y458304D01*
X622282Y457936D01*
X622296Y457568D01*
X622300Y457200D01*
X622300Y124460D01*
X520340Y40640D02*
X520000Y41000D01*
X177000Y320000D02*
X150000Y347000D01*
X177000Y320000D02*
X177000Y274000D01*
X150000Y347000D02*
X150000Y347860D01*
X177000Y274000D02*
X177800Y273050D01*
X176450Y122000D02*
X176521Y121998D01*
X176591Y121993D01*
X176661Y121983D01*
X176731Y121970D01*
X176799Y121954D01*
X176867Y121934D01*
X176934Y121910D01*
X176999Y121883D01*
X177063Y121853D01*
X177125Y121819D01*
X177185Y121782D01*
X177244Y121742D01*
X177300Y121699D01*
X177353Y121653D01*
X177405Y121605D01*
X177453Y121553D01*
X177499Y121500D01*
X177542Y121444D01*
X177582Y121385D01*
X177619Y121325D01*
X177653Y121263D01*
X177683Y121199D01*
X177710Y121134D01*
X177734Y121067D01*
X177754Y120999D01*
X177770Y120931D01*
X177783Y120861D01*
X177793Y120791D01*
X177798Y120721D01*
X177800Y120650D01*
X176450Y122000D02*
X149700Y122000D01*
X134700Y122000D01*
X134620Y121920D01*
X25400Y231140D02*
X25400Y284480D01*
X130490Y126050D02*
X134620Y121920D01*
X130490Y126050D02*
X130441Y126050D01*
X62583Y209886D02*
X61771Y212803D01*
X56935Y215533D01*
X31680Y224860D02*
X25400Y231140D01*
X62583Y209886D02*
X116520Y155949D01*
X116520Y139971D02*
X130441Y126050D01*
X116520Y139971D02*
X116520Y155949D01*
X56935Y215533D02*
X47609Y224860D01*
X31680Y224860D01*
X379730Y68580D02*
X406400Y95250D01*
X379730Y68580D02*
X114300Y68580D01*
X96520Y86360D01*
X96520Y147664D02*
X44724Y199460D01*
X96520Y101600D02*
X96520Y86360D01*
X96520Y101600D02*
X96520Y147664D01*
X22940Y101600D02*
X22860Y101680D01*
X22940Y101600D02*
X96520Y101600D01*
X38100Y203200D02*
X22860Y203280D01*
X38100Y203200D02*
X44724Y199460D01*
X528080Y304000D02*
X528320Y304800D01*
X406400Y95250D02*
X406402Y95181D01*
X406407Y95113D01*
X406417Y95045D01*
X406430Y94977D01*
X406446Y94910D01*
X406466Y94844D01*
X406490Y94780D01*
X406517Y94717D01*
X406548Y94655D01*
X406582Y94595D01*
X406619Y94537D01*
X406659Y94481D01*
X406702Y94428D01*
X406748Y94377D01*
X406797Y94328D01*
X406848Y94282D01*
X406901Y94239D01*
X406957Y94199D01*
X407015Y94162D01*
X407075Y94128D01*
X407137Y94097D01*
X407200Y94070D01*
X407264Y94046D01*
X407330Y94026D01*
X407397Y94010D01*
X407465Y93997D01*
X407533Y93987D01*
X407601Y93982D01*
X407670Y93980D01*
X487680Y304800D02*
X528320Y304800D01*
D20*
X487680Y304800D03*
D19*
X406400Y95250D02*
X406402Y95181D01*
X406407Y95113D01*
X406417Y95045D01*
X406430Y94977D01*
X406446Y94910D01*
X406466Y94844D01*
X406490Y94780D01*
X406517Y94717D01*
X406548Y94655D01*
X406582Y94595D01*
X406619Y94537D01*
X406659Y94481D01*
X406702Y94428D01*
X406748Y94377D01*
X406797Y94328D01*
X406848Y94282D01*
X406901Y94239D01*
X406957Y94199D01*
X407015Y94162D01*
X407075Y94128D01*
X407137Y94097D01*
X407200Y94070D01*
X407264Y94046D01*
X407330Y94026D01*
X407397Y94010D01*
X407465Y93997D01*
X407533Y93987D01*
X407601Y93982D01*
X407670Y93980D01*
X434340Y93980D01*
D20*
X434340Y93980D03*
X647700Y330200D03*
D19*
X648007Y330196D01*
X648314Y330185D01*
X648620Y330167D01*
X648926Y330141D01*
X649231Y330107D01*
X649535Y330067D01*
X649838Y330019D01*
X650140Y329963D01*
X650440Y329901D01*
X650739Y329831D01*
X651036Y329754D01*
X651332Y329670D01*
X651625Y329578D01*
X651915Y329480D01*
X652203Y329375D01*
X652489Y329262D01*
X652772Y329143D01*
X653052Y329017D01*
X653329Y328885D01*
X653602Y328745D01*
X653872Y328599D01*
X654138Y328447D01*
X654401Y328288D01*
X654660Y328123D01*
X654914Y327952D01*
X655165Y327775D01*
X655411Y327591D01*
X655653Y327402D01*
X655889Y327207D01*
X656122Y327006D01*
X656349Y326800D01*
X656571Y326588D01*
X656788Y326371D01*
X657000Y326149D01*
X657206Y325922D01*
X657407Y325689D01*
X657602Y325453D01*
X657791Y325211D01*
X657975Y324965D01*
X658152Y324714D01*
X658323Y324460D01*
X658488Y324201D01*
X658647Y323938D01*
X658799Y323672D01*
X658945Y323402D01*
X659085Y323129D01*
X659217Y322852D01*
X659343Y322572D01*
X659462Y322289D01*
X659575Y322003D01*
X659680Y321715D01*
X659778Y321425D01*
X659870Y321132D01*
X659954Y320836D01*
X660031Y320539D01*
X660101Y320240D01*
X660163Y319940D01*
X660219Y319638D01*
X660267Y319335D01*
X660307Y319031D01*
X660341Y318726D01*
X660367Y318420D01*
X660385Y318114D01*
X660396Y317807D01*
X660400Y317500D01*
X660400Y289560D01*
X228000Y226000D02*
X228000Y393000D01*
X228600Y393700D01*
X198850Y196850D02*
X177800Y196850D01*
X198850Y196850D02*
X228000Y226000D01*
X50800Y309880D02*
X25400Y309880D01*
X50800Y309880D02*
X66040Y294640D01*
X158750Y146050D02*
X177800Y146050D01*
X158750Y146050D02*
X157480Y144780D01*
X79861Y222399D01*
X78818Y226146D01*
X72608Y229652D01*
X66040Y236220D01*
X66040Y294640D01*
X406400Y222250D02*
X407000Y222000D01*
X413000Y223000D02*
X464700Y223000D01*
X464820Y223520D01*
X413000Y223000D02*
X406400Y222250D01*
X464153Y253981D02*
X464153Y254000D01*
X464153Y253981D02*
X464820Y223520D01*
X465000Y254000D02*
X464820Y254000D01*
X465000Y254000D02*
X464153Y253981D01*
X407000Y273000D02*
X406400Y273050D01*
X410000Y278000D02*
X411000Y279000D01*
X528080Y279000D01*
X410000Y278000D02*
X406400Y273050D01*
X528080Y279000D02*
X528320Y279400D01*
X528320Y254000D02*
X520460Y254000D01*
X528320Y254000D02*
X490220Y254000D01*
X436000Y394000D02*
X422000Y408000D01*
X436000Y394000D02*
X449000Y394000D01*
X449580Y393700D01*
D20*
X106000Y289000D03*
X422000Y408000D03*
D19*
X177800Y222250D02*
X148590Y222250D01*
X106000Y264840D02*
X106000Y289000D01*
X106000Y264840D02*
X148590Y222250D01*
X254000Y218440D02*
X254000Y393700D01*
X207010Y171450D02*
X177800Y171450D01*
X207010Y171450D02*
X254000Y218440D01*
X407000Y197000D02*
X410000Y200000D01*
X539000Y200000D01*
X475000Y409000D02*
X491000Y425000D01*
X475000Y409000D02*
X475000Y394000D01*
X407000Y197000D02*
X406400Y196850D01*
X539000Y200000D02*
X539002Y200049D01*
X539007Y200098D01*
X539017Y200147D01*
X539029Y200195D01*
X539046Y200241D01*
X539065Y200286D01*
X539088Y200330D01*
X539115Y200372D01*
X539144Y200412D01*
X539176Y200449D01*
X539211Y200484D01*
X539248Y200516D01*
X539288Y200545D01*
X539330Y200572D01*
X539374Y200595D01*
X539419Y200614D01*
X539465Y200631D01*
X539513Y200643D01*
X539562Y200653D01*
X539611Y200658D01*
X539660Y200660D01*
X568960Y200660D01*
X569267Y200664D01*
X569574Y200675D01*
X569880Y200693D01*
X570186Y200719D01*
X570491Y200753D01*
X570795Y200793D01*
X571098Y200841D01*
X571400Y200897D01*
X571700Y200959D01*
X571999Y201029D01*
X572296Y201106D01*
X572592Y201190D01*
X572885Y201282D01*
X573175Y201380D01*
X573463Y201485D01*
X573749Y201598D01*
X574032Y201717D01*
X574312Y201843D01*
X574589Y201975D01*
X574862Y202115D01*
X575132Y202261D01*
X575398Y202413D01*
X575661Y202572D01*
X575920Y202737D01*
X576174Y202908D01*
X576425Y203085D01*
X576671Y203269D01*
X576913Y203458D01*
X577149Y203653D01*
X577382Y203854D01*
X577609Y204060D01*
X577831Y204272D01*
X578048Y204489D01*
X578260Y204711D01*
X578466Y204938D01*
X578667Y205171D01*
X578862Y205407D01*
X579051Y205649D01*
X579235Y205895D01*
X579412Y206146D01*
X579583Y206400D01*
X579748Y206659D01*
X579907Y206922D01*
X580059Y207188D01*
X580205Y207458D01*
X580345Y207731D01*
X580477Y208008D01*
X580603Y208288D01*
X580722Y208571D01*
X580835Y208857D01*
X580940Y209145D01*
X581038Y209435D01*
X581130Y209728D01*
X581214Y210024D01*
X581291Y210321D01*
X581361Y210620D01*
X581423Y210920D01*
X581479Y211222D01*
X581527Y211525D01*
X581567Y211829D01*
X581601Y212134D01*
X581627Y212440D01*
X581645Y212746D01*
X581656Y213053D01*
X581660Y213360D01*
X581660Y414020D02*
X581657Y414285D01*
X581647Y414550D01*
X581631Y414815D01*
X581609Y415080D01*
X581580Y415343D01*
X581545Y415606D01*
X581503Y415869D01*
X581455Y416130D01*
X581401Y416389D01*
X581341Y416648D01*
X581274Y416905D01*
X581202Y417160D01*
X581123Y417413D01*
X581038Y417664D01*
X580946Y417914D01*
X580849Y418161D01*
X580746Y418405D01*
X580637Y418647D01*
X580523Y418886D01*
X580402Y419123D01*
X580276Y419356D01*
X580144Y419586D01*
X580007Y419813D01*
X579864Y420037D01*
X579716Y420257D01*
X579563Y420474D01*
X579404Y420687D01*
X579241Y420896D01*
X579072Y421100D01*
X578899Y421301D01*
X578720Y421498D01*
X578537Y421690D01*
X578350Y421877D01*
X578158Y422060D01*
X577961Y422239D01*
X577760Y422412D01*
X577556Y422581D01*
X577347Y422744D01*
X577134Y422903D01*
X576917Y423056D01*
X576697Y423204D01*
X576473Y423347D01*
X576246Y423484D01*
X576016Y423616D01*
X575783Y423742D01*
X575546Y423863D01*
X575307Y423977D01*
X575065Y424086D01*
X574821Y424189D01*
X574574Y424286D01*
X574324Y424378D01*
X574073Y424463D01*
X573820Y424542D01*
X573565Y424614D01*
X573308Y424681D01*
X573049Y424741D01*
X572790Y424795D01*
X572529Y424843D01*
X572266Y424885D01*
X572003Y424920D01*
X571740Y424949D01*
X571475Y424971D01*
X571210Y424987D01*
X570945Y424997D01*
X570680Y425000D01*
X581660Y414020D02*
X581660Y213360D01*
X570680Y425000D02*
X491000Y425000D01*
X475000Y394000D02*
X474980Y393700D01*
X140300Y312780D02*
X140080Y313000D01*
D20*
X140300Y312780D03*
D19*
X464820Y144780D02*
X465066Y144783D01*
X465311Y144792D01*
X465556Y144807D01*
X465801Y144827D01*
X466045Y144854D01*
X466288Y144887D01*
X466531Y144925D01*
X466772Y144969D01*
X467012Y145019D01*
X467251Y145075D01*
X467489Y145137D01*
X467725Y145204D01*
X467960Y145277D01*
X468192Y145356D01*
X468423Y145440D01*
X468651Y145530D01*
X468878Y145625D01*
X469101Y145726D01*
X469323Y145832D01*
X469542Y145944D01*
X469758Y146060D01*
X469971Y146182D01*
X470181Y146309D01*
X470388Y146441D01*
X470592Y146578D01*
X470792Y146720D01*
X470989Y146867D01*
X471182Y147019D01*
X471372Y147175D01*
X471557Y147335D01*
X471739Y147500D01*
X471917Y147670D01*
X472090Y147843D01*
X472260Y148021D01*
X472425Y148203D01*
X472585Y148388D01*
X472741Y148578D01*
X472893Y148771D01*
X473040Y148968D01*
X473182Y149168D01*
X473319Y149372D01*
X473451Y149579D01*
X473578Y149789D01*
X473700Y150002D01*
X473816Y150218D01*
X473928Y150437D01*
X474034Y150659D01*
X474135Y150882D01*
X474230Y151109D01*
X474320Y151337D01*
X474404Y151568D01*
X474483Y151800D01*
X474556Y152035D01*
X474623Y152271D01*
X474685Y152509D01*
X474741Y152748D01*
X474791Y152988D01*
X474835Y153229D01*
X474873Y153472D01*
X474906Y153715D01*
X474933Y153959D01*
X474953Y154204D01*
X474968Y154449D01*
X474977Y154694D01*
X474980Y154940D01*
X407670Y144780D02*
X407601Y144782D01*
X407533Y144787D01*
X407465Y144797D01*
X407397Y144810D01*
X407330Y144826D01*
X407264Y144846D01*
X407200Y144870D01*
X407137Y144897D01*
X407075Y144928D01*
X407015Y144962D01*
X406957Y144999D01*
X406901Y145039D01*
X406848Y145082D01*
X406797Y145128D01*
X406748Y145177D01*
X406702Y145228D01*
X406659Y145281D01*
X406619Y145337D01*
X406582Y145395D01*
X406548Y145455D01*
X406517Y145517D01*
X406490Y145580D01*
X406466Y145644D01*
X406446Y145710D01*
X406430Y145777D01*
X406417Y145845D01*
X406407Y145913D01*
X406402Y145981D01*
X406400Y146050D01*
X407670Y144780D02*
X464820Y144780D01*
X406400Y146050D02*
X406398Y146119D01*
X406393Y146187D01*
X406383Y146255D01*
X406370Y146323D01*
X406354Y146390D01*
X406334Y146456D01*
X406310Y146520D01*
X406283Y146583D01*
X406252Y146645D01*
X406218Y146705D01*
X406181Y146763D01*
X406141Y146819D01*
X406098Y146872D01*
X406052Y146923D01*
X406003Y146972D01*
X405952Y147018D01*
X405899Y147061D01*
X405843Y147101D01*
X405785Y147138D01*
X405725Y147172D01*
X405663Y147203D01*
X405600Y147230D01*
X405536Y147254D01*
X405470Y147274D01*
X405403Y147290D01*
X405335Y147303D01*
X405267Y147313D01*
X405199Y147318D01*
X405130Y147320D01*
X365760Y147320D01*
D20*
X365760Y147320D03*
D19*
X26000Y335000D02*
X25400Y335280D01*
X124460Y335280D02*
X124837Y335275D01*
X125215Y335262D01*
X125591Y335239D01*
X125968Y335207D01*
X126343Y335166D01*
X126717Y335116D01*
X127090Y335057D01*
X127461Y334989D01*
X127831Y334912D01*
X128198Y334826D01*
X128563Y334731D01*
X128926Y334628D01*
X129287Y334516D01*
X129644Y334395D01*
X129999Y334265D01*
X130350Y334127D01*
X130698Y333980D01*
X131042Y333825D01*
X131383Y333662D01*
X131719Y333491D01*
X132051Y333311D01*
X132379Y333124D01*
X132702Y332929D01*
X133020Y332726D01*
X133333Y332515D01*
X133641Y332297D01*
X133944Y332071D01*
X134241Y331839D01*
X134532Y331599D01*
X134818Y331352D01*
X135097Y331098D01*
X135371Y330838D01*
X135638Y330571D01*
X135898Y330297D01*
X136152Y330018D01*
X136399Y329732D01*
X136639Y329441D01*
X136871Y329144D01*
X137097Y328841D01*
X137315Y328533D01*
X137526Y328220D01*
X137729Y327902D01*
X137924Y327579D01*
X138111Y327251D01*
X138291Y326919D01*
X138462Y326583D01*
X138625Y326242D01*
X138780Y325898D01*
X138927Y325550D01*
X139065Y325199D01*
X139195Y324844D01*
X139316Y324487D01*
X139428Y324126D01*
X139531Y323763D01*
X139626Y323398D01*
X139712Y323031D01*
X139789Y322661D01*
X139857Y322290D01*
X139916Y321917D01*
X139966Y321543D01*
X140007Y321168D01*
X140039Y320791D01*
X140062Y320415D01*
X140075Y320037D01*
X140080Y319660D01*
X140080Y313000D01*
X124460Y335280D02*
X25400Y335280D01*
X527640Y228240D02*
X528320Y228600D01*
X490700Y224000D02*
X490220Y223520D01*
X524080Y224000D02*
X528320Y228600D01*
X518460Y224000D02*
X496000Y224000D01*
X490220Y223520D01*
X518460Y224000D02*
X528320Y228600D01*
X147080Y43180D02*
X121760Y43180D01*
X147080Y43180D02*
X149700Y45800D01*
X473800Y39100D02*
X475340Y40640D01*
X63000Y126000D02*
X63000Y149000D01*
X74000Y77000D02*
X106000Y45000D01*
X116000Y45000D01*
X121760Y43180D01*
D20*
X63000Y126000D03*
X74000Y77000D03*
D19*
X63000Y149000D02*
X58420Y152400D01*
X407000Y120000D02*
X410000Y117000D01*
X407000Y120000D02*
X406400Y120650D01*
X401000Y121000D01*
X331000Y393000D02*
X330200Y393700D01*
X415000Y118000D02*
X468000Y118000D01*
X468000Y95000D01*
X487000Y76000D01*
X487000Y49000D01*
X481000Y43000D01*
X415000Y118000D02*
X406400Y120650D01*
X406398Y120719D01*
X406393Y120787D01*
X406383Y120855D01*
X406370Y120923D01*
X406354Y120990D01*
X406334Y121056D01*
X406310Y121120D01*
X406283Y121183D01*
X406252Y121245D01*
X406218Y121305D01*
X406181Y121363D01*
X406141Y121419D01*
X406098Y121472D01*
X406052Y121523D01*
X406003Y121572D01*
X405952Y121618D01*
X405899Y121661D01*
X405843Y121701D01*
X405785Y121738D01*
X405725Y121772D01*
X405663Y121803D01*
X405600Y121830D01*
X405536Y121854D01*
X405470Y121874D01*
X405403Y121890D01*
X405335Y121903D01*
X405267Y121913D01*
X405199Y121918D01*
X405130Y121920D01*
X358140Y121920D01*
X357484Y121928D01*
X356829Y121952D01*
X356174Y121991D01*
X355521Y122047D01*
X354869Y122118D01*
X354219Y122205D01*
X353571Y122307D01*
X352926Y122426D01*
X352284Y122559D01*
X351645Y122709D01*
X351010Y122873D01*
X350379Y123053D01*
X349753Y123248D01*
X349132Y123459D01*
X348516Y123684D01*
X347906Y123924D01*
X347301Y124178D01*
X346703Y124447D01*
X346112Y124731D01*
X345527Y125029D01*
X344950Y125341D01*
X344381Y125666D01*
X343820Y126005D01*
X343267Y126358D01*
X342723Y126724D01*
X342188Y127103D01*
X341662Y127495D01*
X341145Y127900D01*
X340639Y128316D01*
X340143Y128745D01*
X339657Y129186D01*
X339182Y129639D01*
X338719Y130102D01*
X338266Y130577D01*
X337825Y131063D01*
X337396Y131559D01*
X336980Y132065D01*
X336575Y132582D01*
X336183Y133108D01*
X335804Y133643D01*
X335438Y134187D01*
X335085Y134740D01*
X334746Y135301D01*
X334421Y135870D01*
X334109Y136447D01*
X333811Y137032D01*
X333527Y137623D01*
X333258Y138221D01*
X333004Y138826D01*
X332764Y139436D01*
X332539Y140052D01*
X332328Y140673D01*
X332133Y141299D01*
X331953Y141930D01*
X331789Y142565D01*
X331639Y143204D01*
X331506Y143846D01*
X331387Y144491D01*
X331285Y145139D01*
X331198Y145789D01*
X331127Y146441D01*
X331071Y147094D01*
X331032Y147749D01*
X331008Y148404D01*
X331000Y149060D01*
X331000Y393000D01*
X330200Y393700D02*
X330219Y392166D01*
X330274Y390632D01*
X330367Y389100D01*
X330496Y387571D01*
X330663Y386046D01*
X330866Y384525D01*
X331106Y383009D01*
X331383Y381500D01*
X331696Y379998D01*
X332045Y378503D01*
X332430Y377018D01*
X332851Y375542D01*
X333308Y374077D01*
X333800Y372624D01*
X334326Y371183D01*
X334888Y369754D01*
X335484Y368340D01*
X336113Y366941D01*
X336777Y365557D01*
X337474Y364190D01*
X338203Y362840D01*
X338965Y361508D01*
X339759Y360195D01*
X340584Y358901D01*
X341441Y357628D01*
X342327Y356376D01*
X343244Y355145D01*
X344191Y353937D01*
X345166Y352753D01*
X346170Y351592D01*
X347201Y350455D01*
X348259Y349345D01*
X349345Y348259D01*
X350455Y347201D01*
X351592Y346170D01*
X352753Y345166D01*
X353937Y344191D01*
X355145Y343244D01*
X356376Y342327D01*
X357628Y341441D01*
X358901Y340584D01*
X360195Y339759D01*
X361508Y338965D01*
X362840Y338203D01*
X364190Y337474D01*
X365557Y336777D01*
X366941Y336113D01*
X368340Y335484D01*
X369754Y334888D01*
X371183Y334326D01*
X372624Y333800D01*
X374077Y333308D01*
X375542Y332851D01*
X377018Y332430D01*
X378503Y332045D01*
X379998Y331696D01*
X381500Y331383D01*
X383009Y331106D01*
X384525Y330866D01*
X386046Y330663D01*
X387571Y330496D01*
X389100Y330367D01*
X390632Y330274D01*
X392166Y330219D01*
X393700Y330200D01*
X530860Y226060D02*
X534000Y226060D01*
X556260Y226060D01*
X556400Y226062D01*
X556540Y226068D01*
X556680Y226077D01*
X556819Y226091D01*
X556958Y226108D01*
X557096Y226129D01*
X557234Y226154D01*
X557371Y226183D01*
X557507Y226215D01*
X557642Y226252D01*
X557776Y226292D01*
X557909Y226335D01*
X558041Y226383D01*
X558172Y226433D01*
X558301Y226488D01*
X558428Y226546D01*
X558554Y226607D01*
X558678Y226672D01*
X558800Y226741D01*
X558920Y226812D01*
X559038Y226887D01*
X559155Y226965D01*
X559269Y227047D01*
X559380Y227131D01*
X559489Y227219D01*
X559596Y227309D01*
X559701Y227403D01*
X559802Y227499D01*
X559901Y227598D01*
X559997Y227699D01*
X560091Y227804D01*
X560181Y227911D01*
X560269Y228020D01*
X560353Y228131D01*
X560435Y228245D01*
X560513Y228362D01*
X560588Y228480D01*
X560659Y228600D01*
X560728Y228722D01*
X560793Y228846D01*
X560854Y228972D01*
X560912Y229099D01*
X560967Y229228D01*
X561017Y229359D01*
X561065Y229491D01*
X561108Y229624D01*
X561148Y229758D01*
X561185Y229893D01*
X561217Y230029D01*
X561246Y230166D01*
X561271Y230304D01*
X561292Y230442D01*
X561309Y230581D01*
X561323Y230720D01*
X561332Y230860D01*
X561338Y231000D01*
X561340Y231140D01*
X561340Y330200D01*
X561340Y355600D01*
X561094Y355603D01*
X560849Y355612D01*
X560604Y355627D01*
X560359Y355647D01*
X560115Y355674D01*
X559872Y355707D01*
X559629Y355745D01*
X559388Y355789D01*
X559148Y355839D01*
X558909Y355895D01*
X558671Y355957D01*
X558435Y356024D01*
X558200Y356097D01*
X557968Y356176D01*
X557737Y356260D01*
X557509Y356350D01*
X557282Y356445D01*
X557059Y356546D01*
X556837Y356652D01*
X556618Y356764D01*
X556402Y356880D01*
X556189Y357002D01*
X555979Y357129D01*
X555772Y357261D01*
X555568Y357398D01*
X555368Y357540D01*
X555171Y357687D01*
X554978Y357839D01*
X554788Y357995D01*
X554603Y358155D01*
X554421Y358320D01*
X554243Y358490D01*
X554070Y358663D01*
X553900Y358841D01*
X553735Y359023D01*
X553575Y359208D01*
X553419Y359398D01*
X553267Y359591D01*
X553120Y359788D01*
X552978Y359988D01*
X552841Y360192D01*
X552709Y360399D01*
X552582Y360609D01*
X552460Y360822D01*
X552344Y361038D01*
X552232Y361257D01*
X552126Y361479D01*
X552025Y361702D01*
X551930Y361929D01*
X551840Y362157D01*
X551756Y362388D01*
X551677Y362620D01*
X551604Y362855D01*
X551537Y363091D01*
X551475Y363329D01*
X551419Y363568D01*
X551369Y363808D01*
X551325Y364049D01*
X551287Y364292D01*
X551254Y364535D01*
X551227Y364779D01*
X551207Y365024D01*
X551192Y365269D01*
X551183Y365514D01*
X551180Y365760D01*
X561340Y330200D02*
X393700Y330200D01*
X551180Y365760D02*
X551180Y393700D01*
X483700Y49000D02*
X483498Y48998D01*
X483296Y48990D01*
X483094Y48978D01*
X482893Y48961D01*
X482692Y48939D01*
X482492Y48912D01*
X482293Y48881D01*
X482094Y48844D01*
X481896Y48803D01*
X481699Y48757D01*
X481504Y48706D01*
X481309Y48651D01*
X481117Y48591D01*
X480925Y48526D01*
X480736Y48457D01*
X480547Y48383D01*
X480361Y48304D01*
X480177Y48221D01*
X479995Y48134D01*
X479815Y48042D01*
X479637Y47946D01*
X479462Y47846D01*
X479289Y47742D01*
X479119Y47633D01*
X478951Y47520D01*
X478786Y47403D01*
X478624Y47283D01*
X478465Y47158D01*
X478309Y47030D01*
X478156Y46898D01*
X478007Y46762D01*
X477860Y46622D01*
X477718Y46480D01*
X477578Y46333D01*
X477442Y46184D01*
X477310Y46031D01*
X477182Y45875D01*
X477057Y45716D01*
X476937Y45554D01*
X476820Y45389D01*
X476707Y45221D01*
X476598Y45051D01*
X476494Y44878D01*
X476394Y44703D01*
X476298Y44525D01*
X476206Y44345D01*
X476119Y44163D01*
X476036Y43979D01*
X475957Y43793D01*
X475883Y43604D01*
X475814Y43415D01*
X475749Y43223D01*
X475689Y43031D01*
X475634Y42836D01*
X475583Y42641D01*
X475537Y42444D01*
X475496Y42246D01*
X475459Y42047D01*
X475428Y41848D01*
X475401Y41648D01*
X475379Y41447D01*
X475362Y41246D01*
X475350Y41044D01*
X475342Y40842D01*
X475340Y40640D01*
X483700Y49000D02*
X487000Y49000D01*
X469160Y116840D02*
X469095Y116842D01*
X469030Y116847D01*
X468966Y116856D01*
X468902Y116869D01*
X468839Y116885D01*
X468777Y116905D01*
X468716Y116928D01*
X468657Y116955D01*
X468599Y116985D01*
X468543Y117018D01*
X468489Y117054D01*
X468437Y117093D01*
X468387Y117135D01*
X468340Y117180D01*
X468295Y117227D01*
X468253Y117277D01*
X468214Y117329D01*
X468178Y117383D01*
X468145Y117439D01*
X468115Y117497D01*
X468088Y117556D01*
X468065Y117617D01*
X468045Y117679D01*
X468029Y117742D01*
X468016Y117806D01*
X468007Y117870D01*
X468002Y117935D01*
X468000Y118000D01*
X469160Y116840D02*
X482600Y116840D01*
X482740Y116842D01*
X482880Y116848D01*
X483020Y116857D01*
X483159Y116871D01*
X483298Y116888D01*
X483436Y116909D01*
X483574Y116934D01*
X483711Y116963D01*
X483847Y116995D01*
X483982Y117032D01*
X484116Y117072D01*
X484249Y117115D01*
X484381Y117163D01*
X484512Y117213D01*
X484641Y117268D01*
X484768Y117326D01*
X484894Y117387D01*
X485018Y117452D01*
X485140Y117521D01*
X485260Y117592D01*
X485378Y117667D01*
X485495Y117745D01*
X485609Y117827D01*
X485720Y117911D01*
X485829Y117999D01*
X485936Y118089D01*
X486041Y118183D01*
X486142Y118279D01*
X486241Y118378D01*
X486337Y118479D01*
X486431Y118584D01*
X486521Y118691D01*
X486609Y118800D01*
X486693Y118911D01*
X486775Y119025D01*
X486853Y119142D01*
X486928Y119260D01*
X486999Y119380D01*
X487068Y119502D01*
X487133Y119626D01*
X487194Y119752D01*
X487252Y119879D01*
X487307Y120008D01*
X487357Y120139D01*
X487405Y120271D01*
X487448Y120404D01*
X487488Y120538D01*
X487525Y120673D01*
X487557Y120809D01*
X487586Y120946D01*
X487611Y121084D01*
X487632Y121222D01*
X487649Y121361D01*
X487663Y121500D01*
X487672Y121640D01*
X487678Y121780D01*
X487680Y121920D01*
X487680Y124460D01*
D20*
X487680Y124460D03*
X655320Y180340D03*
D19*
X655460Y180342D01*
X655600Y180348D01*
X655740Y180357D01*
X655879Y180371D01*
X656018Y180388D01*
X656156Y180409D01*
X656294Y180434D01*
X656431Y180463D01*
X656567Y180495D01*
X656702Y180532D01*
X656836Y180572D01*
X656969Y180615D01*
X657101Y180663D01*
X657232Y180713D01*
X657361Y180768D01*
X657488Y180826D01*
X657614Y180887D01*
X657738Y180952D01*
X657860Y181021D01*
X657980Y181092D01*
X658098Y181167D01*
X658215Y181245D01*
X658329Y181327D01*
X658440Y181411D01*
X658549Y181499D01*
X658656Y181589D01*
X658761Y181683D01*
X658862Y181779D01*
X658961Y181878D01*
X659057Y181979D01*
X659151Y182084D01*
X659241Y182191D01*
X659329Y182300D01*
X659413Y182411D01*
X659495Y182525D01*
X659573Y182642D01*
X659648Y182760D01*
X659719Y182880D01*
X659788Y183002D01*
X659853Y183126D01*
X659914Y183252D01*
X659972Y183379D01*
X660027Y183508D01*
X660077Y183639D01*
X660125Y183771D01*
X660168Y183904D01*
X660208Y184038D01*
X660245Y184173D01*
X660277Y184309D01*
X660306Y184446D01*
X660331Y184584D01*
X660352Y184722D01*
X660369Y184861D01*
X660383Y185000D01*
X660392Y185140D01*
X660398Y185280D01*
X660400Y185420D01*
X660400Y238760D01*
X53000Y153000D02*
X23000Y153000D01*
X22860Y152480D01*
X53000Y153000D02*
X58420Y152400D01*
X534000Y226060D02*
X534000Y227000D01*
X528320Y228600D01*
X154860Y40640D02*
X149700Y45800D01*
X154860Y40640D02*
X475340Y40640D01*
X177800Y95250D02*
X121760Y93980D01*
X305000Y215000D02*
X304976Y236223D01*
X304800Y393700D01*
X304800Y421640D01*
X308020Y424860D01*
X150800Y424860D01*
X150000Y424060D01*
X314000Y427000D02*
X365760Y427000D01*
X407000Y427000D01*
X314000Y427000D02*
X308020Y424860D01*
X560995Y170180D02*
X551180Y154940D01*
X560995Y170180D02*
X586740Y170180D01*
X587108Y170184D01*
X587476Y170198D01*
X587844Y170220D01*
X588211Y170251D01*
X588577Y170291D01*
X588942Y170340D01*
X589306Y170398D01*
X589668Y170464D01*
X590029Y170539D01*
X590387Y170623D01*
X590744Y170715D01*
X591098Y170816D01*
X591449Y170926D01*
X591798Y171044D01*
X592144Y171170D01*
X592487Y171305D01*
X592826Y171448D01*
X593162Y171599D01*
X593494Y171758D01*
X593822Y171926D01*
X594146Y172101D01*
X594466Y172284D01*
X594781Y172474D01*
X595092Y172672D01*
X595397Y172878D01*
X595698Y173091D01*
X595993Y173311D01*
X596283Y173538D01*
X596567Y173772D01*
X596846Y174013D01*
X597119Y174260D01*
X597385Y174514D01*
X597646Y174775D01*
X597900Y175041D01*
X598147Y175314D01*
X598388Y175593D01*
X598622Y175877D01*
X598849Y176167D01*
X599069Y176462D01*
X599282Y176763D01*
X599488Y177068D01*
X599686Y177379D01*
X599876Y177694D01*
X600059Y178014D01*
X600234Y178338D01*
X600402Y178666D01*
X600561Y178998D01*
X600712Y179334D01*
X600855Y179673D01*
X600990Y180016D01*
X601116Y180362D01*
X601234Y180711D01*
X601344Y181062D01*
X601445Y181416D01*
X601537Y181773D01*
X601621Y182131D01*
X601696Y182492D01*
X601762Y182854D01*
X601820Y183218D01*
X601869Y183583D01*
X601909Y183949D01*
X601940Y184316D01*
X601962Y184684D01*
X601976Y185052D01*
X601980Y185420D01*
X601980Y431800D02*
X601976Y432143D01*
X601963Y432486D01*
X601943Y432829D01*
X601914Y433170D01*
X601876Y433512D01*
X601831Y433852D01*
X601777Y434191D01*
X601715Y434528D01*
X601645Y434864D01*
X601567Y435198D01*
X601481Y435530D01*
X601387Y435860D01*
X601285Y436188D01*
X601175Y436513D01*
X601057Y436835D01*
X600932Y437155D01*
X600798Y437471D01*
X600658Y437784D01*
X600509Y438093D01*
X600353Y438399D01*
X600190Y438701D01*
X600020Y438999D01*
X599842Y439292D01*
X599658Y439582D01*
X599466Y439867D01*
X599268Y440147D01*
X599063Y440422D01*
X598851Y440692D01*
X598633Y440957D01*
X598409Y441216D01*
X598178Y441470D01*
X597942Y441719D01*
X597699Y441962D01*
X597450Y442198D01*
X597196Y442429D01*
X596937Y442653D01*
X596672Y442871D01*
X596402Y443083D01*
X596127Y443288D01*
X595847Y443486D01*
X595562Y443678D01*
X595272Y443862D01*
X594979Y444040D01*
X594681Y444210D01*
X594379Y444373D01*
X594073Y444529D01*
X593764Y444678D01*
X593451Y444818D01*
X593135Y444952D01*
X592815Y445077D01*
X592493Y445195D01*
X592168Y445305D01*
X591840Y445407D01*
X591510Y445501D01*
X591178Y445587D01*
X590844Y445665D01*
X590508Y445735D01*
X590171Y445797D01*
X589832Y445851D01*
X589492Y445896D01*
X589150Y445934D01*
X588809Y445963D01*
X588466Y445983D01*
X588123Y445996D01*
X587780Y446000D01*
X601980Y431800D02*
X601980Y185420D01*
X553720Y152400D02*
X553718Y152500D01*
X553712Y152599D01*
X553702Y152699D01*
X553689Y152797D01*
X553671Y152896D01*
X553650Y152993D01*
X553625Y153089D01*
X553596Y153185D01*
X553563Y153279D01*
X553527Y153372D01*
X553487Y153463D01*
X553443Y153553D01*
X553396Y153641D01*
X553346Y153727D01*
X553292Y153811D01*
X553235Y153893D01*
X553175Y153972D01*
X553111Y154050D01*
X553045Y154124D01*
X552976Y154196D01*
X552904Y154265D01*
X552830Y154331D01*
X552752Y154395D01*
X552673Y154455D01*
X552591Y154512D01*
X552507Y154566D01*
X552421Y154616D01*
X552333Y154663D01*
X552243Y154707D01*
X552152Y154747D01*
X552059Y154783D01*
X551965Y154816D01*
X551869Y154845D01*
X551773Y154870D01*
X551676Y154891D01*
X551577Y154909D01*
X551479Y154922D01*
X551379Y154932D01*
X551280Y154938D01*
X551180Y154940D01*
X553720Y152400D02*
X553720Y124460D01*
X587780Y446000D02*
X426000Y446000D01*
X425541Y445994D01*
X425082Y445978D01*
X424624Y445950D01*
X424166Y445911D01*
X423710Y445861D01*
X423255Y445801D01*
X422801Y445729D01*
X422350Y445646D01*
X421900Y445552D01*
X421453Y445448D01*
X421009Y445333D01*
X420567Y445207D01*
X420129Y445070D01*
X419694Y444923D01*
X419263Y444765D01*
X418835Y444597D01*
X418412Y444419D01*
X417993Y444231D01*
X417579Y444032D01*
X417170Y443824D01*
X416766Y443605D01*
X416368Y443377D01*
X415975Y443140D01*
X415588Y442893D01*
X415207Y442637D01*
X414832Y442371D01*
X414464Y442097D01*
X414102Y441814D01*
X413748Y441522D01*
X413401Y441222D01*
X413061Y440913D01*
X412728Y440596D01*
X412404Y440272D01*
X412087Y439939D01*
X411778Y439599D01*
X411478Y439252D01*
X411186Y438898D01*
X410903Y438536D01*
X410629Y438168D01*
X410363Y437793D01*
X410107Y437412D01*
X409860Y437025D01*
X409623Y436632D01*
X409395Y436234D01*
X409176Y435830D01*
X408968Y435421D01*
X408769Y435007D01*
X408581Y434588D01*
X408403Y434165D01*
X408235Y433737D01*
X408077Y433306D01*
X407930Y432871D01*
X407793Y432433D01*
X407667Y431991D01*
X407552Y431547D01*
X407448Y431100D01*
X407354Y430650D01*
X407271Y430199D01*
X407199Y429745D01*
X407139Y429290D01*
X407089Y428834D01*
X407050Y428376D01*
X407022Y427918D01*
X407006Y427459D01*
X407000Y427000D01*
X365760Y427000D02*
X365781Y425275D01*
X365843Y423550D01*
X365948Y421828D01*
X366093Y420109D01*
X366281Y418394D01*
X366509Y416683D01*
X366779Y414979D01*
X367090Y413282D01*
X367442Y411593D01*
X367835Y409913D01*
X368268Y408243D01*
X368741Y406583D01*
X369255Y404936D01*
X369808Y403302D01*
X370400Y401681D01*
X371031Y400075D01*
X371701Y398485D01*
X372409Y396912D01*
X373155Y395356D01*
X373938Y393819D01*
X374759Y392301D01*
X375615Y390803D01*
X376508Y389326D01*
X377436Y387872D01*
X378399Y386440D01*
X379396Y385032D01*
X380427Y383649D01*
X381491Y382290D01*
X382588Y380958D01*
X383716Y379653D01*
X384876Y378375D01*
X386066Y377126D01*
X387286Y375906D01*
X388535Y374716D01*
X389813Y373556D01*
X391118Y372428D01*
X392450Y371331D01*
X393809Y370267D01*
X395192Y369236D01*
X396600Y368239D01*
X398032Y367276D01*
X399486Y366348D01*
X400963Y365455D01*
X402461Y364599D01*
X403979Y363778D01*
X405516Y362995D01*
X407072Y362249D01*
X408645Y361541D01*
X410235Y360871D01*
X411841Y360240D01*
X413462Y359648D01*
X415096Y359095D01*
X416743Y358581D01*
X418403Y358108D01*
X420073Y357675D01*
X421753Y357282D01*
X423442Y356930D01*
X425139Y356619D01*
X426843Y356349D01*
X428554Y356121D01*
X430269Y355933D01*
X431988Y355788D01*
X433710Y355683D01*
X435435Y355621D01*
X437160Y355600D01*
X513080Y355600D01*
X513387Y355604D01*
X513694Y355615D01*
X514000Y355633D01*
X514306Y355659D01*
X514611Y355693D01*
X514915Y355733D01*
X515218Y355781D01*
X515520Y355837D01*
X515820Y355899D01*
X516119Y355969D01*
X516416Y356046D01*
X516712Y356130D01*
X517005Y356222D01*
X517295Y356320D01*
X517583Y356425D01*
X517869Y356538D01*
X518152Y356657D01*
X518432Y356783D01*
X518709Y356915D01*
X518982Y357055D01*
X519252Y357201D01*
X519518Y357353D01*
X519781Y357512D01*
X520040Y357677D01*
X520294Y357848D01*
X520545Y358025D01*
X520791Y358209D01*
X521033Y358398D01*
X521269Y358593D01*
X521502Y358794D01*
X521729Y359000D01*
X521951Y359212D01*
X522168Y359429D01*
X522380Y359651D01*
X522586Y359878D01*
X522787Y360111D01*
X522982Y360347D01*
X523171Y360589D01*
X523355Y360835D01*
X523532Y361086D01*
X523703Y361340D01*
X523868Y361599D01*
X524027Y361862D01*
X524179Y362128D01*
X524325Y362398D01*
X524465Y362671D01*
X524597Y362948D01*
X524723Y363228D01*
X524842Y363511D01*
X524955Y363797D01*
X525060Y364085D01*
X525158Y364375D01*
X525250Y364668D01*
X525334Y364964D01*
X525411Y365261D01*
X525481Y365560D01*
X525543Y365860D01*
X525599Y366162D01*
X525647Y366465D01*
X525687Y366769D01*
X525721Y367074D01*
X525747Y367380D01*
X525765Y367686D01*
X525776Y367993D01*
X525780Y368300D01*
X525780Y393700D01*
X177800Y95250D02*
X178000Y95000D01*
X177800Y95250D02*
X212090Y95250D01*
X304976Y188136D02*
X304976Y236223D01*
X304976Y188136D02*
X212090Y95250D01*
X405130Y248920D02*
X405199Y248918D01*
X405267Y248913D01*
X405335Y248903D01*
X405403Y248890D01*
X405470Y248874D01*
X405536Y248854D01*
X405600Y248830D01*
X405663Y248803D01*
X405725Y248772D01*
X405785Y248738D01*
X405843Y248701D01*
X405899Y248661D01*
X405952Y248618D01*
X406003Y248572D01*
X406052Y248523D01*
X406098Y248472D01*
X406141Y248419D01*
X406181Y248363D01*
X406218Y248305D01*
X406252Y248245D01*
X406283Y248183D01*
X406310Y248120D01*
X406334Y248056D01*
X406354Y247990D01*
X406370Y247923D01*
X406383Y247855D01*
X406393Y247787D01*
X406398Y247719D01*
X406400Y247650D01*
X405130Y248920D02*
X368300Y248920D01*
X365760Y248920D01*
D20*
X368300Y248920D03*
X670560Y355600D03*
D19*
X671174Y355593D01*
X671787Y355570D01*
X672400Y355533D01*
X673011Y355481D01*
X673622Y355415D01*
X674230Y355333D01*
X674836Y355237D01*
X675440Y355127D01*
X676041Y355002D01*
X676639Y354862D01*
X677233Y354708D01*
X677823Y354539D01*
X678409Y354357D01*
X678990Y354160D01*
X679567Y353949D01*
X680138Y353725D01*
X680704Y353487D01*
X681264Y353235D01*
X681817Y352969D01*
X682364Y352691D01*
X682904Y352399D01*
X683437Y352094D01*
X683962Y351776D01*
X684480Y351446D01*
X684989Y351104D01*
X685490Y350749D01*
X685982Y350382D01*
X686465Y350004D01*
X686939Y349614D01*
X687403Y349212D01*
X687858Y348800D01*
X688302Y348376D01*
X688736Y347942D01*
X689160Y347498D01*
X689572Y347043D01*
X689974Y346579D01*
X690364Y346105D01*
X690742Y345622D01*
X691109Y345130D01*
X691464Y344629D01*
X691806Y344120D01*
X692136Y343602D01*
X692454Y343077D01*
X692759Y342544D01*
X693051Y342004D01*
X693329Y341457D01*
X693595Y340904D01*
X693847Y340344D01*
X694085Y339778D01*
X694309Y339207D01*
X694520Y338630D01*
X694717Y338049D01*
X694899Y337463D01*
X695068Y336873D01*
X695222Y336279D01*
X695362Y335681D01*
X695487Y335080D01*
X695597Y334476D01*
X695693Y333870D01*
X695775Y333262D01*
X695841Y332651D01*
X695893Y332040D01*
X695930Y331427D01*
X695953Y330814D01*
X695960Y330200D01*
X695960Y289560D01*
X695953Y288946D01*
X695930Y288333D01*
X695893Y287720D01*
X695841Y287109D01*
X695775Y286498D01*
X695693Y285890D01*
X695597Y285284D01*
X695487Y284680D01*
X695362Y284079D01*
X695222Y283481D01*
X695068Y282887D01*
X694899Y282297D01*
X694717Y281711D01*
X694520Y281130D01*
X694309Y280553D01*
X694085Y279982D01*
X693847Y279416D01*
X693595Y278856D01*
X693329Y278303D01*
X693051Y277756D01*
X692759Y277216D01*
X692454Y276683D01*
X692136Y276158D01*
X691806Y275640D01*
X691464Y275131D01*
X691109Y274630D01*
X690742Y274138D01*
X690364Y273655D01*
X689974Y273181D01*
X689572Y272717D01*
X689160Y272262D01*
X688736Y271818D01*
X688302Y271384D01*
X687858Y270960D01*
X687403Y270548D01*
X686939Y270146D01*
X686465Y269756D01*
X685982Y269378D01*
X685490Y269011D01*
X684989Y268656D01*
X684480Y268314D01*
X683962Y267984D01*
X683437Y267666D01*
X682904Y267361D01*
X682364Y267069D01*
X681817Y266791D01*
X681264Y266525D01*
X680704Y266273D01*
X680138Y266035D01*
X679567Y265811D01*
X678990Y265600D01*
X678409Y265403D01*
X677823Y265221D01*
X677233Y265052D01*
X676639Y264898D01*
X676041Y264758D01*
X675440Y264633D01*
X674836Y264523D01*
X674230Y264427D01*
X673622Y264345D01*
X673011Y264279D01*
X672400Y264227D01*
X671787Y264190D01*
X671174Y264167D01*
X670560Y264160D01*
X660400Y264160D01*
M02*
