G04 EAGLE Gerber X2 export*
%TF.Part,Single*%
%TF.FileFunction,Copper,L1,Top,Mixed*%
%TF.FilePolarity,Positive*%
%TF.GenerationSoftware,Autodesk,EAGLE,9.1.0*%
%TF.CreationDate,2020-08-16T13:30:31Z*%
G75*
%MOMM*%
%FSLAX34Y34*%
%LPD*%
%AMOC8*
5,1,8,0,0,1.08239X$1,22.5*%
G01*
%ADD10P,1.853918X8X22.500000*%
%ADD11P,1.853918X8X112.500000*%
%ADD12P,1.853918X8X292.500000*%
%ADD13C,1.900000*%
%ADD14P,2.056541X8X22.500000*%
%ADD15P,2.597736X8X22.500000*%
%ADD16C,1.916000*%
%ADD17P,1.853918X8X202.500000*%
%ADD18C,2.000000*%
%ADD19C,1.200000*%


D10*
X528320Y124460D03*
X553720Y124460D03*
D11*
X149700Y45800D03*
X149700Y122000D03*
D12*
X121760Y93980D03*
X121760Y43180D03*
D13*
X177800Y120650D03*
X177800Y146050D03*
X177800Y171450D03*
X177800Y196850D03*
X177800Y222250D03*
X177800Y247650D03*
X177800Y273050D03*
X406400Y120650D03*
X406400Y146050D03*
X406400Y171450D03*
X406400Y196850D03*
X406400Y222250D03*
X406400Y247650D03*
X406400Y273050D03*
X177800Y95250D03*
X406400Y95250D03*
D14*
X475340Y40640D03*
X520340Y40640D03*
D15*
X532840Y65640D03*
X462840Y65640D03*
D16*
X32440Y101680D02*
X13280Y101680D01*
X13280Y127080D02*
X32440Y127080D01*
X32440Y152480D02*
X13280Y152480D01*
X13280Y177880D02*
X32440Y177880D01*
X32440Y203280D02*
X13280Y203280D01*
X15820Y284480D02*
X34980Y284480D01*
X34980Y309880D02*
X15820Y309880D01*
X15820Y335280D02*
X34980Y335280D01*
X34980Y360680D02*
X15820Y360680D01*
X228600Y384120D02*
X228600Y403280D01*
X254000Y403280D02*
X254000Y384120D01*
X279400Y384120D02*
X279400Y403280D01*
X304800Y403280D02*
X304800Y384120D01*
X330200Y384120D02*
X330200Y403280D01*
X449580Y403280D02*
X449580Y384120D01*
X474980Y384120D02*
X474980Y403280D01*
X500380Y403280D02*
X500380Y384120D01*
X525780Y384120D02*
X525780Y403280D01*
X551180Y403280D02*
X551180Y384120D01*
D17*
X551180Y154940D03*
X474980Y154940D03*
D16*
X518740Y228600D02*
X537900Y228600D01*
X537900Y254000D02*
X518740Y254000D01*
X518740Y279400D02*
X537900Y279400D01*
X537900Y304800D02*
X518740Y304800D01*
D12*
X150000Y424060D03*
X150000Y347860D03*
D10*
X464820Y223520D03*
X490220Y223520D03*
X464820Y254000D03*
X490220Y254000D03*
D16*
X650820Y289560D02*
X669980Y289560D01*
X669980Y264160D02*
X650820Y264160D01*
X650820Y238760D02*
X669980Y238760D01*
D18*
X487680Y304800D03*
D19*
X439420Y304800D01*
D18*
X434340Y93980D03*
D19*
X434480Y93982D01*
X434620Y93988D01*
X434760Y93997D01*
X434899Y94011D01*
X435038Y94028D01*
X435176Y94049D01*
X435314Y94074D01*
X435451Y94103D01*
X435587Y94135D01*
X435722Y94172D01*
X435856Y94212D01*
X435989Y94255D01*
X436121Y94303D01*
X436252Y94353D01*
X436381Y94408D01*
X436508Y94466D01*
X436634Y94527D01*
X436758Y94592D01*
X436880Y94661D01*
X437000Y94732D01*
X437118Y94807D01*
X437235Y94885D01*
X437349Y94967D01*
X437460Y95051D01*
X437569Y95139D01*
X437676Y95229D01*
X437781Y95323D01*
X437882Y95419D01*
X437981Y95518D01*
X438077Y95619D01*
X438171Y95724D01*
X438261Y95831D01*
X438349Y95940D01*
X438433Y96051D01*
X438515Y96165D01*
X438593Y96282D01*
X438668Y96400D01*
X438739Y96520D01*
X438808Y96642D01*
X438873Y96766D01*
X438934Y96892D01*
X438992Y97019D01*
X439047Y97148D01*
X439097Y97279D01*
X439145Y97411D01*
X439188Y97544D01*
X439228Y97678D01*
X439265Y97813D01*
X439297Y97949D01*
X439326Y98086D01*
X439351Y98224D01*
X439372Y98362D01*
X439389Y98501D01*
X439403Y98640D01*
X439412Y98780D01*
X439418Y98920D01*
X439420Y99060D01*
X439420Y304800D01*
X439427Y305414D01*
X439450Y306027D01*
X439487Y306640D01*
X439539Y307251D01*
X439605Y307862D01*
X439687Y308470D01*
X439783Y309076D01*
X439893Y309680D01*
X440018Y310281D01*
X440158Y310879D01*
X440312Y311473D01*
X440481Y312063D01*
X440663Y312649D01*
X440860Y313230D01*
X441071Y313807D01*
X441295Y314378D01*
X441533Y314944D01*
X441785Y315504D01*
X442051Y316057D01*
X442329Y316604D01*
X442621Y317144D01*
X442926Y317677D01*
X443244Y318202D01*
X443574Y318720D01*
X443916Y319229D01*
X444271Y319730D01*
X444638Y320222D01*
X445016Y320705D01*
X445406Y321179D01*
X445808Y321643D01*
X446220Y322098D01*
X446644Y322542D01*
X447078Y322976D01*
X447522Y323400D01*
X447977Y323812D01*
X448441Y324214D01*
X448915Y324604D01*
X449398Y324982D01*
X449890Y325349D01*
X450391Y325704D01*
X450900Y326046D01*
X451418Y326376D01*
X451943Y326694D01*
X452476Y326999D01*
X453016Y327291D01*
X453563Y327569D01*
X454116Y327835D01*
X454676Y328087D01*
X455242Y328325D01*
X455813Y328549D01*
X456390Y328760D01*
X456971Y328957D01*
X457557Y329139D01*
X458147Y329308D01*
X458741Y329462D01*
X459339Y329602D01*
X459940Y329727D01*
X460544Y329837D01*
X461150Y329933D01*
X461758Y330015D01*
X462369Y330081D01*
X462980Y330133D01*
X463593Y330170D01*
X464206Y330193D01*
X464820Y330200D01*
X647700Y330200D01*
D18*
X647700Y330200D03*
X106000Y289000D03*
X422000Y408000D03*
D19*
X106680Y289680D02*
X106678Y289629D01*
X106672Y289579D01*
X106663Y289529D01*
X106650Y289480D01*
X106633Y289432D01*
X106613Y289385D01*
X106589Y289340D01*
X106562Y289297D01*
X106532Y289256D01*
X106498Y289217D01*
X106463Y289182D01*
X106424Y289148D01*
X106383Y289118D01*
X106340Y289091D01*
X106295Y289067D01*
X106248Y289047D01*
X106200Y289030D01*
X106151Y289017D01*
X106101Y289008D01*
X106051Y289002D01*
X106000Y289000D01*
X106680Y289680D02*
X106680Y416560D01*
X106690Y417419D01*
X106722Y418278D01*
X106773Y419136D01*
X106846Y419992D01*
X106939Y420846D01*
X107053Y421698D01*
X107188Y422547D01*
X107342Y423392D01*
X107518Y424233D01*
X107713Y425070D01*
X107929Y425902D01*
X108165Y426728D01*
X108420Y427549D01*
X108696Y428363D01*
X108991Y429170D01*
X109305Y429969D01*
X109639Y430761D01*
X109992Y431545D01*
X110363Y432320D01*
X110753Y433086D01*
X111162Y433842D01*
X111588Y434587D01*
X112033Y435323D01*
X112495Y436047D01*
X112975Y436760D01*
X113471Y437462D01*
X113985Y438151D01*
X114515Y438827D01*
X115061Y439491D01*
X115623Y440141D01*
X116201Y440777D01*
X116793Y441399D01*
X117401Y442007D01*
X118023Y442599D01*
X118659Y443177D01*
X119309Y443739D01*
X119973Y444285D01*
X120649Y444815D01*
X121338Y445329D01*
X122040Y445825D01*
X122753Y446305D01*
X123477Y446767D01*
X124213Y447212D01*
X124958Y447638D01*
X125714Y448047D01*
X126480Y448437D01*
X127255Y448808D01*
X128039Y449161D01*
X128831Y449495D01*
X129630Y449809D01*
X130437Y450104D01*
X131251Y450380D01*
X132072Y450635D01*
X132898Y450871D01*
X133730Y451087D01*
X134567Y451282D01*
X135408Y451458D01*
X136253Y451612D01*
X137102Y451747D01*
X137954Y451861D01*
X138808Y451954D01*
X139664Y452027D01*
X140522Y452078D01*
X141381Y452110D01*
X142240Y452120D01*
X393700Y452120D02*
X394384Y452112D01*
X395067Y452087D01*
X395750Y452046D01*
X396431Y451988D01*
X397111Y451914D01*
X397789Y451823D01*
X398465Y451716D01*
X399137Y451593D01*
X399807Y451453D01*
X400473Y451298D01*
X401135Y451126D01*
X401792Y450938D01*
X402445Y450735D01*
X403093Y450516D01*
X403735Y450281D01*
X404372Y450031D01*
X405002Y449765D01*
X405626Y449485D01*
X406242Y449189D01*
X406852Y448878D01*
X407453Y448553D01*
X408047Y448214D01*
X408632Y447860D01*
X409209Y447492D01*
X409776Y447110D01*
X410334Y446715D01*
X410883Y446307D01*
X411421Y445885D01*
X411949Y445450D01*
X412466Y445003D01*
X412973Y444543D01*
X413468Y444071D01*
X413951Y443588D01*
X414423Y443093D01*
X414883Y442586D01*
X415330Y442069D01*
X415765Y441541D01*
X416187Y441003D01*
X416595Y440454D01*
X416990Y439896D01*
X417372Y439329D01*
X417740Y438752D01*
X418094Y438167D01*
X418433Y437573D01*
X418758Y436972D01*
X419069Y436362D01*
X419365Y435746D01*
X419645Y435122D01*
X419911Y434492D01*
X420161Y433855D01*
X420396Y433213D01*
X420615Y432565D01*
X420818Y431912D01*
X421006Y431255D01*
X421178Y430593D01*
X421333Y429927D01*
X421473Y429257D01*
X421596Y428585D01*
X421703Y427909D01*
X421794Y427231D01*
X421868Y426551D01*
X421926Y425870D01*
X421967Y425187D01*
X421992Y424504D01*
X422000Y423820D01*
X422000Y408000D01*
X393700Y452120D02*
X142240Y452120D01*
X140300Y312780D02*
X169220Y312780D01*
D18*
X140300Y312780D03*
X365760Y147320D03*
D19*
X365710Y151381D01*
X365561Y155439D01*
X365312Y159492D01*
X364963Y163538D01*
X364516Y167574D01*
X363969Y171598D01*
X363324Y175607D01*
X362581Y179600D01*
X361740Y183572D01*
X360801Y187524D01*
X359766Y191450D01*
X358635Y195351D01*
X357409Y199222D01*
X356088Y203062D01*
X354673Y206868D01*
X353165Y210639D01*
X351565Y214371D01*
X349874Y218063D01*
X348093Y221713D01*
X346223Y225317D01*
X344265Y228875D01*
X342220Y232383D01*
X340089Y235841D01*
X337875Y239245D01*
X335578Y242593D01*
X333199Y245884D01*
X330740Y249116D01*
X328202Y252287D01*
X325588Y255394D01*
X322898Y258436D01*
X320134Y261411D01*
X317298Y264318D01*
X314391Y267154D01*
X311416Y269918D01*
X308374Y272608D01*
X305267Y275222D01*
X302096Y277760D01*
X298864Y280219D01*
X295573Y282598D01*
X292225Y284895D01*
X288821Y287109D01*
X285363Y289240D01*
X281855Y291285D01*
X278297Y293243D01*
X274693Y295113D01*
X271043Y296894D01*
X267351Y298585D01*
X263619Y300185D01*
X259848Y301693D01*
X256042Y303108D01*
X252202Y304429D01*
X248331Y305655D01*
X244430Y306786D01*
X240504Y307821D01*
X236552Y308760D01*
X232580Y309601D01*
X228587Y310344D01*
X224578Y310989D01*
X220554Y311536D01*
X216518Y311983D01*
X212472Y312332D01*
X208419Y312581D01*
X204361Y312730D01*
X200300Y312780D01*
X140300Y312780D01*
X63000Y126000D02*
X63000Y88000D01*
X74000Y77000D01*
D18*
X63000Y126000D03*
X74000Y77000D03*
X487680Y124460D03*
D19*
X488048Y124464D01*
X488416Y124478D01*
X488784Y124500D01*
X489151Y124531D01*
X489517Y124571D01*
X489882Y124620D01*
X490246Y124678D01*
X490608Y124744D01*
X490969Y124819D01*
X491327Y124903D01*
X491684Y124995D01*
X492038Y125096D01*
X492389Y125206D01*
X492738Y125324D01*
X493084Y125450D01*
X493427Y125585D01*
X493766Y125728D01*
X494102Y125879D01*
X494434Y126038D01*
X494762Y126206D01*
X495086Y126381D01*
X495406Y126564D01*
X495721Y126754D01*
X496032Y126952D01*
X496337Y127158D01*
X496638Y127371D01*
X496933Y127591D01*
X497223Y127818D01*
X497507Y128052D01*
X497786Y128293D01*
X498059Y128540D01*
X498325Y128794D01*
X498586Y129055D01*
X498840Y129321D01*
X499087Y129594D01*
X499328Y129873D01*
X499562Y130157D01*
X499789Y130447D01*
X500009Y130742D01*
X500222Y131043D01*
X500428Y131348D01*
X500626Y131659D01*
X500816Y131974D01*
X500999Y132294D01*
X501174Y132618D01*
X501342Y132946D01*
X501501Y133278D01*
X501652Y133614D01*
X501795Y133953D01*
X501930Y134296D01*
X502056Y134642D01*
X502174Y134991D01*
X502284Y135342D01*
X502385Y135696D01*
X502477Y136053D01*
X502561Y136411D01*
X502636Y136772D01*
X502702Y137134D01*
X502760Y137498D01*
X502809Y137863D01*
X502849Y138229D01*
X502880Y138596D01*
X502902Y138964D01*
X502916Y139332D01*
X502920Y139700D01*
X502920Y154940D01*
X502927Y155554D01*
X502950Y156167D01*
X502987Y156780D01*
X503039Y157391D01*
X503105Y158002D01*
X503187Y158610D01*
X503283Y159216D01*
X503393Y159820D01*
X503518Y160421D01*
X503658Y161019D01*
X503812Y161613D01*
X503981Y162203D01*
X504163Y162789D01*
X504360Y163370D01*
X504571Y163947D01*
X504795Y164518D01*
X505033Y165084D01*
X505285Y165644D01*
X505551Y166197D01*
X505829Y166744D01*
X506121Y167284D01*
X506426Y167817D01*
X506744Y168342D01*
X507074Y168860D01*
X507416Y169369D01*
X507771Y169870D01*
X508138Y170362D01*
X508516Y170845D01*
X508906Y171319D01*
X509308Y171783D01*
X509720Y172238D01*
X510144Y172682D01*
X510578Y173116D01*
X511022Y173540D01*
X511477Y173952D01*
X511941Y174354D01*
X512415Y174744D01*
X512898Y175122D01*
X513390Y175489D01*
X513891Y175844D01*
X514400Y176186D01*
X514918Y176516D01*
X515443Y176834D01*
X515976Y177139D01*
X516516Y177431D01*
X517063Y177709D01*
X517616Y177975D01*
X518176Y178227D01*
X518742Y178465D01*
X519313Y178689D01*
X519890Y178900D01*
X520471Y179097D01*
X521057Y179279D01*
X521647Y179448D01*
X522241Y179602D01*
X522839Y179742D01*
X523440Y179867D01*
X524044Y179977D01*
X524650Y180073D01*
X525258Y180155D01*
X525869Y180221D01*
X526480Y180273D01*
X527093Y180310D01*
X527706Y180333D01*
X528320Y180340D01*
X655320Y180340D01*
D18*
X655320Y180340D03*
X368300Y248920D03*
D19*
X670560Y355600D02*
X673100Y355600D01*
D18*
X670560Y355600D03*
D19*
X414020Y355600D02*
X412915Y355587D01*
X411811Y355547D01*
X410708Y355480D01*
X409607Y355387D01*
X408509Y355267D01*
X407414Y355120D01*
X406323Y354947D01*
X405236Y354748D01*
X404154Y354523D01*
X403078Y354271D01*
X402009Y353994D01*
X400947Y353691D01*
X399892Y353362D01*
X398845Y353008D01*
X397807Y352629D01*
X396779Y352225D01*
X395761Y351796D01*
X394754Y351342D01*
X393757Y350865D01*
X392773Y350363D01*
X391801Y349838D01*
X390842Y349289D01*
X389896Y348718D01*
X388965Y348123D01*
X388048Y347507D01*
X387146Y346868D01*
X386261Y346208D01*
X385391Y345527D01*
X384538Y344825D01*
X383702Y344102D01*
X382884Y343359D01*
X382084Y342597D01*
X381303Y341816D01*
X380541Y341016D01*
X379798Y340198D01*
X379075Y339362D01*
X378373Y338509D01*
X377692Y337639D01*
X377032Y336754D01*
X376393Y335852D01*
X375777Y334935D01*
X375182Y334004D01*
X374611Y333058D01*
X374062Y332099D01*
X373537Y331127D01*
X373035Y330143D01*
X372558Y329146D01*
X372104Y328139D01*
X371675Y327121D01*
X371271Y326093D01*
X370892Y325055D01*
X370538Y324008D01*
X370209Y322953D01*
X369906Y321891D01*
X369629Y320822D01*
X369377Y319746D01*
X369152Y318664D01*
X368953Y317577D01*
X368780Y316486D01*
X368633Y315391D01*
X368513Y314293D01*
X368420Y313192D01*
X368353Y312089D01*
X368313Y310985D01*
X368300Y309880D01*
X368300Y248920D01*
X414020Y355600D02*
X670560Y355600D01*
M02*
