M48
;GenerationSoftware,Autodesk,EAGLE,9.1.0*%
;CreationDate,2020-08-16T13:30:31Z*%
FMAT,2
ICI,OFF
METRIC,TZ,000.000
T7C0.800
T6C0.813
T5C1.000
T4C1.016
T3C1.500
T2C3.200
%
G90
M71
T2
X67302Y44902
X67302Y3754
X3904Y3914
X3866Y44950
T3
X53284Y6564
X46284Y6564
T4
X27940Y39370
X66040Y23876
X25400Y39370
X22860Y39370
X2540Y36068
X2540Y33528
X2540Y30988
X2540Y28448
X2286Y20328
X2286Y17788
X2286Y15248
X2286Y12708
X2286Y10168
X33020Y39370
X66040Y26416
X66040Y28956
X52832Y30480
X52832Y27940
X52832Y25400
X52832Y22860
X55118Y39370
X52578Y39370
X50038Y39370
X47498Y39370
X44958Y39370
X30480Y39370
T5
X40640Y9525
X52034Y4064
X47534Y4064
X17780Y9525
X40640Y24765
X40640Y27305
X17780Y12065
X17780Y14605
X17780Y17145
X17780Y19685
X17780Y22225
X17780Y24765
X17780Y27305
X40640Y12065
X40640Y14605
X40640Y17145
X40640Y19685
X40640Y22225
T6
X49022Y25400
X46482Y25400
X49022Y22352
X46482Y22352
X15000Y34786
X15000Y42406
X52832Y12446
X47498Y15494
X55118Y15494
X12176Y4318
X12176Y9398
X14970Y12200
X14970Y4580
X55372Y12446
T7
X43434Y9398
X65532Y18034
X64770Y33020
X10600Y28900
X48768Y30480
X42200Y40800
X14030Y31278
X36576Y14732
X6300Y12600
X67056Y35560
X36830Y24892
X7400Y7700
X48768Y12446
M30