M48
;GenerationSoftware,Autodesk,EAGLE,9.1.0*%
;CreationDate,2020-08-08T12:39:32Z*%
FMAT,2
ICI,OFF
METRIC,TZ,000.000
T7C0.800
T6C0.813
T5C1.000
T4C1.016
T3C1.500
T2C3.200
%
G90
M71
T2
X67048Y44902
X67048Y4008
X3904Y3914
X3866Y44950
T3
X51760Y6310
X44760Y6310
T4
X2286Y15248
X2286Y17788
X2286Y20328
X2286Y12708
X2286Y10168
X55880Y16510
X2540Y28448
X2540Y30988
X2540Y33528
X2540Y36068
X22860Y39370
X55880Y13970
X55880Y11430
X25400Y39370
X27940Y39370
X53594Y31750
X51054Y31750
X48514Y31750
X45974Y31750
X30480Y39370
X33020Y39370
X55880Y21590
X55880Y19050
T5
X40640Y17145
X50510Y3810
X46010Y3810
X40640Y9525
X40640Y27305
X17780Y12065
X17780Y14605
X17780Y17145
X17780Y19685
X17780Y22225
X17780Y24765
X17780Y27305
X40640Y12065
X40640Y14605
X40640Y19685
X40640Y22225
X40640Y24765
X17780Y9525
T6
X48514Y24892
X51054Y14478
X43434Y14478
X15000Y42406
X15000Y34786
X50800Y27432
X53340Y27432
X45974Y24892
X12176Y4318
X12176Y9398
X14970Y12200
X14970Y4580
X51054Y12446
X51054Y9906
T7
X39400Y36000
X42800Y39400
X7400Y7700
X6300Y12600
X57000Y37800
X60500Y41100
X30100Y46600
X26600Y43200
M30