G04 EAGLE Gerber X2 export*
%TF.Part,Single*%
%TF.FileFunction,Profile,NP*%
%TF.FilePolarity,Positive*%
%TF.GenerationSoftware,Autodesk,EAGLE,9.1.0*%
%TF.CreationDate,2020-08-08T12:39:32Z*%
G75*
%MOMM*%
%FSLAX34Y34*%
%LPD*%
%AMOC8*
5,1,8,0,0,1.08239X$1,22.5*%
G01*
%ADD10C,0.254000*%


D10*
X-2540Y0D02*
X710440Y0D01*
X710440Y490120D01*
X-2540Y490120D01*
X-2540Y0D01*
X54660Y448976D02*
X54592Y447931D01*
X54455Y446892D01*
X54250Y445865D01*
X53979Y444853D01*
X53643Y443861D01*
X53242Y442893D01*
X52778Y441954D01*
X52255Y441046D01*
X51673Y440175D01*
X51035Y439344D01*
X50344Y438557D01*
X49603Y437816D01*
X48816Y437125D01*
X47985Y436488D01*
X47114Y435906D01*
X46206Y435382D01*
X45267Y434918D01*
X44299Y434517D01*
X43307Y434181D01*
X42295Y433910D01*
X41268Y433705D01*
X40229Y433569D01*
X39184Y433500D01*
X38136Y433500D01*
X37091Y433569D01*
X36052Y433705D01*
X35025Y433910D01*
X34013Y434181D01*
X33021Y434517D01*
X32053Y434918D01*
X31114Y435382D01*
X30206Y435906D01*
X29335Y436488D01*
X28504Y437125D01*
X27717Y437816D01*
X26976Y438557D01*
X26285Y439344D01*
X25648Y440175D01*
X25066Y441046D01*
X24542Y441954D01*
X24078Y442893D01*
X23677Y443861D01*
X23341Y444853D01*
X23070Y445865D01*
X22865Y446892D01*
X22729Y447931D01*
X22660Y448976D01*
X22660Y450024D01*
X22729Y451069D01*
X22865Y452108D01*
X23070Y453135D01*
X23341Y454147D01*
X23677Y455139D01*
X24078Y456107D01*
X24542Y457046D01*
X25066Y457954D01*
X25648Y458825D01*
X26285Y459656D01*
X26976Y460443D01*
X27717Y461184D01*
X28504Y461875D01*
X29335Y462513D01*
X30206Y463095D01*
X31114Y463618D01*
X32053Y464082D01*
X33021Y464483D01*
X34013Y464819D01*
X35025Y465090D01*
X36052Y465295D01*
X37091Y465432D01*
X38136Y465500D01*
X39184Y465500D01*
X40229Y465432D01*
X41268Y465295D01*
X42295Y465090D01*
X43307Y464819D01*
X44299Y464483D01*
X45267Y464082D01*
X46206Y463618D01*
X47114Y463095D01*
X47985Y462513D01*
X48816Y461875D01*
X49603Y461184D01*
X50344Y460443D01*
X51035Y459656D01*
X51673Y458825D01*
X52255Y457954D01*
X52778Y457046D01*
X53242Y456107D01*
X53643Y455139D01*
X53979Y454147D01*
X54250Y453135D01*
X54455Y452108D01*
X54592Y451069D01*
X54660Y450024D01*
X54660Y448976D01*
X55040Y38616D02*
X54972Y37571D01*
X54835Y36532D01*
X54630Y35505D01*
X54359Y34493D01*
X54023Y33501D01*
X53622Y32533D01*
X53158Y31594D01*
X52635Y30686D01*
X52053Y29815D01*
X51415Y28984D01*
X50724Y28197D01*
X49983Y27456D01*
X49196Y26765D01*
X48365Y26128D01*
X47494Y25546D01*
X46586Y25022D01*
X45647Y24558D01*
X44679Y24157D01*
X43687Y23821D01*
X42675Y23550D01*
X41648Y23345D01*
X40609Y23209D01*
X39564Y23140D01*
X38516Y23140D01*
X37471Y23209D01*
X36432Y23345D01*
X35405Y23550D01*
X34393Y23821D01*
X33401Y24157D01*
X32433Y24558D01*
X31494Y25022D01*
X30586Y25546D01*
X29715Y26128D01*
X28884Y26765D01*
X28097Y27456D01*
X27356Y28197D01*
X26665Y28984D01*
X26028Y29815D01*
X25446Y30686D01*
X24922Y31594D01*
X24458Y32533D01*
X24057Y33501D01*
X23721Y34493D01*
X23450Y35505D01*
X23245Y36532D01*
X23109Y37571D01*
X23040Y38616D01*
X23040Y39664D01*
X23109Y40709D01*
X23245Y41748D01*
X23450Y42775D01*
X23721Y43787D01*
X24057Y44779D01*
X24458Y45747D01*
X24922Y46686D01*
X25446Y47594D01*
X26028Y48465D01*
X26665Y49296D01*
X27356Y50083D01*
X28097Y50824D01*
X28884Y51515D01*
X29715Y52153D01*
X30586Y52735D01*
X31494Y53258D01*
X32433Y53722D01*
X33401Y54123D01*
X34393Y54459D01*
X35405Y54730D01*
X36432Y54935D01*
X37471Y55072D01*
X38516Y55140D01*
X39564Y55140D01*
X40609Y55072D01*
X41648Y54935D01*
X42675Y54730D01*
X43687Y54459D01*
X44679Y54123D01*
X45647Y53722D01*
X46586Y53258D01*
X47494Y52735D01*
X48365Y52153D01*
X49196Y51515D01*
X49983Y50824D01*
X50724Y50083D01*
X51415Y49296D01*
X52053Y48465D01*
X52635Y47594D01*
X53158Y46686D01*
X53622Y45747D01*
X54023Y44779D01*
X54359Y43787D01*
X54630Y42775D01*
X54835Y41748D01*
X54972Y40709D01*
X55040Y39664D01*
X55040Y38616D01*
X669956Y24080D02*
X668911Y24149D01*
X667872Y24285D01*
X666845Y24490D01*
X665833Y24761D01*
X664841Y25097D01*
X663873Y25498D01*
X662934Y25962D01*
X662026Y26486D01*
X661155Y27068D01*
X660324Y27705D01*
X659537Y28396D01*
X658796Y29137D01*
X658105Y29924D01*
X657468Y30755D01*
X656886Y31626D01*
X656362Y32534D01*
X655898Y33473D01*
X655497Y34441D01*
X655161Y35433D01*
X654890Y36445D01*
X654685Y37472D01*
X654549Y38511D01*
X654480Y39556D01*
X654480Y40604D01*
X654549Y41649D01*
X654685Y42688D01*
X654890Y43715D01*
X655161Y44727D01*
X655497Y45719D01*
X655898Y46687D01*
X656362Y47626D01*
X656886Y48534D01*
X657468Y49405D01*
X658105Y50236D01*
X658796Y51023D01*
X659537Y51764D01*
X660324Y52455D01*
X661155Y53093D01*
X662026Y53675D01*
X662934Y54198D01*
X663873Y54662D01*
X664841Y55063D01*
X665833Y55399D01*
X666845Y55670D01*
X667872Y55875D01*
X668911Y56012D01*
X669956Y56080D01*
X671004Y56080D01*
X672049Y56012D01*
X673088Y55875D01*
X674115Y55670D01*
X675127Y55399D01*
X676119Y55063D01*
X677087Y54662D01*
X678026Y54198D01*
X678934Y53675D01*
X679805Y53093D01*
X680636Y52455D01*
X681423Y51764D01*
X682164Y51023D01*
X682855Y50236D01*
X683493Y49405D01*
X684075Y48534D01*
X684598Y47626D01*
X685062Y46687D01*
X685463Y45719D01*
X685799Y44727D01*
X686070Y43715D01*
X686275Y42688D01*
X686412Y41649D01*
X686480Y40604D01*
X686480Y39556D01*
X686412Y38511D01*
X686275Y37472D01*
X686070Y36445D01*
X685799Y35433D01*
X685463Y34441D01*
X685062Y33473D01*
X684598Y32534D01*
X684075Y31626D01*
X683493Y30755D01*
X682855Y29924D01*
X682164Y29137D01*
X681423Y28396D01*
X680636Y27705D01*
X679805Y27068D01*
X678934Y26486D01*
X678026Y25962D01*
X677087Y25498D01*
X676119Y25097D01*
X675127Y24761D01*
X674115Y24490D01*
X673088Y24285D01*
X672049Y24149D01*
X671004Y24080D01*
X669956Y24080D01*
X669956Y433020D02*
X668911Y433089D01*
X667872Y433225D01*
X666845Y433430D01*
X665833Y433701D01*
X664841Y434037D01*
X663873Y434438D01*
X662934Y434902D01*
X662026Y435426D01*
X661155Y436008D01*
X660324Y436645D01*
X659537Y437336D01*
X658796Y438077D01*
X658105Y438864D01*
X657468Y439695D01*
X656886Y440566D01*
X656362Y441474D01*
X655898Y442413D01*
X655497Y443381D01*
X655161Y444373D01*
X654890Y445385D01*
X654685Y446412D01*
X654549Y447451D01*
X654480Y448496D01*
X654480Y449544D01*
X654549Y450589D01*
X654685Y451628D01*
X654890Y452655D01*
X655161Y453667D01*
X655497Y454659D01*
X655898Y455627D01*
X656362Y456566D01*
X656886Y457474D01*
X657468Y458345D01*
X658105Y459176D01*
X658796Y459963D01*
X659537Y460704D01*
X660324Y461395D01*
X661155Y462033D01*
X662026Y462615D01*
X662934Y463138D01*
X663873Y463602D01*
X664841Y464003D01*
X665833Y464339D01*
X666845Y464610D01*
X667872Y464815D01*
X668911Y464952D01*
X669956Y465020D01*
X671004Y465020D01*
X672049Y464952D01*
X673088Y464815D01*
X674115Y464610D01*
X675127Y464339D01*
X676119Y464003D01*
X677087Y463602D01*
X678026Y463138D01*
X678934Y462615D01*
X679805Y462033D01*
X680636Y461395D01*
X681423Y460704D01*
X682164Y459963D01*
X682855Y459176D01*
X683493Y458345D01*
X684075Y457474D01*
X684598Y456566D01*
X685062Y455627D01*
X685463Y454659D01*
X685799Y453667D01*
X686070Y452655D01*
X686275Y451628D01*
X686412Y450589D01*
X686480Y449544D01*
X686480Y448496D01*
X686412Y447451D01*
X686275Y446412D01*
X686070Y445385D01*
X685799Y444373D01*
X685463Y443381D01*
X685062Y442413D01*
X684598Y441474D01*
X684075Y440566D01*
X683493Y439695D01*
X682855Y438864D01*
X682164Y438077D01*
X681423Y437336D01*
X680636Y436645D01*
X679805Y436008D01*
X678934Y435426D01*
X678026Y434902D01*
X677087Y434438D01*
X676119Y434037D01*
X675127Y433701D01*
X674115Y433430D01*
X673088Y433225D01*
X672049Y433089D01*
X671004Y433020D01*
X669956Y433020D01*
M02*
