G04 EAGLE Gerber X2 export*
%TF.Part,Single*%
%TF.FileFunction,Profile,NP*%
%TF.FilePolarity,Positive*%
%TF.GenerationSoftware,Autodesk,EAGLE,9.1.0*%
%TF.CreationDate,2020-08-17T04:28:19Z*%
G75*
%MOMM*%
%FSLAX34Y34*%
%LPD*%
%AMOC8*
5,1,8,0,0,1.08239X$1,22.5*%
G01*
%ADD10C,0.254000*%


D10*
X-2540Y0D02*
X715520Y0D01*
X715520Y492660D01*
X-2540Y492660D01*
X-2540Y0D01*
X54660Y448976D02*
X54592Y447931D01*
X54455Y446892D01*
X54250Y445865D01*
X53979Y444853D01*
X53643Y443861D01*
X53242Y442893D01*
X52778Y441954D01*
X52255Y441046D01*
X51673Y440175D01*
X51035Y439344D01*
X50344Y438557D01*
X49603Y437816D01*
X48816Y437125D01*
X47985Y436488D01*
X47114Y435906D01*
X46206Y435382D01*
X45267Y434918D01*
X44299Y434517D01*
X43307Y434181D01*
X42295Y433910D01*
X41268Y433705D01*
X40229Y433569D01*
X39184Y433500D01*
X38136Y433500D01*
X37091Y433569D01*
X36052Y433705D01*
X35025Y433910D01*
X34013Y434181D01*
X33021Y434517D01*
X32053Y434918D01*
X31114Y435382D01*
X30206Y435906D01*
X29335Y436488D01*
X28504Y437125D01*
X27717Y437816D01*
X26976Y438557D01*
X26285Y439344D01*
X25648Y440175D01*
X25066Y441046D01*
X24542Y441954D01*
X24078Y442893D01*
X23677Y443861D01*
X23341Y444853D01*
X23070Y445865D01*
X22865Y446892D01*
X22729Y447931D01*
X22660Y448976D01*
X22660Y450024D01*
X22729Y451069D01*
X22865Y452108D01*
X23070Y453135D01*
X23341Y454147D01*
X23677Y455139D01*
X24078Y456107D01*
X24542Y457046D01*
X25066Y457954D01*
X25648Y458825D01*
X26285Y459656D01*
X26976Y460443D01*
X27717Y461184D01*
X28504Y461875D01*
X29335Y462513D01*
X30206Y463095D01*
X31114Y463618D01*
X32053Y464082D01*
X33021Y464483D01*
X34013Y464819D01*
X35025Y465090D01*
X36052Y465295D01*
X37091Y465432D01*
X38136Y465500D01*
X39184Y465500D01*
X40229Y465432D01*
X41268Y465295D01*
X42295Y465090D01*
X43307Y464819D01*
X44299Y464483D01*
X45267Y464082D01*
X46206Y463618D01*
X47114Y463095D01*
X47985Y462513D01*
X48816Y461875D01*
X49603Y461184D01*
X50344Y460443D01*
X51035Y459656D01*
X51673Y458825D01*
X52255Y457954D01*
X52778Y457046D01*
X53242Y456107D01*
X53643Y455139D01*
X53979Y454147D01*
X54250Y453135D01*
X54455Y452108D01*
X54592Y451069D01*
X54660Y450024D01*
X54660Y448976D01*
X55040Y38616D02*
X54972Y37571D01*
X54835Y36532D01*
X54630Y35505D01*
X54359Y34493D01*
X54023Y33501D01*
X53622Y32533D01*
X53158Y31594D01*
X52635Y30686D01*
X52053Y29815D01*
X51415Y28984D01*
X50724Y28197D01*
X49983Y27456D01*
X49196Y26765D01*
X48365Y26128D01*
X47494Y25546D01*
X46586Y25022D01*
X45647Y24558D01*
X44679Y24157D01*
X43687Y23821D01*
X42675Y23550D01*
X41648Y23345D01*
X40609Y23209D01*
X39564Y23140D01*
X38516Y23140D01*
X37471Y23209D01*
X36432Y23345D01*
X35405Y23550D01*
X34393Y23821D01*
X33401Y24157D01*
X32433Y24558D01*
X31494Y25022D01*
X30586Y25546D01*
X29715Y26128D01*
X28884Y26765D01*
X28097Y27456D01*
X27356Y28197D01*
X26665Y28984D01*
X26028Y29815D01*
X25446Y30686D01*
X24922Y31594D01*
X24458Y32533D01*
X24057Y33501D01*
X23721Y34493D01*
X23450Y35505D01*
X23245Y36532D01*
X23109Y37571D01*
X23040Y38616D01*
X23040Y39664D01*
X23109Y40709D01*
X23245Y41748D01*
X23450Y42775D01*
X23721Y43787D01*
X24057Y44779D01*
X24458Y45747D01*
X24922Y46686D01*
X25446Y47594D01*
X26028Y48465D01*
X26665Y49296D01*
X27356Y50083D01*
X28097Y50824D01*
X28884Y51515D01*
X29715Y52153D01*
X30586Y52735D01*
X31494Y53258D01*
X32433Y53722D01*
X33401Y54123D01*
X34393Y54459D01*
X35405Y54730D01*
X36432Y54935D01*
X37471Y55072D01*
X38516Y55140D01*
X39564Y55140D01*
X40609Y55072D01*
X41648Y54935D01*
X42675Y54730D01*
X43687Y54459D01*
X44679Y54123D01*
X45647Y53722D01*
X46586Y53258D01*
X47494Y52735D01*
X48365Y52153D01*
X49196Y51515D01*
X49983Y50824D01*
X50724Y50083D01*
X51415Y49296D01*
X52053Y48465D01*
X52635Y47594D01*
X53158Y46686D01*
X53622Y45747D01*
X54023Y44779D01*
X54359Y43787D01*
X54630Y42775D01*
X54835Y41748D01*
X54972Y40709D01*
X55040Y39664D01*
X55040Y38616D01*
X672496Y21540D02*
X671451Y21609D01*
X670412Y21745D01*
X669385Y21950D01*
X668373Y22221D01*
X667381Y22557D01*
X666413Y22958D01*
X665474Y23422D01*
X664566Y23946D01*
X663695Y24528D01*
X662864Y25165D01*
X662077Y25856D01*
X661336Y26597D01*
X660645Y27384D01*
X660008Y28215D01*
X659426Y29086D01*
X658902Y29994D01*
X658438Y30933D01*
X658037Y31901D01*
X657701Y32893D01*
X657430Y33905D01*
X657225Y34932D01*
X657089Y35971D01*
X657020Y37016D01*
X657020Y38064D01*
X657089Y39109D01*
X657225Y40148D01*
X657430Y41175D01*
X657701Y42187D01*
X658037Y43179D01*
X658438Y44147D01*
X658902Y45086D01*
X659426Y45994D01*
X660008Y46865D01*
X660645Y47696D01*
X661336Y48483D01*
X662077Y49224D01*
X662864Y49915D01*
X663695Y50553D01*
X664566Y51135D01*
X665474Y51658D01*
X666413Y52122D01*
X667381Y52523D01*
X668373Y52859D01*
X669385Y53130D01*
X670412Y53335D01*
X671451Y53472D01*
X672496Y53540D01*
X673544Y53540D01*
X674589Y53472D01*
X675628Y53335D01*
X676655Y53130D01*
X677667Y52859D01*
X678659Y52523D01*
X679627Y52122D01*
X680566Y51658D01*
X681474Y51135D01*
X682345Y50553D01*
X683176Y49915D01*
X683963Y49224D01*
X684704Y48483D01*
X685395Y47696D01*
X686033Y46865D01*
X686615Y45994D01*
X687138Y45086D01*
X687602Y44147D01*
X688003Y43179D01*
X688339Y42187D01*
X688610Y41175D01*
X688815Y40148D01*
X688952Y39109D01*
X689020Y38064D01*
X689020Y37016D01*
X688952Y35971D01*
X688815Y34932D01*
X688610Y33905D01*
X688339Y32893D01*
X688003Y31901D01*
X687602Y30933D01*
X687138Y29994D01*
X686615Y29086D01*
X686033Y28215D01*
X685395Y27384D01*
X684704Y26597D01*
X683963Y25856D01*
X683176Y25165D01*
X682345Y24528D01*
X681474Y23946D01*
X680566Y23422D01*
X679627Y22958D01*
X678659Y22557D01*
X677667Y22221D01*
X676655Y21950D01*
X675628Y21745D01*
X674589Y21609D01*
X673544Y21540D01*
X672496Y21540D01*
X672496Y433020D02*
X671451Y433089D01*
X670412Y433225D01*
X669385Y433430D01*
X668373Y433701D01*
X667381Y434037D01*
X666413Y434438D01*
X665474Y434902D01*
X664566Y435426D01*
X663695Y436008D01*
X662864Y436645D01*
X662077Y437336D01*
X661336Y438077D01*
X660645Y438864D01*
X660008Y439695D01*
X659426Y440566D01*
X658902Y441474D01*
X658438Y442413D01*
X658037Y443381D01*
X657701Y444373D01*
X657430Y445385D01*
X657225Y446412D01*
X657089Y447451D01*
X657020Y448496D01*
X657020Y449544D01*
X657089Y450589D01*
X657225Y451628D01*
X657430Y452655D01*
X657701Y453667D01*
X658037Y454659D01*
X658438Y455627D01*
X658902Y456566D01*
X659426Y457474D01*
X660008Y458345D01*
X660645Y459176D01*
X661336Y459963D01*
X662077Y460704D01*
X662864Y461395D01*
X663695Y462033D01*
X664566Y462615D01*
X665474Y463138D01*
X666413Y463602D01*
X667381Y464003D01*
X668373Y464339D01*
X669385Y464610D01*
X670412Y464815D01*
X671451Y464952D01*
X672496Y465020D01*
X673544Y465020D01*
X674589Y464952D01*
X675628Y464815D01*
X676655Y464610D01*
X677667Y464339D01*
X678659Y464003D01*
X679627Y463602D01*
X680566Y463138D01*
X681474Y462615D01*
X682345Y462033D01*
X683176Y461395D01*
X683963Y460704D01*
X684704Y459963D01*
X685395Y459176D01*
X686033Y458345D01*
X686615Y457474D01*
X687138Y456566D01*
X687602Y455627D01*
X688003Y454659D01*
X688339Y453667D01*
X688610Y452655D01*
X688815Y451628D01*
X688952Y450589D01*
X689020Y449544D01*
X689020Y448496D01*
X688952Y447451D01*
X688815Y446412D01*
X688610Y445385D01*
X688339Y444373D01*
X688003Y443381D01*
X687602Y442413D01*
X687138Y441474D01*
X686615Y440566D01*
X686033Y439695D01*
X685395Y438864D01*
X684704Y438077D01*
X683963Y437336D01*
X683176Y436645D01*
X682345Y436008D01*
X681474Y435426D01*
X680566Y434902D01*
X679627Y434438D01*
X678659Y434037D01*
X677667Y433701D01*
X676655Y433430D01*
X675628Y433225D01*
X674589Y433089D01*
X673544Y433020D01*
X672496Y433020D01*
M02*
