G04 EAGLE Gerber X2 export*
%TF.Part,Single*%
%TF.FileFunction,Legend,Top,1*%
%TF.FilePolarity,Positive*%
%TF.GenerationSoftware,Autodesk,EAGLE,9.1.0*%
%TF.CreationDate,2020-08-08T12:39:32Z*%
G75*
%MOMM*%
%FSLAX34Y34*%
%LPD*%
%AMOC8*
5,1,8,0,0,1.08239X$1,22.5*%
G01*
%ADD10C,0.152400*%
%ADD11C,0.127000*%
%ADD12R,0.609600X0.584200*%
%ADD13C,0.101600*%
%ADD14R,0.508000X0.381000*%
%ADD15C,0.304800*%
%ADD16C,0.203200*%
%ADD17C,0.076200*%
%ADD18C,0.762000*%
%ADD19R,0.508000X0.762000*%
%ADD20R,1.016000X0.762000*%
%ADD21R,0.381000X0.508000*%
%ADD22R,0.584200X0.609600*%


D10*
X495300Y99060D02*
X495305Y99434D01*
X495318Y99808D01*
X495341Y100181D01*
X495373Y100554D01*
X495415Y100926D01*
X495465Y101296D01*
X495524Y101665D01*
X495593Y102033D01*
X495670Y102399D01*
X495757Y102763D01*
X495852Y103125D01*
X495956Y103484D01*
X496069Y103841D01*
X496191Y104194D01*
X496321Y104545D01*
X496460Y104892D01*
X496607Y105236D01*
X496763Y105576D01*
X496927Y105912D01*
X497100Y106244D01*
X497280Y106572D01*
X497468Y106895D01*
X497664Y107213D01*
X497868Y107527D01*
X498080Y107835D01*
X498299Y108138D01*
X498526Y108436D01*
X498759Y108728D01*
X499000Y109014D01*
X499248Y109295D01*
X499502Y109569D01*
X499764Y109836D01*
X500031Y110098D01*
X500305Y110352D01*
X500586Y110600D01*
X500872Y110841D01*
X501164Y111074D01*
X501462Y111301D01*
X501765Y111520D01*
X502073Y111732D01*
X502387Y111936D01*
X502705Y112132D01*
X503028Y112320D01*
X503356Y112500D01*
X503688Y112673D01*
X504024Y112837D01*
X504364Y112993D01*
X504708Y113140D01*
X505055Y113279D01*
X505406Y113409D01*
X505759Y113531D01*
X506116Y113644D01*
X506475Y113748D01*
X506837Y113843D01*
X507201Y113930D01*
X507567Y114007D01*
X507935Y114076D01*
X508304Y114135D01*
X508674Y114185D01*
X509046Y114227D01*
X509419Y114259D01*
X509792Y114282D01*
X510166Y114295D01*
X510540Y114300D01*
X510914Y114295D01*
X511288Y114282D01*
X511661Y114259D01*
X512034Y114227D01*
X512406Y114185D01*
X512776Y114135D01*
X513145Y114076D01*
X513513Y114007D01*
X513879Y113930D01*
X514243Y113843D01*
X514605Y113748D01*
X514964Y113644D01*
X515321Y113531D01*
X515674Y113409D01*
X516025Y113279D01*
X516372Y113140D01*
X516716Y112993D01*
X517056Y112837D01*
X517392Y112673D01*
X517724Y112500D01*
X518052Y112320D01*
X518375Y112132D01*
X518693Y111936D01*
X519007Y111732D01*
X519315Y111520D01*
X519618Y111301D01*
X519916Y111074D01*
X520208Y110841D01*
X520494Y110600D01*
X520775Y110352D01*
X521049Y110098D01*
X521316Y109836D01*
X521578Y109569D01*
X521832Y109295D01*
X522080Y109014D01*
X522321Y108728D01*
X522554Y108436D01*
X522781Y108138D01*
X523000Y107835D01*
X523212Y107527D01*
X523416Y107213D01*
X523612Y106895D01*
X523800Y106572D01*
X523980Y106244D01*
X524153Y105912D01*
X524317Y105576D01*
X524473Y105236D01*
X524620Y104892D01*
X524759Y104545D01*
X524889Y104194D01*
X525011Y103841D01*
X525124Y103484D01*
X525228Y103125D01*
X525323Y102763D01*
X525410Y102399D01*
X525487Y102033D01*
X525556Y101665D01*
X525615Y101296D01*
X525665Y100926D01*
X525707Y100554D01*
X525739Y100181D01*
X525762Y99808D01*
X525775Y99434D01*
X525780Y99060D01*
X525775Y98686D01*
X525762Y98312D01*
X525739Y97939D01*
X525707Y97566D01*
X525665Y97194D01*
X525615Y96824D01*
X525556Y96455D01*
X525487Y96087D01*
X525410Y95721D01*
X525323Y95357D01*
X525228Y94995D01*
X525124Y94636D01*
X525011Y94279D01*
X524889Y93926D01*
X524759Y93575D01*
X524620Y93228D01*
X524473Y92884D01*
X524317Y92544D01*
X524153Y92208D01*
X523980Y91876D01*
X523800Y91548D01*
X523612Y91225D01*
X523416Y90907D01*
X523212Y90593D01*
X523000Y90285D01*
X522781Y89982D01*
X522554Y89684D01*
X522321Y89392D01*
X522080Y89106D01*
X521832Y88825D01*
X521578Y88551D01*
X521316Y88284D01*
X521049Y88022D01*
X520775Y87768D01*
X520494Y87520D01*
X520208Y87279D01*
X519916Y87046D01*
X519618Y86819D01*
X519315Y86600D01*
X519007Y86388D01*
X518693Y86184D01*
X518375Y85988D01*
X518052Y85800D01*
X517724Y85620D01*
X517392Y85447D01*
X517056Y85283D01*
X516716Y85127D01*
X516372Y84980D01*
X516025Y84841D01*
X515674Y84711D01*
X515321Y84589D01*
X514964Y84476D01*
X514605Y84372D01*
X514243Y84277D01*
X513879Y84190D01*
X513513Y84113D01*
X513145Y84044D01*
X512776Y83985D01*
X512406Y83935D01*
X512034Y83893D01*
X511661Y83861D01*
X511288Y83838D01*
X510914Y83825D01*
X510540Y83820D01*
X510166Y83825D01*
X509792Y83838D01*
X509419Y83861D01*
X509046Y83893D01*
X508674Y83935D01*
X508304Y83985D01*
X507935Y84044D01*
X507567Y84113D01*
X507201Y84190D01*
X506837Y84277D01*
X506475Y84372D01*
X506116Y84476D01*
X505759Y84589D01*
X505406Y84711D01*
X505055Y84841D01*
X504708Y84980D01*
X504364Y85127D01*
X504024Y85283D01*
X503688Y85447D01*
X503356Y85620D01*
X503028Y85800D01*
X502705Y85988D01*
X502387Y86184D01*
X502073Y86388D01*
X501765Y86600D01*
X501462Y86819D01*
X501164Y87046D01*
X500872Y87279D01*
X500586Y87520D01*
X500305Y87768D01*
X500031Y88022D01*
X499764Y88284D01*
X499502Y88551D01*
X499248Y88825D01*
X499000Y89106D01*
X498759Y89392D01*
X498526Y89684D01*
X498299Y89982D01*
X498080Y90285D01*
X497868Y90593D01*
X497664Y90907D01*
X497468Y91225D01*
X497280Y91548D01*
X497100Y91876D01*
X496927Y92208D01*
X496763Y92544D01*
X496607Y92884D01*
X496460Y93228D01*
X496321Y93575D01*
X496191Y93926D01*
X496069Y94279D01*
X495956Y94636D01*
X495852Y94995D01*
X495757Y95357D01*
X495670Y95721D01*
X495593Y96087D01*
X495524Y96455D01*
X495465Y96824D01*
X495415Y97194D01*
X495373Y97566D01*
X495341Y97939D01*
X495318Y98312D01*
X495305Y98686D01*
X495300Y99060D01*
D11*
X499745Y114935D02*
X488305Y114935D01*
X488305Y120655D01*
X490212Y122562D01*
X494025Y122562D01*
X495932Y120655D01*
X495932Y114935D01*
X495932Y118748D02*
X499745Y122562D01*
X490212Y126629D02*
X488305Y128536D01*
X488305Y132349D01*
X490212Y134255D01*
X492119Y134255D01*
X494025Y132349D01*
X494025Y130442D01*
X494025Y132349D02*
X495932Y134255D01*
X497838Y134255D01*
X499745Y132349D01*
X499745Y128536D01*
X497838Y126629D01*
D12*
X510540Y111379D03*
D10*
X142080Y58500D02*
X141980Y58502D01*
X141881Y58508D01*
X141781Y58518D01*
X141683Y58531D01*
X141584Y58549D01*
X141487Y58570D01*
X141391Y58595D01*
X141295Y58624D01*
X141201Y58657D01*
X141108Y58693D01*
X141017Y58733D01*
X140927Y58777D01*
X140839Y58824D01*
X140753Y58874D01*
X140669Y58928D01*
X140587Y58985D01*
X140508Y59045D01*
X140430Y59109D01*
X140356Y59175D01*
X140284Y59244D01*
X140215Y59316D01*
X140149Y59390D01*
X140085Y59468D01*
X140025Y59547D01*
X139968Y59629D01*
X139914Y59713D01*
X139864Y59799D01*
X139817Y59887D01*
X139773Y59977D01*
X139733Y60068D01*
X139697Y60161D01*
X139664Y60255D01*
X139635Y60351D01*
X139610Y60447D01*
X139589Y60544D01*
X139571Y60643D01*
X139558Y60741D01*
X139548Y60841D01*
X139542Y60940D01*
X139540Y61040D01*
X157320Y58500D02*
X157420Y58502D01*
X157519Y58508D01*
X157619Y58518D01*
X157717Y58531D01*
X157816Y58549D01*
X157913Y58570D01*
X158009Y58595D01*
X158105Y58624D01*
X158199Y58657D01*
X158292Y58693D01*
X158383Y58733D01*
X158473Y58777D01*
X158561Y58824D01*
X158647Y58874D01*
X158731Y58928D01*
X158813Y58985D01*
X158892Y59045D01*
X158970Y59109D01*
X159044Y59175D01*
X159116Y59244D01*
X159185Y59316D01*
X159251Y59390D01*
X159315Y59468D01*
X159375Y59547D01*
X159432Y59629D01*
X159486Y59713D01*
X159536Y59799D01*
X159583Y59887D01*
X159627Y59977D01*
X159667Y60068D01*
X159703Y60161D01*
X159736Y60255D01*
X159765Y60351D01*
X159790Y60447D01*
X159811Y60544D01*
X159829Y60643D01*
X159842Y60741D01*
X159852Y60841D01*
X159858Y60940D01*
X159860Y61040D01*
X159860Y106760D02*
X159858Y106860D01*
X159852Y106959D01*
X159842Y107059D01*
X159829Y107157D01*
X159811Y107256D01*
X159790Y107353D01*
X159765Y107449D01*
X159736Y107545D01*
X159703Y107639D01*
X159667Y107732D01*
X159627Y107823D01*
X159583Y107913D01*
X159536Y108001D01*
X159486Y108087D01*
X159432Y108171D01*
X159375Y108253D01*
X159315Y108332D01*
X159251Y108410D01*
X159185Y108484D01*
X159116Y108556D01*
X159044Y108625D01*
X158970Y108691D01*
X158892Y108755D01*
X158813Y108815D01*
X158731Y108872D01*
X158647Y108926D01*
X158561Y108976D01*
X158473Y109023D01*
X158383Y109067D01*
X158292Y109107D01*
X158199Y109143D01*
X158105Y109176D01*
X158009Y109205D01*
X157913Y109230D01*
X157816Y109251D01*
X157717Y109269D01*
X157619Y109282D01*
X157519Y109292D01*
X157420Y109298D01*
X157320Y109300D01*
X142080Y109300D02*
X141980Y109298D01*
X141881Y109292D01*
X141781Y109282D01*
X141683Y109269D01*
X141584Y109251D01*
X141487Y109230D01*
X141391Y109205D01*
X141295Y109176D01*
X141201Y109143D01*
X141108Y109107D01*
X141017Y109067D01*
X140927Y109023D01*
X140839Y108976D01*
X140753Y108926D01*
X140669Y108872D01*
X140587Y108815D01*
X140508Y108755D01*
X140430Y108691D01*
X140356Y108625D01*
X140284Y108556D01*
X140215Y108484D01*
X140149Y108410D01*
X140085Y108332D01*
X140025Y108253D01*
X139968Y108171D01*
X139914Y108087D01*
X139864Y108001D01*
X139817Y107913D01*
X139773Y107823D01*
X139733Y107732D01*
X139697Y107639D01*
X139664Y107545D01*
X139635Y107449D01*
X139610Y107353D01*
X139589Y107256D01*
X139571Y107157D01*
X139558Y107059D01*
X139548Y106959D01*
X139542Y106860D01*
X139540Y106760D01*
X142080Y58500D02*
X157320Y58500D01*
X139540Y61040D02*
X139540Y64850D01*
X140810Y66120D01*
X159860Y64850D02*
X159860Y61040D01*
X159860Y64850D02*
X158590Y66120D01*
X140810Y101680D02*
X139540Y102950D01*
X140810Y101680D02*
X140810Y66120D01*
X158590Y101680D02*
X159860Y102950D01*
X158590Y101680D02*
X158590Y66120D01*
X139540Y102950D02*
X139540Y106760D01*
X159860Y106760D02*
X159860Y102950D01*
X157320Y109300D02*
X142080Y109300D01*
D13*
X136238Y59008D02*
X127340Y59008D01*
X127340Y63457D01*
X128823Y64940D01*
X131789Y64940D01*
X133272Y63457D01*
X133272Y59008D01*
X133272Y61974D02*
X136238Y64940D01*
X130306Y68129D02*
X127340Y71095D01*
X136238Y71095D01*
X136238Y68129D02*
X136238Y74061D01*
D14*
X149700Y111205D03*
X149700Y56595D03*
D10*
X133190Y85090D02*
X133188Y85230D01*
X133182Y85370D01*
X133173Y85510D01*
X133159Y85649D01*
X133142Y85788D01*
X133121Y85926D01*
X133096Y86064D01*
X133067Y86201D01*
X133035Y86337D01*
X132998Y86472D01*
X132958Y86606D01*
X132915Y86739D01*
X132867Y86871D01*
X132817Y87002D01*
X132762Y87131D01*
X132704Y87258D01*
X132643Y87384D01*
X132578Y87508D01*
X132509Y87630D01*
X132438Y87750D01*
X132363Y87868D01*
X132285Y87985D01*
X132203Y88099D01*
X132119Y88210D01*
X132031Y88319D01*
X131941Y88426D01*
X131847Y88531D01*
X131751Y88632D01*
X131652Y88731D01*
X131551Y88827D01*
X131446Y88921D01*
X131339Y89011D01*
X131230Y89099D01*
X131119Y89183D01*
X131005Y89265D01*
X130888Y89343D01*
X130770Y89418D01*
X130650Y89489D01*
X130528Y89558D01*
X130404Y89623D01*
X130278Y89684D01*
X130151Y89742D01*
X130022Y89797D01*
X129891Y89847D01*
X129759Y89895D01*
X129626Y89938D01*
X129492Y89978D01*
X129357Y90015D01*
X129221Y90047D01*
X129084Y90076D01*
X128946Y90101D01*
X128808Y90122D01*
X128669Y90139D01*
X128530Y90153D01*
X128390Y90162D01*
X128250Y90168D01*
X128110Y90170D01*
X115410Y90170D02*
X115270Y90168D01*
X115130Y90162D01*
X114990Y90153D01*
X114851Y90139D01*
X114712Y90122D01*
X114574Y90101D01*
X114436Y90076D01*
X114299Y90047D01*
X114163Y90015D01*
X114028Y89978D01*
X113894Y89938D01*
X113761Y89895D01*
X113629Y89847D01*
X113498Y89797D01*
X113369Y89742D01*
X113242Y89684D01*
X113116Y89623D01*
X112992Y89558D01*
X112870Y89489D01*
X112750Y89418D01*
X112632Y89343D01*
X112515Y89265D01*
X112401Y89183D01*
X112290Y89099D01*
X112181Y89011D01*
X112074Y88921D01*
X111969Y88827D01*
X111868Y88731D01*
X111769Y88632D01*
X111673Y88531D01*
X111579Y88426D01*
X111489Y88319D01*
X111401Y88210D01*
X111317Y88099D01*
X111235Y87985D01*
X111157Y87868D01*
X111082Y87750D01*
X111011Y87630D01*
X110942Y87508D01*
X110877Y87384D01*
X110816Y87258D01*
X110758Y87131D01*
X110703Y87002D01*
X110653Y86871D01*
X110605Y86739D01*
X110562Y86606D01*
X110522Y86472D01*
X110485Y86337D01*
X110453Y86201D01*
X110424Y86064D01*
X110399Y85926D01*
X110378Y85788D01*
X110361Y85649D01*
X110347Y85510D01*
X110338Y85370D01*
X110332Y85230D01*
X110330Y85090D01*
X133190Y85090D02*
X133190Y52070D01*
X110330Y52070D02*
X110330Y85090D01*
X133190Y52070D02*
X133188Y51930D01*
X133182Y51790D01*
X133173Y51650D01*
X133159Y51511D01*
X133142Y51372D01*
X133121Y51234D01*
X133096Y51096D01*
X133067Y50959D01*
X133035Y50823D01*
X132998Y50688D01*
X132958Y50554D01*
X132915Y50421D01*
X132867Y50289D01*
X132817Y50158D01*
X132762Y50029D01*
X132704Y49902D01*
X132643Y49776D01*
X132578Y49652D01*
X132509Y49530D01*
X132438Y49410D01*
X132363Y49292D01*
X132285Y49175D01*
X132203Y49061D01*
X132119Y48950D01*
X132031Y48841D01*
X131941Y48734D01*
X131847Y48629D01*
X131751Y48528D01*
X131652Y48429D01*
X131551Y48333D01*
X131446Y48239D01*
X131339Y48149D01*
X131230Y48061D01*
X131119Y47977D01*
X131005Y47895D01*
X130888Y47817D01*
X130770Y47742D01*
X130650Y47671D01*
X130528Y47602D01*
X130404Y47537D01*
X130278Y47476D01*
X130151Y47418D01*
X130022Y47363D01*
X129891Y47313D01*
X129759Y47265D01*
X129626Y47222D01*
X129492Y47182D01*
X129357Y47145D01*
X129221Y47113D01*
X129084Y47084D01*
X128946Y47059D01*
X128808Y47038D01*
X128669Y47021D01*
X128530Y47007D01*
X128390Y46998D01*
X128250Y46992D01*
X128110Y46990D01*
X115410Y46990D02*
X115270Y46992D01*
X115130Y46998D01*
X114990Y47007D01*
X114851Y47021D01*
X114712Y47038D01*
X114574Y47059D01*
X114436Y47084D01*
X114299Y47113D01*
X114163Y47145D01*
X114028Y47182D01*
X113894Y47222D01*
X113761Y47265D01*
X113629Y47313D01*
X113498Y47363D01*
X113369Y47418D01*
X113242Y47476D01*
X113116Y47537D01*
X112992Y47602D01*
X112870Y47671D01*
X112750Y47742D01*
X112632Y47817D01*
X112515Y47895D01*
X112401Y47977D01*
X112290Y48061D01*
X112181Y48149D01*
X112074Y48239D01*
X111969Y48333D01*
X111868Y48429D01*
X111769Y48528D01*
X111673Y48629D01*
X111579Y48734D01*
X111489Y48841D01*
X111401Y48950D01*
X111317Y49061D01*
X111235Y49175D01*
X111157Y49292D01*
X111082Y49410D01*
X111011Y49530D01*
X110942Y49652D01*
X110877Y49776D01*
X110816Y49902D01*
X110758Y50029D01*
X110703Y50158D01*
X110653Y50289D01*
X110605Y50421D01*
X110562Y50554D01*
X110522Y50688D01*
X110485Y50823D01*
X110453Y50959D01*
X110424Y51096D01*
X110399Y51234D01*
X110378Y51372D01*
X110361Y51511D01*
X110347Y51650D01*
X110338Y51790D01*
X110332Y51930D01*
X110330Y52070D01*
D15*
X121760Y71628D02*
X129380Y71628D01*
X121760Y71628D02*
X114140Y71628D01*
X121760Y65278D02*
X129380Y65278D01*
X121760Y65278D02*
X114140Y65278D01*
D10*
X121760Y65278D02*
X121760Y55880D01*
X121760Y71628D02*
X121760Y81280D01*
D11*
X136355Y73137D02*
X138262Y75044D01*
X136355Y73137D02*
X136355Y69324D01*
X138262Y67417D01*
X145888Y67417D01*
X147795Y69324D01*
X147795Y73137D01*
X145888Y75044D01*
X140169Y79111D02*
X136355Y82924D01*
X147795Y82924D01*
X147795Y79111D02*
X147795Y86738D01*
D10*
X4370Y449500D02*
X4380Y450342D01*
X4411Y451183D01*
X4463Y452023D01*
X4535Y452861D01*
X4628Y453697D01*
X4741Y454531D01*
X4875Y455362D01*
X5029Y456190D01*
X5203Y457013D01*
X5398Y457832D01*
X5612Y458646D01*
X5847Y459454D01*
X6101Y460256D01*
X6374Y461052D01*
X6668Y461841D01*
X6980Y462622D01*
X7312Y463396D01*
X7662Y464161D01*
X8031Y464917D01*
X8419Y465664D01*
X8825Y466401D01*
X9248Y467129D01*
X9690Y467845D01*
X10149Y468551D01*
X10625Y469244D01*
X11118Y469927D01*
X11628Y470596D01*
X12153Y471253D01*
X12695Y471897D01*
X13253Y472528D01*
X13826Y473144D01*
X14413Y473747D01*
X15016Y474334D01*
X15632Y474907D01*
X16263Y475465D01*
X16907Y476007D01*
X17564Y476532D01*
X18233Y477042D01*
X18916Y477535D01*
X19609Y478011D01*
X20315Y478470D01*
X21031Y478912D01*
X21759Y479335D01*
X22496Y479741D01*
X23243Y480129D01*
X23999Y480498D01*
X24764Y480848D01*
X25538Y481180D01*
X26319Y481492D01*
X27108Y481786D01*
X27904Y482059D01*
X28706Y482313D01*
X29514Y482548D01*
X30328Y482762D01*
X31147Y482957D01*
X31970Y483131D01*
X32798Y483285D01*
X33629Y483419D01*
X34463Y483532D01*
X35299Y483625D01*
X36137Y483697D01*
X36977Y483749D01*
X37818Y483780D01*
X38660Y483790D01*
X39502Y483780D01*
X40343Y483749D01*
X41183Y483697D01*
X42021Y483625D01*
X42857Y483532D01*
X43691Y483419D01*
X44522Y483285D01*
X45350Y483131D01*
X46173Y482957D01*
X46992Y482762D01*
X47806Y482548D01*
X48614Y482313D01*
X49416Y482059D01*
X50212Y481786D01*
X51001Y481492D01*
X51782Y481180D01*
X52556Y480848D01*
X53321Y480498D01*
X54077Y480129D01*
X54824Y479741D01*
X55561Y479335D01*
X56289Y478912D01*
X57005Y478470D01*
X57711Y478011D01*
X58404Y477535D01*
X59087Y477042D01*
X59756Y476532D01*
X60413Y476007D01*
X61057Y475465D01*
X61688Y474907D01*
X62304Y474334D01*
X62907Y473747D01*
X63494Y473144D01*
X64067Y472528D01*
X64625Y471897D01*
X65167Y471253D01*
X65692Y470596D01*
X66202Y469927D01*
X66695Y469244D01*
X67171Y468551D01*
X67630Y467845D01*
X68072Y467129D01*
X68495Y466401D01*
X68901Y465664D01*
X69289Y464917D01*
X69658Y464161D01*
X70008Y463396D01*
X70340Y462622D01*
X70652Y461841D01*
X70946Y461052D01*
X71219Y460256D01*
X71473Y459454D01*
X71708Y458646D01*
X71922Y457832D01*
X72117Y457013D01*
X72291Y456190D01*
X72445Y455362D01*
X72579Y454531D01*
X72692Y453697D01*
X72785Y452861D01*
X72857Y452023D01*
X72909Y451183D01*
X72940Y450342D01*
X72950Y449500D01*
X72940Y448658D01*
X72909Y447817D01*
X72857Y446977D01*
X72785Y446139D01*
X72692Y445303D01*
X72579Y444469D01*
X72445Y443638D01*
X72291Y442810D01*
X72117Y441987D01*
X71922Y441168D01*
X71708Y440354D01*
X71473Y439546D01*
X71219Y438744D01*
X70946Y437948D01*
X70652Y437159D01*
X70340Y436378D01*
X70008Y435604D01*
X69658Y434839D01*
X69289Y434083D01*
X68901Y433336D01*
X68495Y432599D01*
X68072Y431871D01*
X67630Y431155D01*
X67171Y430449D01*
X66695Y429756D01*
X66202Y429073D01*
X65692Y428404D01*
X65167Y427747D01*
X64625Y427103D01*
X64067Y426472D01*
X63494Y425856D01*
X62907Y425253D01*
X62304Y424666D01*
X61688Y424093D01*
X61057Y423535D01*
X60413Y422993D01*
X59756Y422468D01*
X59087Y421958D01*
X58404Y421465D01*
X57711Y420989D01*
X57005Y420530D01*
X56289Y420088D01*
X55561Y419665D01*
X54824Y419259D01*
X54077Y418871D01*
X53321Y418502D01*
X52556Y418152D01*
X51782Y417820D01*
X51001Y417508D01*
X50212Y417214D01*
X49416Y416941D01*
X48614Y416687D01*
X47806Y416452D01*
X46992Y416238D01*
X46173Y416043D01*
X45350Y415869D01*
X44522Y415715D01*
X43691Y415581D01*
X42857Y415468D01*
X42021Y415375D01*
X41183Y415303D01*
X40343Y415251D01*
X39502Y415220D01*
X38660Y415210D01*
X37818Y415220D01*
X36977Y415251D01*
X36137Y415303D01*
X35299Y415375D01*
X34463Y415468D01*
X33629Y415581D01*
X32798Y415715D01*
X31970Y415869D01*
X31147Y416043D01*
X30328Y416238D01*
X29514Y416452D01*
X28706Y416687D01*
X27904Y416941D01*
X27108Y417214D01*
X26319Y417508D01*
X25538Y417820D01*
X24764Y418152D01*
X23999Y418502D01*
X23243Y418871D01*
X22496Y419259D01*
X21759Y419665D01*
X21031Y420088D01*
X20315Y420530D01*
X19609Y420989D01*
X18916Y421465D01*
X18233Y421958D01*
X17564Y422468D01*
X16907Y422993D01*
X16263Y423535D01*
X15632Y424093D01*
X15016Y424666D01*
X14413Y425253D01*
X13826Y425856D01*
X13253Y426472D01*
X12695Y427103D01*
X12153Y427747D01*
X11628Y428404D01*
X11118Y429073D01*
X10625Y429756D01*
X10149Y430449D01*
X9690Y431155D01*
X9248Y431871D01*
X8825Y432599D01*
X8419Y433336D01*
X8031Y434083D01*
X7662Y434839D01*
X7312Y435604D01*
X6980Y436378D01*
X6668Y437159D01*
X6374Y437948D01*
X6101Y438744D01*
X5847Y439546D01*
X5612Y440354D01*
X5398Y441168D01*
X5203Y441987D01*
X5029Y442810D01*
X4875Y443638D01*
X4741Y444469D01*
X4628Y445303D01*
X4535Y446139D01*
X4463Y446977D01*
X4411Y447817D01*
X4380Y448658D01*
X4370Y449500D01*
D16*
X21660Y449500D02*
X21665Y449917D01*
X21680Y450334D01*
X21706Y450751D01*
X21742Y451166D01*
X21788Y451581D01*
X21844Y451994D01*
X21910Y452406D01*
X21987Y452817D01*
X22073Y453225D01*
X22169Y453631D01*
X22276Y454034D01*
X22392Y454435D01*
X22518Y454833D01*
X22654Y455227D01*
X22799Y455618D01*
X22954Y456006D01*
X23118Y456389D01*
X23292Y456768D01*
X23475Y457143D01*
X23667Y457514D01*
X23869Y457879D01*
X24079Y458240D01*
X24297Y458595D01*
X24525Y458945D01*
X24761Y459289D01*
X25005Y459627D01*
X25258Y459959D01*
X25519Y460285D01*
X25787Y460604D01*
X26064Y460917D01*
X26348Y461222D01*
X26639Y461521D01*
X26938Y461812D01*
X27243Y462096D01*
X27556Y462373D01*
X27875Y462641D01*
X28201Y462902D01*
X28533Y463155D01*
X28871Y463399D01*
X29215Y463635D01*
X29565Y463863D01*
X29920Y464081D01*
X30281Y464291D01*
X30646Y464493D01*
X31017Y464685D01*
X31392Y464868D01*
X31771Y465042D01*
X32154Y465206D01*
X32542Y465361D01*
X32933Y465506D01*
X33327Y465642D01*
X33725Y465768D01*
X34126Y465884D01*
X34529Y465991D01*
X34935Y466087D01*
X35343Y466173D01*
X35754Y466250D01*
X36166Y466316D01*
X36579Y466372D01*
X36994Y466418D01*
X37409Y466454D01*
X37826Y466480D01*
X38243Y466495D01*
X38660Y466500D01*
X39077Y466495D01*
X39494Y466480D01*
X39911Y466454D01*
X40326Y466418D01*
X40741Y466372D01*
X41154Y466316D01*
X41566Y466250D01*
X41977Y466173D01*
X42385Y466087D01*
X42791Y465991D01*
X43194Y465884D01*
X43595Y465768D01*
X43993Y465642D01*
X44387Y465506D01*
X44778Y465361D01*
X45166Y465206D01*
X45549Y465042D01*
X45928Y464868D01*
X46303Y464685D01*
X46674Y464493D01*
X47039Y464291D01*
X47400Y464081D01*
X47755Y463863D01*
X48105Y463635D01*
X48449Y463399D01*
X48787Y463155D01*
X49119Y462902D01*
X49445Y462641D01*
X49764Y462373D01*
X50077Y462096D01*
X50382Y461812D01*
X50681Y461521D01*
X50972Y461222D01*
X51256Y460917D01*
X51533Y460604D01*
X51801Y460285D01*
X52062Y459959D01*
X52315Y459627D01*
X52559Y459289D01*
X52795Y458945D01*
X53023Y458595D01*
X53241Y458240D01*
X53451Y457879D01*
X53653Y457514D01*
X53845Y457143D01*
X54028Y456768D01*
X54202Y456389D01*
X54366Y456006D01*
X54521Y455618D01*
X54666Y455227D01*
X54802Y454833D01*
X54928Y454435D01*
X55044Y454034D01*
X55151Y453631D01*
X55247Y453225D01*
X55333Y452817D01*
X55410Y452406D01*
X55476Y451994D01*
X55532Y451581D01*
X55578Y451166D01*
X55614Y450751D01*
X55640Y450334D01*
X55655Y449917D01*
X55660Y449500D01*
X55655Y449083D01*
X55640Y448666D01*
X55614Y448249D01*
X55578Y447834D01*
X55532Y447419D01*
X55476Y447006D01*
X55410Y446594D01*
X55333Y446183D01*
X55247Y445775D01*
X55151Y445369D01*
X55044Y444966D01*
X54928Y444565D01*
X54802Y444167D01*
X54666Y443773D01*
X54521Y443382D01*
X54366Y442994D01*
X54202Y442611D01*
X54028Y442232D01*
X53845Y441857D01*
X53653Y441486D01*
X53451Y441121D01*
X53241Y440760D01*
X53023Y440405D01*
X52795Y440055D01*
X52559Y439711D01*
X52315Y439373D01*
X52062Y439041D01*
X51801Y438715D01*
X51533Y438396D01*
X51256Y438083D01*
X50972Y437778D01*
X50681Y437479D01*
X50382Y437188D01*
X50077Y436904D01*
X49764Y436627D01*
X49445Y436359D01*
X49119Y436098D01*
X48787Y435845D01*
X48449Y435601D01*
X48105Y435365D01*
X47755Y435137D01*
X47400Y434919D01*
X47039Y434709D01*
X46674Y434507D01*
X46303Y434315D01*
X45928Y434132D01*
X45549Y433958D01*
X45166Y433794D01*
X44778Y433639D01*
X44387Y433494D01*
X43993Y433358D01*
X43595Y433232D01*
X43194Y433116D01*
X42791Y433009D01*
X42385Y432913D01*
X41977Y432827D01*
X41566Y432750D01*
X41154Y432684D01*
X40741Y432628D01*
X40326Y432582D01*
X39911Y432546D01*
X39494Y432520D01*
X39077Y432505D01*
X38660Y432500D01*
X38243Y432505D01*
X37826Y432520D01*
X37409Y432546D01*
X36994Y432582D01*
X36579Y432628D01*
X36166Y432684D01*
X35754Y432750D01*
X35343Y432827D01*
X34935Y432913D01*
X34529Y433009D01*
X34126Y433116D01*
X33725Y433232D01*
X33327Y433358D01*
X32933Y433494D01*
X32542Y433639D01*
X32154Y433794D01*
X31771Y433958D01*
X31392Y434132D01*
X31017Y434315D01*
X30646Y434507D01*
X30281Y434709D01*
X29920Y434919D01*
X29565Y435137D01*
X29215Y435365D01*
X28871Y435601D01*
X28533Y435845D01*
X28201Y436098D01*
X27875Y436359D01*
X27556Y436627D01*
X27243Y436904D01*
X26938Y437188D01*
X26639Y437479D01*
X26348Y437778D01*
X26064Y438083D01*
X25787Y438396D01*
X25519Y438715D01*
X25258Y439041D01*
X25005Y439373D01*
X24761Y439711D01*
X24525Y440055D01*
X24297Y440405D01*
X24079Y440760D01*
X23869Y441121D01*
X23667Y441486D01*
X23475Y441857D01*
X23292Y442232D01*
X23118Y442611D01*
X22954Y442994D01*
X22799Y443382D01*
X22654Y443773D01*
X22518Y444167D01*
X22392Y444565D01*
X22276Y444966D01*
X22169Y445369D01*
X22073Y445775D01*
X21987Y446183D01*
X21910Y446594D01*
X21844Y447006D01*
X21788Y447419D01*
X21742Y447834D01*
X21706Y448249D01*
X21680Y448666D01*
X21665Y449083D01*
X21660Y449500D01*
D13*
X432308Y342402D02*
X432308Y332657D01*
X434257Y330708D01*
X438155Y330708D01*
X440104Y332657D01*
X440104Y342402D01*
X444002Y332657D02*
X445951Y330708D01*
X449849Y330708D01*
X451798Y332657D01*
X451798Y334606D01*
X449849Y336555D01*
X445951Y336555D01*
X444002Y338504D01*
X444002Y340453D01*
X445951Y342402D01*
X449849Y342402D01*
X451798Y340453D01*
X447900Y344351D02*
X447900Y328759D01*
X455696Y338504D02*
X459594Y342402D01*
X459594Y330708D01*
X455696Y330708D02*
X463492Y330708D01*
D11*
X190500Y203200D02*
X184150Y209550D01*
X190500Y203200D02*
X190500Y190500D01*
X184150Y184150D01*
X190500Y177800D01*
X190500Y165100D01*
X184150Y158750D01*
X190500Y152400D01*
X190500Y139700D01*
X184150Y133350D01*
X190500Y127000D01*
X190500Y114300D01*
X184150Y107950D01*
X165100Y203200D02*
X171450Y209550D01*
X165100Y190500D02*
X171450Y184150D01*
X165100Y177800D01*
X165100Y165100D02*
X171450Y158750D01*
X165100Y152400D01*
X165100Y139700D02*
X171450Y133350D01*
X165100Y127000D01*
X165100Y114300D02*
X171450Y107950D01*
X165100Y349250D02*
X213360Y349250D01*
X370840Y349250D02*
X419100Y349250D01*
X419100Y279400D01*
X419100Y266700D01*
X419100Y254000D01*
X419100Y241300D01*
X419100Y228600D01*
X419100Y215900D01*
X419100Y6350D01*
X165100Y215900D02*
X165100Y228600D01*
X165100Y241300D01*
X165100Y254000D01*
X165100Y266700D01*
X165100Y279400D01*
X165100Y349250D01*
X171450Y107950D02*
X165100Y101600D01*
X165100Y88900D02*
X171450Y82550D01*
X184150Y82550D01*
X190500Y88900D01*
X190500Y101600D01*
X184150Y107950D01*
D13*
X196088Y99153D02*
X198037Y101102D01*
X201935Y101102D01*
X203884Y99153D01*
X203884Y97204D01*
X201935Y95255D01*
X199986Y95255D01*
X201935Y95255D02*
X203884Y93306D01*
X203884Y91357D01*
X201935Y89408D01*
X198037Y89408D01*
X196088Y91357D01*
X207782Y93306D02*
X207782Y101102D01*
X207782Y93306D02*
X211680Y89408D01*
X215578Y93306D01*
X215578Y101102D01*
X219476Y99153D02*
X221425Y101102D01*
X225323Y101102D01*
X227272Y99153D01*
X227272Y97204D01*
X225323Y95255D01*
X223374Y95255D01*
X225323Y95255D02*
X227272Y93306D01*
X227272Y91357D01*
X225323Y89408D01*
X221425Y89408D01*
X219476Y91357D01*
X207772Y261097D02*
X196078Y261097D01*
X196078Y266944D01*
X198027Y268893D01*
X201925Y268893D01*
X203874Y266944D01*
X203874Y261097D01*
X203874Y264995D02*
X207772Y268893D01*
X198027Y280587D02*
X196078Y278638D01*
X196078Y274740D01*
X198027Y272791D01*
X199976Y272791D01*
X201925Y274740D01*
X201925Y278638D01*
X203874Y280587D01*
X205823Y280587D01*
X207772Y278638D01*
X207772Y274740D01*
X205823Y272791D01*
X207772Y288383D02*
X196078Y288383D01*
X196078Y284485D02*
X196078Y292281D01*
D11*
X412750Y209550D02*
X419100Y203200D01*
X419100Y190500D02*
X412750Y184150D01*
X419100Y177800D01*
X419100Y165100D02*
X412750Y158750D01*
X419100Y152400D01*
X419100Y139700D02*
X412750Y133350D01*
X419100Y127000D01*
X419100Y114300D02*
X412750Y107950D01*
X393700Y203200D02*
X400050Y209550D01*
X393700Y190500D02*
X400050Y184150D01*
X393700Y177800D01*
X393700Y165100D02*
X400050Y158750D01*
X393700Y152400D01*
X393700Y139700D02*
X400050Y133350D01*
X393700Y127000D01*
X393700Y114300D02*
X400050Y107950D01*
X393700Y101600D01*
X393700Y88900D02*
X400050Y82550D01*
X412750Y82550D01*
X419100Y88900D01*
X419100Y101600D02*
X412750Y107950D01*
D13*
X373536Y101102D02*
X365740Y101102D01*
X365740Y95255D01*
X369638Y97204D01*
X371587Y97204D01*
X373536Y95255D01*
X373536Y91357D01*
X371587Y89408D01*
X367689Y89408D01*
X365740Y91357D01*
X377434Y93306D02*
X377434Y101102D01*
X377434Y93306D02*
X381332Y89408D01*
X385230Y93306D01*
X385230Y101102D01*
D11*
X171450Y209550D02*
X165100Y215900D01*
X165100Y228600D02*
X171450Y234950D01*
X165100Y241300D01*
X165100Y254000D02*
X171450Y260350D01*
X165100Y266700D01*
X165100Y279400D02*
X171450Y285750D01*
X184150Y285750D01*
X190500Y279400D01*
X190500Y266700D01*
X184150Y260350D01*
X190500Y254000D01*
X190500Y241300D01*
X184150Y234950D01*
X190500Y228600D01*
X190500Y215900D01*
X184150Y209550D01*
X393700Y101600D02*
X393700Y88900D01*
X393700Y114300D02*
X393700Y127000D01*
X393700Y139700D02*
X393700Y152400D01*
X393700Y165100D02*
X393700Y177800D01*
X393700Y190500D02*
X393700Y203200D01*
X400050Y209550D02*
X393700Y215900D01*
X393700Y228600D01*
X400050Y234950D01*
X393700Y241300D01*
X393700Y254000D01*
X400050Y260350D01*
X393700Y266700D01*
X393700Y279400D01*
X400050Y285750D01*
X412750Y285750D01*
X419100Y279400D01*
X419100Y266700D02*
X412750Y260350D01*
X419100Y254000D01*
X419100Y241300D02*
X412750Y234950D01*
X419100Y228600D01*
X419100Y215900D02*
X412750Y209550D01*
X165100Y215900D02*
X165100Y76200D01*
X184150Y76200D01*
X184150Y57150D01*
X184150Y31750D01*
X184150Y6350D01*
X184150Y57150D02*
X171450Y57150D01*
X171450Y31750D01*
X184150Y31750D01*
X184150Y6350D02*
X241300Y6350D01*
X241300Y21590D01*
X330200Y21590D02*
X330200Y6350D01*
X419100Y6350D01*
X323850Y12700D02*
X247650Y12700D01*
X323850Y12700D02*
X323850Y21590D01*
X247650Y21590D02*
X247650Y12700D01*
X247650Y21590D02*
X241300Y21590D01*
X323850Y21590D02*
X330200Y21590D01*
D13*
X268717Y40557D02*
X268717Y50302D01*
X268717Y40557D02*
X270666Y38608D01*
X274564Y38608D01*
X276513Y40557D01*
X276513Y50302D01*
X286258Y50302D02*
X288207Y48353D01*
X286258Y50302D02*
X282360Y50302D01*
X280411Y48353D01*
X280411Y46404D01*
X282360Y44455D01*
X286258Y44455D01*
X288207Y42506D01*
X288207Y40557D01*
X286258Y38608D01*
X282360Y38608D01*
X280411Y40557D01*
X292105Y38608D02*
X292105Y50302D01*
X297952Y50302D01*
X299901Y48353D01*
X299901Y46404D01*
X297952Y44455D01*
X299901Y42506D01*
X299901Y40557D01*
X297952Y38608D01*
X292105Y38608D01*
X292105Y44455D02*
X297952Y44455D01*
D17*
X190881Y39751D02*
X190881Y49157D01*
X195584Y49157D01*
X197152Y47589D01*
X197152Y44454D01*
X195584Y42886D01*
X190881Y42886D01*
X194016Y42886D02*
X197152Y39751D01*
X200236Y49157D02*
X206507Y49157D01*
X200236Y49157D02*
X200236Y39751D01*
X206507Y39751D01*
X203372Y44454D02*
X200236Y44454D01*
X214294Y49157D02*
X215862Y47589D01*
X214294Y49157D02*
X211159Y49157D01*
X209591Y47589D01*
X209591Y46022D01*
X211159Y44454D01*
X214294Y44454D01*
X215862Y42886D01*
X215862Y41319D01*
X214294Y39751D01*
X211159Y39751D01*
X209591Y41319D01*
X218947Y49157D02*
X225217Y49157D01*
X218947Y49157D02*
X218947Y39751D01*
X225217Y39751D01*
X222082Y44454D02*
X218947Y44454D01*
X231437Y39751D02*
X231437Y49157D01*
X228302Y49157D02*
X234572Y49157D01*
D10*
X241019Y169672D02*
X241019Y185942D01*
X241019Y169672D02*
X249154Y169672D01*
X251865Y172384D01*
X251865Y183230D01*
X249154Y185942D01*
X241019Y185942D01*
X257390Y180519D02*
X262813Y185942D01*
X262813Y169672D01*
X257390Y169672D02*
X268237Y169672D01*
X290133Y169672D02*
X290133Y180519D01*
X292845Y180519D01*
X295557Y177807D01*
X295557Y169672D01*
X295557Y177807D02*
X298268Y180519D01*
X300980Y177807D01*
X300980Y169672D01*
X306505Y180519D02*
X309217Y180519D01*
X309217Y169672D01*
X311928Y169672D02*
X306505Y169672D01*
X309217Y185942D02*
X309217Y188654D01*
X317419Y180519D02*
X317419Y169672D01*
X317419Y180519D02*
X325554Y180519D01*
X328266Y177807D01*
X328266Y169672D01*
X333791Y180519D02*
X336502Y180519D01*
X336502Y169672D01*
X333791Y169672D02*
X339214Y169672D01*
X336502Y185942D02*
X336502Y188654D01*
D11*
X247650Y76200D02*
X247650Y69850D01*
X247650Y63500D02*
X247650Y57150D01*
X247650Y50800D02*
X247650Y44450D01*
X247650Y38100D02*
X247650Y31750D01*
X247650Y25400D02*
X247650Y21590D01*
X247650Y76200D02*
X254000Y76200D01*
X260350Y76200D02*
X266700Y76200D01*
X273050Y76200D02*
X279400Y76200D01*
X285750Y76200D02*
X292100Y76200D01*
X298450Y76200D02*
X304800Y76200D01*
X311150Y76200D02*
X317500Y76200D01*
X323850Y76200D02*
X323850Y69850D01*
X323850Y63500D02*
X323850Y57150D01*
X323850Y50800D02*
X323850Y44450D01*
X323850Y38100D02*
X323850Y31750D01*
X323850Y25400D02*
X323850Y21590D01*
X213360Y292100D02*
X213360Y349250D01*
X370840Y349250D02*
X370840Y292100D01*
X370840Y351790D02*
X213360Y351790D01*
X370840Y351790D02*
X370840Y349250D01*
X213360Y349250D02*
X213360Y351790D01*
X213360Y292100D02*
X370840Y292100D01*
X243620Y314325D02*
X243620Y323646D01*
X248281Y328307D01*
X252942Y323646D01*
X252942Y314325D01*
X252942Y321316D02*
X243620Y321316D01*
X257653Y314325D02*
X257653Y328307D01*
X266974Y314325D01*
X266974Y328307D01*
X276346Y328307D02*
X276346Y314325D01*
X271686Y328307D02*
X281007Y328307D01*
X285719Y328307D02*
X295040Y328307D01*
X285719Y328307D02*
X285719Y314325D01*
X295040Y314325D01*
X290379Y321316D02*
X285719Y321316D01*
X299751Y314325D02*
X299751Y328307D01*
X309073Y314325D01*
X309073Y328307D01*
X313784Y328307D02*
X313784Y314325D01*
X323105Y314325D02*
X313784Y328307D01*
X323105Y328307D02*
X323105Y314325D01*
X327817Y314325D02*
X327817Y323646D01*
X332478Y328307D01*
X337138Y323646D01*
X337138Y314325D01*
X337138Y321316D02*
X327817Y321316D01*
D13*
X207772Y236464D02*
X199976Y236464D01*
X196078Y240362D01*
X199976Y244260D01*
X207772Y244260D01*
X201925Y244260D02*
X201925Y236464D01*
X205823Y248158D02*
X198027Y248158D01*
X196078Y250107D01*
X196078Y254005D01*
X198027Y255954D01*
X205823Y255954D01*
X207772Y254005D01*
X207772Y250107D01*
X205823Y248158D01*
X198027Y255954D01*
D11*
X213360Y292100D02*
X213360Y114300D01*
D13*
X207772Y211064D02*
X196078Y211064D01*
X207772Y211064D02*
X207772Y216911D01*
X205823Y218860D01*
X198027Y218860D01*
X196078Y216911D01*
X196078Y211064D01*
X198027Y222758D02*
X205823Y222758D01*
X198027Y222758D02*
X196078Y224707D01*
X196078Y228605D01*
X198027Y230554D01*
X205823Y230554D01*
X207772Y228605D01*
X207772Y224707D01*
X205823Y222758D01*
X198027Y230554D01*
X196078Y185664D02*
X207772Y185664D01*
X207772Y191511D01*
X205823Y193460D01*
X198027Y193460D01*
X196078Y191511D01*
X196078Y185664D01*
X196078Y197358D02*
X196078Y205154D01*
X196078Y197358D02*
X201925Y197358D01*
X199976Y201256D01*
X199976Y203205D01*
X201925Y205154D01*
X205823Y205154D01*
X207772Y203205D01*
X207772Y199307D01*
X205823Y197358D01*
X207772Y160264D02*
X196078Y160264D01*
X207772Y160264D02*
X207772Y166111D01*
X205823Y168060D01*
X198027Y168060D01*
X196078Y166111D01*
X196078Y160264D01*
X198027Y175856D02*
X196078Y179754D01*
X198027Y175856D02*
X201925Y171958D01*
X205823Y171958D01*
X207772Y173907D01*
X207772Y177805D01*
X205823Y179754D01*
X203874Y179754D01*
X201925Y177805D01*
X201925Y171958D01*
X196078Y134864D02*
X207772Y134864D01*
X207772Y140711D01*
X205823Y142660D01*
X198027Y142660D01*
X196078Y140711D01*
X196078Y134864D01*
X196078Y146558D02*
X196078Y154354D01*
X198027Y154354D01*
X205823Y146558D01*
X207772Y146558D01*
X207772Y109464D02*
X196078Y109464D01*
X207772Y109464D02*
X207772Y115311D01*
X205823Y117260D01*
X198027Y117260D01*
X196078Y115311D01*
X196078Y109464D01*
X198027Y121158D02*
X196078Y123107D01*
X196078Y127005D01*
X198027Y128954D01*
X199976Y128954D01*
X201925Y127005D01*
X203874Y128954D01*
X205823Y128954D01*
X207772Y127005D01*
X207772Y123107D01*
X205823Y121158D01*
X203874Y121158D01*
X201925Y123107D01*
X199976Y121158D01*
X198027Y121158D01*
X201925Y123107D02*
X201925Y127005D01*
X376418Y265762D02*
X388112Y265762D01*
X376418Y261864D02*
X376418Y269660D01*
X376418Y273558D02*
X388112Y281354D01*
X388112Y273558D02*
X376418Y281354D01*
X376418Y236464D02*
X388112Y236464D01*
X376418Y236464D02*
X376418Y242311D01*
X378367Y244260D01*
X382265Y244260D01*
X384214Y242311D01*
X384214Y236464D01*
X384214Y240362D02*
X388112Y244260D01*
X388112Y255954D02*
X376418Y248158D01*
X376418Y255954D02*
X388112Y248158D01*
D11*
X370840Y292100D02*
X370840Y132080D01*
D13*
X376418Y211064D02*
X388112Y211064D01*
X388112Y216911D01*
X386163Y218860D01*
X378367Y218860D01*
X376418Y216911D01*
X376418Y211064D01*
X380316Y222758D02*
X376418Y226656D01*
X388112Y226656D01*
X388112Y222758D02*
X388112Y230554D01*
X388112Y185664D02*
X376418Y185664D01*
X388112Y185664D02*
X388112Y191511D01*
X386163Y193460D01*
X378367Y193460D01*
X376418Y191511D01*
X376418Y185664D01*
X388112Y197358D02*
X388112Y205154D01*
X388112Y197358D02*
X380316Y205154D01*
X378367Y205154D01*
X376418Y203205D01*
X376418Y199307D01*
X378367Y197358D01*
X376418Y160264D02*
X388112Y160264D01*
X388112Y166111D01*
X386163Y168060D01*
X378367Y168060D01*
X376418Y166111D01*
X376418Y160264D01*
X378367Y171958D02*
X376418Y173907D01*
X376418Y177805D01*
X378367Y179754D01*
X380316Y179754D01*
X382265Y177805D01*
X382265Y175856D01*
X382265Y177805D02*
X384214Y179754D01*
X386163Y179754D01*
X388112Y177805D01*
X388112Y173907D01*
X386163Y171958D01*
X388112Y134864D02*
X376418Y134864D01*
X388112Y134864D02*
X388112Y140711D01*
X386163Y142660D01*
X378367Y142660D01*
X376418Y140711D01*
X376418Y134864D01*
X376418Y152405D02*
X388112Y152405D01*
X382265Y146558D02*
X376418Y152405D01*
X382265Y154354D02*
X382265Y146558D01*
D11*
X350520Y114300D02*
X213360Y114300D01*
D13*
X359893Y126502D02*
X361842Y124553D01*
X359893Y126502D02*
X355995Y126502D01*
X354046Y124553D01*
X354046Y116757D01*
X355995Y114808D01*
X359893Y114808D01*
X361842Y116757D01*
X361842Y120655D01*
X357944Y120655D01*
X365740Y114808D02*
X365740Y126502D01*
X373536Y114808D01*
X373536Y126502D01*
X377434Y126502D02*
X377434Y114808D01*
X383281Y114808D01*
X385230Y116757D01*
X385230Y124553D01*
X383281Y126502D01*
X377434Y126502D01*
D11*
X445100Y10600D02*
X465100Y10600D01*
X500100Y10600D01*
X520100Y10600D01*
X520100Y88100D01*
X445100Y88100D02*
X445100Y10600D01*
X465100Y10600D02*
X465100Y15600D01*
X500100Y15600D01*
X500100Y10600D01*
X447600Y88100D02*
X445100Y88100D01*
X447600Y88100D02*
X447600Y50600D01*
X517600Y88100D02*
X520100Y88100D01*
X517600Y88100D02*
X517600Y50600D01*
X447600Y50600D01*
X469900Y12700D02*
X469900Y-88900D01*
X495300Y-88900D01*
X495300Y12700D01*
D10*
X3810Y88980D02*
X3810Y114380D01*
X-21590Y114380D01*
X-21590Y88980D01*
X3810Y88980D01*
D18*
X-27940Y101680D02*
X-85090Y101680D01*
D10*
X3810Y114380D02*
X3810Y139780D01*
X-21590Y139780D01*
X-21590Y114380D01*
D18*
X-27940Y127080D02*
X-85090Y127080D01*
D10*
X3810Y139780D02*
X3810Y165180D01*
X-21590Y165180D01*
X-21590Y139780D01*
D18*
X-27940Y152480D02*
X-85090Y152480D01*
D10*
X3810Y165180D02*
X3810Y190580D01*
X-21590Y190580D01*
X-21590Y165180D01*
D18*
X-27940Y177880D02*
X-85090Y177880D01*
D10*
X3810Y190580D02*
X3810Y215980D01*
X-21590Y215980D01*
X-21590Y190580D01*
D18*
X-27940Y203280D02*
X-85090Y203280D01*
D11*
X-11587Y72472D02*
X-9680Y70565D01*
X-7774Y70565D01*
X-5867Y72472D01*
X-5867Y82005D01*
X-7774Y82005D02*
X-3960Y82005D01*
X107Y82005D02*
X107Y70565D01*
X107Y82005D02*
X5827Y82005D01*
X7734Y80098D01*
X7734Y76285D01*
X5827Y74378D01*
X107Y74378D01*
X11801Y70565D02*
X19427Y70565D01*
X11801Y70565D02*
X19427Y78192D01*
X19427Y80098D01*
X17521Y82005D01*
X13708Y82005D01*
X11801Y80098D01*
D19*
X-24130Y101680D03*
X-24130Y127080D03*
X-24130Y152480D03*
X-24130Y177880D03*
X-24130Y203280D03*
D20*
X8890Y101680D03*
X8890Y127080D03*
X8890Y152480D03*
X8890Y177880D03*
X8890Y203280D03*
D10*
X19050Y322580D02*
X12700Y328930D01*
X12700Y341630D01*
X19050Y347980D01*
X31750Y347980D01*
X38100Y341630D01*
X38100Y328930D01*
X31750Y322580D01*
X12700Y290830D02*
X12700Y278130D01*
X12700Y290830D02*
X19050Y297180D01*
X31750Y297180D01*
X38100Y290830D01*
X19050Y297180D02*
X12700Y303530D01*
X12700Y316230D01*
X19050Y322580D01*
X31750Y322580D01*
X38100Y316230D01*
X38100Y303530D01*
X31750Y297180D01*
X31750Y271780D02*
X19050Y271780D01*
X12700Y278130D01*
X31750Y271780D02*
X38100Y278130D01*
X38100Y290830D01*
X12700Y354330D02*
X12700Y367030D01*
X19050Y373380D01*
X31750Y373380D01*
X38100Y367030D01*
X19050Y347980D02*
X12700Y354330D01*
X31750Y347980D02*
X38100Y354330D01*
X38100Y367030D01*
D11*
X6477Y273560D02*
X4570Y271653D01*
X6477Y273560D02*
X6477Y275466D01*
X4570Y277373D01*
X-4963Y277373D01*
X-4963Y275466D02*
X-4963Y279280D01*
X-4963Y283347D02*
X6477Y283347D01*
X-4963Y283347D02*
X-4963Y289067D01*
X-3056Y290973D01*
X757Y290973D01*
X2664Y289067D01*
X2664Y283347D01*
X6477Y300761D02*
X-4963Y300761D01*
X757Y295041D01*
X757Y302667D01*
D10*
X298450Y406400D02*
X311150Y406400D01*
X317500Y400050D01*
X317500Y387350D01*
X311150Y381000D01*
X273050Y406400D02*
X266700Y400050D01*
X273050Y406400D02*
X285750Y406400D01*
X292100Y400050D01*
X292100Y387350D01*
X285750Y381000D01*
X273050Y381000D01*
X266700Y387350D01*
X292100Y400050D02*
X298450Y406400D01*
X292100Y387350D02*
X298450Y381000D01*
X311150Y381000D01*
X234950Y406400D02*
X222250Y406400D01*
X234950Y406400D02*
X241300Y400050D01*
X241300Y387350D01*
X234950Y381000D01*
X241300Y400050D02*
X247650Y406400D01*
X260350Y406400D01*
X266700Y400050D01*
X266700Y387350D01*
X260350Y381000D01*
X247650Y381000D01*
X241300Y387350D01*
X215900Y387350D02*
X215900Y400050D01*
X222250Y406400D01*
X215900Y387350D02*
X222250Y381000D01*
X234950Y381000D01*
X323850Y406400D02*
X336550Y406400D01*
X342900Y400050D01*
X342900Y387350D01*
X336550Y381000D01*
X317500Y400050D02*
X323850Y406400D01*
X317500Y387350D02*
X323850Y381000D01*
X336550Y381000D01*
D11*
X217680Y412623D02*
X215773Y414530D01*
X217680Y412623D02*
X219586Y412623D01*
X221493Y414530D01*
X221493Y424063D01*
X219586Y424063D02*
X223400Y424063D01*
X227467Y424063D02*
X227467Y412623D01*
X227467Y424063D02*
X233187Y424063D01*
X235093Y422156D01*
X235093Y418343D01*
X233187Y416436D01*
X227467Y416436D01*
X239161Y420250D02*
X242974Y424063D01*
X242974Y412623D01*
X239161Y412623D02*
X246787Y412623D01*
D10*
X571500Y146050D02*
X571500Y133350D01*
X565150Y127000D01*
X552450Y127000D01*
X546100Y133350D01*
X571500Y171450D02*
X565150Y177800D01*
X571500Y171450D02*
X571500Y158750D01*
X565150Y152400D01*
X552450Y152400D01*
X546100Y158750D01*
X546100Y171450D01*
X552450Y177800D01*
X565150Y152400D02*
X571500Y146050D01*
X552450Y152400D02*
X546100Y146050D01*
X546100Y133350D01*
X571500Y209550D02*
X571500Y222250D01*
X571500Y209550D02*
X565150Y203200D01*
X552450Y203200D01*
X546100Y209550D01*
X565150Y203200D02*
X571500Y196850D01*
X571500Y184150D01*
X565150Y177800D01*
X552450Y177800D01*
X546100Y184150D01*
X546100Y196850D01*
X552450Y203200D01*
X552450Y228600D02*
X565150Y228600D01*
X571500Y222250D01*
X552450Y228600D02*
X546100Y222250D01*
X546100Y209550D01*
X571500Y120650D02*
X571500Y107950D01*
X565150Y101600D01*
X552450Y101600D01*
X546100Y107950D01*
X565150Y127000D02*
X571500Y120650D01*
X552450Y127000D02*
X546100Y120650D01*
X546100Y107950D01*
D11*
X587246Y194915D02*
X589153Y196822D01*
X589153Y198728D01*
X587246Y200635D01*
X577713Y200635D01*
X577713Y198728D02*
X577713Y202542D01*
X577713Y206609D02*
X589153Y206609D01*
X577713Y206609D02*
X577713Y212329D01*
X579620Y214236D01*
X583433Y214236D01*
X585340Y212329D01*
X585340Y206609D01*
X579620Y218303D02*
X577713Y220210D01*
X577713Y224023D01*
X579620Y225929D01*
X581527Y225929D01*
X583433Y224023D01*
X583433Y222116D01*
X583433Y224023D02*
X585340Y225929D01*
X587246Y225929D01*
X589153Y224023D01*
X589153Y220210D01*
X587246Y218303D01*
D10*
X497840Y137160D02*
X497838Y137060D01*
X497832Y136961D01*
X497822Y136861D01*
X497809Y136763D01*
X497791Y136664D01*
X497770Y136567D01*
X497745Y136471D01*
X497716Y136375D01*
X497683Y136281D01*
X497647Y136188D01*
X497607Y136097D01*
X497563Y136007D01*
X497516Y135919D01*
X497466Y135833D01*
X497412Y135749D01*
X497355Y135667D01*
X497295Y135588D01*
X497231Y135510D01*
X497165Y135436D01*
X497096Y135364D01*
X497024Y135295D01*
X496950Y135229D01*
X496872Y135165D01*
X496793Y135105D01*
X496711Y135048D01*
X496627Y134994D01*
X496541Y134944D01*
X496453Y134897D01*
X496363Y134853D01*
X496272Y134813D01*
X496179Y134777D01*
X496085Y134744D01*
X495989Y134715D01*
X495893Y134690D01*
X495796Y134669D01*
X495697Y134651D01*
X495599Y134638D01*
X495499Y134628D01*
X495400Y134622D01*
X495300Y134620D01*
X497840Y152400D02*
X497838Y152500D01*
X497832Y152599D01*
X497822Y152699D01*
X497809Y152797D01*
X497791Y152896D01*
X497770Y152993D01*
X497745Y153089D01*
X497716Y153185D01*
X497683Y153279D01*
X497647Y153372D01*
X497607Y153463D01*
X497563Y153553D01*
X497516Y153641D01*
X497466Y153727D01*
X497412Y153811D01*
X497355Y153893D01*
X497295Y153972D01*
X497231Y154050D01*
X497165Y154124D01*
X497096Y154196D01*
X497024Y154265D01*
X496950Y154331D01*
X496872Y154395D01*
X496793Y154455D01*
X496711Y154512D01*
X496627Y154566D01*
X496541Y154616D01*
X496453Y154663D01*
X496363Y154707D01*
X496272Y154747D01*
X496179Y154783D01*
X496085Y154816D01*
X495989Y154845D01*
X495893Y154870D01*
X495796Y154891D01*
X495697Y154909D01*
X495599Y154922D01*
X495499Y154932D01*
X495400Y154938D01*
X495300Y154940D01*
X449580Y154940D02*
X449480Y154938D01*
X449381Y154932D01*
X449281Y154922D01*
X449183Y154909D01*
X449084Y154891D01*
X448987Y154870D01*
X448891Y154845D01*
X448795Y154816D01*
X448701Y154783D01*
X448608Y154747D01*
X448517Y154707D01*
X448427Y154663D01*
X448339Y154616D01*
X448253Y154566D01*
X448169Y154512D01*
X448087Y154455D01*
X448008Y154395D01*
X447930Y154331D01*
X447856Y154265D01*
X447784Y154196D01*
X447715Y154124D01*
X447649Y154050D01*
X447585Y153972D01*
X447525Y153893D01*
X447468Y153811D01*
X447414Y153727D01*
X447364Y153641D01*
X447317Y153553D01*
X447273Y153463D01*
X447233Y153372D01*
X447197Y153279D01*
X447164Y153185D01*
X447135Y153089D01*
X447110Y152993D01*
X447089Y152896D01*
X447071Y152797D01*
X447058Y152699D01*
X447048Y152599D01*
X447042Y152500D01*
X447040Y152400D01*
X447040Y137160D02*
X447042Y137060D01*
X447048Y136961D01*
X447058Y136861D01*
X447071Y136763D01*
X447089Y136664D01*
X447110Y136567D01*
X447135Y136471D01*
X447164Y136375D01*
X447197Y136281D01*
X447233Y136188D01*
X447273Y136097D01*
X447317Y136007D01*
X447364Y135919D01*
X447414Y135833D01*
X447468Y135749D01*
X447525Y135667D01*
X447585Y135588D01*
X447649Y135510D01*
X447715Y135436D01*
X447784Y135364D01*
X447856Y135295D01*
X447930Y135229D01*
X448008Y135165D01*
X448087Y135105D01*
X448169Y135048D01*
X448253Y134994D01*
X448339Y134944D01*
X448427Y134897D01*
X448517Y134853D01*
X448608Y134813D01*
X448701Y134777D01*
X448795Y134744D01*
X448891Y134715D01*
X448987Y134690D01*
X449084Y134669D01*
X449183Y134651D01*
X449281Y134638D01*
X449381Y134628D01*
X449480Y134622D01*
X449580Y134620D01*
X497840Y137160D02*
X497840Y152400D01*
X495300Y134620D02*
X491490Y134620D01*
X490220Y135890D01*
X491490Y154940D02*
X495300Y154940D01*
X491490Y154940D02*
X490220Y153670D01*
X454660Y135890D02*
X453390Y134620D01*
X454660Y135890D02*
X490220Y135890D01*
X454660Y153670D02*
X453390Y154940D01*
X454660Y153670D02*
X490220Y153670D01*
X453390Y134620D02*
X449580Y134620D01*
X449580Y154940D02*
X453390Y154940D01*
X447040Y152400D02*
X447040Y137160D01*
D13*
X480105Y131326D02*
X480105Y122428D01*
X480105Y131326D02*
X484554Y131326D01*
X486037Y129843D01*
X486037Y126877D01*
X484554Y125394D01*
X480105Y125394D01*
X483071Y125394D02*
X486037Y122428D01*
X489227Y131326D02*
X495158Y131326D01*
X489227Y131326D02*
X489227Y126877D01*
X492193Y128360D01*
X493675Y128360D01*
X495158Y126877D01*
X495158Y123911D01*
X493675Y122428D01*
X490710Y122428D01*
X489227Y123911D01*
D21*
X445135Y144780D03*
X499745Y144780D03*
D10*
X491490Y304800D02*
X497840Y311150D01*
X491490Y304800D02*
X478790Y304800D01*
X472440Y311150D01*
X472440Y323850D01*
X478790Y330200D01*
X491490Y330200D01*
X497840Y323850D01*
X529590Y304800D02*
X542290Y304800D01*
X529590Y304800D02*
X523240Y311150D01*
X523240Y323850D01*
X529590Y330200D01*
X523240Y311150D02*
X516890Y304800D01*
X504190Y304800D01*
X497840Y311150D01*
X497840Y323850D01*
X504190Y330200D01*
X516890Y330200D01*
X523240Y323850D01*
X548640Y323850D02*
X548640Y311150D01*
X542290Y304800D01*
X548640Y323850D02*
X542290Y330200D01*
X529590Y330200D01*
X466090Y304800D02*
X453390Y304800D01*
X447040Y311150D01*
X447040Y323850D01*
X453390Y330200D01*
X472440Y311150D02*
X466090Y304800D01*
X472440Y323850D02*
X466090Y330200D01*
X453390Y330200D01*
D11*
X514955Y289054D02*
X516862Y287147D01*
X518768Y287147D01*
X520675Y289054D01*
X520675Y298587D01*
X518768Y298587D02*
X522582Y298587D01*
X526649Y298587D02*
X526649Y287147D01*
X526649Y298587D02*
X532369Y298587D01*
X534276Y296680D01*
X534276Y292867D01*
X532369Y290960D01*
X526649Y290960D01*
X538343Y298587D02*
X545969Y298587D01*
X538343Y298587D02*
X538343Y292867D01*
X542156Y294774D01*
X544063Y294774D01*
X545969Y292867D01*
X545969Y289054D01*
X544063Y287147D01*
X540250Y287147D01*
X538343Y289054D01*
D10*
X4750Y39140D02*
X4760Y39982D01*
X4791Y40823D01*
X4843Y41663D01*
X4915Y42501D01*
X5008Y43337D01*
X5121Y44171D01*
X5255Y45002D01*
X5409Y45830D01*
X5583Y46653D01*
X5778Y47472D01*
X5992Y48286D01*
X6227Y49094D01*
X6481Y49896D01*
X6754Y50692D01*
X7048Y51481D01*
X7360Y52262D01*
X7692Y53036D01*
X8042Y53801D01*
X8411Y54557D01*
X8799Y55304D01*
X9205Y56041D01*
X9628Y56769D01*
X10070Y57485D01*
X10529Y58191D01*
X11005Y58884D01*
X11498Y59567D01*
X12008Y60236D01*
X12533Y60893D01*
X13075Y61537D01*
X13633Y62168D01*
X14206Y62784D01*
X14793Y63387D01*
X15396Y63974D01*
X16012Y64547D01*
X16643Y65105D01*
X17287Y65647D01*
X17944Y66172D01*
X18613Y66682D01*
X19296Y67175D01*
X19989Y67651D01*
X20695Y68110D01*
X21411Y68552D01*
X22139Y68975D01*
X22876Y69381D01*
X23623Y69769D01*
X24379Y70138D01*
X25144Y70488D01*
X25918Y70820D01*
X26699Y71132D01*
X27488Y71426D01*
X28284Y71699D01*
X29086Y71953D01*
X29894Y72188D01*
X30708Y72402D01*
X31527Y72597D01*
X32350Y72771D01*
X33178Y72925D01*
X34009Y73059D01*
X34843Y73172D01*
X35679Y73265D01*
X36517Y73337D01*
X37357Y73389D01*
X38198Y73420D01*
X39040Y73430D01*
X39882Y73420D01*
X40723Y73389D01*
X41563Y73337D01*
X42401Y73265D01*
X43237Y73172D01*
X44071Y73059D01*
X44902Y72925D01*
X45730Y72771D01*
X46553Y72597D01*
X47372Y72402D01*
X48186Y72188D01*
X48994Y71953D01*
X49796Y71699D01*
X50592Y71426D01*
X51381Y71132D01*
X52162Y70820D01*
X52936Y70488D01*
X53701Y70138D01*
X54457Y69769D01*
X55204Y69381D01*
X55941Y68975D01*
X56669Y68552D01*
X57385Y68110D01*
X58091Y67651D01*
X58784Y67175D01*
X59467Y66682D01*
X60136Y66172D01*
X60793Y65647D01*
X61437Y65105D01*
X62068Y64547D01*
X62684Y63974D01*
X63287Y63387D01*
X63874Y62784D01*
X64447Y62168D01*
X65005Y61537D01*
X65547Y60893D01*
X66072Y60236D01*
X66582Y59567D01*
X67075Y58884D01*
X67551Y58191D01*
X68010Y57485D01*
X68452Y56769D01*
X68875Y56041D01*
X69281Y55304D01*
X69669Y54557D01*
X70038Y53801D01*
X70388Y53036D01*
X70720Y52262D01*
X71032Y51481D01*
X71326Y50692D01*
X71599Y49896D01*
X71853Y49094D01*
X72088Y48286D01*
X72302Y47472D01*
X72497Y46653D01*
X72671Y45830D01*
X72825Y45002D01*
X72959Y44171D01*
X73072Y43337D01*
X73165Y42501D01*
X73237Y41663D01*
X73289Y40823D01*
X73320Y39982D01*
X73330Y39140D01*
X73320Y38298D01*
X73289Y37457D01*
X73237Y36617D01*
X73165Y35779D01*
X73072Y34943D01*
X72959Y34109D01*
X72825Y33278D01*
X72671Y32450D01*
X72497Y31627D01*
X72302Y30808D01*
X72088Y29994D01*
X71853Y29186D01*
X71599Y28384D01*
X71326Y27588D01*
X71032Y26799D01*
X70720Y26018D01*
X70388Y25244D01*
X70038Y24479D01*
X69669Y23723D01*
X69281Y22976D01*
X68875Y22239D01*
X68452Y21511D01*
X68010Y20795D01*
X67551Y20089D01*
X67075Y19396D01*
X66582Y18713D01*
X66072Y18044D01*
X65547Y17387D01*
X65005Y16743D01*
X64447Y16112D01*
X63874Y15496D01*
X63287Y14893D01*
X62684Y14306D01*
X62068Y13733D01*
X61437Y13175D01*
X60793Y12633D01*
X60136Y12108D01*
X59467Y11598D01*
X58784Y11105D01*
X58091Y10629D01*
X57385Y10170D01*
X56669Y9728D01*
X55941Y9305D01*
X55204Y8899D01*
X54457Y8511D01*
X53701Y8142D01*
X52936Y7792D01*
X52162Y7460D01*
X51381Y7148D01*
X50592Y6854D01*
X49796Y6581D01*
X48994Y6327D01*
X48186Y6092D01*
X47372Y5878D01*
X46553Y5683D01*
X45730Y5509D01*
X44902Y5355D01*
X44071Y5221D01*
X43237Y5108D01*
X42401Y5015D01*
X41563Y4943D01*
X40723Y4891D01*
X39882Y4860D01*
X39040Y4850D01*
X38198Y4860D01*
X37357Y4891D01*
X36517Y4943D01*
X35679Y5015D01*
X34843Y5108D01*
X34009Y5221D01*
X33178Y5355D01*
X32350Y5509D01*
X31527Y5683D01*
X30708Y5878D01*
X29894Y6092D01*
X29086Y6327D01*
X28284Y6581D01*
X27488Y6854D01*
X26699Y7148D01*
X25918Y7460D01*
X25144Y7792D01*
X24379Y8142D01*
X23623Y8511D01*
X22876Y8899D01*
X22139Y9305D01*
X21411Y9728D01*
X20695Y10170D01*
X19989Y10629D01*
X19296Y11105D01*
X18613Y11598D01*
X17944Y12108D01*
X17287Y12633D01*
X16643Y13175D01*
X16012Y13733D01*
X15396Y14306D01*
X14793Y14893D01*
X14206Y15496D01*
X13633Y16112D01*
X13075Y16743D01*
X12533Y17387D01*
X12008Y18044D01*
X11498Y18713D01*
X11005Y19396D01*
X10529Y20089D01*
X10070Y20795D01*
X9628Y21511D01*
X9205Y22239D01*
X8799Y22976D01*
X8411Y23723D01*
X8042Y24479D01*
X7692Y25244D01*
X7360Y26018D01*
X7048Y26799D01*
X6754Y27588D01*
X6481Y28384D01*
X6227Y29186D01*
X5992Y29994D01*
X5778Y30808D01*
X5583Y31627D01*
X5409Y32450D01*
X5255Y33278D01*
X5121Y34109D01*
X5008Y34943D01*
X4915Y35779D01*
X4843Y36617D01*
X4791Y37457D01*
X4760Y38298D01*
X4750Y39140D01*
D16*
X22040Y39140D02*
X22045Y39557D01*
X22060Y39974D01*
X22086Y40391D01*
X22122Y40806D01*
X22168Y41221D01*
X22224Y41634D01*
X22290Y42046D01*
X22367Y42457D01*
X22453Y42865D01*
X22549Y43271D01*
X22656Y43674D01*
X22772Y44075D01*
X22898Y44473D01*
X23034Y44867D01*
X23179Y45258D01*
X23334Y45646D01*
X23498Y46029D01*
X23672Y46408D01*
X23855Y46783D01*
X24047Y47154D01*
X24249Y47519D01*
X24459Y47880D01*
X24677Y48235D01*
X24905Y48585D01*
X25141Y48929D01*
X25385Y49267D01*
X25638Y49599D01*
X25899Y49925D01*
X26167Y50244D01*
X26444Y50557D01*
X26728Y50862D01*
X27019Y51161D01*
X27318Y51452D01*
X27623Y51736D01*
X27936Y52013D01*
X28255Y52281D01*
X28581Y52542D01*
X28913Y52795D01*
X29251Y53039D01*
X29595Y53275D01*
X29945Y53503D01*
X30300Y53721D01*
X30661Y53931D01*
X31026Y54133D01*
X31397Y54325D01*
X31772Y54508D01*
X32151Y54682D01*
X32534Y54846D01*
X32922Y55001D01*
X33313Y55146D01*
X33707Y55282D01*
X34105Y55408D01*
X34506Y55524D01*
X34909Y55631D01*
X35315Y55727D01*
X35723Y55813D01*
X36134Y55890D01*
X36546Y55956D01*
X36959Y56012D01*
X37374Y56058D01*
X37789Y56094D01*
X38206Y56120D01*
X38623Y56135D01*
X39040Y56140D01*
X39457Y56135D01*
X39874Y56120D01*
X40291Y56094D01*
X40706Y56058D01*
X41121Y56012D01*
X41534Y55956D01*
X41946Y55890D01*
X42357Y55813D01*
X42765Y55727D01*
X43171Y55631D01*
X43574Y55524D01*
X43975Y55408D01*
X44373Y55282D01*
X44767Y55146D01*
X45158Y55001D01*
X45546Y54846D01*
X45929Y54682D01*
X46308Y54508D01*
X46683Y54325D01*
X47054Y54133D01*
X47419Y53931D01*
X47780Y53721D01*
X48135Y53503D01*
X48485Y53275D01*
X48829Y53039D01*
X49167Y52795D01*
X49499Y52542D01*
X49825Y52281D01*
X50144Y52013D01*
X50457Y51736D01*
X50762Y51452D01*
X51061Y51161D01*
X51352Y50862D01*
X51636Y50557D01*
X51913Y50244D01*
X52181Y49925D01*
X52442Y49599D01*
X52695Y49267D01*
X52939Y48929D01*
X53175Y48585D01*
X53403Y48235D01*
X53621Y47880D01*
X53831Y47519D01*
X54033Y47154D01*
X54225Y46783D01*
X54408Y46408D01*
X54582Y46029D01*
X54746Y45646D01*
X54901Y45258D01*
X55046Y44867D01*
X55182Y44473D01*
X55308Y44075D01*
X55424Y43674D01*
X55531Y43271D01*
X55627Y42865D01*
X55713Y42457D01*
X55790Y42046D01*
X55856Y41634D01*
X55912Y41221D01*
X55958Y40806D01*
X55994Y40391D01*
X56020Y39974D01*
X56035Y39557D01*
X56040Y39140D01*
X56035Y38723D01*
X56020Y38306D01*
X55994Y37889D01*
X55958Y37474D01*
X55912Y37059D01*
X55856Y36646D01*
X55790Y36234D01*
X55713Y35823D01*
X55627Y35415D01*
X55531Y35009D01*
X55424Y34606D01*
X55308Y34205D01*
X55182Y33807D01*
X55046Y33413D01*
X54901Y33022D01*
X54746Y32634D01*
X54582Y32251D01*
X54408Y31872D01*
X54225Y31497D01*
X54033Y31126D01*
X53831Y30761D01*
X53621Y30400D01*
X53403Y30045D01*
X53175Y29695D01*
X52939Y29351D01*
X52695Y29013D01*
X52442Y28681D01*
X52181Y28355D01*
X51913Y28036D01*
X51636Y27723D01*
X51352Y27418D01*
X51061Y27119D01*
X50762Y26828D01*
X50457Y26544D01*
X50144Y26267D01*
X49825Y25999D01*
X49499Y25738D01*
X49167Y25485D01*
X48829Y25241D01*
X48485Y25005D01*
X48135Y24777D01*
X47780Y24559D01*
X47419Y24349D01*
X47054Y24147D01*
X46683Y23955D01*
X46308Y23772D01*
X45929Y23598D01*
X45546Y23434D01*
X45158Y23279D01*
X44767Y23134D01*
X44373Y22998D01*
X43975Y22872D01*
X43574Y22756D01*
X43171Y22649D01*
X42765Y22553D01*
X42357Y22467D01*
X41946Y22390D01*
X41534Y22324D01*
X41121Y22268D01*
X40706Y22222D01*
X40291Y22186D01*
X39874Y22160D01*
X39457Y22145D01*
X39040Y22140D01*
X38623Y22145D01*
X38206Y22160D01*
X37789Y22186D01*
X37374Y22222D01*
X36959Y22268D01*
X36546Y22324D01*
X36134Y22390D01*
X35723Y22467D01*
X35315Y22553D01*
X34909Y22649D01*
X34506Y22756D01*
X34105Y22872D01*
X33707Y22998D01*
X33313Y23134D01*
X32922Y23279D01*
X32534Y23434D01*
X32151Y23598D01*
X31772Y23772D01*
X31397Y23955D01*
X31026Y24147D01*
X30661Y24349D01*
X30300Y24559D01*
X29945Y24777D01*
X29595Y25005D01*
X29251Y25241D01*
X28913Y25485D01*
X28581Y25738D01*
X28255Y25999D01*
X27936Y26267D01*
X27623Y26544D01*
X27318Y26828D01*
X27019Y27119D01*
X26728Y27418D01*
X26444Y27723D01*
X26167Y28036D01*
X25899Y28355D01*
X25638Y28681D01*
X25385Y29013D01*
X25141Y29351D01*
X24905Y29695D01*
X24677Y30045D01*
X24459Y30400D01*
X24249Y30761D01*
X24047Y31126D01*
X23855Y31497D01*
X23672Y31872D01*
X23498Y32251D01*
X23334Y32634D01*
X23179Y33022D01*
X23034Y33413D01*
X22898Y33807D01*
X22772Y34205D01*
X22656Y34606D01*
X22549Y35009D01*
X22453Y35415D01*
X22367Y35823D01*
X22290Y36234D01*
X22224Y36646D01*
X22168Y37059D01*
X22122Y37474D01*
X22086Y37889D01*
X22060Y38306D01*
X22045Y38723D01*
X22040Y39140D01*
D10*
X160160Y408820D02*
X160158Y408920D01*
X160152Y409019D01*
X160142Y409119D01*
X160129Y409217D01*
X160111Y409316D01*
X160090Y409413D01*
X160065Y409509D01*
X160036Y409605D01*
X160003Y409699D01*
X159967Y409792D01*
X159927Y409883D01*
X159883Y409973D01*
X159836Y410061D01*
X159786Y410147D01*
X159732Y410231D01*
X159675Y410313D01*
X159615Y410392D01*
X159551Y410470D01*
X159485Y410544D01*
X159416Y410616D01*
X159344Y410685D01*
X159270Y410751D01*
X159192Y410815D01*
X159113Y410875D01*
X159031Y410932D01*
X158947Y410986D01*
X158861Y411036D01*
X158773Y411083D01*
X158683Y411127D01*
X158592Y411167D01*
X158499Y411203D01*
X158405Y411236D01*
X158309Y411265D01*
X158213Y411290D01*
X158116Y411311D01*
X158017Y411329D01*
X157919Y411342D01*
X157819Y411352D01*
X157720Y411358D01*
X157620Y411360D01*
X142380Y411360D02*
X142280Y411358D01*
X142181Y411352D01*
X142081Y411342D01*
X141983Y411329D01*
X141884Y411311D01*
X141787Y411290D01*
X141691Y411265D01*
X141595Y411236D01*
X141501Y411203D01*
X141408Y411167D01*
X141317Y411127D01*
X141227Y411083D01*
X141139Y411036D01*
X141053Y410986D01*
X140969Y410932D01*
X140887Y410875D01*
X140808Y410815D01*
X140730Y410751D01*
X140656Y410685D01*
X140584Y410616D01*
X140515Y410544D01*
X140449Y410470D01*
X140385Y410392D01*
X140325Y410313D01*
X140268Y410231D01*
X140214Y410147D01*
X140164Y410061D01*
X140117Y409973D01*
X140073Y409883D01*
X140033Y409792D01*
X139997Y409699D01*
X139964Y409605D01*
X139935Y409509D01*
X139910Y409413D01*
X139889Y409316D01*
X139871Y409217D01*
X139858Y409119D01*
X139848Y409019D01*
X139842Y408920D01*
X139840Y408820D01*
X139840Y363100D02*
X139842Y363000D01*
X139848Y362901D01*
X139858Y362801D01*
X139871Y362703D01*
X139889Y362604D01*
X139910Y362507D01*
X139935Y362411D01*
X139964Y362315D01*
X139997Y362221D01*
X140033Y362128D01*
X140073Y362037D01*
X140117Y361947D01*
X140164Y361859D01*
X140214Y361773D01*
X140268Y361689D01*
X140325Y361607D01*
X140385Y361528D01*
X140449Y361450D01*
X140515Y361376D01*
X140584Y361304D01*
X140656Y361235D01*
X140730Y361169D01*
X140808Y361105D01*
X140887Y361045D01*
X140969Y360988D01*
X141053Y360934D01*
X141139Y360884D01*
X141227Y360837D01*
X141317Y360793D01*
X141408Y360753D01*
X141501Y360717D01*
X141595Y360684D01*
X141691Y360655D01*
X141787Y360630D01*
X141884Y360609D01*
X141983Y360591D01*
X142081Y360578D01*
X142181Y360568D01*
X142280Y360562D01*
X142380Y360560D01*
X157620Y360560D02*
X157720Y360562D01*
X157819Y360568D01*
X157919Y360578D01*
X158017Y360591D01*
X158116Y360609D01*
X158213Y360630D01*
X158309Y360655D01*
X158405Y360684D01*
X158499Y360717D01*
X158592Y360753D01*
X158683Y360793D01*
X158773Y360837D01*
X158861Y360884D01*
X158947Y360934D01*
X159031Y360988D01*
X159113Y361045D01*
X159192Y361105D01*
X159270Y361169D01*
X159344Y361235D01*
X159416Y361304D01*
X159485Y361376D01*
X159551Y361450D01*
X159615Y361528D01*
X159675Y361607D01*
X159732Y361689D01*
X159786Y361773D01*
X159836Y361859D01*
X159883Y361947D01*
X159927Y362037D01*
X159967Y362128D01*
X160003Y362221D01*
X160036Y362315D01*
X160065Y362411D01*
X160090Y362507D01*
X160111Y362604D01*
X160129Y362703D01*
X160142Y362801D01*
X160152Y362901D01*
X160158Y363000D01*
X160160Y363100D01*
X157620Y411360D02*
X142380Y411360D01*
X160160Y408820D02*
X160160Y405010D01*
X158890Y403740D01*
X139840Y405010D02*
X139840Y408820D01*
X139840Y405010D02*
X141110Y403740D01*
X158890Y368180D02*
X160160Y366910D01*
X158890Y368180D02*
X158890Y403740D01*
X141110Y368180D02*
X139840Y366910D01*
X141110Y368180D02*
X141110Y403740D01*
X160160Y366910D02*
X160160Y363100D01*
X139840Y363100D02*
X139840Y366910D01*
X142380Y360560D02*
X157620Y360560D01*
D13*
X163454Y393625D02*
X172352Y393625D01*
X163454Y393625D02*
X163454Y398074D01*
X164937Y399557D01*
X167903Y399557D01*
X169386Y398074D01*
X169386Y393625D01*
X169386Y396591D02*
X172352Y399557D01*
X172352Y402747D02*
X172352Y408678D01*
X172352Y402747D02*
X166420Y408678D01*
X164937Y408678D01*
X163454Y407195D01*
X163454Y404230D01*
X164937Y402747D01*
D14*
X150000Y358655D03*
X150000Y413265D03*
D10*
X636190Y40080D02*
X636200Y40922D01*
X636231Y41763D01*
X636283Y42603D01*
X636355Y43441D01*
X636448Y44277D01*
X636561Y45111D01*
X636695Y45942D01*
X636849Y46770D01*
X637023Y47593D01*
X637218Y48412D01*
X637432Y49226D01*
X637667Y50034D01*
X637921Y50836D01*
X638194Y51632D01*
X638488Y52421D01*
X638800Y53202D01*
X639132Y53976D01*
X639482Y54741D01*
X639851Y55497D01*
X640239Y56244D01*
X640645Y56981D01*
X641068Y57709D01*
X641510Y58425D01*
X641969Y59131D01*
X642445Y59824D01*
X642938Y60507D01*
X643448Y61176D01*
X643973Y61833D01*
X644515Y62477D01*
X645073Y63108D01*
X645646Y63724D01*
X646233Y64327D01*
X646836Y64914D01*
X647452Y65487D01*
X648083Y66045D01*
X648727Y66587D01*
X649384Y67112D01*
X650053Y67622D01*
X650736Y68115D01*
X651429Y68591D01*
X652135Y69050D01*
X652851Y69492D01*
X653579Y69915D01*
X654316Y70321D01*
X655063Y70709D01*
X655819Y71078D01*
X656584Y71428D01*
X657358Y71760D01*
X658139Y72072D01*
X658928Y72366D01*
X659724Y72639D01*
X660526Y72893D01*
X661334Y73128D01*
X662148Y73342D01*
X662967Y73537D01*
X663790Y73711D01*
X664618Y73865D01*
X665449Y73999D01*
X666283Y74112D01*
X667119Y74205D01*
X667957Y74277D01*
X668797Y74329D01*
X669638Y74360D01*
X670480Y74370D01*
X671322Y74360D01*
X672163Y74329D01*
X673003Y74277D01*
X673841Y74205D01*
X674677Y74112D01*
X675511Y73999D01*
X676342Y73865D01*
X677170Y73711D01*
X677993Y73537D01*
X678812Y73342D01*
X679626Y73128D01*
X680434Y72893D01*
X681236Y72639D01*
X682032Y72366D01*
X682821Y72072D01*
X683602Y71760D01*
X684376Y71428D01*
X685141Y71078D01*
X685897Y70709D01*
X686644Y70321D01*
X687381Y69915D01*
X688109Y69492D01*
X688825Y69050D01*
X689531Y68591D01*
X690224Y68115D01*
X690907Y67622D01*
X691576Y67112D01*
X692233Y66587D01*
X692877Y66045D01*
X693508Y65487D01*
X694124Y64914D01*
X694727Y64327D01*
X695314Y63724D01*
X695887Y63108D01*
X696445Y62477D01*
X696987Y61833D01*
X697512Y61176D01*
X698022Y60507D01*
X698515Y59824D01*
X698991Y59131D01*
X699450Y58425D01*
X699892Y57709D01*
X700315Y56981D01*
X700721Y56244D01*
X701109Y55497D01*
X701478Y54741D01*
X701828Y53976D01*
X702160Y53202D01*
X702472Y52421D01*
X702766Y51632D01*
X703039Y50836D01*
X703293Y50034D01*
X703528Y49226D01*
X703742Y48412D01*
X703937Y47593D01*
X704111Y46770D01*
X704265Y45942D01*
X704399Y45111D01*
X704512Y44277D01*
X704605Y43441D01*
X704677Y42603D01*
X704729Y41763D01*
X704760Y40922D01*
X704770Y40080D01*
X704760Y39238D01*
X704729Y38397D01*
X704677Y37557D01*
X704605Y36719D01*
X704512Y35883D01*
X704399Y35049D01*
X704265Y34218D01*
X704111Y33390D01*
X703937Y32567D01*
X703742Y31748D01*
X703528Y30934D01*
X703293Y30126D01*
X703039Y29324D01*
X702766Y28528D01*
X702472Y27739D01*
X702160Y26958D01*
X701828Y26184D01*
X701478Y25419D01*
X701109Y24663D01*
X700721Y23916D01*
X700315Y23179D01*
X699892Y22451D01*
X699450Y21735D01*
X698991Y21029D01*
X698515Y20336D01*
X698022Y19653D01*
X697512Y18984D01*
X696987Y18327D01*
X696445Y17683D01*
X695887Y17052D01*
X695314Y16436D01*
X694727Y15833D01*
X694124Y15246D01*
X693508Y14673D01*
X692877Y14115D01*
X692233Y13573D01*
X691576Y13048D01*
X690907Y12538D01*
X690224Y12045D01*
X689531Y11569D01*
X688825Y11110D01*
X688109Y10668D01*
X687381Y10245D01*
X686644Y9839D01*
X685897Y9451D01*
X685141Y9082D01*
X684376Y8732D01*
X683602Y8400D01*
X682821Y8088D01*
X682032Y7794D01*
X681236Y7521D01*
X680434Y7267D01*
X679626Y7032D01*
X678812Y6818D01*
X677993Y6623D01*
X677170Y6449D01*
X676342Y6295D01*
X675511Y6161D01*
X674677Y6048D01*
X673841Y5955D01*
X673003Y5883D01*
X672163Y5831D01*
X671322Y5800D01*
X670480Y5790D01*
X669638Y5800D01*
X668797Y5831D01*
X667957Y5883D01*
X667119Y5955D01*
X666283Y6048D01*
X665449Y6161D01*
X664618Y6295D01*
X663790Y6449D01*
X662967Y6623D01*
X662148Y6818D01*
X661334Y7032D01*
X660526Y7267D01*
X659724Y7521D01*
X658928Y7794D01*
X658139Y8088D01*
X657358Y8400D01*
X656584Y8732D01*
X655819Y9082D01*
X655063Y9451D01*
X654316Y9839D01*
X653579Y10245D01*
X652851Y10668D01*
X652135Y11110D01*
X651429Y11569D01*
X650736Y12045D01*
X650053Y12538D01*
X649384Y13048D01*
X648727Y13573D01*
X648083Y14115D01*
X647452Y14673D01*
X646836Y15246D01*
X646233Y15833D01*
X645646Y16436D01*
X645073Y17052D01*
X644515Y17683D01*
X643973Y18327D01*
X643448Y18984D01*
X642938Y19653D01*
X642445Y20336D01*
X641969Y21029D01*
X641510Y21735D01*
X641068Y22451D01*
X640645Y23179D01*
X640239Y23916D01*
X639851Y24663D01*
X639482Y25419D01*
X639132Y26184D01*
X638800Y26958D01*
X638488Y27739D01*
X638194Y28528D01*
X637921Y29324D01*
X637667Y30126D01*
X637432Y30934D01*
X637218Y31748D01*
X637023Y32567D01*
X636849Y33390D01*
X636695Y34218D01*
X636561Y35049D01*
X636448Y35883D01*
X636355Y36719D01*
X636283Y37557D01*
X636231Y38397D01*
X636200Y39238D01*
X636190Y40080D01*
D16*
X653480Y40080D02*
X653485Y40497D01*
X653500Y40914D01*
X653526Y41331D01*
X653562Y41746D01*
X653608Y42161D01*
X653664Y42574D01*
X653730Y42986D01*
X653807Y43397D01*
X653893Y43805D01*
X653989Y44211D01*
X654096Y44614D01*
X654212Y45015D01*
X654338Y45413D01*
X654474Y45807D01*
X654619Y46198D01*
X654774Y46586D01*
X654938Y46969D01*
X655112Y47348D01*
X655295Y47723D01*
X655487Y48094D01*
X655689Y48459D01*
X655899Y48820D01*
X656117Y49175D01*
X656345Y49525D01*
X656581Y49869D01*
X656825Y50207D01*
X657078Y50539D01*
X657339Y50865D01*
X657607Y51184D01*
X657884Y51497D01*
X658168Y51802D01*
X658459Y52101D01*
X658758Y52392D01*
X659063Y52676D01*
X659376Y52953D01*
X659695Y53221D01*
X660021Y53482D01*
X660353Y53735D01*
X660691Y53979D01*
X661035Y54215D01*
X661385Y54443D01*
X661740Y54661D01*
X662101Y54871D01*
X662466Y55073D01*
X662837Y55265D01*
X663212Y55448D01*
X663591Y55622D01*
X663974Y55786D01*
X664362Y55941D01*
X664753Y56086D01*
X665147Y56222D01*
X665545Y56348D01*
X665946Y56464D01*
X666349Y56571D01*
X666755Y56667D01*
X667163Y56753D01*
X667574Y56830D01*
X667986Y56896D01*
X668399Y56952D01*
X668814Y56998D01*
X669229Y57034D01*
X669646Y57060D01*
X670063Y57075D01*
X670480Y57080D01*
X670897Y57075D01*
X671314Y57060D01*
X671731Y57034D01*
X672146Y56998D01*
X672561Y56952D01*
X672974Y56896D01*
X673386Y56830D01*
X673797Y56753D01*
X674205Y56667D01*
X674611Y56571D01*
X675014Y56464D01*
X675415Y56348D01*
X675813Y56222D01*
X676207Y56086D01*
X676598Y55941D01*
X676986Y55786D01*
X677369Y55622D01*
X677748Y55448D01*
X678123Y55265D01*
X678494Y55073D01*
X678859Y54871D01*
X679220Y54661D01*
X679575Y54443D01*
X679925Y54215D01*
X680269Y53979D01*
X680607Y53735D01*
X680939Y53482D01*
X681265Y53221D01*
X681584Y52953D01*
X681897Y52676D01*
X682202Y52392D01*
X682501Y52101D01*
X682792Y51802D01*
X683076Y51497D01*
X683353Y51184D01*
X683621Y50865D01*
X683882Y50539D01*
X684135Y50207D01*
X684379Y49869D01*
X684615Y49525D01*
X684843Y49175D01*
X685061Y48820D01*
X685271Y48459D01*
X685473Y48094D01*
X685665Y47723D01*
X685848Y47348D01*
X686022Y46969D01*
X686186Y46586D01*
X686341Y46198D01*
X686486Y45807D01*
X686622Y45413D01*
X686748Y45015D01*
X686864Y44614D01*
X686971Y44211D01*
X687067Y43805D01*
X687153Y43397D01*
X687230Y42986D01*
X687296Y42574D01*
X687352Y42161D01*
X687398Y41746D01*
X687434Y41331D01*
X687460Y40914D01*
X687475Y40497D01*
X687480Y40080D01*
X687475Y39663D01*
X687460Y39246D01*
X687434Y38829D01*
X687398Y38414D01*
X687352Y37999D01*
X687296Y37586D01*
X687230Y37174D01*
X687153Y36763D01*
X687067Y36355D01*
X686971Y35949D01*
X686864Y35546D01*
X686748Y35145D01*
X686622Y34747D01*
X686486Y34353D01*
X686341Y33962D01*
X686186Y33574D01*
X686022Y33191D01*
X685848Y32812D01*
X685665Y32437D01*
X685473Y32066D01*
X685271Y31701D01*
X685061Y31340D01*
X684843Y30985D01*
X684615Y30635D01*
X684379Y30291D01*
X684135Y29953D01*
X683882Y29621D01*
X683621Y29295D01*
X683353Y28976D01*
X683076Y28663D01*
X682792Y28358D01*
X682501Y28059D01*
X682202Y27768D01*
X681897Y27484D01*
X681584Y27207D01*
X681265Y26939D01*
X680939Y26678D01*
X680607Y26425D01*
X680269Y26181D01*
X679925Y25945D01*
X679575Y25717D01*
X679220Y25499D01*
X678859Y25289D01*
X678494Y25087D01*
X678123Y24895D01*
X677748Y24712D01*
X677369Y24538D01*
X676986Y24374D01*
X676598Y24219D01*
X676207Y24074D01*
X675813Y23938D01*
X675415Y23812D01*
X675014Y23696D01*
X674611Y23589D01*
X674205Y23493D01*
X673797Y23407D01*
X673386Y23330D01*
X672974Y23264D01*
X672561Y23208D01*
X672146Y23162D01*
X671731Y23126D01*
X671314Y23100D01*
X670897Y23085D01*
X670480Y23080D01*
X670063Y23085D01*
X669646Y23100D01*
X669229Y23126D01*
X668814Y23162D01*
X668399Y23208D01*
X667986Y23264D01*
X667574Y23330D01*
X667163Y23407D01*
X666755Y23493D01*
X666349Y23589D01*
X665946Y23696D01*
X665545Y23812D01*
X665147Y23938D01*
X664753Y24074D01*
X664362Y24219D01*
X663974Y24374D01*
X663591Y24538D01*
X663212Y24712D01*
X662837Y24895D01*
X662466Y25087D01*
X662101Y25289D01*
X661740Y25499D01*
X661385Y25717D01*
X661035Y25945D01*
X660691Y26181D01*
X660353Y26425D01*
X660021Y26678D01*
X659695Y26939D01*
X659376Y27207D01*
X659063Y27484D01*
X658758Y27768D01*
X658459Y28059D01*
X658168Y28358D01*
X657884Y28663D01*
X657607Y28976D01*
X657339Y29295D01*
X657078Y29621D01*
X656825Y29953D01*
X656581Y30291D01*
X656345Y30635D01*
X656117Y30985D01*
X655899Y31340D01*
X655689Y31701D01*
X655487Y32066D01*
X655295Y32437D01*
X655112Y32812D01*
X654938Y33191D01*
X654774Y33574D01*
X654619Y33962D01*
X654474Y34353D01*
X654338Y34747D01*
X654212Y35145D01*
X654096Y35546D01*
X653989Y35949D01*
X653893Y36355D01*
X653807Y36763D01*
X653730Y37174D01*
X653664Y37586D01*
X653608Y37999D01*
X653562Y38414D01*
X653526Y38829D01*
X653500Y39246D01*
X653485Y39663D01*
X653480Y40080D01*
D10*
X636190Y449020D02*
X636200Y449862D01*
X636231Y450703D01*
X636283Y451543D01*
X636355Y452381D01*
X636448Y453217D01*
X636561Y454051D01*
X636695Y454882D01*
X636849Y455710D01*
X637023Y456533D01*
X637218Y457352D01*
X637432Y458166D01*
X637667Y458974D01*
X637921Y459776D01*
X638194Y460572D01*
X638488Y461361D01*
X638800Y462142D01*
X639132Y462916D01*
X639482Y463681D01*
X639851Y464437D01*
X640239Y465184D01*
X640645Y465921D01*
X641068Y466649D01*
X641510Y467365D01*
X641969Y468071D01*
X642445Y468764D01*
X642938Y469447D01*
X643448Y470116D01*
X643973Y470773D01*
X644515Y471417D01*
X645073Y472048D01*
X645646Y472664D01*
X646233Y473267D01*
X646836Y473854D01*
X647452Y474427D01*
X648083Y474985D01*
X648727Y475527D01*
X649384Y476052D01*
X650053Y476562D01*
X650736Y477055D01*
X651429Y477531D01*
X652135Y477990D01*
X652851Y478432D01*
X653579Y478855D01*
X654316Y479261D01*
X655063Y479649D01*
X655819Y480018D01*
X656584Y480368D01*
X657358Y480700D01*
X658139Y481012D01*
X658928Y481306D01*
X659724Y481579D01*
X660526Y481833D01*
X661334Y482068D01*
X662148Y482282D01*
X662967Y482477D01*
X663790Y482651D01*
X664618Y482805D01*
X665449Y482939D01*
X666283Y483052D01*
X667119Y483145D01*
X667957Y483217D01*
X668797Y483269D01*
X669638Y483300D01*
X670480Y483310D01*
X671322Y483300D01*
X672163Y483269D01*
X673003Y483217D01*
X673841Y483145D01*
X674677Y483052D01*
X675511Y482939D01*
X676342Y482805D01*
X677170Y482651D01*
X677993Y482477D01*
X678812Y482282D01*
X679626Y482068D01*
X680434Y481833D01*
X681236Y481579D01*
X682032Y481306D01*
X682821Y481012D01*
X683602Y480700D01*
X684376Y480368D01*
X685141Y480018D01*
X685897Y479649D01*
X686644Y479261D01*
X687381Y478855D01*
X688109Y478432D01*
X688825Y477990D01*
X689531Y477531D01*
X690224Y477055D01*
X690907Y476562D01*
X691576Y476052D01*
X692233Y475527D01*
X692877Y474985D01*
X693508Y474427D01*
X694124Y473854D01*
X694727Y473267D01*
X695314Y472664D01*
X695887Y472048D01*
X696445Y471417D01*
X696987Y470773D01*
X697512Y470116D01*
X698022Y469447D01*
X698515Y468764D01*
X698991Y468071D01*
X699450Y467365D01*
X699892Y466649D01*
X700315Y465921D01*
X700721Y465184D01*
X701109Y464437D01*
X701478Y463681D01*
X701828Y462916D01*
X702160Y462142D01*
X702472Y461361D01*
X702766Y460572D01*
X703039Y459776D01*
X703293Y458974D01*
X703528Y458166D01*
X703742Y457352D01*
X703937Y456533D01*
X704111Y455710D01*
X704265Y454882D01*
X704399Y454051D01*
X704512Y453217D01*
X704605Y452381D01*
X704677Y451543D01*
X704729Y450703D01*
X704760Y449862D01*
X704770Y449020D01*
X704760Y448178D01*
X704729Y447337D01*
X704677Y446497D01*
X704605Y445659D01*
X704512Y444823D01*
X704399Y443989D01*
X704265Y443158D01*
X704111Y442330D01*
X703937Y441507D01*
X703742Y440688D01*
X703528Y439874D01*
X703293Y439066D01*
X703039Y438264D01*
X702766Y437468D01*
X702472Y436679D01*
X702160Y435898D01*
X701828Y435124D01*
X701478Y434359D01*
X701109Y433603D01*
X700721Y432856D01*
X700315Y432119D01*
X699892Y431391D01*
X699450Y430675D01*
X698991Y429969D01*
X698515Y429276D01*
X698022Y428593D01*
X697512Y427924D01*
X696987Y427267D01*
X696445Y426623D01*
X695887Y425992D01*
X695314Y425376D01*
X694727Y424773D01*
X694124Y424186D01*
X693508Y423613D01*
X692877Y423055D01*
X692233Y422513D01*
X691576Y421988D01*
X690907Y421478D01*
X690224Y420985D01*
X689531Y420509D01*
X688825Y420050D01*
X688109Y419608D01*
X687381Y419185D01*
X686644Y418779D01*
X685897Y418391D01*
X685141Y418022D01*
X684376Y417672D01*
X683602Y417340D01*
X682821Y417028D01*
X682032Y416734D01*
X681236Y416461D01*
X680434Y416207D01*
X679626Y415972D01*
X678812Y415758D01*
X677993Y415563D01*
X677170Y415389D01*
X676342Y415235D01*
X675511Y415101D01*
X674677Y414988D01*
X673841Y414895D01*
X673003Y414823D01*
X672163Y414771D01*
X671322Y414740D01*
X670480Y414730D01*
X669638Y414740D01*
X668797Y414771D01*
X667957Y414823D01*
X667119Y414895D01*
X666283Y414988D01*
X665449Y415101D01*
X664618Y415235D01*
X663790Y415389D01*
X662967Y415563D01*
X662148Y415758D01*
X661334Y415972D01*
X660526Y416207D01*
X659724Y416461D01*
X658928Y416734D01*
X658139Y417028D01*
X657358Y417340D01*
X656584Y417672D01*
X655819Y418022D01*
X655063Y418391D01*
X654316Y418779D01*
X653579Y419185D01*
X652851Y419608D01*
X652135Y420050D01*
X651429Y420509D01*
X650736Y420985D01*
X650053Y421478D01*
X649384Y421988D01*
X648727Y422513D01*
X648083Y423055D01*
X647452Y423613D01*
X646836Y424186D01*
X646233Y424773D01*
X645646Y425376D01*
X645073Y425992D01*
X644515Y426623D01*
X643973Y427267D01*
X643448Y427924D01*
X642938Y428593D01*
X642445Y429276D01*
X641969Y429969D01*
X641510Y430675D01*
X641068Y431391D01*
X640645Y432119D01*
X640239Y432856D01*
X639851Y433603D01*
X639482Y434359D01*
X639132Y435124D01*
X638800Y435898D01*
X638488Y436679D01*
X638194Y437468D01*
X637921Y438264D01*
X637667Y439066D01*
X637432Y439874D01*
X637218Y440688D01*
X637023Y441507D01*
X636849Y442330D01*
X636695Y443158D01*
X636561Y443989D01*
X636448Y444823D01*
X636355Y445659D01*
X636283Y446497D01*
X636231Y447337D01*
X636200Y448178D01*
X636190Y449020D01*
D16*
X653480Y449020D02*
X653485Y449437D01*
X653500Y449854D01*
X653526Y450271D01*
X653562Y450686D01*
X653608Y451101D01*
X653664Y451514D01*
X653730Y451926D01*
X653807Y452337D01*
X653893Y452745D01*
X653989Y453151D01*
X654096Y453554D01*
X654212Y453955D01*
X654338Y454353D01*
X654474Y454747D01*
X654619Y455138D01*
X654774Y455526D01*
X654938Y455909D01*
X655112Y456288D01*
X655295Y456663D01*
X655487Y457034D01*
X655689Y457399D01*
X655899Y457760D01*
X656117Y458115D01*
X656345Y458465D01*
X656581Y458809D01*
X656825Y459147D01*
X657078Y459479D01*
X657339Y459805D01*
X657607Y460124D01*
X657884Y460437D01*
X658168Y460742D01*
X658459Y461041D01*
X658758Y461332D01*
X659063Y461616D01*
X659376Y461893D01*
X659695Y462161D01*
X660021Y462422D01*
X660353Y462675D01*
X660691Y462919D01*
X661035Y463155D01*
X661385Y463383D01*
X661740Y463601D01*
X662101Y463811D01*
X662466Y464013D01*
X662837Y464205D01*
X663212Y464388D01*
X663591Y464562D01*
X663974Y464726D01*
X664362Y464881D01*
X664753Y465026D01*
X665147Y465162D01*
X665545Y465288D01*
X665946Y465404D01*
X666349Y465511D01*
X666755Y465607D01*
X667163Y465693D01*
X667574Y465770D01*
X667986Y465836D01*
X668399Y465892D01*
X668814Y465938D01*
X669229Y465974D01*
X669646Y466000D01*
X670063Y466015D01*
X670480Y466020D01*
X670897Y466015D01*
X671314Y466000D01*
X671731Y465974D01*
X672146Y465938D01*
X672561Y465892D01*
X672974Y465836D01*
X673386Y465770D01*
X673797Y465693D01*
X674205Y465607D01*
X674611Y465511D01*
X675014Y465404D01*
X675415Y465288D01*
X675813Y465162D01*
X676207Y465026D01*
X676598Y464881D01*
X676986Y464726D01*
X677369Y464562D01*
X677748Y464388D01*
X678123Y464205D01*
X678494Y464013D01*
X678859Y463811D01*
X679220Y463601D01*
X679575Y463383D01*
X679925Y463155D01*
X680269Y462919D01*
X680607Y462675D01*
X680939Y462422D01*
X681265Y462161D01*
X681584Y461893D01*
X681897Y461616D01*
X682202Y461332D01*
X682501Y461041D01*
X682792Y460742D01*
X683076Y460437D01*
X683353Y460124D01*
X683621Y459805D01*
X683882Y459479D01*
X684135Y459147D01*
X684379Y458809D01*
X684615Y458465D01*
X684843Y458115D01*
X685061Y457760D01*
X685271Y457399D01*
X685473Y457034D01*
X685665Y456663D01*
X685848Y456288D01*
X686022Y455909D01*
X686186Y455526D01*
X686341Y455138D01*
X686486Y454747D01*
X686622Y454353D01*
X686748Y453955D01*
X686864Y453554D01*
X686971Y453151D01*
X687067Y452745D01*
X687153Y452337D01*
X687230Y451926D01*
X687296Y451514D01*
X687352Y451101D01*
X687398Y450686D01*
X687434Y450271D01*
X687460Y449854D01*
X687475Y449437D01*
X687480Y449020D01*
X687475Y448603D01*
X687460Y448186D01*
X687434Y447769D01*
X687398Y447354D01*
X687352Y446939D01*
X687296Y446526D01*
X687230Y446114D01*
X687153Y445703D01*
X687067Y445295D01*
X686971Y444889D01*
X686864Y444486D01*
X686748Y444085D01*
X686622Y443687D01*
X686486Y443293D01*
X686341Y442902D01*
X686186Y442514D01*
X686022Y442131D01*
X685848Y441752D01*
X685665Y441377D01*
X685473Y441006D01*
X685271Y440641D01*
X685061Y440280D01*
X684843Y439925D01*
X684615Y439575D01*
X684379Y439231D01*
X684135Y438893D01*
X683882Y438561D01*
X683621Y438235D01*
X683353Y437916D01*
X683076Y437603D01*
X682792Y437298D01*
X682501Y436999D01*
X682202Y436708D01*
X681897Y436424D01*
X681584Y436147D01*
X681265Y435879D01*
X680939Y435618D01*
X680607Y435365D01*
X680269Y435121D01*
X679925Y434885D01*
X679575Y434657D01*
X679220Y434439D01*
X678859Y434229D01*
X678494Y434027D01*
X678123Y433835D01*
X677748Y433652D01*
X677369Y433478D01*
X676986Y433314D01*
X676598Y433159D01*
X676207Y433014D01*
X675813Y432878D01*
X675415Y432752D01*
X675014Y432636D01*
X674611Y432529D01*
X674205Y432433D01*
X673797Y432347D01*
X673386Y432270D01*
X672974Y432204D01*
X672561Y432148D01*
X672146Y432102D01*
X671731Y432066D01*
X671314Y432040D01*
X670897Y432025D01*
X670480Y432020D01*
X670063Y432025D01*
X669646Y432040D01*
X669229Y432066D01*
X668814Y432102D01*
X668399Y432148D01*
X667986Y432204D01*
X667574Y432270D01*
X667163Y432347D01*
X666755Y432433D01*
X666349Y432529D01*
X665946Y432636D01*
X665545Y432752D01*
X665147Y432878D01*
X664753Y433014D01*
X664362Y433159D01*
X663974Y433314D01*
X663591Y433478D01*
X663212Y433652D01*
X662837Y433835D01*
X662466Y434027D01*
X662101Y434229D01*
X661740Y434439D01*
X661385Y434657D01*
X661035Y434885D01*
X660691Y435121D01*
X660353Y435365D01*
X660021Y435618D01*
X659695Y435879D01*
X659376Y436147D01*
X659063Y436424D01*
X658758Y436708D01*
X658459Y436999D01*
X658168Y437298D01*
X657884Y437603D01*
X657607Y437916D01*
X657339Y438235D01*
X657078Y438561D01*
X656825Y438893D01*
X656581Y439231D01*
X656345Y439575D01*
X656117Y439925D01*
X655899Y440280D01*
X655689Y440641D01*
X655487Y441006D01*
X655295Y441377D01*
X655112Y441752D01*
X654938Y442131D01*
X654774Y442514D01*
X654619Y442902D01*
X654474Y443293D01*
X654338Y443687D01*
X654212Y444085D01*
X654096Y444486D01*
X653989Y444889D01*
X653893Y445295D01*
X653807Y445703D01*
X653730Y446114D01*
X653664Y446526D01*
X653608Y446939D01*
X653562Y447354D01*
X653526Y447769D01*
X653500Y448186D01*
X653485Y448603D01*
X653480Y449020D01*
D10*
X492760Y274320D02*
X492765Y274694D01*
X492778Y275068D01*
X492801Y275441D01*
X492833Y275814D01*
X492875Y276186D01*
X492925Y276556D01*
X492984Y276925D01*
X493053Y277293D01*
X493130Y277659D01*
X493217Y278023D01*
X493312Y278385D01*
X493416Y278744D01*
X493529Y279101D01*
X493651Y279454D01*
X493781Y279805D01*
X493920Y280152D01*
X494067Y280496D01*
X494223Y280836D01*
X494387Y281172D01*
X494560Y281504D01*
X494740Y281832D01*
X494928Y282155D01*
X495124Y282473D01*
X495328Y282787D01*
X495540Y283095D01*
X495759Y283398D01*
X495986Y283696D01*
X496219Y283988D01*
X496460Y284274D01*
X496708Y284555D01*
X496962Y284829D01*
X497224Y285096D01*
X497491Y285358D01*
X497765Y285612D01*
X498046Y285860D01*
X498332Y286101D01*
X498624Y286334D01*
X498922Y286561D01*
X499225Y286780D01*
X499533Y286992D01*
X499847Y287196D01*
X500165Y287392D01*
X500488Y287580D01*
X500816Y287760D01*
X501148Y287933D01*
X501484Y288097D01*
X501824Y288253D01*
X502168Y288400D01*
X502515Y288539D01*
X502866Y288669D01*
X503219Y288791D01*
X503576Y288904D01*
X503935Y289008D01*
X504297Y289103D01*
X504661Y289190D01*
X505027Y289267D01*
X505395Y289336D01*
X505764Y289395D01*
X506134Y289445D01*
X506506Y289487D01*
X506879Y289519D01*
X507252Y289542D01*
X507626Y289555D01*
X508000Y289560D01*
X508374Y289555D01*
X508748Y289542D01*
X509121Y289519D01*
X509494Y289487D01*
X509866Y289445D01*
X510236Y289395D01*
X510605Y289336D01*
X510973Y289267D01*
X511339Y289190D01*
X511703Y289103D01*
X512065Y289008D01*
X512424Y288904D01*
X512781Y288791D01*
X513134Y288669D01*
X513485Y288539D01*
X513832Y288400D01*
X514176Y288253D01*
X514516Y288097D01*
X514852Y287933D01*
X515184Y287760D01*
X515512Y287580D01*
X515835Y287392D01*
X516153Y287196D01*
X516467Y286992D01*
X516775Y286780D01*
X517078Y286561D01*
X517376Y286334D01*
X517668Y286101D01*
X517954Y285860D01*
X518235Y285612D01*
X518509Y285358D01*
X518776Y285096D01*
X519038Y284829D01*
X519292Y284555D01*
X519540Y284274D01*
X519781Y283988D01*
X520014Y283696D01*
X520241Y283398D01*
X520460Y283095D01*
X520672Y282787D01*
X520876Y282473D01*
X521072Y282155D01*
X521260Y281832D01*
X521440Y281504D01*
X521613Y281172D01*
X521777Y280836D01*
X521933Y280496D01*
X522080Y280152D01*
X522219Y279805D01*
X522349Y279454D01*
X522471Y279101D01*
X522584Y278744D01*
X522688Y278385D01*
X522783Y278023D01*
X522870Y277659D01*
X522947Y277293D01*
X523016Y276925D01*
X523075Y276556D01*
X523125Y276186D01*
X523167Y275814D01*
X523199Y275441D01*
X523222Y275068D01*
X523235Y274694D01*
X523240Y274320D01*
X523235Y273946D01*
X523222Y273572D01*
X523199Y273199D01*
X523167Y272826D01*
X523125Y272454D01*
X523075Y272084D01*
X523016Y271715D01*
X522947Y271347D01*
X522870Y270981D01*
X522783Y270617D01*
X522688Y270255D01*
X522584Y269896D01*
X522471Y269539D01*
X522349Y269186D01*
X522219Y268835D01*
X522080Y268488D01*
X521933Y268144D01*
X521777Y267804D01*
X521613Y267468D01*
X521440Y267136D01*
X521260Y266808D01*
X521072Y266485D01*
X520876Y266167D01*
X520672Y265853D01*
X520460Y265545D01*
X520241Y265242D01*
X520014Y264944D01*
X519781Y264652D01*
X519540Y264366D01*
X519292Y264085D01*
X519038Y263811D01*
X518776Y263544D01*
X518509Y263282D01*
X518235Y263028D01*
X517954Y262780D01*
X517668Y262539D01*
X517376Y262306D01*
X517078Y262079D01*
X516775Y261860D01*
X516467Y261648D01*
X516153Y261444D01*
X515835Y261248D01*
X515512Y261060D01*
X515184Y260880D01*
X514852Y260707D01*
X514516Y260543D01*
X514176Y260387D01*
X513832Y260240D01*
X513485Y260101D01*
X513134Y259971D01*
X512781Y259849D01*
X512424Y259736D01*
X512065Y259632D01*
X511703Y259537D01*
X511339Y259450D01*
X510973Y259373D01*
X510605Y259304D01*
X510236Y259245D01*
X509866Y259195D01*
X509494Y259153D01*
X509121Y259121D01*
X508748Y259098D01*
X508374Y259085D01*
X508000Y259080D01*
X507626Y259085D01*
X507252Y259098D01*
X506879Y259121D01*
X506506Y259153D01*
X506134Y259195D01*
X505764Y259245D01*
X505395Y259304D01*
X505027Y259373D01*
X504661Y259450D01*
X504297Y259537D01*
X503935Y259632D01*
X503576Y259736D01*
X503219Y259849D01*
X502866Y259971D01*
X502515Y260101D01*
X502168Y260240D01*
X501824Y260387D01*
X501484Y260543D01*
X501148Y260707D01*
X500816Y260880D01*
X500488Y261060D01*
X500165Y261248D01*
X499847Y261444D01*
X499533Y261648D01*
X499225Y261860D01*
X498922Y262079D01*
X498624Y262306D01*
X498332Y262539D01*
X498046Y262780D01*
X497765Y263028D01*
X497491Y263282D01*
X497224Y263544D01*
X496962Y263811D01*
X496708Y264085D01*
X496460Y264366D01*
X496219Y264652D01*
X495986Y264944D01*
X495759Y265242D01*
X495540Y265545D01*
X495328Y265853D01*
X495124Y266167D01*
X494928Y266485D01*
X494740Y266808D01*
X494560Y267136D01*
X494387Y267468D01*
X494223Y267804D01*
X494067Y268144D01*
X493920Y268488D01*
X493781Y268835D01*
X493651Y269186D01*
X493529Y269539D01*
X493416Y269896D01*
X493312Y270255D01*
X493217Y270617D01*
X493130Y270981D01*
X493053Y271347D01*
X492984Y271715D01*
X492925Y272084D01*
X492875Y272454D01*
X492833Y272826D01*
X492801Y273199D01*
X492778Y273572D01*
X492765Y273946D01*
X492760Y274320D01*
D11*
X523875Y285115D02*
X523875Y296555D01*
X529595Y296555D01*
X531502Y294648D01*
X531502Y290835D01*
X529595Y288928D01*
X523875Y288928D01*
X527688Y288928D02*
X531502Y285115D01*
X541289Y285115D02*
X541289Y296555D01*
X535569Y290835D01*
X543195Y290835D01*
D22*
X520319Y274320D03*
D10*
X444500Y248920D02*
X444505Y249294D01*
X444518Y249668D01*
X444541Y250041D01*
X444573Y250414D01*
X444615Y250786D01*
X444665Y251156D01*
X444724Y251525D01*
X444793Y251893D01*
X444870Y252259D01*
X444957Y252623D01*
X445052Y252985D01*
X445156Y253344D01*
X445269Y253701D01*
X445391Y254054D01*
X445521Y254405D01*
X445660Y254752D01*
X445807Y255096D01*
X445963Y255436D01*
X446127Y255772D01*
X446300Y256104D01*
X446480Y256432D01*
X446668Y256755D01*
X446864Y257073D01*
X447068Y257387D01*
X447280Y257695D01*
X447499Y257998D01*
X447726Y258296D01*
X447959Y258588D01*
X448200Y258874D01*
X448448Y259155D01*
X448702Y259429D01*
X448964Y259696D01*
X449231Y259958D01*
X449505Y260212D01*
X449786Y260460D01*
X450072Y260701D01*
X450364Y260934D01*
X450662Y261161D01*
X450965Y261380D01*
X451273Y261592D01*
X451587Y261796D01*
X451905Y261992D01*
X452228Y262180D01*
X452556Y262360D01*
X452888Y262533D01*
X453224Y262697D01*
X453564Y262853D01*
X453908Y263000D01*
X454255Y263139D01*
X454606Y263269D01*
X454959Y263391D01*
X455316Y263504D01*
X455675Y263608D01*
X456037Y263703D01*
X456401Y263790D01*
X456767Y263867D01*
X457135Y263936D01*
X457504Y263995D01*
X457874Y264045D01*
X458246Y264087D01*
X458619Y264119D01*
X458992Y264142D01*
X459366Y264155D01*
X459740Y264160D01*
X460114Y264155D01*
X460488Y264142D01*
X460861Y264119D01*
X461234Y264087D01*
X461606Y264045D01*
X461976Y263995D01*
X462345Y263936D01*
X462713Y263867D01*
X463079Y263790D01*
X463443Y263703D01*
X463805Y263608D01*
X464164Y263504D01*
X464521Y263391D01*
X464874Y263269D01*
X465225Y263139D01*
X465572Y263000D01*
X465916Y262853D01*
X466256Y262697D01*
X466592Y262533D01*
X466924Y262360D01*
X467252Y262180D01*
X467575Y261992D01*
X467893Y261796D01*
X468207Y261592D01*
X468515Y261380D01*
X468818Y261161D01*
X469116Y260934D01*
X469408Y260701D01*
X469694Y260460D01*
X469975Y260212D01*
X470249Y259958D01*
X470516Y259696D01*
X470778Y259429D01*
X471032Y259155D01*
X471280Y258874D01*
X471521Y258588D01*
X471754Y258296D01*
X471981Y257998D01*
X472200Y257695D01*
X472412Y257387D01*
X472616Y257073D01*
X472812Y256755D01*
X473000Y256432D01*
X473180Y256104D01*
X473353Y255772D01*
X473517Y255436D01*
X473673Y255096D01*
X473820Y254752D01*
X473959Y254405D01*
X474089Y254054D01*
X474211Y253701D01*
X474324Y253344D01*
X474428Y252985D01*
X474523Y252623D01*
X474610Y252259D01*
X474687Y251893D01*
X474756Y251525D01*
X474815Y251156D01*
X474865Y250786D01*
X474907Y250414D01*
X474939Y250041D01*
X474962Y249668D01*
X474975Y249294D01*
X474980Y248920D01*
X474975Y248546D01*
X474962Y248172D01*
X474939Y247799D01*
X474907Y247426D01*
X474865Y247054D01*
X474815Y246684D01*
X474756Y246315D01*
X474687Y245947D01*
X474610Y245581D01*
X474523Y245217D01*
X474428Y244855D01*
X474324Y244496D01*
X474211Y244139D01*
X474089Y243786D01*
X473959Y243435D01*
X473820Y243088D01*
X473673Y242744D01*
X473517Y242404D01*
X473353Y242068D01*
X473180Y241736D01*
X473000Y241408D01*
X472812Y241085D01*
X472616Y240767D01*
X472412Y240453D01*
X472200Y240145D01*
X471981Y239842D01*
X471754Y239544D01*
X471521Y239252D01*
X471280Y238966D01*
X471032Y238685D01*
X470778Y238411D01*
X470516Y238144D01*
X470249Y237882D01*
X469975Y237628D01*
X469694Y237380D01*
X469408Y237139D01*
X469116Y236906D01*
X468818Y236679D01*
X468515Y236460D01*
X468207Y236248D01*
X467893Y236044D01*
X467575Y235848D01*
X467252Y235660D01*
X466924Y235480D01*
X466592Y235307D01*
X466256Y235143D01*
X465916Y234987D01*
X465572Y234840D01*
X465225Y234701D01*
X464874Y234571D01*
X464521Y234449D01*
X464164Y234336D01*
X463805Y234232D01*
X463443Y234137D01*
X463079Y234050D01*
X462713Y233973D01*
X462345Y233904D01*
X461976Y233845D01*
X461606Y233795D01*
X461234Y233753D01*
X460861Y233721D01*
X460488Y233698D01*
X460114Y233685D01*
X459740Y233680D01*
X459366Y233685D01*
X458992Y233698D01*
X458619Y233721D01*
X458246Y233753D01*
X457874Y233795D01*
X457504Y233845D01*
X457135Y233904D01*
X456767Y233973D01*
X456401Y234050D01*
X456037Y234137D01*
X455675Y234232D01*
X455316Y234336D01*
X454959Y234449D01*
X454606Y234571D01*
X454255Y234701D01*
X453908Y234840D01*
X453564Y234987D01*
X453224Y235143D01*
X452888Y235307D01*
X452556Y235480D01*
X452228Y235660D01*
X451905Y235848D01*
X451587Y236044D01*
X451273Y236248D01*
X450965Y236460D01*
X450662Y236679D01*
X450364Y236906D01*
X450072Y237139D01*
X449786Y237380D01*
X449505Y237628D01*
X449231Y237882D01*
X448964Y238144D01*
X448702Y238411D01*
X448448Y238685D01*
X448200Y238966D01*
X447959Y239252D01*
X447726Y239544D01*
X447499Y239842D01*
X447280Y240145D01*
X447068Y240453D01*
X446864Y240767D01*
X446668Y241085D01*
X446480Y241408D01*
X446300Y241736D01*
X446127Y242068D01*
X445963Y242404D01*
X445807Y242744D01*
X445660Y243088D01*
X445521Y243435D01*
X445391Y243786D01*
X445269Y244139D01*
X445156Y244496D01*
X445052Y244855D01*
X444957Y245217D01*
X444870Y245581D01*
X444793Y245947D01*
X444724Y246315D01*
X444665Y246684D01*
X444615Y247054D01*
X444573Y247426D01*
X444541Y247799D01*
X444518Y248172D01*
X444505Y248546D01*
X444500Y248920D01*
D11*
X475615Y259715D02*
X475615Y271155D01*
X481335Y271155D01*
X483242Y269248D01*
X483242Y265435D01*
X481335Y263528D01*
X475615Y263528D01*
X479428Y263528D02*
X483242Y259715D01*
X491122Y269248D02*
X494935Y271155D01*
X491122Y269248D02*
X487309Y265435D01*
X487309Y261622D01*
X489216Y259715D01*
X493029Y259715D01*
X494935Y261622D01*
X494935Y263528D01*
X493029Y265435D01*
X487309Y265435D01*
D22*
X472059Y248920D03*
M02*
