G04 EAGLE Gerber X2 export*
%TF.Part,Single*%
%TF.FileFunction,Legend,Top,1*%
%TF.FilePolarity,Positive*%
%TF.GenerationSoftware,Autodesk,EAGLE,9.1.0*%
%TF.CreationDate,2020-08-17T04:28:19Z*%
G75*
%MOMM*%
%FSLAX34Y34*%
%LPD*%
%AMOC8*
5,1,8,0,0,1.08239X$1,22.5*%
G01*
%ADD10C,0.609600*%
%ADD11C,0.152400*%
%ADD12C,0.127000*%
%ADD13C,0.101600*%
%ADD14R,0.508000X0.381000*%
%ADD15C,0.304800*%
%ADD16C,0.203200*%
%ADD17C,0.076200*%
%ADD18C,0.762000*%
%ADD19R,0.508000X0.762000*%
%ADD20R,1.016000X0.762000*%
%ADD21R,0.381000X0.508000*%
%ADD22R,0.584200X0.609600*%


D10*
X538480Y124460D02*
X543560Y124460D01*
D11*
X515620Y124460D02*
X515624Y124772D01*
X515635Y125083D01*
X515654Y125394D01*
X515681Y125705D01*
X515716Y126015D01*
X515757Y126323D01*
X515807Y126631D01*
X515864Y126938D01*
X515929Y127243D01*
X516001Y127546D01*
X516080Y127847D01*
X516167Y128147D01*
X516261Y128444D01*
X516362Y128739D01*
X516471Y129031D01*
X516587Y129320D01*
X516710Y129607D01*
X516839Y129890D01*
X516976Y130170D01*
X517120Y130447D01*
X517270Y130720D01*
X517427Y130989D01*
X517590Y131254D01*
X517760Y131516D01*
X517937Y131773D01*
X518119Y132025D01*
X518308Y132273D01*
X518503Y132517D01*
X518703Y132755D01*
X518910Y132989D01*
X519122Y133217D01*
X519340Y133440D01*
X519563Y133658D01*
X519791Y133870D01*
X520025Y134077D01*
X520263Y134277D01*
X520507Y134472D01*
X520755Y134661D01*
X521007Y134843D01*
X521264Y135020D01*
X521526Y135190D01*
X521791Y135353D01*
X522060Y135510D01*
X522333Y135660D01*
X522610Y135804D01*
X522890Y135941D01*
X523173Y136070D01*
X523460Y136193D01*
X523749Y136309D01*
X524041Y136418D01*
X524336Y136519D01*
X524633Y136613D01*
X524933Y136700D01*
X525234Y136779D01*
X525537Y136851D01*
X525842Y136916D01*
X526149Y136973D01*
X526457Y137023D01*
X526765Y137064D01*
X527075Y137099D01*
X527386Y137126D01*
X527697Y137145D01*
X528008Y137156D01*
X528320Y137160D01*
X528632Y137156D01*
X528943Y137145D01*
X529254Y137126D01*
X529565Y137099D01*
X529875Y137064D01*
X530183Y137023D01*
X530491Y136973D01*
X530798Y136916D01*
X531103Y136851D01*
X531406Y136779D01*
X531707Y136700D01*
X532007Y136613D01*
X532304Y136519D01*
X532599Y136418D01*
X532891Y136309D01*
X533180Y136193D01*
X533467Y136070D01*
X533750Y135941D01*
X534030Y135804D01*
X534307Y135660D01*
X534580Y135510D01*
X534849Y135353D01*
X535114Y135190D01*
X535376Y135020D01*
X535633Y134843D01*
X535885Y134661D01*
X536133Y134472D01*
X536377Y134277D01*
X536615Y134077D01*
X536849Y133870D01*
X537077Y133658D01*
X537300Y133440D01*
X537518Y133217D01*
X537730Y132989D01*
X537937Y132755D01*
X538137Y132517D01*
X538332Y132273D01*
X538521Y132025D01*
X538703Y131773D01*
X538880Y131516D01*
X539050Y131254D01*
X539213Y130989D01*
X539370Y130720D01*
X539520Y130447D01*
X539664Y130170D01*
X539801Y129890D01*
X539930Y129607D01*
X540053Y129320D01*
X540169Y129031D01*
X540278Y128739D01*
X540379Y128444D01*
X540473Y128147D01*
X540560Y127847D01*
X540639Y127546D01*
X540711Y127243D01*
X540776Y126938D01*
X540833Y126631D01*
X540883Y126323D01*
X540924Y126015D01*
X540959Y125705D01*
X540986Y125394D01*
X541005Y125083D01*
X541016Y124772D01*
X541020Y124460D01*
X541016Y124148D01*
X541005Y123837D01*
X540986Y123526D01*
X540959Y123215D01*
X540924Y122905D01*
X540883Y122597D01*
X540833Y122289D01*
X540776Y121982D01*
X540711Y121677D01*
X540639Y121374D01*
X540560Y121073D01*
X540473Y120773D01*
X540379Y120476D01*
X540278Y120181D01*
X540169Y119889D01*
X540053Y119600D01*
X539930Y119313D01*
X539801Y119030D01*
X539664Y118750D01*
X539520Y118473D01*
X539370Y118200D01*
X539213Y117931D01*
X539050Y117666D01*
X538880Y117404D01*
X538703Y117147D01*
X538521Y116895D01*
X538332Y116647D01*
X538137Y116403D01*
X537937Y116165D01*
X537730Y115931D01*
X537518Y115703D01*
X537300Y115480D01*
X537077Y115262D01*
X536849Y115050D01*
X536615Y114843D01*
X536377Y114643D01*
X536133Y114448D01*
X535885Y114259D01*
X535633Y114077D01*
X535376Y113900D01*
X535114Y113730D01*
X534849Y113567D01*
X534580Y113410D01*
X534307Y113260D01*
X534030Y113116D01*
X533750Y112979D01*
X533467Y112850D01*
X533180Y112727D01*
X532891Y112611D01*
X532599Y112502D01*
X532304Y112401D01*
X532007Y112307D01*
X531707Y112220D01*
X531406Y112141D01*
X531103Y112069D01*
X530798Y112004D01*
X530491Y111947D01*
X530183Y111897D01*
X529875Y111856D01*
X529565Y111821D01*
X529254Y111794D01*
X528943Y111775D01*
X528632Y111764D01*
X528320Y111760D01*
X528008Y111764D01*
X527697Y111775D01*
X527386Y111794D01*
X527075Y111821D01*
X526765Y111856D01*
X526457Y111897D01*
X526149Y111947D01*
X525842Y112004D01*
X525537Y112069D01*
X525234Y112141D01*
X524933Y112220D01*
X524633Y112307D01*
X524336Y112401D01*
X524041Y112502D01*
X523749Y112611D01*
X523460Y112727D01*
X523173Y112850D01*
X522890Y112979D01*
X522610Y113116D01*
X522333Y113260D01*
X522060Y113410D01*
X521791Y113567D01*
X521526Y113730D01*
X521264Y113900D01*
X521007Y114077D01*
X520755Y114259D01*
X520507Y114448D01*
X520263Y114643D01*
X520025Y114843D01*
X519791Y115050D01*
X519563Y115262D01*
X519340Y115480D01*
X519122Y115703D01*
X518910Y115931D01*
X518703Y116165D01*
X518503Y116403D01*
X518308Y116647D01*
X518119Y116895D01*
X517937Y117147D01*
X517760Y117404D01*
X517590Y117666D01*
X517427Y117931D01*
X517270Y118200D01*
X517120Y118473D01*
X516976Y118750D01*
X516839Y119030D01*
X516710Y119313D01*
X516587Y119600D01*
X516471Y119889D01*
X516362Y120181D01*
X516261Y120476D01*
X516167Y120773D01*
X516080Y121073D01*
X516001Y121374D01*
X515929Y121677D01*
X515864Y121982D01*
X515807Y122289D01*
X515757Y122597D01*
X515716Y122905D01*
X515681Y123215D01*
X515654Y123526D01*
X515635Y123837D01*
X515624Y124148D01*
X515620Y124460D01*
D12*
X541147Y135255D02*
X541147Y146695D01*
X546867Y146695D01*
X548774Y144788D01*
X548774Y140975D01*
X546867Y139068D01*
X541147Y139068D01*
X544960Y139068D02*
X548774Y135255D01*
X552841Y144788D02*
X554748Y146695D01*
X558561Y146695D01*
X560467Y144788D01*
X560467Y142882D01*
X558561Y140975D01*
X556654Y140975D01*
X558561Y140975D02*
X560467Y139068D01*
X560467Y137162D01*
X558561Y135255D01*
X554748Y135255D01*
X552841Y137162D01*
D11*
X142080Y58500D02*
X141980Y58502D01*
X141881Y58508D01*
X141781Y58518D01*
X141683Y58531D01*
X141584Y58549D01*
X141487Y58570D01*
X141391Y58595D01*
X141295Y58624D01*
X141201Y58657D01*
X141108Y58693D01*
X141017Y58733D01*
X140927Y58777D01*
X140839Y58824D01*
X140753Y58874D01*
X140669Y58928D01*
X140587Y58985D01*
X140508Y59045D01*
X140430Y59109D01*
X140356Y59175D01*
X140284Y59244D01*
X140215Y59316D01*
X140149Y59390D01*
X140085Y59468D01*
X140025Y59547D01*
X139968Y59629D01*
X139914Y59713D01*
X139864Y59799D01*
X139817Y59887D01*
X139773Y59977D01*
X139733Y60068D01*
X139697Y60161D01*
X139664Y60255D01*
X139635Y60351D01*
X139610Y60447D01*
X139589Y60544D01*
X139571Y60643D01*
X139558Y60741D01*
X139548Y60841D01*
X139542Y60940D01*
X139540Y61040D01*
X157320Y58500D02*
X157420Y58502D01*
X157519Y58508D01*
X157619Y58518D01*
X157717Y58531D01*
X157816Y58549D01*
X157913Y58570D01*
X158009Y58595D01*
X158105Y58624D01*
X158199Y58657D01*
X158292Y58693D01*
X158383Y58733D01*
X158473Y58777D01*
X158561Y58824D01*
X158647Y58874D01*
X158731Y58928D01*
X158813Y58985D01*
X158892Y59045D01*
X158970Y59109D01*
X159044Y59175D01*
X159116Y59244D01*
X159185Y59316D01*
X159251Y59390D01*
X159315Y59468D01*
X159375Y59547D01*
X159432Y59629D01*
X159486Y59713D01*
X159536Y59799D01*
X159583Y59887D01*
X159627Y59977D01*
X159667Y60068D01*
X159703Y60161D01*
X159736Y60255D01*
X159765Y60351D01*
X159790Y60447D01*
X159811Y60544D01*
X159829Y60643D01*
X159842Y60741D01*
X159852Y60841D01*
X159858Y60940D01*
X159860Y61040D01*
X159860Y106760D02*
X159858Y106860D01*
X159852Y106959D01*
X159842Y107059D01*
X159829Y107157D01*
X159811Y107256D01*
X159790Y107353D01*
X159765Y107449D01*
X159736Y107545D01*
X159703Y107639D01*
X159667Y107732D01*
X159627Y107823D01*
X159583Y107913D01*
X159536Y108001D01*
X159486Y108087D01*
X159432Y108171D01*
X159375Y108253D01*
X159315Y108332D01*
X159251Y108410D01*
X159185Y108484D01*
X159116Y108556D01*
X159044Y108625D01*
X158970Y108691D01*
X158892Y108755D01*
X158813Y108815D01*
X158731Y108872D01*
X158647Y108926D01*
X158561Y108976D01*
X158473Y109023D01*
X158383Y109067D01*
X158292Y109107D01*
X158199Y109143D01*
X158105Y109176D01*
X158009Y109205D01*
X157913Y109230D01*
X157816Y109251D01*
X157717Y109269D01*
X157619Y109282D01*
X157519Y109292D01*
X157420Y109298D01*
X157320Y109300D01*
X142080Y109300D02*
X141980Y109298D01*
X141881Y109292D01*
X141781Y109282D01*
X141683Y109269D01*
X141584Y109251D01*
X141487Y109230D01*
X141391Y109205D01*
X141295Y109176D01*
X141201Y109143D01*
X141108Y109107D01*
X141017Y109067D01*
X140927Y109023D01*
X140839Y108976D01*
X140753Y108926D01*
X140669Y108872D01*
X140587Y108815D01*
X140508Y108755D01*
X140430Y108691D01*
X140356Y108625D01*
X140284Y108556D01*
X140215Y108484D01*
X140149Y108410D01*
X140085Y108332D01*
X140025Y108253D01*
X139968Y108171D01*
X139914Y108087D01*
X139864Y108001D01*
X139817Y107913D01*
X139773Y107823D01*
X139733Y107732D01*
X139697Y107639D01*
X139664Y107545D01*
X139635Y107449D01*
X139610Y107353D01*
X139589Y107256D01*
X139571Y107157D01*
X139558Y107059D01*
X139548Y106959D01*
X139542Y106860D01*
X139540Y106760D01*
X142080Y58500D02*
X157320Y58500D01*
X139540Y61040D02*
X139540Y64850D01*
X140810Y66120D01*
X159860Y64850D02*
X159860Y61040D01*
X159860Y64850D02*
X158590Y66120D01*
X140810Y101680D02*
X139540Y102950D01*
X140810Y101680D02*
X140810Y66120D01*
X158590Y101680D02*
X159860Y102950D01*
X158590Y101680D02*
X158590Y66120D01*
X139540Y102950D02*
X139540Y106760D01*
X159860Y106760D02*
X159860Y102950D01*
X157320Y109300D02*
X142080Y109300D01*
D13*
X136238Y59008D02*
X127340Y59008D01*
X127340Y63457D01*
X128823Y64940D01*
X131789Y64940D01*
X133272Y63457D01*
X133272Y59008D01*
X133272Y61974D02*
X136238Y64940D01*
X130306Y68129D02*
X127340Y71095D01*
X136238Y71095D01*
X136238Y68129D02*
X136238Y74061D01*
D14*
X149700Y111205D03*
X149700Y56595D03*
D11*
X133190Y85090D02*
X133188Y85230D01*
X133182Y85370D01*
X133173Y85510D01*
X133159Y85649D01*
X133142Y85788D01*
X133121Y85926D01*
X133096Y86064D01*
X133067Y86201D01*
X133035Y86337D01*
X132998Y86472D01*
X132958Y86606D01*
X132915Y86739D01*
X132867Y86871D01*
X132817Y87002D01*
X132762Y87131D01*
X132704Y87258D01*
X132643Y87384D01*
X132578Y87508D01*
X132509Y87630D01*
X132438Y87750D01*
X132363Y87868D01*
X132285Y87985D01*
X132203Y88099D01*
X132119Y88210D01*
X132031Y88319D01*
X131941Y88426D01*
X131847Y88531D01*
X131751Y88632D01*
X131652Y88731D01*
X131551Y88827D01*
X131446Y88921D01*
X131339Y89011D01*
X131230Y89099D01*
X131119Y89183D01*
X131005Y89265D01*
X130888Y89343D01*
X130770Y89418D01*
X130650Y89489D01*
X130528Y89558D01*
X130404Y89623D01*
X130278Y89684D01*
X130151Y89742D01*
X130022Y89797D01*
X129891Y89847D01*
X129759Y89895D01*
X129626Y89938D01*
X129492Y89978D01*
X129357Y90015D01*
X129221Y90047D01*
X129084Y90076D01*
X128946Y90101D01*
X128808Y90122D01*
X128669Y90139D01*
X128530Y90153D01*
X128390Y90162D01*
X128250Y90168D01*
X128110Y90170D01*
X115410Y90170D02*
X115270Y90168D01*
X115130Y90162D01*
X114990Y90153D01*
X114851Y90139D01*
X114712Y90122D01*
X114574Y90101D01*
X114436Y90076D01*
X114299Y90047D01*
X114163Y90015D01*
X114028Y89978D01*
X113894Y89938D01*
X113761Y89895D01*
X113629Y89847D01*
X113498Y89797D01*
X113369Y89742D01*
X113242Y89684D01*
X113116Y89623D01*
X112992Y89558D01*
X112870Y89489D01*
X112750Y89418D01*
X112632Y89343D01*
X112515Y89265D01*
X112401Y89183D01*
X112290Y89099D01*
X112181Y89011D01*
X112074Y88921D01*
X111969Y88827D01*
X111868Y88731D01*
X111769Y88632D01*
X111673Y88531D01*
X111579Y88426D01*
X111489Y88319D01*
X111401Y88210D01*
X111317Y88099D01*
X111235Y87985D01*
X111157Y87868D01*
X111082Y87750D01*
X111011Y87630D01*
X110942Y87508D01*
X110877Y87384D01*
X110816Y87258D01*
X110758Y87131D01*
X110703Y87002D01*
X110653Y86871D01*
X110605Y86739D01*
X110562Y86606D01*
X110522Y86472D01*
X110485Y86337D01*
X110453Y86201D01*
X110424Y86064D01*
X110399Y85926D01*
X110378Y85788D01*
X110361Y85649D01*
X110347Y85510D01*
X110338Y85370D01*
X110332Y85230D01*
X110330Y85090D01*
X133190Y85090D02*
X133190Y52070D01*
X110330Y52070D02*
X110330Y85090D01*
X133190Y52070D02*
X133188Y51930D01*
X133182Y51790D01*
X133173Y51650D01*
X133159Y51511D01*
X133142Y51372D01*
X133121Y51234D01*
X133096Y51096D01*
X133067Y50959D01*
X133035Y50823D01*
X132998Y50688D01*
X132958Y50554D01*
X132915Y50421D01*
X132867Y50289D01*
X132817Y50158D01*
X132762Y50029D01*
X132704Y49902D01*
X132643Y49776D01*
X132578Y49652D01*
X132509Y49530D01*
X132438Y49410D01*
X132363Y49292D01*
X132285Y49175D01*
X132203Y49061D01*
X132119Y48950D01*
X132031Y48841D01*
X131941Y48734D01*
X131847Y48629D01*
X131751Y48528D01*
X131652Y48429D01*
X131551Y48333D01*
X131446Y48239D01*
X131339Y48149D01*
X131230Y48061D01*
X131119Y47977D01*
X131005Y47895D01*
X130888Y47817D01*
X130770Y47742D01*
X130650Y47671D01*
X130528Y47602D01*
X130404Y47537D01*
X130278Y47476D01*
X130151Y47418D01*
X130022Y47363D01*
X129891Y47313D01*
X129759Y47265D01*
X129626Y47222D01*
X129492Y47182D01*
X129357Y47145D01*
X129221Y47113D01*
X129084Y47084D01*
X128946Y47059D01*
X128808Y47038D01*
X128669Y47021D01*
X128530Y47007D01*
X128390Y46998D01*
X128250Y46992D01*
X128110Y46990D01*
X115410Y46990D02*
X115270Y46992D01*
X115130Y46998D01*
X114990Y47007D01*
X114851Y47021D01*
X114712Y47038D01*
X114574Y47059D01*
X114436Y47084D01*
X114299Y47113D01*
X114163Y47145D01*
X114028Y47182D01*
X113894Y47222D01*
X113761Y47265D01*
X113629Y47313D01*
X113498Y47363D01*
X113369Y47418D01*
X113242Y47476D01*
X113116Y47537D01*
X112992Y47602D01*
X112870Y47671D01*
X112750Y47742D01*
X112632Y47817D01*
X112515Y47895D01*
X112401Y47977D01*
X112290Y48061D01*
X112181Y48149D01*
X112074Y48239D01*
X111969Y48333D01*
X111868Y48429D01*
X111769Y48528D01*
X111673Y48629D01*
X111579Y48734D01*
X111489Y48841D01*
X111401Y48950D01*
X111317Y49061D01*
X111235Y49175D01*
X111157Y49292D01*
X111082Y49410D01*
X111011Y49530D01*
X110942Y49652D01*
X110877Y49776D01*
X110816Y49902D01*
X110758Y50029D01*
X110703Y50158D01*
X110653Y50289D01*
X110605Y50421D01*
X110562Y50554D01*
X110522Y50688D01*
X110485Y50823D01*
X110453Y50959D01*
X110424Y51096D01*
X110399Y51234D01*
X110378Y51372D01*
X110361Y51511D01*
X110347Y51650D01*
X110338Y51790D01*
X110332Y51930D01*
X110330Y52070D01*
D15*
X121760Y71628D02*
X129380Y71628D01*
X121760Y71628D02*
X114140Y71628D01*
X121760Y65278D02*
X129380Y65278D01*
X121760Y65278D02*
X114140Y65278D01*
D11*
X121760Y65278D02*
X121760Y55880D01*
X121760Y71628D02*
X121760Y81280D01*
D12*
X136355Y73137D02*
X138262Y75044D01*
X136355Y73137D02*
X136355Y69324D01*
X138262Y67417D01*
X145888Y67417D01*
X147795Y69324D01*
X147795Y73137D01*
X145888Y75044D01*
X140169Y79111D02*
X136355Y82924D01*
X147795Y82924D01*
X147795Y79111D02*
X147795Y86738D01*
D11*
X4370Y449500D02*
X4380Y450342D01*
X4411Y451183D01*
X4463Y452023D01*
X4535Y452861D01*
X4628Y453697D01*
X4741Y454531D01*
X4875Y455362D01*
X5029Y456190D01*
X5203Y457013D01*
X5398Y457832D01*
X5612Y458646D01*
X5847Y459454D01*
X6101Y460256D01*
X6374Y461052D01*
X6668Y461841D01*
X6980Y462622D01*
X7312Y463396D01*
X7662Y464161D01*
X8031Y464917D01*
X8419Y465664D01*
X8825Y466401D01*
X9248Y467129D01*
X9690Y467845D01*
X10149Y468551D01*
X10625Y469244D01*
X11118Y469927D01*
X11628Y470596D01*
X12153Y471253D01*
X12695Y471897D01*
X13253Y472528D01*
X13826Y473144D01*
X14413Y473747D01*
X15016Y474334D01*
X15632Y474907D01*
X16263Y475465D01*
X16907Y476007D01*
X17564Y476532D01*
X18233Y477042D01*
X18916Y477535D01*
X19609Y478011D01*
X20315Y478470D01*
X21031Y478912D01*
X21759Y479335D01*
X22496Y479741D01*
X23243Y480129D01*
X23999Y480498D01*
X24764Y480848D01*
X25538Y481180D01*
X26319Y481492D01*
X27108Y481786D01*
X27904Y482059D01*
X28706Y482313D01*
X29514Y482548D01*
X30328Y482762D01*
X31147Y482957D01*
X31970Y483131D01*
X32798Y483285D01*
X33629Y483419D01*
X34463Y483532D01*
X35299Y483625D01*
X36137Y483697D01*
X36977Y483749D01*
X37818Y483780D01*
X38660Y483790D01*
X39502Y483780D01*
X40343Y483749D01*
X41183Y483697D01*
X42021Y483625D01*
X42857Y483532D01*
X43691Y483419D01*
X44522Y483285D01*
X45350Y483131D01*
X46173Y482957D01*
X46992Y482762D01*
X47806Y482548D01*
X48614Y482313D01*
X49416Y482059D01*
X50212Y481786D01*
X51001Y481492D01*
X51782Y481180D01*
X52556Y480848D01*
X53321Y480498D01*
X54077Y480129D01*
X54824Y479741D01*
X55561Y479335D01*
X56289Y478912D01*
X57005Y478470D01*
X57711Y478011D01*
X58404Y477535D01*
X59087Y477042D01*
X59756Y476532D01*
X60413Y476007D01*
X61057Y475465D01*
X61688Y474907D01*
X62304Y474334D01*
X62907Y473747D01*
X63494Y473144D01*
X64067Y472528D01*
X64625Y471897D01*
X65167Y471253D01*
X65692Y470596D01*
X66202Y469927D01*
X66695Y469244D01*
X67171Y468551D01*
X67630Y467845D01*
X68072Y467129D01*
X68495Y466401D01*
X68901Y465664D01*
X69289Y464917D01*
X69658Y464161D01*
X70008Y463396D01*
X70340Y462622D01*
X70652Y461841D01*
X70946Y461052D01*
X71219Y460256D01*
X71473Y459454D01*
X71708Y458646D01*
X71922Y457832D01*
X72117Y457013D01*
X72291Y456190D01*
X72445Y455362D01*
X72579Y454531D01*
X72692Y453697D01*
X72785Y452861D01*
X72857Y452023D01*
X72909Y451183D01*
X72940Y450342D01*
X72950Y449500D01*
X72940Y448658D01*
X72909Y447817D01*
X72857Y446977D01*
X72785Y446139D01*
X72692Y445303D01*
X72579Y444469D01*
X72445Y443638D01*
X72291Y442810D01*
X72117Y441987D01*
X71922Y441168D01*
X71708Y440354D01*
X71473Y439546D01*
X71219Y438744D01*
X70946Y437948D01*
X70652Y437159D01*
X70340Y436378D01*
X70008Y435604D01*
X69658Y434839D01*
X69289Y434083D01*
X68901Y433336D01*
X68495Y432599D01*
X68072Y431871D01*
X67630Y431155D01*
X67171Y430449D01*
X66695Y429756D01*
X66202Y429073D01*
X65692Y428404D01*
X65167Y427747D01*
X64625Y427103D01*
X64067Y426472D01*
X63494Y425856D01*
X62907Y425253D01*
X62304Y424666D01*
X61688Y424093D01*
X61057Y423535D01*
X60413Y422993D01*
X59756Y422468D01*
X59087Y421958D01*
X58404Y421465D01*
X57711Y420989D01*
X57005Y420530D01*
X56289Y420088D01*
X55561Y419665D01*
X54824Y419259D01*
X54077Y418871D01*
X53321Y418502D01*
X52556Y418152D01*
X51782Y417820D01*
X51001Y417508D01*
X50212Y417214D01*
X49416Y416941D01*
X48614Y416687D01*
X47806Y416452D01*
X46992Y416238D01*
X46173Y416043D01*
X45350Y415869D01*
X44522Y415715D01*
X43691Y415581D01*
X42857Y415468D01*
X42021Y415375D01*
X41183Y415303D01*
X40343Y415251D01*
X39502Y415220D01*
X38660Y415210D01*
X37818Y415220D01*
X36977Y415251D01*
X36137Y415303D01*
X35299Y415375D01*
X34463Y415468D01*
X33629Y415581D01*
X32798Y415715D01*
X31970Y415869D01*
X31147Y416043D01*
X30328Y416238D01*
X29514Y416452D01*
X28706Y416687D01*
X27904Y416941D01*
X27108Y417214D01*
X26319Y417508D01*
X25538Y417820D01*
X24764Y418152D01*
X23999Y418502D01*
X23243Y418871D01*
X22496Y419259D01*
X21759Y419665D01*
X21031Y420088D01*
X20315Y420530D01*
X19609Y420989D01*
X18916Y421465D01*
X18233Y421958D01*
X17564Y422468D01*
X16907Y422993D01*
X16263Y423535D01*
X15632Y424093D01*
X15016Y424666D01*
X14413Y425253D01*
X13826Y425856D01*
X13253Y426472D01*
X12695Y427103D01*
X12153Y427747D01*
X11628Y428404D01*
X11118Y429073D01*
X10625Y429756D01*
X10149Y430449D01*
X9690Y431155D01*
X9248Y431871D01*
X8825Y432599D01*
X8419Y433336D01*
X8031Y434083D01*
X7662Y434839D01*
X7312Y435604D01*
X6980Y436378D01*
X6668Y437159D01*
X6374Y437948D01*
X6101Y438744D01*
X5847Y439546D01*
X5612Y440354D01*
X5398Y441168D01*
X5203Y441987D01*
X5029Y442810D01*
X4875Y443638D01*
X4741Y444469D01*
X4628Y445303D01*
X4535Y446139D01*
X4463Y446977D01*
X4411Y447817D01*
X4380Y448658D01*
X4370Y449500D01*
D16*
X21660Y449500D02*
X21665Y449917D01*
X21680Y450334D01*
X21706Y450751D01*
X21742Y451166D01*
X21788Y451581D01*
X21844Y451994D01*
X21910Y452406D01*
X21987Y452817D01*
X22073Y453225D01*
X22169Y453631D01*
X22276Y454034D01*
X22392Y454435D01*
X22518Y454833D01*
X22654Y455227D01*
X22799Y455618D01*
X22954Y456006D01*
X23118Y456389D01*
X23292Y456768D01*
X23475Y457143D01*
X23667Y457514D01*
X23869Y457879D01*
X24079Y458240D01*
X24297Y458595D01*
X24525Y458945D01*
X24761Y459289D01*
X25005Y459627D01*
X25258Y459959D01*
X25519Y460285D01*
X25787Y460604D01*
X26064Y460917D01*
X26348Y461222D01*
X26639Y461521D01*
X26938Y461812D01*
X27243Y462096D01*
X27556Y462373D01*
X27875Y462641D01*
X28201Y462902D01*
X28533Y463155D01*
X28871Y463399D01*
X29215Y463635D01*
X29565Y463863D01*
X29920Y464081D01*
X30281Y464291D01*
X30646Y464493D01*
X31017Y464685D01*
X31392Y464868D01*
X31771Y465042D01*
X32154Y465206D01*
X32542Y465361D01*
X32933Y465506D01*
X33327Y465642D01*
X33725Y465768D01*
X34126Y465884D01*
X34529Y465991D01*
X34935Y466087D01*
X35343Y466173D01*
X35754Y466250D01*
X36166Y466316D01*
X36579Y466372D01*
X36994Y466418D01*
X37409Y466454D01*
X37826Y466480D01*
X38243Y466495D01*
X38660Y466500D01*
X39077Y466495D01*
X39494Y466480D01*
X39911Y466454D01*
X40326Y466418D01*
X40741Y466372D01*
X41154Y466316D01*
X41566Y466250D01*
X41977Y466173D01*
X42385Y466087D01*
X42791Y465991D01*
X43194Y465884D01*
X43595Y465768D01*
X43993Y465642D01*
X44387Y465506D01*
X44778Y465361D01*
X45166Y465206D01*
X45549Y465042D01*
X45928Y464868D01*
X46303Y464685D01*
X46674Y464493D01*
X47039Y464291D01*
X47400Y464081D01*
X47755Y463863D01*
X48105Y463635D01*
X48449Y463399D01*
X48787Y463155D01*
X49119Y462902D01*
X49445Y462641D01*
X49764Y462373D01*
X50077Y462096D01*
X50382Y461812D01*
X50681Y461521D01*
X50972Y461222D01*
X51256Y460917D01*
X51533Y460604D01*
X51801Y460285D01*
X52062Y459959D01*
X52315Y459627D01*
X52559Y459289D01*
X52795Y458945D01*
X53023Y458595D01*
X53241Y458240D01*
X53451Y457879D01*
X53653Y457514D01*
X53845Y457143D01*
X54028Y456768D01*
X54202Y456389D01*
X54366Y456006D01*
X54521Y455618D01*
X54666Y455227D01*
X54802Y454833D01*
X54928Y454435D01*
X55044Y454034D01*
X55151Y453631D01*
X55247Y453225D01*
X55333Y452817D01*
X55410Y452406D01*
X55476Y451994D01*
X55532Y451581D01*
X55578Y451166D01*
X55614Y450751D01*
X55640Y450334D01*
X55655Y449917D01*
X55660Y449500D01*
X55655Y449083D01*
X55640Y448666D01*
X55614Y448249D01*
X55578Y447834D01*
X55532Y447419D01*
X55476Y447006D01*
X55410Y446594D01*
X55333Y446183D01*
X55247Y445775D01*
X55151Y445369D01*
X55044Y444966D01*
X54928Y444565D01*
X54802Y444167D01*
X54666Y443773D01*
X54521Y443382D01*
X54366Y442994D01*
X54202Y442611D01*
X54028Y442232D01*
X53845Y441857D01*
X53653Y441486D01*
X53451Y441121D01*
X53241Y440760D01*
X53023Y440405D01*
X52795Y440055D01*
X52559Y439711D01*
X52315Y439373D01*
X52062Y439041D01*
X51801Y438715D01*
X51533Y438396D01*
X51256Y438083D01*
X50972Y437778D01*
X50681Y437479D01*
X50382Y437188D01*
X50077Y436904D01*
X49764Y436627D01*
X49445Y436359D01*
X49119Y436098D01*
X48787Y435845D01*
X48449Y435601D01*
X48105Y435365D01*
X47755Y435137D01*
X47400Y434919D01*
X47039Y434709D01*
X46674Y434507D01*
X46303Y434315D01*
X45928Y434132D01*
X45549Y433958D01*
X45166Y433794D01*
X44778Y433639D01*
X44387Y433494D01*
X43993Y433358D01*
X43595Y433232D01*
X43194Y433116D01*
X42791Y433009D01*
X42385Y432913D01*
X41977Y432827D01*
X41566Y432750D01*
X41154Y432684D01*
X40741Y432628D01*
X40326Y432582D01*
X39911Y432546D01*
X39494Y432520D01*
X39077Y432505D01*
X38660Y432500D01*
X38243Y432505D01*
X37826Y432520D01*
X37409Y432546D01*
X36994Y432582D01*
X36579Y432628D01*
X36166Y432684D01*
X35754Y432750D01*
X35343Y432827D01*
X34935Y432913D01*
X34529Y433009D01*
X34126Y433116D01*
X33725Y433232D01*
X33327Y433358D01*
X32933Y433494D01*
X32542Y433639D01*
X32154Y433794D01*
X31771Y433958D01*
X31392Y434132D01*
X31017Y434315D01*
X30646Y434507D01*
X30281Y434709D01*
X29920Y434919D01*
X29565Y435137D01*
X29215Y435365D01*
X28871Y435601D01*
X28533Y435845D01*
X28201Y436098D01*
X27875Y436359D01*
X27556Y436627D01*
X27243Y436904D01*
X26938Y437188D01*
X26639Y437479D01*
X26348Y437778D01*
X26064Y438083D01*
X25787Y438396D01*
X25519Y438715D01*
X25258Y439041D01*
X25005Y439373D01*
X24761Y439711D01*
X24525Y440055D01*
X24297Y440405D01*
X24079Y440760D01*
X23869Y441121D01*
X23667Y441486D01*
X23475Y441857D01*
X23292Y442232D01*
X23118Y442611D01*
X22954Y442994D01*
X22799Y443382D01*
X22654Y443773D01*
X22518Y444167D01*
X22392Y444565D01*
X22276Y444966D01*
X22169Y445369D01*
X22073Y445775D01*
X21987Y446183D01*
X21910Y446594D01*
X21844Y447006D01*
X21788Y447419D01*
X21742Y447834D01*
X21706Y448249D01*
X21680Y448666D01*
X21665Y449083D01*
X21660Y449500D01*
D13*
X432308Y342402D02*
X432308Y332657D01*
X434257Y330708D01*
X438155Y330708D01*
X440104Y332657D01*
X440104Y342402D01*
X444002Y332657D02*
X445951Y330708D01*
X449849Y330708D01*
X451798Y332657D01*
X451798Y334606D01*
X449849Y336555D01*
X445951Y336555D01*
X444002Y338504D01*
X444002Y340453D01*
X445951Y342402D01*
X449849Y342402D01*
X451798Y340453D01*
X447900Y344351D02*
X447900Y328759D01*
X455696Y338504D02*
X459594Y342402D01*
X459594Y330708D01*
X455696Y330708D02*
X463492Y330708D01*
D12*
X190500Y203200D02*
X184150Y209550D01*
X190500Y203200D02*
X190500Y190500D01*
X184150Y184150D01*
X190500Y177800D01*
X190500Y165100D01*
X184150Y158750D01*
X190500Y152400D01*
X190500Y139700D01*
X184150Y133350D01*
X190500Y127000D01*
X190500Y114300D01*
X184150Y107950D01*
X165100Y203200D02*
X171450Y209550D01*
X165100Y190500D02*
X171450Y184150D01*
X165100Y177800D01*
X165100Y165100D02*
X171450Y158750D01*
X165100Y152400D01*
X165100Y139700D02*
X171450Y133350D01*
X165100Y127000D01*
X165100Y114300D02*
X171450Y107950D01*
X165100Y349250D02*
X213360Y349250D01*
X370840Y349250D02*
X419100Y349250D01*
X419100Y279400D01*
X419100Y266700D01*
X419100Y254000D01*
X419100Y241300D01*
X419100Y228600D01*
X419100Y215900D01*
X419100Y6350D01*
X165100Y215900D02*
X165100Y228600D01*
X165100Y241300D01*
X165100Y254000D01*
X165100Y266700D01*
X165100Y279400D01*
X165100Y349250D01*
X171450Y107950D02*
X165100Y101600D01*
X165100Y88900D02*
X171450Y82550D01*
X184150Y82550D01*
X190500Y88900D01*
X190500Y101600D01*
X184150Y107950D01*
D13*
X196088Y99153D02*
X198037Y101102D01*
X201935Y101102D01*
X203884Y99153D01*
X203884Y97204D01*
X201935Y95255D01*
X199986Y95255D01*
X201935Y95255D02*
X203884Y93306D01*
X203884Y91357D01*
X201935Y89408D01*
X198037Y89408D01*
X196088Y91357D01*
X207782Y93306D02*
X207782Y101102D01*
X207782Y93306D02*
X211680Y89408D01*
X215578Y93306D01*
X215578Y101102D01*
X219476Y99153D02*
X221425Y101102D01*
X225323Y101102D01*
X227272Y99153D01*
X227272Y97204D01*
X225323Y95255D01*
X223374Y95255D01*
X225323Y95255D02*
X227272Y93306D01*
X227272Y91357D01*
X225323Y89408D01*
X221425Y89408D01*
X219476Y91357D01*
X207772Y261097D02*
X196078Y261097D01*
X196078Y266944D01*
X198027Y268893D01*
X201925Y268893D01*
X203874Y266944D01*
X203874Y261097D01*
X203874Y264995D02*
X207772Y268893D01*
X198027Y280587D02*
X196078Y278638D01*
X196078Y274740D01*
X198027Y272791D01*
X199976Y272791D01*
X201925Y274740D01*
X201925Y278638D01*
X203874Y280587D01*
X205823Y280587D01*
X207772Y278638D01*
X207772Y274740D01*
X205823Y272791D01*
X207772Y288383D02*
X196078Y288383D01*
X196078Y284485D02*
X196078Y292281D01*
D12*
X412750Y209550D02*
X419100Y203200D01*
X419100Y190500D02*
X412750Y184150D01*
X419100Y177800D01*
X419100Y165100D02*
X412750Y158750D01*
X419100Y152400D01*
X419100Y139700D02*
X412750Y133350D01*
X419100Y127000D01*
X419100Y114300D02*
X412750Y107950D01*
X393700Y203200D02*
X400050Y209550D01*
X393700Y190500D02*
X400050Y184150D01*
X393700Y177800D01*
X393700Y165100D02*
X400050Y158750D01*
X393700Y152400D01*
X393700Y139700D02*
X400050Y133350D01*
X393700Y127000D01*
X393700Y114300D02*
X400050Y107950D01*
X393700Y101600D01*
X393700Y88900D02*
X400050Y82550D01*
X412750Y82550D01*
X419100Y88900D01*
X419100Y101600D02*
X412750Y107950D01*
D13*
X373536Y101102D02*
X365740Y101102D01*
X365740Y95255D01*
X369638Y97204D01*
X371587Y97204D01*
X373536Y95255D01*
X373536Y91357D01*
X371587Y89408D01*
X367689Y89408D01*
X365740Y91357D01*
X377434Y93306D02*
X377434Y101102D01*
X377434Y93306D02*
X381332Y89408D01*
X385230Y93306D01*
X385230Y101102D01*
D12*
X171450Y209550D02*
X165100Y215900D01*
X165100Y228600D02*
X171450Y234950D01*
X165100Y241300D01*
X165100Y254000D02*
X171450Y260350D01*
X165100Y266700D01*
X165100Y279400D02*
X171450Y285750D01*
X184150Y285750D01*
X190500Y279400D01*
X190500Y266700D01*
X184150Y260350D01*
X190500Y254000D01*
X190500Y241300D01*
X184150Y234950D01*
X190500Y228600D01*
X190500Y215900D01*
X184150Y209550D01*
X393700Y101600D02*
X393700Y88900D01*
X393700Y114300D02*
X393700Y127000D01*
X393700Y139700D02*
X393700Y152400D01*
X393700Y165100D02*
X393700Y177800D01*
X393700Y190500D02*
X393700Y203200D01*
X400050Y209550D02*
X393700Y215900D01*
X393700Y228600D01*
X400050Y234950D01*
X393700Y241300D01*
X393700Y254000D01*
X400050Y260350D01*
X393700Y266700D01*
X393700Y279400D01*
X400050Y285750D01*
X412750Y285750D01*
X419100Y279400D01*
X419100Y266700D02*
X412750Y260350D01*
X419100Y254000D01*
X419100Y241300D02*
X412750Y234950D01*
X419100Y228600D01*
X419100Y215900D02*
X412750Y209550D01*
X165100Y215900D02*
X165100Y76200D01*
X184150Y76200D01*
X184150Y57150D01*
X184150Y31750D01*
X184150Y6350D01*
X184150Y57150D02*
X171450Y57150D01*
X171450Y31750D01*
X184150Y31750D01*
X184150Y6350D02*
X241300Y6350D01*
X241300Y21590D01*
X330200Y21590D02*
X330200Y6350D01*
X419100Y6350D01*
X323850Y12700D02*
X247650Y12700D01*
X323850Y12700D02*
X323850Y21590D01*
X247650Y21590D02*
X247650Y12700D01*
X247650Y21590D02*
X241300Y21590D01*
X323850Y21590D02*
X330200Y21590D01*
D13*
X268717Y40557D02*
X268717Y50302D01*
X268717Y40557D02*
X270666Y38608D01*
X274564Y38608D01*
X276513Y40557D01*
X276513Y50302D01*
X286258Y50302D02*
X288207Y48353D01*
X286258Y50302D02*
X282360Y50302D01*
X280411Y48353D01*
X280411Y46404D01*
X282360Y44455D01*
X286258Y44455D01*
X288207Y42506D01*
X288207Y40557D01*
X286258Y38608D01*
X282360Y38608D01*
X280411Y40557D01*
X292105Y38608D02*
X292105Y50302D01*
X297952Y50302D01*
X299901Y48353D01*
X299901Y46404D01*
X297952Y44455D01*
X299901Y42506D01*
X299901Y40557D01*
X297952Y38608D01*
X292105Y38608D01*
X292105Y44455D02*
X297952Y44455D01*
D17*
X190881Y39751D02*
X190881Y49157D01*
X195584Y49157D01*
X197152Y47589D01*
X197152Y44454D01*
X195584Y42886D01*
X190881Y42886D01*
X194016Y42886D02*
X197152Y39751D01*
X200236Y49157D02*
X206507Y49157D01*
X200236Y49157D02*
X200236Y39751D01*
X206507Y39751D01*
X203372Y44454D02*
X200236Y44454D01*
X214294Y49157D02*
X215862Y47589D01*
X214294Y49157D02*
X211159Y49157D01*
X209591Y47589D01*
X209591Y46022D01*
X211159Y44454D01*
X214294Y44454D01*
X215862Y42886D01*
X215862Y41319D01*
X214294Y39751D01*
X211159Y39751D01*
X209591Y41319D01*
X218947Y49157D02*
X225217Y49157D01*
X218947Y49157D02*
X218947Y39751D01*
X225217Y39751D01*
X222082Y44454D02*
X218947Y44454D01*
X231437Y39751D02*
X231437Y49157D01*
X228302Y49157D02*
X234572Y49157D01*
D11*
X241019Y169672D02*
X241019Y185942D01*
X241019Y169672D02*
X249154Y169672D01*
X251865Y172384D01*
X251865Y183230D01*
X249154Y185942D01*
X241019Y185942D01*
X257390Y180519D02*
X262813Y185942D01*
X262813Y169672D01*
X257390Y169672D02*
X268237Y169672D01*
X290133Y169672D02*
X290133Y180519D01*
X292845Y180519D01*
X295557Y177807D01*
X295557Y169672D01*
X295557Y177807D02*
X298268Y180519D01*
X300980Y177807D01*
X300980Y169672D01*
X306505Y180519D02*
X309217Y180519D01*
X309217Y169672D01*
X311928Y169672D02*
X306505Y169672D01*
X309217Y185942D02*
X309217Y188654D01*
X317419Y180519D02*
X317419Y169672D01*
X317419Y180519D02*
X325554Y180519D01*
X328266Y177807D01*
X328266Y169672D01*
X333791Y180519D02*
X336502Y180519D01*
X336502Y169672D01*
X333791Y169672D02*
X339214Y169672D01*
X336502Y185942D02*
X336502Y188654D01*
D12*
X247650Y76200D02*
X247650Y69850D01*
X247650Y63500D02*
X247650Y57150D01*
X247650Y50800D02*
X247650Y44450D01*
X247650Y38100D02*
X247650Y31750D01*
X247650Y25400D02*
X247650Y21590D01*
X247650Y76200D02*
X254000Y76200D01*
X260350Y76200D02*
X266700Y76200D01*
X273050Y76200D02*
X279400Y76200D01*
X285750Y76200D02*
X292100Y76200D01*
X298450Y76200D02*
X304800Y76200D01*
X311150Y76200D02*
X317500Y76200D01*
X323850Y76200D02*
X323850Y69850D01*
X323850Y63500D02*
X323850Y57150D01*
X323850Y50800D02*
X323850Y44450D01*
X323850Y38100D02*
X323850Y31750D01*
X323850Y25400D02*
X323850Y21590D01*
X213360Y292100D02*
X213360Y349250D01*
X370840Y349250D02*
X370840Y292100D01*
X370840Y351790D02*
X213360Y351790D01*
X370840Y351790D02*
X370840Y349250D01*
X213360Y349250D02*
X213360Y351790D01*
X213360Y292100D02*
X370840Y292100D01*
X243620Y314325D02*
X243620Y323646D01*
X248281Y328307D01*
X252942Y323646D01*
X252942Y314325D01*
X252942Y321316D02*
X243620Y321316D01*
X257653Y314325D02*
X257653Y328307D01*
X266974Y314325D01*
X266974Y328307D01*
X276346Y328307D02*
X276346Y314325D01*
X271686Y328307D02*
X281007Y328307D01*
X285719Y328307D02*
X295040Y328307D01*
X285719Y328307D02*
X285719Y314325D01*
X295040Y314325D01*
X290379Y321316D02*
X285719Y321316D01*
X299751Y314325D02*
X299751Y328307D01*
X309073Y314325D01*
X309073Y328307D01*
X313784Y328307D02*
X313784Y314325D01*
X323105Y314325D02*
X313784Y328307D01*
X323105Y328307D02*
X323105Y314325D01*
X327817Y314325D02*
X327817Y323646D01*
X332478Y328307D01*
X337138Y323646D01*
X337138Y314325D01*
X337138Y321316D02*
X327817Y321316D01*
D13*
X207772Y236464D02*
X199976Y236464D01*
X196078Y240362D01*
X199976Y244260D01*
X207772Y244260D01*
X201925Y244260D02*
X201925Y236464D01*
X205823Y248158D02*
X198027Y248158D01*
X196078Y250107D01*
X196078Y254005D01*
X198027Y255954D01*
X205823Y255954D01*
X207772Y254005D01*
X207772Y250107D01*
X205823Y248158D01*
X198027Y255954D01*
D12*
X213360Y292100D02*
X213360Y114300D01*
D13*
X207772Y211064D02*
X196078Y211064D01*
X207772Y211064D02*
X207772Y216911D01*
X205823Y218860D01*
X198027Y218860D01*
X196078Y216911D01*
X196078Y211064D01*
X198027Y222758D02*
X205823Y222758D01*
X198027Y222758D02*
X196078Y224707D01*
X196078Y228605D01*
X198027Y230554D01*
X205823Y230554D01*
X207772Y228605D01*
X207772Y224707D01*
X205823Y222758D01*
X198027Y230554D01*
X196078Y185664D02*
X207772Y185664D01*
X207772Y191511D01*
X205823Y193460D01*
X198027Y193460D01*
X196078Y191511D01*
X196078Y185664D01*
X196078Y197358D02*
X196078Y205154D01*
X196078Y197358D02*
X201925Y197358D01*
X199976Y201256D01*
X199976Y203205D01*
X201925Y205154D01*
X205823Y205154D01*
X207772Y203205D01*
X207772Y199307D01*
X205823Y197358D01*
X207772Y160264D02*
X196078Y160264D01*
X207772Y160264D02*
X207772Y166111D01*
X205823Y168060D01*
X198027Y168060D01*
X196078Y166111D01*
X196078Y160264D01*
X198027Y175856D02*
X196078Y179754D01*
X198027Y175856D02*
X201925Y171958D01*
X205823Y171958D01*
X207772Y173907D01*
X207772Y177805D01*
X205823Y179754D01*
X203874Y179754D01*
X201925Y177805D01*
X201925Y171958D01*
X196078Y134864D02*
X207772Y134864D01*
X207772Y140711D01*
X205823Y142660D01*
X198027Y142660D01*
X196078Y140711D01*
X196078Y134864D01*
X196078Y146558D02*
X196078Y154354D01*
X198027Y154354D01*
X205823Y146558D01*
X207772Y146558D01*
X207772Y109464D02*
X196078Y109464D01*
X207772Y109464D02*
X207772Y115311D01*
X205823Y117260D01*
X198027Y117260D01*
X196078Y115311D01*
X196078Y109464D01*
X198027Y121158D02*
X196078Y123107D01*
X196078Y127005D01*
X198027Y128954D01*
X199976Y128954D01*
X201925Y127005D01*
X203874Y128954D01*
X205823Y128954D01*
X207772Y127005D01*
X207772Y123107D01*
X205823Y121158D01*
X203874Y121158D01*
X201925Y123107D01*
X199976Y121158D01*
X198027Y121158D01*
X201925Y123107D02*
X201925Y127005D01*
X376418Y265762D02*
X388112Y265762D01*
X376418Y261864D02*
X376418Y269660D01*
X376418Y273558D02*
X388112Y281354D01*
X388112Y273558D02*
X376418Y281354D01*
X376418Y236464D02*
X388112Y236464D01*
X376418Y236464D02*
X376418Y242311D01*
X378367Y244260D01*
X382265Y244260D01*
X384214Y242311D01*
X384214Y236464D01*
X384214Y240362D02*
X388112Y244260D01*
X388112Y255954D02*
X376418Y248158D01*
X376418Y255954D02*
X388112Y248158D01*
D12*
X370840Y292100D02*
X370840Y132080D01*
D13*
X376418Y211064D02*
X388112Y211064D01*
X388112Y216911D01*
X386163Y218860D01*
X378367Y218860D01*
X376418Y216911D01*
X376418Y211064D01*
X380316Y222758D02*
X376418Y226656D01*
X388112Y226656D01*
X388112Y222758D02*
X388112Y230554D01*
X388112Y185664D02*
X376418Y185664D01*
X388112Y185664D02*
X388112Y191511D01*
X386163Y193460D01*
X378367Y193460D01*
X376418Y191511D01*
X376418Y185664D01*
X388112Y197358D02*
X388112Y205154D01*
X388112Y197358D02*
X380316Y205154D01*
X378367Y205154D01*
X376418Y203205D01*
X376418Y199307D01*
X378367Y197358D01*
X376418Y160264D02*
X388112Y160264D01*
X388112Y166111D01*
X386163Y168060D01*
X378367Y168060D01*
X376418Y166111D01*
X376418Y160264D01*
X378367Y171958D02*
X376418Y173907D01*
X376418Y177805D01*
X378367Y179754D01*
X380316Y179754D01*
X382265Y177805D01*
X382265Y175856D01*
X382265Y177805D02*
X384214Y179754D01*
X386163Y179754D01*
X388112Y177805D01*
X388112Y173907D01*
X386163Y171958D01*
X388112Y134864D02*
X376418Y134864D01*
X388112Y134864D02*
X388112Y140711D01*
X386163Y142660D01*
X378367Y142660D01*
X376418Y140711D01*
X376418Y134864D01*
X376418Y152405D02*
X388112Y152405D01*
X382265Y146558D02*
X376418Y152405D01*
X382265Y154354D02*
X382265Y146558D01*
D12*
X350520Y114300D02*
X213360Y114300D01*
D13*
X359893Y126502D02*
X361842Y124553D01*
X359893Y126502D02*
X355995Y126502D01*
X354046Y124553D01*
X354046Y116757D01*
X355995Y114808D01*
X359893Y114808D01*
X361842Y116757D01*
X361842Y120655D01*
X357944Y120655D01*
X365740Y114808D02*
X365740Y126502D01*
X373536Y114808D01*
X373536Y126502D01*
X377434Y126502D02*
X377434Y114808D01*
X383281Y114808D01*
X385230Y116757D01*
X385230Y124553D01*
X383281Y126502D01*
X377434Y126502D01*
D12*
X460340Y13140D02*
X480340Y13140D01*
X515340Y13140D01*
X535340Y13140D01*
X535340Y90640D01*
X460340Y90640D02*
X460340Y13140D01*
X480340Y13140D02*
X480340Y18140D01*
X515340Y18140D01*
X515340Y13140D01*
X462840Y90640D02*
X460340Y90640D01*
X462840Y90640D02*
X462840Y53140D01*
X532840Y90640D02*
X535340Y90640D01*
X532840Y90640D02*
X532840Y53140D01*
X462840Y53140D01*
X485140Y15240D02*
X485140Y-86360D01*
X510540Y-86360D01*
X510540Y15240D01*
D11*
X3810Y88980D02*
X3810Y114380D01*
X-21590Y114380D01*
X-21590Y88980D01*
X3810Y88980D01*
D18*
X-27940Y101680D02*
X-85090Y101680D01*
D11*
X3810Y114380D02*
X3810Y139780D01*
X-21590Y139780D01*
X-21590Y114380D01*
D18*
X-27940Y127080D02*
X-85090Y127080D01*
D11*
X3810Y139780D02*
X3810Y165180D01*
X-21590Y165180D01*
X-21590Y139780D01*
D18*
X-27940Y152480D02*
X-85090Y152480D01*
D11*
X3810Y165180D02*
X3810Y190580D01*
X-21590Y190580D01*
X-21590Y165180D01*
D18*
X-27940Y177880D02*
X-85090Y177880D01*
D11*
X3810Y190580D02*
X3810Y215980D01*
X-21590Y215980D01*
X-21590Y190580D01*
D18*
X-27940Y203280D02*
X-85090Y203280D01*
D12*
X-58363Y82005D02*
X-58363Y70565D01*
X-54550Y78192D02*
X-58363Y82005D01*
X-54550Y78192D02*
X-50736Y82005D01*
X-50736Y70565D01*
X-42856Y70565D02*
X-42856Y82005D01*
X-46669Y82005D02*
X-39042Y82005D01*
X-34975Y82005D02*
X-34975Y70565D01*
X-34975Y82005D02*
X-29255Y82005D01*
X-27349Y80098D01*
X-27349Y76285D01*
X-29255Y74378D01*
X-34975Y74378D01*
X-31162Y74378D02*
X-27349Y70565D01*
X-23281Y68658D02*
X-15655Y68658D01*
X-11587Y70565D02*
X-11587Y82005D01*
X-5867Y82005D01*
X-3961Y80098D01*
X-3961Y76285D01*
X-5867Y74378D01*
X-11587Y74378D01*
X2014Y82005D02*
X5827Y82005D01*
X2014Y82005D02*
X107Y80098D01*
X107Y72472D01*
X2014Y70565D01*
X5827Y70565D01*
X7733Y72472D01*
X7733Y80098D01*
X5827Y82005D01*
X11801Y82005D02*
X11801Y70565D01*
X15614Y74378D01*
X19427Y70565D01*
X19427Y82005D01*
D19*
X-24130Y101680D03*
X-24130Y127080D03*
X-24130Y152480D03*
X-24130Y177880D03*
X-24130Y203280D03*
D20*
X8890Y101680D03*
X8890Y127080D03*
X8890Y152480D03*
X8890Y177880D03*
X8890Y203280D03*
D11*
X19050Y322580D02*
X12700Y328930D01*
X12700Y341630D01*
X19050Y347980D01*
X31750Y347980D01*
X38100Y341630D01*
X38100Y328930D01*
X31750Y322580D01*
X12700Y290830D02*
X12700Y278130D01*
X12700Y290830D02*
X19050Y297180D01*
X31750Y297180D01*
X38100Y290830D01*
X19050Y297180D02*
X12700Y303530D01*
X12700Y316230D01*
X19050Y322580D01*
X31750Y322580D01*
X38100Y316230D01*
X38100Y303530D01*
X31750Y297180D01*
X31750Y271780D02*
X19050Y271780D01*
X12700Y278130D01*
X31750Y271780D02*
X38100Y278130D01*
X38100Y290830D01*
X12700Y354330D02*
X12700Y367030D01*
X19050Y373380D01*
X31750Y373380D01*
X38100Y367030D01*
X19050Y347980D02*
X12700Y354330D01*
X31750Y347980D02*
X38100Y354330D01*
X38100Y367030D01*
D12*
X6477Y271653D02*
X-4963Y271653D01*
X-1150Y275466D01*
X-4963Y279280D01*
X6477Y279280D01*
X6477Y287160D02*
X-4963Y287160D01*
X-4963Y283347D02*
X-4963Y290973D01*
X-4963Y295041D02*
X6477Y295041D01*
X-4963Y295041D02*
X-4963Y300761D01*
X-3056Y302667D01*
X757Y302667D01*
X2664Y300761D01*
X2664Y295041D01*
X2664Y298854D02*
X6477Y302667D01*
X8384Y306735D02*
X8384Y314361D01*
X-3056Y326055D02*
X-4963Y324149D01*
X-4963Y320336D01*
X-3056Y318429D01*
X4570Y318429D01*
X6477Y320336D01*
X6477Y324149D01*
X4570Y326055D01*
X6477Y333936D02*
X-4963Y333936D01*
X-4963Y330123D02*
X-4963Y337749D01*
X-4963Y341817D02*
X6477Y341817D01*
X-4963Y341817D02*
X-4963Y347537D01*
X-3056Y349443D01*
X757Y349443D01*
X2664Y347537D01*
X2664Y341817D01*
X2664Y345630D02*
X6477Y349443D01*
X6477Y353511D02*
X-4963Y353511D01*
X6477Y353511D02*
X6477Y361137D01*
D11*
X298450Y406400D02*
X311150Y406400D01*
X317500Y400050D01*
X317500Y387350D01*
X311150Y381000D01*
X273050Y406400D02*
X266700Y400050D01*
X273050Y406400D02*
X285750Y406400D01*
X292100Y400050D01*
X292100Y387350D01*
X285750Y381000D01*
X273050Y381000D01*
X266700Y387350D01*
X292100Y400050D02*
X298450Y406400D01*
X292100Y387350D02*
X298450Y381000D01*
X311150Y381000D01*
X234950Y406400D02*
X222250Y406400D01*
X234950Y406400D02*
X241300Y400050D01*
X241300Y387350D01*
X234950Y381000D01*
X241300Y400050D02*
X247650Y406400D01*
X260350Y406400D01*
X266700Y400050D01*
X266700Y387350D01*
X260350Y381000D01*
X247650Y381000D01*
X241300Y387350D01*
X215900Y387350D02*
X215900Y400050D01*
X222250Y406400D01*
X215900Y387350D02*
X222250Y381000D01*
X234950Y381000D01*
X323850Y406400D02*
X336550Y406400D01*
X342900Y400050D01*
X342900Y387350D01*
X336550Y381000D01*
X317500Y400050D02*
X323850Y406400D01*
X317500Y387350D02*
X323850Y381000D01*
X336550Y381000D01*
D12*
X215773Y412623D02*
X215773Y424063D01*
X215773Y412623D02*
X223400Y412623D01*
X227467Y424063D02*
X235093Y424063D01*
X227467Y424063D02*
X227467Y412623D01*
X235093Y412623D01*
X231280Y418343D02*
X227467Y418343D01*
X239161Y412623D02*
X239161Y424063D01*
X246787Y424063D01*
X242974Y418343D02*
X239161Y418343D01*
X254668Y412623D02*
X254668Y424063D01*
X250855Y424063D02*
X258481Y424063D01*
X262549Y410716D02*
X270175Y410716D01*
X274243Y424063D02*
X281869Y424063D01*
X274243Y424063D02*
X274243Y412623D01*
X281869Y412623D01*
X278056Y418343D02*
X274243Y418343D01*
X285937Y412623D02*
X285937Y424063D01*
X293563Y412623D01*
X293563Y424063D01*
X303351Y424063D02*
X305257Y422156D01*
X303351Y424063D02*
X299537Y424063D01*
X297631Y422156D01*
X297631Y414530D01*
X299537Y412623D01*
X303351Y412623D01*
X305257Y414530D01*
D11*
X519430Y406400D02*
X532130Y406400D01*
X538480Y400050D01*
X538480Y387350D01*
X532130Y381000D01*
X494030Y406400D02*
X487680Y400050D01*
X494030Y406400D02*
X506730Y406400D01*
X513080Y400050D01*
X513080Y387350D01*
X506730Y381000D01*
X494030Y381000D01*
X487680Y387350D01*
X513080Y400050D02*
X519430Y406400D01*
X513080Y387350D02*
X519430Y381000D01*
X532130Y381000D01*
X455930Y406400D02*
X443230Y406400D01*
X455930Y406400D02*
X462280Y400050D01*
X462280Y387350D01*
X455930Y381000D01*
X462280Y400050D02*
X468630Y406400D01*
X481330Y406400D01*
X487680Y400050D01*
X487680Y387350D01*
X481330Y381000D01*
X468630Y381000D01*
X462280Y387350D01*
X436880Y387350D02*
X436880Y400050D01*
X443230Y406400D01*
X436880Y387350D02*
X443230Y381000D01*
X455930Y381000D01*
X544830Y406400D02*
X557530Y406400D01*
X563880Y400050D01*
X563880Y387350D01*
X557530Y381000D01*
X538480Y400050D02*
X544830Y406400D01*
X538480Y387350D02*
X544830Y381000D01*
X557530Y381000D01*
D12*
X436753Y412623D02*
X436753Y424063D01*
X442473Y424063D01*
X444380Y422156D01*
X444380Y418343D01*
X442473Y416436D01*
X436753Y416436D01*
X440566Y416436D02*
X444380Y412623D01*
X448447Y412623D02*
X452260Y412623D01*
X450354Y412623D02*
X450354Y424063D01*
X452260Y424063D02*
X448447Y424063D01*
X461963Y424063D02*
X463869Y422156D01*
X461963Y424063D02*
X458150Y424063D01*
X456243Y422156D01*
X456243Y414530D01*
X458150Y412623D01*
X461963Y412623D01*
X463869Y414530D01*
X463869Y418343D01*
X460056Y418343D01*
X467937Y412623D02*
X467937Y424063D01*
X467937Y418343D02*
X475563Y418343D01*
X475563Y424063D02*
X475563Y412623D01*
X483444Y412623D02*
X483444Y424063D01*
X479631Y424063D02*
X487257Y424063D01*
X491325Y410716D02*
X498951Y410716D01*
X503019Y424063D02*
X510645Y424063D01*
X503019Y424063D02*
X503019Y412623D01*
X510645Y412623D01*
X506832Y418343D02*
X503019Y418343D01*
X514713Y412623D02*
X514713Y424063D01*
X522339Y412623D01*
X522339Y424063D01*
X532127Y424063D02*
X534033Y422156D01*
X532127Y424063D02*
X528313Y424063D01*
X526407Y422156D01*
X526407Y414530D01*
X528313Y412623D01*
X532127Y412623D01*
X534033Y414530D01*
D11*
X538480Y147320D02*
X538478Y147220D01*
X538472Y147121D01*
X538462Y147021D01*
X538449Y146923D01*
X538431Y146824D01*
X538410Y146727D01*
X538385Y146631D01*
X538356Y146535D01*
X538323Y146441D01*
X538287Y146348D01*
X538247Y146257D01*
X538203Y146167D01*
X538156Y146079D01*
X538106Y145993D01*
X538052Y145909D01*
X537995Y145827D01*
X537935Y145748D01*
X537871Y145670D01*
X537805Y145596D01*
X537736Y145524D01*
X537664Y145455D01*
X537590Y145389D01*
X537512Y145325D01*
X537433Y145265D01*
X537351Y145208D01*
X537267Y145154D01*
X537181Y145104D01*
X537093Y145057D01*
X537003Y145013D01*
X536912Y144973D01*
X536819Y144937D01*
X536725Y144904D01*
X536629Y144875D01*
X536533Y144850D01*
X536436Y144829D01*
X536337Y144811D01*
X536239Y144798D01*
X536139Y144788D01*
X536040Y144782D01*
X535940Y144780D01*
X538480Y162560D02*
X538478Y162660D01*
X538472Y162759D01*
X538462Y162859D01*
X538449Y162957D01*
X538431Y163056D01*
X538410Y163153D01*
X538385Y163249D01*
X538356Y163345D01*
X538323Y163439D01*
X538287Y163532D01*
X538247Y163623D01*
X538203Y163713D01*
X538156Y163801D01*
X538106Y163887D01*
X538052Y163971D01*
X537995Y164053D01*
X537935Y164132D01*
X537871Y164210D01*
X537805Y164284D01*
X537736Y164356D01*
X537664Y164425D01*
X537590Y164491D01*
X537512Y164555D01*
X537433Y164615D01*
X537351Y164672D01*
X537267Y164726D01*
X537181Y164776D01*
X537093Y164823D01*
X537003Y164867D01*
X536912Y164907D01*
X536819Y164943D01*
X536725Y164976D01*
X536629Y165005D01*
X536533Y165030D01*
X536436Y165051D01*
X536337Y165069D01*
X536239Y165082D01*
X536139Y165092D01*
X536040Y165098D01*
X535940Y165100D01*
X490220Y165100D02*
X490120Y165098D01*
X490021Y165092D01*
X489921Y165082D01*
X489823Y165069D01*
X489724Y165051D01*
X489627Y165030D01*
X489531Y165005D01*
X489435Y164976D01*
X489341Y164943D01*
X489248Y164907D01*
X489157Y164867D01*
X489067Y164823D01*
X488979Y164776D01*
X488893Y164726D01*
X488809Y164672D01*
X488727Y164615D01*
X488648Y164555D01*
X488570Y164491D01*
X488496Y164425D01*
X488424Y164356D01*
X488355Y164284D01*
X488289Y164210D01*
X488225Y164132D01*
X488165Y164053D01*
X488108Y163971D01*
X488054Y163887D01*
X488004Y163801D01*
X487957Y163713D01*
X487913Y163623D01*
X487873Y163532D01*
X487837Y163439D01*
X487804Y163345D01*
X487775Y163249D01*
X487750Y163153D01*
X487729Y163056D01*
X487711Y162957D01*
X487698Y162859D01*
X487688Y162759D01*
X487682Y162660D01*
X487680Y162560D01*
X487680Y147320D02*
X487682Y147220D01*
X487688Y147121D01*
X487698Y147021D01*
X487711Y146923D01*
X487729Y146824D01*
X487750Y146727D01*
X487775Y146631D01*
X487804Y146535D01*
X487837Y146441D01*
X487873Y146348D01*
X487913Y146257D01*
X487957Y146167D01*
X488004Y146079D01*
X488054Y145993D01*
X488108Y145909D01*
X488165Y145827D01*
X488225Y145748D01*
X488289Y145670D01*
X488355Y145596D01*
X488424Y145524D01*
X488496Y145455D01*
X488570Y145389D01*
X488648Y145325D01*
X488727Y145265D01*
X488809Y145208D01*
X488893Y145154D01*
X488979Y145104D01*
X489067Y145057D01*
X489157Y145013D01*
X489248Y144973D01*
X489341Y144937D01*
X489435Y144904D01*
X489531Y144875D01*
X489627Y144850D01*
X489724Y144829D01*
X489823Y144811D01*
X489921Y144798D01*
X490021Y144788D01*
X490120Y144782D01*
X490220Y144780D01*
X538480Y147320D02*
X538480Y162560D01*
X535940Y144780D02*
X532130Y144780D01*
X530860Y146050D01*
X532130Y165100D02*
X535940Y165100D01*
X532130Y165100D02*
X530860Y163830D01*
X495300Y146050D02*
X494030Y144780D01*
X495300Y146050D02*
X530860Y146050D01*
X495300Y163830D02*
X494030Y165100D01*
X495300Y163830D02*
X530860Y163830D01*
X494030Y144780D02*
X490220Y144780D01*
X490220Y165100D02*
X494030Y165100D01*
X487680Y162560D02*
X487680Y147320D01*
D13*
X520745Y141486D02*
X520745Y132588D01*
X520745Y141486D02*
X525194Y141486D01*
X526677Y140003D01*
X526677Y137037D01*
X525194Y135554D01*
X520745Y135554D01*
X523711Y135554D02*
X526677Y132588D01*
X529867Y141486D02*
X535798Y141486D01*
X529867Y141486D02*
X529867Y137037D01*
X532833Y138520D01*
X534315Y138520D01*
X535798Y137037D01*
X535798Y134071D01*
X534315Y132588D01*
X531350Y132588D01*
X529867Y134071D01*
D21*
X485775Y154940D03*
X540385Y154940D03*
D11*
X521970Y266700D02*
X515620Y273050D01*
X515620Y285750D01*
X521970Y292100D01*
X534670Y292100D01*
X541020Y285750D01*
X541020Y273050D01*
X534670Y266700D01*
X515620Y234950D02*
X515620Y222250D01*
X515620Y234950D02*
X521970Y241300D01*
X534670Y241300D01*
X541020Y234950D01*
X521970Y241300D02*
X515620Y247650D01*
X515620Y260350D01*
X521970Y266700D01*
X534670Y266700D01*
X541020Y260350D01*
X541020Y247650D01*
X534670Y241300D01*
X534670Y215900D02*
X521970Y215900D01*
X515620Y222250D01*
X534670Y215900D02*
X541020Y222250D01*
X541020Y234950D01*
X515620Y298450D02*
X515620Y311150D01*
X521970Y317500D01*
X534670Y317500D01*
X541020Y311150D01*
X521970Y292100D02*
X515620Y298450D01*
X534670Y292100D02*
X541020Y298450D01*
X541020Y311150D01*
D12*
X499864Y223400D02*
X497957Y221493D01*
X497957Y217680D01*
X499864Y215773D01*
X501771Y215773D01*
X503677Y217680D01*
X503677Y221493D01*
X505584Y223400D01*
X507490Y223400D01*
X509397Y221493D01*
X509397Y217680D01*
X507490Y215773D01*
X509397Y227467D02*
X497957Y227467D01*
X497957Y233187D01*
X499864Y235093D01*
X503677Y235093D01*
X505584Y233187D01*
X505584Y227467D01*
X505584Y231280D02*
X509397Y235093D01*
X511304Y239161D02*
X511304Y246787D01*
X507490Y250855D02*
X499864Y250855D01*
X497957Y252762D01*
X497957Y256575D01*
X499864Y258481D01*
X507490Y258481D01*
X509397Y256575D01*
X509397Y252762D01*
X507490Y250855D01*
X499864Y258481D01*
X497957Y268269D02*
X509397Y268269D01*
X503677Y262549D02*
X497957Y268269D01*
X503677Y270175D02*
X503677Y262549D01*
D11*
X4750Y39140D02*
X4760Y39982D01*
X4791Y40823D01*
X4843Y41663D01*
X4915Y42501D01*
X5008Y43337D01*
X5121Y44171D01*
X5255Y45002D01*
X5409Y45830D01*
X5583Y46653D01*
X5778Y47472D01*
X5992Y48286D01*
X6227Y49094D01*
X6481Y49896D01*
X6754Y50692D01*
X7048Y51481D01*
X7360Y52262D01*
X7692Y53036D01*
X8042Y53801D01*
X8411Y54557D01*
X8799Y55304D01*
X9205Y56041D01*
X9628Y56769D01*
X10070Y57485D01*
X10529Y58191D01*
X11005Y58884D01*
X11498Y59567D01*
X12008Y60236D01*
X12533Y60893D01*
X13075Y61537D01*
X13633Y62168D01*
X14206Y62784D01*
X14793Y63387D01*
X15396Y63974D01*
X16012Y64547D01*
X16643Y65105D01*
X17287Y65647D01*
X17944Y66172D01*
X18613Y66682D01*
X19296Y67175D01*
X19989Y67651D01*
X20695Y68110D01*
X21411Y68552D01*
X22139Y68975D01*
X22876Y69381D01*
X23623Y69769D01*
X24379Y70138D01*
X25144Y70488D01*
X25918Y70820D01*
X26699Y71132D01*
X27488Y71426D01*
X28284Y71699D01*
X29086Y71953D01*
X29894Y72188D01*
X30708Y72402D01*
X31527Y72597D01*
X32350Y72771D01*
X33178Y72925D01*
X34009Y73059D01*
X34843Y73172D01*
X35679Y73265D01*
X36517Y73337D01*
X37357Y73389D01*
X38198Y73420D01*
X39040Y73430D01*
X39882Y73420D01*
X40723Y73389D01*
X41563Y73337D01*
X42401Y73265D01*
X43237Y73172D01*
X44071Y73059D01*
X44902Y72925D01*
X45730Y72771D01*
X46553Y72597D01*
X47372Y72402D01*
X48186Y72188D01*
X48994Y71953D01*
X49796Y71699D01*
X50592Y71426D01*
X51381Y71132D01*
X52162Y70820D01*
X52936Y70488D01*
X53701Y70138D01*
X54457Y69769D01*
X55204Y69381D01*
X55941Y68975D01*
X56669Y68552D01*
X57385Y68110D01*
X58091Y67651D01*
X58784Y67175D01*
X59467Y66682D01*
X60136Y66172D01*
X60793Y65647D01*
X61437Y65105D01*
X62068Y64547D01*
X62684Y63974D01*
X63287Y63387D01*
X63874Y62784D01*
X64447Y62168D01*
X65005Y61537D01*
X65547Y60893D01*
X66072Y60236D01*
X66582Y59567D01*
X67075Y58884D01*
X67551Y58191D01*
X68010Y57485D01*
X68452Y56769D01*
X68875Y56041D01*
X69281Y55304D01*
X69669Y54557D01*
X70038Y53801D01*
X70388Y53036D01*
X70720Y52262D01*
X71032Y51481D01*
X71326Y50692D01*
X71599Y49896D01*
X71853Y49094D01*
X72088Y48286D01*
X72302Y47472D01*
X72497Y46653D01*
X72671Y45830D01*
X72825Y45002D01*
X72959Y44171D01*
X73072Y43337D01*
X73165Y42501D01*
X73237Y41663D01*
X73289Y40823D01*
X73320Y39982D01*
X73330Y39140D01*
X73320Y38298D01*
X73289Y37457D01*
X73237Y36617D01*
X73165Y35779D01*
X73072Y34943D01*
X72959Y34109D01*
X72825Y33278D01*
X72671Y32450D01*
X72497Y31627D01*
X72302Y30808D01*
X72088Y29994D01*
X71853Y29186D01*
X71599Y28384D01*
X71326Y27588D01*
X71032Y26799D01*
X70720Y26018D01*
X70388Y25244D01*
X70038Y24479D01*
X69669Y23723D01*
X69281Y22976D01*
X68875Y22239D01*
X68452Y21511D01*
X68010Y20795D01*
X67551Y20089D01*
X67075Y19396D01*
X66582Y18713D01*
X66072Y18044D01*
X65547Y17387D01*
X65005Y16743D01*
X64447Y16112D01*
X63874Y15496D01*
X63287Y14893D01*
X62684Y14306D01*
X62068Y13733D01*
X61437Y13175D01*
X60793Y12633D01*
X60136Y12108D01*
X59467Y11598D01*
X58784Y11105D01*
X58091Y10629D01*
X57385Y10170D01*
X56669Y9728D01*
X55941Y9305D01*
X55204Y8899D01*
X54457Y8511D01*
X53701Y8142D01*
X52936Y7792D01*
X52162Y7460D01*
X51381Y7148D01*
X50592Y6854D01*
X49796Y6581D01*
X48994Y6327D01*
X48186Y6092D01*
X47372Y5878D01*
X46553Y5683D01*
X45730Y5509D01*
X44902Y5355D01*
X44071Y5221D01*
X43237Y5108D01*
X42401Y5015D01*
X41563Y4943D01*
X40723Y4891D01*
X39882Y4860D01*
X39040Y4850D01*
X38198Y4860D01*
X37357Y4891D01*
X36517Y4943D01*
X35679Y5015D01*
X34843Y5108D01*
X34009Y5221D01*
X33178Y5355D01*
X32350Y5509D01*
X31527Y5683D01*
X30708Y5878D01*
X29894Y6092D01*
X29086Y6327D01*
X28284Y6581D01*
X27488Y6854D01*
X26699Y7148D01*
X25918Y7460D01*
X25144Y7792D01*
X24379Y8142D01*
X23623Y8511D01*
X22876Y8899D01*
X22139Y9305D01*
X21411Y9728D01*
X20695Y10170D01*
X19989Y10629D01*
X19296Y11105D01*
X18613Y11598D01*
X17944Y12108D01*
X17287Y12633D01*
X16643Y13175D01*
X16012Y13733D01*
X15396Y14306D01*
X14793Y14893D01*
X14206Y15496D01*
X13633Y16112D01*
X13075Y16743D01*
X12533Y17387D01*
X12008Y18044D01*
X11498Y18713D01*
X11005Y19396D01*
X10529Y20089D01*
X10070Y20795D01*
X9628Y21511D01*
X9205Y22239D01*
X8799Y22976D01*
X8411Y23723D01*
X8042Y24479D01*
X7692Y25244D01*
X7360Y26018D01*
X7048Y26799D01*
X6754Y27588D01*
X6481Y28384D01*
X6227Y29186D01*
X5992Y29994D01*
X5778Y30808D01*
X5583Y31627D01*
X5409Y32450D01*
X5255Y33278D01*
X5121Y34109D01*
X5008Y34943D01*
X4915Y35779D01*
X4843Y36617D01*
X4791Y37457D01*
X4760Y38298D01*
X4750Y39140D01*
D16*
X22040Y39140D02*
X22045Y39557D01*
X22060Y39974D01*
X22086Y40391D01*
X22122Y40806D01*
X22168Y41221D01*
X22224Y41634D01*
X22290Y42046D01*
X22367Y42457D01*
X22453Y42865D01*
X22549Y43271D01*
X22656Y43674D01*
X22772Y44075D01*
X22898Y44473D01*
X23034Y44867D01*
X23179Y45258D01*
X23334Y45646D01*
X23498Y46029D01*
X23672Y46408D01*
X23855Y46783D01*
X24047Y47154D01*
X24249Y47519D01*
X24459Y47880D01*
X24677Y48235D01*
X24905Y48585D01*
X25141Y48929D01*
X25385Y49267D01*
X25638Y49599D01*
X25899Y49925D01*
X26167Y50244D01*
X26444Y50557D01*
X26728Y50862D01*
X27019Y51161D01*
X27318Y51452D01*
X27623Y51736D01*
X27936Y52013D01*
X28255Y52281D01*
X28581Y52542D01*
X28913Y52795D01*
X29251Y53039D01*
X29595Y53275D01*
X29945Y53503D01*
X30300Y53721D01*
X30661Y53931D01*
X31026Y54133D01*
X31397Y54325D01*
X31772Y54508D01*
X32151Y54682D01*
X32534Y54846D01*
X32922Y55001D01*
X33313Y55146D01*
X33707Y55282D01*
X34105Y55408D01*
X34506Y55524D01*
X34909Y55631D01*
X35315Y55727D01*
X35723Y55813D01*
X36134Y55890D01*
X36546Y55956D01*
X36959Y56012D01*
X37374Y56058D01*
X37789Y56094D01*
X38206Y56120D01*
X38623Y56135D01*
X39040Y56140D01*
X39457Y56135D01*
X39874Y56120D01*
X40291Y56094D01*
X40706Y56058D01*
X41121Y56012D01*
X41534Y55956D01*
X41946Y55890D01*
X42357Y55813D01*
X42765Y55727D01*
X43171Y55631D01*
X43574Y55524D01*
X43975Y55408D01*
X44373Y55282D01*
X44767Y55146D01*
X45158Y55001D01*
X45546Y54846D01*
X45929Y54682D01*
X46308Y54508D01*
X46683Y54325D01*
X47054Y54133D01*
X47419Y53931D01*
X47780Y53721D01*
X48135Y53503D01*
X48485Y53275D01*
X48829Y53039D01*
X49167Y52795D01*
X49499Y52542D01*
X49825Y52281D01*
X50144Y52013D01*
X50457Y51736D01*
X50762Y51452D01*
X51061Y51161D01*
X51352Y50862D01*
X51636Y50557D01*
X51913Y50244D01*
X52181Y49925D01*
X52442Y49599D01*
X52695Y49267D01*
X52939Y48929D01*
X53175Y48585D01*
X53403Y48235D01*
X53621Y47880D01*
X53831Y47519D01*
X54033Y47154D01*
X54225Y46783D01*
X54408Y46408D01*
X54582Y46029D01*
X54746Y45646D01*
X54901Y45258D01*
X55046Y44867D01*
X55182Y44473D01*
X55308Y44075D01*
X55424Y43674D01*
X55531Y43271D01*
X55627Y42865D01*
X55713Y42457D01*
X55790Y42046D01*
X55856Y41634D01*
X55912Y41221D01*
X55958Y40806D01*
X55994Y40391D01*
X56020Y39974D01*
X56035Y39557D01*
X56040Y39140D01*
X56035Y38723D01*
X56020Y38306D01*
X55994Y37889D01*
X55958Y37474D01*
X55912Y37059D01*
X55856Y36646D01*
X55790Y36234D01*
X55713Y35823D01*
X55627Y35415D01*
X55531Y35009D01*
X55424Y34606D01*
X55308Y34205D01*
X55182Y33807D01*
X55046Y33413D01*
X54901Y33022D01*
X54746Y32634D01*
X54582Y32251D01*
X54408Y31872D01*
X54225Y31497D01*
X54033Y31126D01*
X53831Y30761D01*
X53621Y30400D01*
X53403Y30045D01*
X53175Y29695D01*
X52939Y29351D01*
X52695Y29013D01*
X52442Y28681D01*
X52181Y28355D01*
X51913Y28036D01*
X51636Y27723D01*
X51352Y27418D01*
X51061Y27119D01*
X50762Y26828D01*
X50457Y26544D01*
X50144Y26267D01*
X49825Y25999D01*
X49499Y25738D01*
X49167Y25485D01*
X48829Y25241D01*
X48485Y25005D01*
X48135Y24777D01*
X47780Y24559D01*
X47419Y24349D01*
X47054Y24147D01*
X46683Y23955D01*
X46308Y23772D01*
X45929Y23598D01*
X45546Y23434D01*
X45158Y23279D01*
X44767Y23134D01*
X44373Y22998D01*
X43975Y22872D01*
X43574Y22756D01*
X43171Y22649D01*
X42765Y22553D01*
X42357Y22467D01*
X41946Y22390D01*
X41534Y22324D01*
X41121Y22268D01*
X40706Y22222D01*
X40291Y22186D01*
X39874Y22160D01*
X39457Y22145D01*
X39040Y22140D01*
X38623Y22145D01*
X38206Y22160D01*
X37789Y22186D01*
X37374Y22222D01*
X36959Y22268D01*
X36546Y22324D01*
X36134Y22390D01*
X35723Y22467D01*
X35315Y22553D01*
X34909Y22649D01*
X34506Y22756D01*
X34105Y22872D01*
X33707Y22998D01*
X33313Y23134D01*
X32922Y23279D01*
X32534Y23434D01*
X32151Y23598D01*
X31772Y23772D01*
X31397Y23955D01*
X31026Y24147D01*
X30661Y24349D01*
X30300Y24559D01*
X29945Y24777D01*
X29595Y25005D01*
X29251Y25241D01*
X28913Y25485D01*
X28581Y25738D01*
X28255Y25999D01*
X27936Y26267D01*
X27623Y26544D01*
X27318Y26828D01*
X27019Y27119D01*
X26728Y27418D01*
X26444Y27723D01*
X26167Y28036D01*
X25899Y28355D01*
X25638Y28681D01*
X25385Y29013D01*
X25141Y29351D01*
X24905Y29695D01*
X24677Y30045D01*
X24459Y30400D01*
X24249Y30761D01*
X24047Y31126D01*
X23855Y31497D01*
X23672Y31872D01*
X23498Y32251D01*
X23334Y32634D01*
X23179Y33022D01*
X23034Y33413D01*
X22898Y33807D01*
X22772Y34205D01*
X22656Y34606D01*
X22549Y35009D01*
X22453Y35415D01*
X22367Y35823D01*
X22290Y36234D01*
X22224Y36646D01*
X22168Y37059D01*
X22122Y37474D01*
X22086Y37889D01*
X22060Y38306D01*
X22045Y38723D01*
X22040Y39140D01*
D11*
X160160Y408820D02*
X160158Y408920D01*
X160152Y409019D01*
X160142Y409119D01*
X160129Y409217D01*
X160111Y409316D01*
X160090Y409413D01*
X160065Y409509D01*
X160036Y409605D01*
X160003Y409699D01*
X159967Y409792D01*
X159927Y409883D01*
X159883Y409973D01*
X159836Y410061D01*
X159786Y410147D01*
X159732Y410231D01*
X159675Y410313D01*
X159615Y410392D01*
X159551Y410470D01*
X159485Y410544D01*
X159416Y410616D01*
X159344Y410685D01*
X159270Y410751D01*
X159192Y410815D01*
X159113Y410875D01*
X159031Y410932D01*
X158947Y410986D01*
X158861Y411036D01*
X158773Y411083D01*
X158683Y411127D01*
X158592Y411167D01*
X158499Y411203D01*
X158405Y411236D01*
X158309Y411265D01*
X158213Y411290D01*
X158116Y411311D01*
X158017Y411329D01*
X157919Y411342D01*
X157819Y411352D01*
X157720Y411358D01*
X157620Y411360D01*
X142380Y411360D02*
X142280Y411358D01*
X142181Y411352D01*
X142081Y411342D01*
X141983Y411329D01*
X141884Y411311D01*
X141787Y411290D01*
X141691Y411265D01*
X141595Y411236D01*
X141501Y411203D01*
X141408Y411167D01*
X141317Y411127D01*
X141227Y411083D01*
X141139Y411036D01*
X141053Y410986D01*
X140969Y410932D01*
X140887Y410875D01*
X140808Y410815D01*
X140730Y410751D01*
X140656Y410685D01*
X140584Y410616D01*
X140515Y410544D01*
X140449Y410470D01*
X140385Y410392D01*
X140325Y410313D01*
X140268Y410231D01*
X140214Y410147D01*
X140164Y410061D01*
X140117Y409973D01*
X140073Y409883D01*
X140033Y409792D01*
X139997Y409699D01*
X139964Y409605D01*
X139935Y409509D01*
X139910Y409413D01*
X139889Y409316D01*
X139871Y409217D01*
X139858Y409119D01*
X139848Y409019D01*
X139842Y408920D01*
X139840Y408820D01*
X139840Y363100D02*
X139842Y363000D01*
X139848Y362901D01*
X139858Y362801D01*
X139871Y362703D01*
X139889Y362604D01*
X139910Y362507D01*
X139935Y362411D01*
X139964Y362315D01*
X139997Y362221D01*
X140033Y362128D01*
X140073Y362037D01*
X140117Y361947D01*
X140164Y361859D01*
X140214Y361773D01*
X140268Y361689D01*
X140325Y361607D01*
X140385Y361528D01*
X140449Y361450D01*
X140515Y361376D01*
X140584Y361304D01*
X140656Y361235D01*
X140730Y361169D01*
X140808Y361105D01*
X140887Y361045D01*
X140969Y360988D01*
X141053Y360934D01*
X141139Y360884D01*
X141227Y360837D01*
X141317Y360793D01*
X141408Y360753D01*
X141501Y360717D01*
X141595Y360684D01*
X141691Y360655D01*
X141787Y360630D01*
X141884Y360609D01*
X141983Y360591D01*
X142081Y360578D01*
X142181Y360568D01*
X142280Y360562D01*
X142380Y360560D01*
X157620Y360560D02*
X157720Y360562D01*
X157819Y360568D01*
X157919Y360578D01*
X158017Y360591D01*
X158116Y360609D01*
X158213Y360630D01*
X158309Y360655D01*
X158405Y360684D01*
X158499Y360717D01*
X158592Y360753D01*
X158683Y360793D01*
X158773Y360837D01*
X158861Y360884D01*
X158947Y360934D01*
X159031Y360988D01*
X159113Y361045D01*
X159192Y361105D01*
X159270Y361169D01*
X159344Y361235D01*
X159416Y361304D01*
X159485Y361376D01*
X159551Y361450D01*
X159615Y361528D01*
X159675Y361607D01*
X159732Y361689D01*
X159786Y361773D01*
X159836Y361859D01*
X159883Y361947D01*
X159927Y362037D01*
X159967Y362128D01*
X160003Y362221D01*
X160036Y362315D01*
X160065Y362411D01*
X160090Y362507D01*
X160111Y362604D01*
X160129Y362703D01*
X160142Y362801D01*
X160152Y362901D01*
X160158Y363000D01*
X160160Y363100D01*
X157620Y411360D02*
X142380Y411360D01*
X160160Y408820D02*
X160160Y405010D01*
X158890Y403740D01*
X139840Y405010D02*
X139840Y408820D01*
X139840Y405010D02*
X141110Y403740D01*
X158890Y368180D02*
X160160Y366910D01*
X158890Y368180D02*
X158890Y403740D01*
X141110Y368180D02*
X139840Y366910D01*
X141110Y368180D02*
X141110Y403740D01*
X160160Y366910D02*
X160160Y363100D01*
X139840Y363100D02*
X139840Y366910D01*
X142380Y360560D02*
X157620Y360560D01*
D13*
X163454Y393625D02*
X172352Y393625D01*
X163454Y393625D02*
X163454Y398074D01*
X164937Y399557D01*
X167903Y399557D01*
X169386Y398074D01*
X169386Y393625D01*
X169386Y396591D02*
X172352Y399557D01*
X172352Y402747D02*
X172352Y408678D01*
X172352Y402747D02*
X166420Y408678D01*
X164937Y408678D01*
X163454Y407195D01*
X163454Y404230D01*
X164937Y402747D01*
D14*
X150000Y358655D03*
X150000Y413265D03*
D11*
X638730Y37540D02*
X638740Y38382D01*
X638771Y39223D01*
X638823Y40063D01*
X638895Y40901D01*
X638988Y41737D01*
X639101Y42571D01*
X639235Y43402D01*
X639389Y44230D01*
X639563Y45053D01*
X639758Y45872D01*
X639972Y46686D01*
X640207Y47494D01*
X640461Y48296D01*
X640734Y49092D01*
X641028Y49881D01*
X641340Y50662D01*
X641672Y51436D01*
X642022Y52201D01*
X642391Y52957D01*
X642779Y53704D01*
X643185Y54441D01*
X643608Y55169D01*
X644050Y55885D01*
X644509Y56591D01*
X644985Y57284D01*
X645478Y57967D01*
X645988Y58636D01*
X646513Y59293D01*
X647055Y59937D01*
X647613Y60568D01*
X648186Y61184D01*
X648773Y61787D01*
X649376Y62374D01*
X649992Y62947D01*
X650623Y63505D01*
X651267Y64047D01*
X651924Y64572D01*
X652593Y65082D01*
X653276Y65575D01*
X653969Y66051D01*
X654675Y66510D01*
X655391Y66952D01*
X656119Y67375D01*
X656856Y67781D01*
X657603Y68169D01*
X658359Y68538D01*
X659124Y68888D01*
X659898Y69220D01*
X660679Y69532D01*
X661468Y69826D01*
X662264Y70099D01*
X663066Y70353D01*
X663874Y70588D01*
X664688Y70802D01*
X665507Y70997D01*
X666330Y71171D01*
X667158Y71325D01*
X667989Y71459D01*
X668823Y71572D01*
X669659Y71665D01*
X670497Y71737D01*
X671337Y71789D01*
X672178Y71820D01*
X673020Y71830D01*
X673862Y71820D01*
X674703Y71789D01*
X675543Y71737D01*
X676381Y71665D01*
X677217Y71572D01*
X678051Y71459D01*
X678882Y71325D01*
X679710Y71171D01*
X680533Y70997D01*
X681352Y70802D01*
X682166Y70588D01*
X682974Y70353D01*
X683776Y70099D01*
X684572Y69826D01*
X685361Y69532D01*
X686142Y69220D01*
X686916Y68888D01*
X687681Y68538D01*
X688437Y68169D01*
X689184Y67781D01*
X689921Y67375D01*
X690649Y66952D01*
X691365Y66510D01*
X692071Y66051D01*
X692764Y65575D01*
X693447Y65082D01*
X694116Y64572D01*
X694773Y64047D01*
X695417Y63505D01*
X696048Y62947D01*
X696664Y62374D01*
X697267Y61787D01*
X697854Y61184D01*
X698427Y60568D01*
X698985Y59937D01*
X699527Y59293D01*
X700052Y58636D01*
X700562Y57967D01*
X701055Y57284D01*
X701531Y56591D01*
X701990Y55885D01*
X702432Y55169D01*
X702855Y54441D01*
X703261Y53704D01*
X703649Y52957D01*
X704018Y52201D01*
X704368Y51436D01*
X704700Y50662D01*
X705012Y49881D01*
X705306Y49092D01*
X705579Y48296D01*
X705833Y47494D01*
X706068Y46686D01*
X706282Y45872D01*
X706477Y45053D01*
X706651Y44230D01*
X706805Y43402D01*
X706939Y42571D01*
X707052Y41737D01*
X707145Y40901D01*
X707217Y40063D01*
X707269Y39223D01*
X707300Y38382D01*
X707310Y37540D01*
X707300Y36698D01*
X707269Y35857D01*
X707217Y35017D01*
X707145Y34179D01*
X707052Y33343D01*
X706939Y32509D01*
X706805Y31678D01*
X706651Y30850D01*
X706477Y30027D01*
X706282Y29208D01*
X706068Y28394D01*
X705833Y27586D01*
X705579Y26784D01*
X705306Y25988D01*
X705012Y25199D01*
X704700Y24418D01*
X704368Y23644D01*
X704018Y22879D01*
X703649Y22123D01*
X703261Y21376D01*
X702855Y20639D01*
X702432Y19911D01*
X701990Y19195D01*
X701531Y18489D01*
X701055Y17796D01*
X700562Y17113D01*
X700052Y16444D01*
X699527Y15787D01*
X698985Y15143D01*
X698427Y14512D01*
X697854Y13896D01*
X697267Y13293D01*
X696664Y12706D01*
X696048Y12133D01*
X695417Y11575D01*
X694773Y11033D01*
X694116Y10508D01*
X693447Y9998D01*
X692764Y9505D01*
X692071Y9029D01*
X691365Y8570D01*
X690649Y8128D01*
X689921Y7705D01*
X689184Y7299D01*
X688437Y6911D01*
X687681Y6542D01*
X686916Y6192D01*
X686142Y5860D01*
X685361Y5548D01*
X684572Y5254D01*
X683776Y4981D01*
X682974Y4727D01*
X682166Y4492D01*
X681352Y4278D01*
X680533Y4083D01*
X679710Y3909D01*
X678882Y3755D01*
X678051Y3621D01*
X677217Y3508D01*
X676381Y3415D01*
X675543Y3343D01*
X674703Y3291D01*
X673862Y3260D01*
X673020Y3250D01*
X672178Y3260D01*
X671337Y3291D01*
X670497Y3343D01*
X669659Y3415D01*
X668823Y3508D01*
X667989Y3621D01*
X667158Y3755D01*
X666330Y3909D01*
X665507Y4083D01*
X664688Y4278D01*
X663874Y4492D01*
X663066Y4727D01*
X662264Y4981D01*
X661468Y5254D01*
X660679Y5548D01*
X659898Y5860D01*
X659124Y6192D01*
X658359Y6542D01*
X657603Y6911D01*
X656856Y7299D01*
X656119Y7705D01*
X655391Y8128D01*
X654675Y8570D01*
X653969Y9029D01*
X653276Y9505D01*
X652593Y9998D01*
X651924Y10508D01*
X651267Y11033D01*
X650623Y11575D01*
X649992Y12133D01*
X649376Y12706D01*
X648773Y13293D01*
X648186Y13896D01*
X647613Y14512D01*
X647055Y15143D01*
X646513Y15787D01*
X645988Y16444D01*
X645478Y17113D01*
X644985Y17796D01*
X644509Y18489D01*
X644050Y19195D01*
X643608Y19911D01*
X643185Y20639D01*
X642779Y21376D01*
X642391Y22123D01*
X642022Y22879D01*
X641672Y23644D01*
X641340Y24418D01*
X641028Y25199D01*
X640734Y25988D01*
X640461Y26784D01*
X640207Y27586D01*
X639972Y28394D01*
X639758Y29208D01*
X639563Y30027D01*
X639389Y30850D01*
X639235Y31678D01*
X639101Y32509D01*
X638988Y33343D01*
X638895Y34179D01*
X638823Y35017D01*
X638771Y35857D01*
X638740Y36698D01*
X638730Y37540D01*
D16*
X656020Y37540D02*
X656025Y37957D01*
X656040Y38374D01*
X656066Y38791D01*
X656102Y39206D01*
X656148Y39621D01*
X656204Y40034D01*
X656270Y40446D01*
X656347Y40857D01*
X656433Y41265D01*
X656529Y41671D01*
X656636Y42074D01*
X656752Y42475D01*
X656878Y42873D01*
X657014Y43267D01*
X657159Y43658D01*
X657314Y44046D01*
X657478Y44429D01*
X657652Y44808D01*
X657835Y45183D01*
X658027Y45554D01*
X658229Y45919D01*
X658439Y46280D01*
X658657Y46635D01*
X658885Y46985D01*
X659121Y47329D01*
X659365Y47667D01*
X659618Y47999D01*
X659879Y48325D01*
X660147Y48644D01*
X660424Y48957D01*
X660708Y49262D01*
X660999Y49561D01*
X661298Y49852D01*
X661603Y50136D01*
X661916Y50413D01*
X662235Y50681D01*
X662561Y50942D01*
X662893Y51195D01*
X663231Y51439D01*
X663575Y51675D01*
X663925Y51903D01*
X664280Y52121D01*
X664641Y52331D01*
X665006Y52533D01*
X665377Y52725D01*
X665752Y52908D01*
X666131Y53082D01*
X666514Y53246D01*
X666902Y53401D01*
X667293Y53546D01*
X667687Y53682D01*
X668085Y53808D01*
X668486Y53924D01*
X668889Y54031D01*
X669295Y54127D01*
X669703Y54213D01*
X670114Y54290D01*
X670526Y54356D01*
X670939Y54412D01*
X671354Y54458D01*
X671769Y54494D01*
X672186Y54520D01*
X672603Y54535D01*
X673020Y54540D01*
X673437Y54535D01*
X673854Y54520D01*
X674271Y54494D01*
X674686Y54458D01*
X675101Y54412D01*
X675514Y54356D01*
X675926Y54290D01*
X676337Y54213D01*
X676745Y54127D01*
X677151Y54031D01*
X677554Y53924D01*
X677955Y53808D01*
X678353Y53682D01*
X678747Y53546D01*
X679138Y53401D01*
X679526Y53246D01*
X679909Y53082D01*
X680288Y52908D01*
X680663Y52725D01*
X681034Y52533D01*
X681399Y52331D01*
X681760Y52121D01*
X682115Y51903D01*
X682465Y51675D01*
X682809Y51439D01*
X683147Y51195D01*
X683479Y50942D01*
X683805Y50681D01*
X684124Y50413D01*
X684437Y50136D01*
X684742Y49852D01*
X685041Y49561D01*
X685332Y49262D01*
X685616Y48957D01*
X685893Y48644D01*
X686161Y48325D01*
X686422Y47999D01*
X686675Y47667D01*
X686919Y47329D01*
X687155Y46985D01*
X687383Y46635D01*
X687601Y46280D01*
X687811Y45919D01*
X688013Y45554D01*
X688205Y45183D01*
X688388Y44808D01*
X688562Y44429D01*
X688726Y44046D01*
X688881Y43658D01*
X689026Y43267D01*
X689162Y42873D01*
X689288Y42475D01*
X689404Y42074D01*
X689511Y41671D01*
X689607Y41265D01*
X689693Y40857D01*
X689770Y40446D01*
X689836Y40034D01*
X689892Y39621D01*
X689938Y39206D01*
X689974Y38791D01*
X690000Y38374D01*
X690015Y37957D01*
X690020Y37540D01*
X690015Y37123D01*
X690000Y36706D01*
X689974Y36289D01*
X689938Y35874D01*
X689892Y35459D01*
X689836Y35046D01*
X689770Y34634D01*
X689693Y34223D01*
X689607Y33815D01*
X689511Y33409D01*
X689404Y33006D01*
X689288Y32605D01*
X689162Y32207D01*
X689026Y31813D01*
X688881Y31422D01*
X688726Y31034D01*
X688562Y30651D01*
X688388Y30272D01*
X688205Y29897D01*
X688013Y29526D01*
X687811Y29161D01*
X687601Y28800D01*
X687383Y28445D01*
X687155Y28095D01*
X686919Y27751D01*
X686675Y27413D01*
X686422Y27081D01*
X686161Y26755D01*
X685893Y26436D01*
X685616Y26123D01*
X685332Y25818D01*
X685041Y25519D01*
X684742Y25228D01*
X684437Y24944D01*
X684124Y24667D01*
X683805Y24399D01*
X683479Y24138D01*
X683147Y23885D01*
X682809Y23641D01*
X682465Y23405D01*
X682115Y23177D01*
X681760Y22959D01*
X681399Y22749D01*
X681034Y22547D01*
X680663Y22355D01*
X680288Y22172D01*
X679909Y21998D01*
X679526Y21834D01*
X679138Y21679D01*
X678747Y21534D01*
X678353Y21398D01*
X677955Y21272D01*
X677554Y21156D01*
X677151Y21049D01*
X676745Y20953D01*
X676337Y20867D01*
X675926Y20790D01*
X675514Y20724D01*
X675101Y20668D01*
X674686Y20622D01*
X674271Y20586D01*
X673854Y20560D01*
X673437Y20545D01*
X673020Y20540D01*
X672603Y20545D01*
X672186Y20560D01*
X671769Y20586D01*
X671354Y20622D01*
X670939Y20668D01*
X670526Y20724D01*
X670114Y20790D01*
X669703Y20867D01*
X669295Y20953D01*
X668889Y21049D01*
X668486Y21156D01*
X668085Y21272D01*
X667687Y21398D01*
X667293Y21534D01*
X666902Y21679D01*
X666514Y21834D01*
X666131Y21998D01*
X665752Y22172D01*
X665377Y22355D01*
X665006Y22547D01*
X664641Y22749D01*
X664280Y22959D01*
X663925Y23177D01*
X663575Y23405D01*
X663231Y23641D01*
X662893Y23885D01*
X662561Y24138D01*
X662235Y24399D01*
X661916Y24667D01*
X661603Y24944D01*
X661298Y25228D01*
X660999Y25519D01*
X660708Y25818D01*
X660424Y26123D01*
X660147Y26436D01*
X659879Y26755D01*
X659618Y27081D01*
X659365Y27413D01*
X659121Y27751D01*
X658885Y28095D01*
X658657Y28445D01*
X658439Y28800D01*
X658229Y29161D01*
X658027Y29526D01*
X657835Y29897D01*
X657652Y30272D01*
X657478Y30651D01*
X657314Y31034D01*
X657159Y31422D01*
X657014Y31813D01*
X656878Y32207D01*
X656752Y32605D01*
X656636Y33006D01*
X656529Y33409D01*
X656433Y33815D01*
X656347Y34223D01*
X656270Y34634D01*
X656204Y35046D01*
X656148Y35459D01*
X656102Y35874D01*
X656066Y36289D01*
X656040Y36706D01*
X656025Y37123D01*
X656020Y37540D01*
D11*
X638730Y449020D02*
X638740Y449862D01*
X638771Y450703D01*
X638823Y451543D01*
X638895Y452381D01*
X638988Y453217D01*
X639101Y454051D01*
X639235Y454882D01*
X639389Y455710D01*
X639563Y456533D01*
X639758Y457352D01*
X639972Y458166D01*
X640207Y458974D01*
X640461Y459776D01*
X640734Y460572D01*
X641028Y461361D01*
X641340Y462142D01*
X641672Y462916D01*
X642022Y463681D01*
X642391Y464437D01*
X642779Y465184D01*
X643185Y465921D01*
X643608Y466649D01*
X644050Y467365D01*
X644509Y468071D01*
X644985Y468764D01*
X645478Y469447D01*
X645988Y470116D01*
X646513Y470773D01*
X647055Y471417D01*
X647613Y472048D01*
X648186Y472664D01*
X648773Y473267D01*
X649376Y473854D01*
X649992Y474427D01*
X650623Y474985D01*
X651267Y475527D01*
X651924Y476052D01*
X652593Y476562D01*
X653276Y477055D01*
X653969Y477531D01*
X654675Y477990D01*
X655391Y478432D01*
X656119Y478855D01*
X656856Y479261D01*
X657603Y479649D01*
X658359Y480018D01*
X659124Y480368D01*
X659898Y480700D01*
X660679Y481012D01*
X661468Y481306D01*
X662264Y481579D01*
X663066Y481833D01*
X663874Y482068D01*
X664688Y482282D01*
X665507Y482477D01*
X666330Y482651D01*
X667158Y482805D01*
X667989Y482939D01*
X668823Y483052D01*
X669659Y483145D01*
X670497Y483217D01*
X671337Y483269D01*
X672178Y483300D01*
X673020Y483310D01*
X673862Y483300D01*
X674703Y483269D01*
X675543Y483217D01*
X676381Y483145D01*
X677217Y483052D01*
X678051Y482939D01*
X678882Y482805D01*
X679710Y482651D01*
X680533Y482477D01*
X681352Y482282D01*
X682166Y482068D01*
X682974Y481833D01*
X683776Y481579D01*
X684572Y481306D01*
X685361Y481012D01*
X686142Y480700D01*
X686916Y480368D01*
X687681Y480018D01*
X688437Y479649D01*
X689184Y479261D01*
X689921Y478855D01*
X690649Y478432D01*
X691365Y477990D01*
X692071Y477531D01*
X692764Y477055D01*
X693447Y476562D01*
X694116Y476052D01*
X694773Y475527D01*
X695417Y474985D01*
X696048Y474427D01*
X696664Y473854D01*
X697267Y473267D01*
X697854Y472664D01*
X698427Y472048D01*
X698985Y471417D01*
X699527Y470773D01*
X700052Y470116D01*
X700562Y469447D01*
X701055Y468764D01*
X701531Y468071D01*
X701990Y467365D01*
X702432Y466649D01*
X702855Y465921D01*
X703261Y465184D01*
X703649Y464437D01*
X704018Y463681D01*
X704368Y462916D01*
X704700Y462142D01*
X705012Y461361D01*
X705306Y460572D01*
X705579Y459776D01*
X705833Y458974D01*
X706068Y458166D01*
X706282Y457352D01*
X706477Y456533D01*
X706651Y455710D01*
X706805Y454882D01*
X706939Y454051D01*
X707052Y453217D01*
X707145Y452381D01*
X707217Y451543D01*
X707269Y450703D01*
X707300Y449862D01*
X707310Y449020D01*
X707300Y448178D01*
X707269Y447337D01*
X707217Y446497D01*
X707145Y445659D01*
X707052Y444823D01*
X706939Y443989D01*
X706805Y443158D01*
X706651Y442330D01*
X706477Y441507D01*
X706282Y440688D01*
X706068Y439874D01*
X705833Y439066D01*
X705579Y438264D01*
X705306Y437468D01*
X705012Y436679D01*
X704700Y435898D01*
X704368Y435124D01*
X704018Y434359D01*
X703649Y433603D01*
X703261Y432856D01*
X702855Y432119D01*
X702432Y431391D01*
X701990Y430675D01*
X701531Y429969D01*
X701055Y429276D01*
X700562Y428593D01*
X700052Y427924D01*
X699527Y427267D01*
X698985Y426623D01*
X698427Y425992D01*
X697854Y425376D01*
X697267Y424773D01*
X696664Y424186D01*
X696048Y423613D01*
X695417Y423055D01*
X694773Y422513D01*
X694116Y421988D01*
X693447Y421478D01*
X692764Y420985D01*
X692071Y420509D01*
X691365Y420050D01*
X690649Y419608D01*
X689921Y419185D01*
X689184Y418779D01*
X688437Y418391D01*
X687681Y418022D01*
X686916Y417672D01*
X686142Y417340D01*
X685361Y417028D01*
X684572Y416734D01*
X683776Y416461D01*
X682974Y416207D01*
X682166Y415972D01*
X681352Y415758D01*
X680533Y415563D01*
X679710Y415389D01*
X678882Y415235D01*
X678051Y415101D01*
X677217Y414988D01*
X676381Y414895D01*
X675543Y414823D01*
X674703Y414771D01*
X673862Y414740D01*
X673020Y414730D01*
X672178Y414740D01*
X671337Y414771D01*
X670497Y414823D01*
X669659Y414895D01*
X668823Y414988D01*
X667989Y415101D01*
X667158Y415235D01*
X666330Y415389D01*
X665507Y415563D01*
X664688Y415758D01*
X663874Y415972D01*
X663066Y416207D01*
X662264Y416461D01*
X661468Y416734D01*
X660679Y417028D01*
X659898Y417340D01*
X659124Y417672D01*
X658359Y418022D01*
X657603Y418391D01*
X656856Y418779D01*
X656119Y419185D01*
X655391Y419608D01*
X654675Y420050D01*
X653969Y420509D01*
X653276Y420985D01*
X652593Y421478D01*
X651924Y421988D01*
X651267Y422513D01*
X650623Y423055D01*
X649992Y423613D01*
X649376Y424186D01*
X648773Y424773D01*
X648186Y425376D01*
X647613Y425992D01*
X647055Y426623D01*
X646513Y427267D01*
X645988Y427924D01*
X645478Y428593D01*
X644985Y429276D01*
X644509Y429969D01*
X644050Y430675D01*
X643608Y431391D01*
X643185Y432119D01*
X642779Y432856D01*
X642391Y433603D01*
X642022Y434359D01*
X641672Y435124D01*
X641340Y435898D01*
X641028Y436679D01*
X640734Y437468D01*
X640461Y438264D01*
X640207Y439066D01*
X639972Y439874D01*
X639758Y440688D01*
X639563Y441507D01*
X639389Y442330D01*
X639235Y443158D01*
X639101Y443989D01*
X638988Y444823D01*
X638895Y445659D01*
X638823Y446497D01*
X638771Y447337D01*
X638740Y448178D01*
X638730Y449020D01*
D16*
X656020Y449020D02*
X656025Y449437D01*
X656040Y449854D01*
X656066Y450271D01*
X656102Y450686D01*
X656148Y451101D01*
X656204Y451514D01*
X656270Y451926D01*
X656347Y452337D01*
X656433Y452745D01*
X656529Y453151D01*
X656636Y453554D01*
X656752Y453955D01*
X656878Y454353D01*
X657014Y454747D01*
X657159Y455138D01*
X657314Y455526D01*
X657478Y455909D01*
X657652Y456288D01*
X657835Y456663D01*
X658027Y457034D01*
X658229Y457399D01*
X658439Y457760D01*
X658657Y458115D01*
X658885Y458465D01*
X659121Y458809D01*
X659365Y459147D01*
X659618Y459479D01*
X659879Y459805D01*
X660147Y460124D01*
X660424Y460437D01*
X660708Y460742D01*
X660999Y461041D01*
X661298Y461332D01*
X661603Y461616D01*
X661916Y461893D01*
X662235Y462161D01*
X662561Y462422D01*
X662893Y462675D01*
X663231Y462919D01*
X663575Y463155D01*
X663925Y463383D01*
X664280Y463601D01*
X664641Y463811D01*
X665006Y464013D01*
X665377Y464205D01*
X665752Y464388D01*
X666131Y464562D01*
X666514Y464726D01*
X666902Y464881D01*
X667293Y465026D01*
X667687Y465162D01*
X668085Y465288D01*
X668486Y465404D01*
X668889Y465511D01*
X669295Y465607D01*
X669703Y465693D01*
X670114Y465770D01*
X670526Y465836D01*
X670939Y465892D01*
X671354Y465938D01*
X671769Y465974D01*
X672186Y466000D01*
X672603Y466015D01*
X673020Y466020D01*
X673437Y466015D01*
X673854Y466000D01*
X674271Y465974D01*
X674686Y465938D01*
X675101Y465892D01*
X675514Y465836D01*
X675926Y465770D01*
X676337Y465693D01*
X676745Y465607D01*
X677151Y465511D01*
X677554Y465404D01*
X677955Y465288D01*
X678353Y465162D01*
X678747Y465026D01*
X679138Y464881D01*
X679526Y464726D01*
X679909Y464562D01*
X680288Y464388D01*
X680663Y464205D01*
X681034Y464013D01*
X681399Y463811D01*
X681760Y463601D01*
X682115Y463383D01*
X682465Y463155D01*
X682809Y462919D01*
X683147Y462675D01*
X683479Y462422D01*
X683805Y462161D01*
X684124Y461893D01*
X684437Y461616D01*
X684742Y461332D01*
X685041Y461041D01*
X685332Y460742D01*
X685616Y460437D01*
X685893Y460124D01*
X686161Y459805D01*
X686422Y459479D01*
X686675Y459147D01*
X686919Y458809D01*
X687155Y458465D01*
X687383Y458115D01*
X687601Y457760D01*
X687811Y457399D01*
X688013Y457034D01*
X688205Y456663D01*
X688388Y456288D01*
X688562Y455909D01*
X688726Y455526D01*
X688881Y455138D01*
X689026Y454747D01*
X689162Y454353D01*
X689288Y453955D01*
X689404Y453554D01*
X689511Y453151D01*
X689607Y452745D01*
X689693Y452337D01*
X689770Y451926D01*
X689836Y451514D01*
X689892Y451101D01*
X689938Y450686D01*
X689974Y450271D01*
X690000Y449854D01*
X690015Y449437D01*
X690020Y449020D01*
X690015Y448603D01*
X690000Y448186D01*
X689974Y447769D01*
X689938Y447354D01*
X689892Y446939D01*
X689836Y446526D01*
X689770Y446114D01*
X689693Y445703D01*
X689607Y445295D01*
X689511Y444889D01*
X689404Y444486D01*
X689288Y444085D01*
X689162Y443687D01*
X689026Y443293D01*
X688881Y442902D01*
X688726Y442514D01*
X688562Y442131D01*
X688388Y441752D01*
X688205Y441377D01*
X688013Y441006D01*
X687811Y440641D01*
X687601Y440280D01*
X687383Y439925D01*
X687155Y439575D01*
X686919Y439231D01*
X686675Y438893D01*
X686422Y438561D01*
X686161Y438235D01*
X685893Y437916D01*
X685616Y437603D01*
X685332Y437298D01*
X685041Y436999D01*
X684742Y436708D01*
X684437Y436424D01*
X684124Y436147D01*
X683805Y435879D01*
X683479Y435618D01*
X683147Y435365D01*
X682809Y435121D01*
X682465Y434885D01*
X682115Y434657D01*
X681760Y434439D01*
X681399Y434229D01*
X681034Y434027D01*
X680663Y433835D01*
X680288Y433652D01*
X679909Y433478D01*
X679526Y433314D01*
X679138Y433159D01*
X678747Y433014D01*
X678353Y432878D01*
X677955Y432752D01*
X677554Y432636D01*
X677151Y432529D01*
X676745Y432433D01*
X676337Y432347D01*
X675926Y432270D01*
X675514Y432204D01*
X675101Y432148D01*
X674686Y432102D01*
X674271Y432066D01*
X673854Y432040D01*
X673437Y432025D01*
X673020Y432020D01*
X672603Y432025D01*
X672186Y432040D01*
X671769Y432066D01*
X671354Y432102D01*
X670939Y432148D01*
X670526Y432204D01*
X670114Y432270D01*
X669703Y432347D01*
X669295Y432433D01*
X668889Y432529D01*
X668486Y432636D01*
X668085Y432752D01*
X667687Y432878D01*
X667293Y433014D01*
X666902Y433159D01*
X666514Y433314D01*
X666131Y433478D01*
X665752Y433652D01*
X665377Y433835D01*
X665006Y434027D01*
X664641Y434229D01*
X664280Y434439D01*
X663925Y434657D01*
X663575Y434885D01*
X663231Y435121D01*
X662893Y435365D01*
X662561Y435618D01*
X662235Y435879D01*
X661916Y436147D01*
X661603Y436424D01*
X661298Y436708D01*
X660999Y436999D01*
X660708Y437298D01*
X660424Y437603D01*
X660147Y437916D01*
X659879Y438235D01*
X659618Y438561D01*
X659365Y438893D01*
X659121Y439231D01*
X658885Y439575D01*
X658657Y439925D01*
X658439Y440280D01*
X658229Y440641D01*
X658027Y441006D01*
X657835Y441377D01*
X657652Y441752D01*
X657478Y442131D01*
X657314Y442514D01*
X657159Y442902D01*
X657014Y443293D01*
X656878Y443687D01*
X656752Y444085D01*
X656636Y444486D01*
X656529Y444889D01*
X656433Y445295D01*
X656347Y445703D01*
X656270Y446114D01*
X656204Y446526D01*
X656148Y446939D01*
X656102Y447354D01*
X656066Y447769D01*
X656040Y448186D01*
X656025Y448603D01*
X656020Y449020D01*
D11*
X449580Y223520D02*
X449585Y223894D01*
X449598Y224268D01*
X449621Y224641D01*
X449653Y225014D01*
X449695Y225386D01*
X449745Y225756D01*
X449804Y226125D01*
X449873Y226493D01*
X449950Y226859D01*
X450037Y227223D01*
X450132Y227585D01*
X450236Y227944D01*
X450349Y228301D01*
X450471Y228654D01*
X450601Y229005D01*
X450740Y229352D01*
X450887Y229696D01*
X451043Y230036D01*
X451207Y230372D01*
X451380Y230704D01*
X451560Y231032D01*
X451748Y231355D01*
X451944Y231673D01*
X452148Y231987D01*
X452360Y232295D01*
X452579Y232598D01*
X452806Y232896D01*
X453039Y233188D01*
X453280Y233474D01*
X453528Y233755D01*
X453782Y234029D01*
X454044Y234296D01*
X454311Y234558D01*
X454585Y234812D01*
X454866Y235060D01*
X455152Y235301D01*
X455444Y235534D01*
X455742Y235761D01*
X456045Y235980D01*
X456353Y236192D01*
X456667Y236396D01*
X456985Y236592D01*
X457308Y236780D01*
X457636Y236960D01*
X457968Y237133D01*
X458304Y237297D01*
X458644Y237453D01*
X458988Y237600D01*
X459335Y237739D01*
X459686Y237869D01*
X460039Y237991D01*
X460396Y238104D01*
X460755Y238208D01*
X461117Y238303D01*
X461481Y238390D01*
X461847Y238467D01*
X462215Y238536D01*
X462584Y238595D01*
X462954Y238645D01*
X463326Y238687D01*
X463699Y238719D01*
X464072Y238742D01*
X464446Y238755D01*
X464820Y238760D01*
X465194Y238755D01*
X465568Y238742D01*
X465941Y238719D01*
X466314Y238687D01*
X466686Y238645D01*
X467056Y238595D01*
X467425Y238536D01*
X467793Y238467D01*
X468159Y238390D01*
X468523Y238303D01*
X468885Y238208D01*
X469244Y238104D01*
X469601Y237991D01*
X469954Y237869D01*
X470305Y237739D01*
X470652Y237600D01*
X470996Y237453D01*
X471336Y237297D01*
X471672Y237133D01*
X472004Y236960D01*
X472332Y236780D01*
X472655Y236592D01*
X472973Y236396D01*
X473287Y236192D01*
X473595Y235980D01*
X473898Y235761D01*
X474196Y235534D01*
X474488Y235301D01*
X474774Y235060D01*
X475055Y234812D01*
X475329Y234558D01*
X475596Y234296D01*
X475858Y234029D01*
X476112Y233755D01*
X476360Y233474D01*
X476601Y233188D01*
X476834Y232896D01*
X477061Y232598D01*
X477280Y232295D01*
X477492Y231987D01*
X477696Y231673D01*
X477892Y231355D01*
X478080Y231032D01*
X478260Y230704D01*
X478433Y230372D01*
X478597Y230036D01*
X478753Y229696D01*
X478900Y229352D01*
X479039Y229005D01*
X479169Y228654D01*
X479291Y228301D01*
X479404Y227944D01*
X479508Y227585D01*
X479603Y227223D01*
X479690Y226859D01*
X479767Y226493D01*
X479836Y226125D01*
X479895Y225756D01*
X479945Y225386D01*
X479987Y225014D01*
X480019Y224641D01*
X480042Y224268D01*
X480055Y223894D01*
X480060Y223520D01*
X480055Y223146D01*
X480042Y222772D01*
X480019Y222399D01*
X479987Y222026D01*
X479945Y221654D01*
X479895Y221284D01*
X479836Y220915D01*
X479767Y220547D01*
X479690Y220181D01*
X479603Y219817D01*
X479508Y219455D01*
X479404Y219096D01*
X479291Y218739D01*
X479169Y218386D01*
X479039Y218035D01*
X478900Y217688D01*
X478753Y217344D01*
X478597Y217004D01*
X478433Y216668D01*
X478260Y216336D01*
X478080Y216008D01*
X477892Y215685D01*
X477696Y215367D01*
X477492Y215053D01*
X477280Y214745D01*
X477061Y214442D01*
X476834Y214144D01*
X476601Y213852D01*
X476360Y213566D01*
X476112Y213285D01*
X475858Y213011D01*
X475596Y212744D01*
X475329Y212482D01*
X475055Y212228D01*
X474774Y211980D01*
X474488Y211739D01*
X474196Y211506D01*
X473898Y211279D01*
X473595Y211060D01*
X473287Y210848D01*
X472973Y210644D01*
X472655Y210448D01*
X472332Y210260D01*
X472004Y210080D01*
X471672Y209907D01*
X471336Y209743D01*
X470996Y209587D01*
X470652Y209440D01*
X470305Y209301D01*
X469954Y209171D01*
X469601Y209049D01*
X469244Y208936D01*
X468885Y208832D01*
X468523Y208737D01*
X468159Y208650D01*
X467793Y208573D01*
X467425Y208504D01*
X467056Y208445D01*
X466686Y208395D01*
X466314Y208353D01*
X465941Y208321D01*
X465568Y208298D01*
X465194Y208285D01*
X464820Y208280D01*
X464446Y208285D01*
X464072Y208298D01*
X463699Y208321D01*
X463326Y208353D01*
X462954Y208395D01*
X462584Y208445D01*
X462215Y208504D01*
X461847Y208573D01*
X461481Y208650D01*
X461117Y208737D01*
X460755Y208832D01*
X460396Y208936D01*
X460039Y209049D01*
X459686Y209171D01*
X459335Y209301D01*
X458988Y209440D01*
X458644Y209587D01*
X458304Y209743D01*
X457968Y209907D01*
X457636Y210080D01*
X457308Y210260D01*
X456985Y210448D01*
X456667Y210644D01*
X456353Y210848D01*
X456045Y211060D01*
X455742Y211279D01*
X455444Y211506D01*
X455152Y211739D01*
X454866Y211980D01*
X454585Y212228D01*
X454311Y212482D01*
X454044Y212744D01*
X453782Y213011D01*
X453528Y213285D01*
X453280Y213566D01*
X453039Y213852D01*
X452806Y214144D01*
X452579Y214442D01*
X452360Y214745D01*
X452148Y215053D01*
X451944Y215367D01*
X451748Y215685D01*
X451560Y216008D01*
X451380Y216336D01*
X451207Y216668D01*
X451043Y217004D01*
X450887Y217344D01*
X450740Y217688D01*
X450601Y218035D01*
X450471Y218386D01*
X450349Y218739D01*
X450236Y219096D01*
X450132Y219455D01*
X450037Y219817D01*
X449950Y220181D01*
X449873Y220547D01*
X449804Y220915D01*
X449745Y221284D01*
X449695Y221654D01*
X449653Y222026D01*
X449621Y222399D01*
X449598Y222772D01*
X449585Y223146D01*
X449580Y223520D01*
D12*
X480695Y234315D02*
X480695Y245755D01*
X486415Y245755D01*
X488322Y243848D01*
X488322Y240035D01*
X486415Y238128D01*
X480695Y238128D01*
X484508Y238128D02*
X488322Y234315D01*
X498109Y234315D02*
X498109Y245755D01*
X492389Y240035D01*
X500015Y240035D01*
D22*
X477139Y223520D03*
D11*
X449580Y254000D02*
X449585Y254374D01*
X449598Y254748D01*
X449621Y255121D01*
X449653Y255494D01*
X449695Y255866D01*
X449745Y256236D01*
X449804Y256605D01*
X449873Y256973D01*
X449950Y257339D01*
X450037Y257703D01*
X450132Y258065D01*
X450236Y258424D01*
X450349Y258781D01*
X450471Y259134D01*
X450601Y259485D01*
X450740Y259832D01*
X450887Y260176D01*
X451043Y260516D01*
X451207Y260852D01*
X451380Y261184D01*
X451560Y261512D01*
X451748Y261835D01*
X451944Y262153D01*
X452148Y262467D01*
X452360Y262775D01*
X452579Y263078D01*
X452806Y263376D01*
X453039Y263668D01*
X453280Y263954D01*
X453528Y264235D01*
X453782Y264509D01*
X454044Y264776D01*
X454311Y265038D01*
X454585Y265292D01*
X454866Y265540D01*
X455152Y265781D01*
X455444Y266014D01*
X455742Y266241D01*
X456045Y266460D01*
X456353Y266672D01*
X456667Y266876D01*
X456985Y267072D01*
X457308Y267260D01*
X457636Y267440D01*
X457968Y267613D01*
X458304Y267777D01*
X458644Y267933D01*
X458988Y268080D01*
X459335Y268219D01*
X459686Y268349D01*
X460039Y268471D01*
X460396Y268584D01*
X460755Y268688D01*
X461117Y268783D01*
X461481Y268870D01*
X461847Y268947D01*
X462215Y269016D01*
X462584Y269075D01*
X462954Y269125D01*
X463326Y269167D01*
X463699Y269199D01*
X464072Y269222D01*
X464446Y269235D01*
X464820Y269240D01*
X465194Y269235D01*
X465568Y269222D01*
X465941Y269199D01*
X466314Y269167D01*
X466686Y269125D01*
X467056Y269075D01*
X467425Y269016D01*
X467793Y268947D01*
X468159Y268870D01*
X468523Y268783D01*
X468885Y268688D01*
X469244Y268584D01*
X469601Y268471D01*
X469954Y268349D01*
X470305Y268219D01*
X470652Y268080D01*
X470996Y267933D01*
X471336Y267777D01*
X471672Y267613D01*
X472004Y267440D01*
X472332Y267260D01*
X472655Y267072D01*
X472973Y266876D01*
X473287Y266672D01*
X473595Y266460D01*
X473898Y266241D01*
X474196Y266014D01*
X474488Y265781D01*
X474774Y265540D01*
X475055Y265292D01*
X475329Y265038D01*
X475596Y264776D01*
X475858Y264509D01*
X476112Y264235D01*
X476360Y263954D01*
X476601Y263668D01*
X476834Y263376D01*
X477061Y263078D01*
X477280Y262775D01*
X477492Y262467D01*
X477696Y262153D01*
X477892Y261835D01*
X478080Y261512D01*
X478260Y261184D01*
X478433Y260852D01*
X478597Y260516D01*
X478753Y260176D01*
X478900Y259832D01*
X479039Y259485D01*
X479169Y259134D01*
X479291Y258781D01*
X479404Y258424D01*
X479508Y258065D01*
X479603Y257703D01*
X479690Y257339D01*
X479767Y256973D01*
X479836Y256605D01*
X479895Y256236D01*
X479945Y255866D01*
X479987Y255494D01*
X480019Y255121D01*
X480042Y254748D01*
X480055Y254374D01*
X480060Y254000D01*
X480055Y253626D01*
X480042Y253252D01*
X480019Y252879D01*
X479987Y252506D01*
X479945Y252134D01*
X479895Y251764D01*
X479836Y251395D01*
X479767Y251027D01*
X479690Y250661D01*
X479603Y250297D01*
X479508Y249935D01*
X479404Y249576D01*
X479291Y249219D01*
X479169Y248866D01*
X479039Y248515D01*
X478900Y248168D01*
X478753Y247824D01*
X478597Y247484D01*
X478433Y247148D01*
X478260Y246816D01*
X478080Y246488D01*
X477892Y246165D01*
X477696Y245847D01*
X477492Y245533D01*
X477280Y245225D01*
X477061Y244922D01*
X476834Y244624D01*
X476601Y244332D01*
X476360Y244046D01*
X476112Y243765D01*
X475858Y243491D01*
X475596Y243224D01*
X475329Y242962D01*
X475055Y242708D01*
X474774Y242460D01*
X474488Y242219D01*
X474196Y241986D01*
X473898Y241759D01*
X473595Y241540D01*
X473287Y241328D01*
X472973Y241124D01*
X472655Y240928D01*
X472332Y240740D01*
X472004Y240560D01*
X471672Y240387D01*
X471336Y240223D01*
X470996Y240067D01*
X470652Y239920D01*
X470305Y239781D01*
X469954Y239651D01*
X469601Y239529D01*
X469244Y239416D01*
X468885Y239312D01*
X468523Y239217D01*
X468159Y239130D01*
X467793Y239053D01*
X467425Y238984D01*
X467056Y238925D01*
X466686Y238875D01*
X466314Y238833D01*
X465941Y238801D01*
X465568Y238778D01*
X465194Y238765D01*
X464820Y238760D01*
X464446Y238765D01*
X464072Y238778D01*
X463699Y238801D01*
X463326Y238833D01*
X462954Y238875D01*
X462584Y238925D01*
X462215Y238984D01*
X461847Y239053D01*
X461481Y239130D01*
X461117Y239217D01*
X460755Y239312D01*
X460396Y239416D01*
X460039Y239529D01*
X459686Y239651D01*
X459335Y239781D01*
X458988Y239920D01*
X458644Y240067D01*
X458304Y240223D01*
X457968Y240387D01*
X457636Y240560D01*
X457308Y240740D01*
X456985Y240928D01*
X456667Y241124D01*
X456353Y241328D01*
X456045Y241540D01*
X455742Y241759D01*
X455444Y241986D01*
X455152Y242219D01*
X454866Y242460D01*
X454585Y242708D01*
X454311Y242962D01*
X454044Y243224D01*
X453782Y243491D01*
X453528Y243765D01*
X453280Y244046D01*
X453039Y244332D01*
X452806Y244624D01*
X452579Y244922D01*
X452360Y245225D01*
X452148Y245533D01*
X451944Y245847D01*
X451748Y246165D01*
X451560Y246488D01*
X451380Y246816D01*
X451207Y247148D01*
X451043Y247484D01*
X450887Y247824D01*
X450740Y248168D01*
X450601Y248515D01*
X450471Y248866D01*
X450349Y249219D01*
X450236Y249576D01*
X450132Y249935D01*
X450037Y250297D01*
X449950Y250661D01*
X449873Y251027D01*
X449804Y251395D01*
X449745Y251764D01*
X449695Y252134D01*
X449653Y252506D01*
X449621Y252879D01*
X449598Y253252D01*
X449585Y253626D01*
X449580Y254000D01*
D12*
X480695Y264795D02*
X480695Y276235D01*
X486415Y276235D01*
X488322Y274328D01*
X488322Y270515D01*
X486415Y268608D01*
X480695Y268608D01*
X484508Y268608D02*
X488322Y264795D01*
X496202Y274328D02*
X500015Y276235D01*
X496202Y274328D02*
X492389Y270515D01*
X492389Y266702D01*
X494296Y264795D01*
X498109Y264795D01*
X500015Y266702D01*
X500015Y268608D01*
X498109Y270515D01*
X492389Y270515D01*
D22*
X477139Y254000D03*
D11*
X673100Y283210D02*
X673100Y295910D01*
X673100Y283210D02*
X666750Y276860D01*
X654050Y276860D01*
X647700Y283210D01*
X666750Y276860D02*
X673100Y270510D01*
X673100Y257810D01*
X666750Y251460D01*
X654050Y251460D01*
X647700Y257810D01*
X647700Y270510D01*
X654050Y276860D01*
X654050Y302260D02*
X666750Y302260D01*
X673100Y295910D01*
X654050Y302260D02*
X647700Y295910D01*
X647700Y283210D01*
X666750Y251460D02*
X673100Y245110D01*
X673100Y232410D01*
X666750Y226060D01*
X654050Y226060D01*
X647700Y232410D01*
X647700Y245110D01*
X654050Y251460D01*
D12*
X679313Y233493D02*
X690753Y233493D01*
X686940Y237306D01*
X690753Y241120D01*
X679313Y241120D01*
X679313Y250907D02*
X681220Y252814D01*
X679313Y250907D02*
X679313Y247094D01*
X681220Y245187D01*
X683127Y245187D01*
X685033Y247094D01*
X685033Y250907D01*
X686940Y252814D01*
X688846Y252814D01*
X690753Y250907D01*
X690753Y247094D01*
X688846Y245187D01*
X690753Y256881D02*
X690753Y264507D01*
X690753Y256881D02*
X683127Y264507D01*
X681220Y264507D01*
X679313Y262601D01*
X679313Y258788D01*
X681220Y256881D01*
X681220Y268575D02*
X679313Y270482D01*
X679313Y274295D01*
X681220Y276201D01*
X683127Y276201D01*
X685033Y274295D01*
X686940Y276201D01*
X688846Y276201D01*
X690753Y274295D01*
X690753Y270482D01*
X688846Y268575D01*
X686940Y268575D01*
X685033Y270482D01*
X683127Y268575D01*
X681220Y268575D01*
X685033Y270482D02*
X685033Y274295D01*
X683127Y280269D02*
X679313Y284082D01*
X690753Y284082D01*
X690753Y280269D02*
X690753Y287895D01*
X690753Y291963D02*
X690753Y299589D01*
X690753Y291963D02*
X683127Y299589D01*
X681220Y299589D01*
X679313Y297683D01*
X679313Y293870D01*
X681220Y291963D01*
M02*
