G04 EAGLE Gerber X2 export*
%TF.Part,Single*%
%TF.FileFunction,Soldermask,Top,1*%
%TF.FilePolarity,Negative*%
%TF.GenerationSoftware,Autodesk,EAGLE,9.1.0*%
%TF.CreationDate,2020-08-17T04:28:19Z*%
G75*
%MOMM*%
%FSLAX34Y34*%
%LPD*%
%AMOC8*
5,1,8,0,0,1.08239X$1,22.5*%
G01*
%ADD10P,2.073859X8X22.500000*%
%ADD11P,2.073859X8X112.500000*%
%ADD12P,2.073859X8X292.500000*%
%ADD13C,3.403200*%
%ADD14C,2.103200*%
%ADD15P,2.276483X8X22.500000*%
%ADD16P,2.817678X8X22.500000*%
%ADD17C,2.119200*%
%ADD18P,2.073859X8X202.500000*%
%ADD19C,2.203200*%


D10*
X528320Y124460D03*
X553720Y124460D03*
D11*
X149700Y45800D03*
X149700Y122000D03*
D12*
X121760Y93980D03*
X121760Y43180D03*
D13*
X38660Y449500D03*
D14*
X177800Y120650D03*
X177800Y146050D03*
X177800Y171450D03*
X177800Y196850D03*
X177800Y222250D03*
X177800Y247650D03*
X177800Y273050D03*
X406400Y120650D03*
X406400Y146050D03*
X406400Y171450D03*
X406400Y196850D03*
X406400Y222250D03*
X406400Y247650D03*
X406400Y273050D03*
X177800Y95250D03*
X406400Y95250D03*
D15*
X475340Y40640D03*
X520340Y40640D03*
D16*
X532840Y65640D03*
X462840Y65640D03*
D17*
X32440Y101680D02*
X13280Y101680D01*
X13280Y127080D02*
X32440Y127080D01*
X32440Y152480D02*
X13280Y152480D01*
X13280Y177880D02*
X32440Y177880D01*
X32440Y203280D02*
X13280Y203280D01*
X15820Y284480D02*
X34980Y284480D01*
X34980Y309880D02*
X15820Y309880D01*
X15820Y335280D02*
X34980Y335280D01*
X34980Y360680D02*
X15820Y360680D01*
X228600Y384120D02*
X228600Y403280D01*
X254000Y403280D02*
X254000Y384120D01*
X279400Y384120D02*
X279400Y403280D01*
X304800Y403280D02*
X304800Y384120D01*
X330200Y384120D02*
X330200Y403280D01*
X449580Y403280D02*
X449580Y384120D01*
X474980Y384120D02*
X474980Y403280D01*
X500380Y403280D02*
X500380Y384120D01*
X525780Y384120D02*
X525780Y403280D01*
X551180Y403280D02*
X551180Y384120D01*
D18*
X551180Y154940D03*
X474980Y154940D03*
D17*
X518740Y228600D02*
X537900Y228600D01*
X537900Y254000D02*
X518740Y254000D01*
X518740Y279400D02*
X537900Y279400D01*
X537900Y304800D02*
X518740Y304800D01*
D13*
X39040Y39140D03*
D12*
X150000Y424060D03*
X150000Y347860D03*
D13*
X673020Y37540D03*
X673020Y449020D03*
D10*
X464820Y223520D03*
X490220Y223520D03*
X464820Y254000D03*
X490220Y254000D03*
D17*
X650820Y289560D02*
X669980Y289560D01*
X669980Y264160D02*
X650820Y264160D01*
X650820Y238760D02*
X669980Y238760D01*
D19*
X487680Y304800D03*
X434340Y93980D03*
X647700Y330200D03*
X422000Y408000D03*
X139700Y182880D03*
X140300Y312780D03*
X365760Y147320D03*
X63000Y126000D03*
X74000Y77000D03*
X487680Y124460D03*
X655320Y180340D03*
X368300Y248920D03*
X670560Y355600D03*
M02*
