G04 EAGLE Gerber RS-274X export*
G75*
%MOMM*%
%FSLAX34Y34*%
%LPD*%
%INBottom Copper*%
%IPPOS*%
%AMOC8*
5,1,8,0,0,1.08239X$1,22.5*%
G01*
%ADD10P,1.853918X8X112.500000*%
%ADD11P,1.853918X8X292.500000*%
%ADD12C,1.900000*%
%ADD13P,2.056541X8X22.500000*%
%ADD14P,2.597736X8X22.500000*%
%ADD15P,1.853918X8X202.500000*%
%ADD16C,1.916000*%
%ADD17C,1.200000*%
%ADD18C,2.000000*%


D10*
X147160Y35640D03*
X147160Y111840D03*
D11*
X114140Y86360D03*
X114140Y35560D03*
D12*
X177800Y110490D03*
X177800Y135890D03*
X177800Y161290D03*
X177800Y186690D03*
X177800Y212090D03*
X177800Y237490D03*
X177800Y262890D03*
X406400Y110490D03*
X406400Y135890D03*
X406400Y161290D03*
X406400Y186690D03*
X406400Y212090D03*
X406400Y237490D03*
X406400Y262890D03*
X177800Y85090D03*
X406400Y85090D03*
D13*
X503280Y63500D03*
X548280Y63500D03*
D14*
X560780Y88500D03*
X490780Y88500D03*
D15*
X513080Y137160D03*
X436880Y137160D03*
D16*
X40060Y332740D02*
X20900Y332740D01*
X20900Y307340D02*
X40060Y307340D01*
X40060Y281940D02*
X20900Y281940D01*
X20900Y256540D02*
X40060Y256540D01*
D11*
X147460Y474860D03*
X147460Y398660D03*
D15*
X96520Y345440D03*
X71120Y345440D03*
X96520Y307340D03*
X71120Y307340D03*
D10*
X538480Y195580D03*
X538480Y271780D03*
D16*
X322000Y576580D02*
X302840Y576580D01*
X302840Y551180D02*
X322000Y551180D01*
X322000Y525780D02*
X302840Y525780D01*
X302840Y500380D02*
X322000Y500380D01*
X253420Y576580D02*
X234260Y576580D01*
X234260Y551180D02*
X253420Y551180D01*
X253420Y525780D02*
X234260Y525780D01*
X234260Y500380D02*
X253420Y500380D01*
D15*
X538480Y162560D03*
X462280Y162560D03*
D16*
X655900Y576580D02*
X675060Y576580D01*
X675060Y551180D02*
X655900Y551180D01*
X655900Y525780D02*
X675060Y525780D01*
X675060Y500380D02*
X655900Y500380D01*
X655900Y474980D02*
X675060Y474980D01*
X675060Y449580D02*
X655900Y449580D01*
X655900Y424180D02*
X675060Y424180D01*
X675060Y398780D02*
X655900Y398780D01*
D12*
X584200Y181610D03*
X584200Y207010D03*
X584200Y232410D03*
X584200Y257810D03*
X584200Y283210D03*
X584200Y308610D03*
X584200Y334010D03*
X812800Y181610D03*
X812800Y207010D03*
X812800Y232410D03*
X812800Y257810D03*
X812800Y283210D03*
X812800Y308610D03*
X812800Y334010D03*
X584200Y156210D03*
X812800Y156210D03*
X812800Y92710D03*
X787400Y92710D03*
X762000Y92710D03*
X736600Y92710D03*
X711200Y92710D03*
X685800Y92710D03*
X660400Y92710D03*
X635000Y92710D03*
X609600Y92710D03*
D16*
X787400Y42600D02*
X787400Y23440D01*
X762000Y23440D02*
X762000Y42600D01*
X736600Y42600D02*
X736600Y23440D01*
X711200Y23440D02*
X711200Y42600D01*
X40060Y129540D02*
X20900Y129540D01*
X20900Y154940D02*
X40060Y154940D01*
X40060Y180340D02*
X20900Y180340D01*
X366340Y576580D02*
X385500Y576580D01*
X385500Y551180D02*
X366340Y551180D01*
X366340Y525780D02*
X385500Y525780D01*
X385500Y500380D02*
X366340Y500380D01*
X427300Y576580D02*
X446460Y576580D01*
X446460Y551180D02*
X427300Y551180D01*
X427300Y525780D02*
X446460Y525780D01*
X446460Y500380D02*
X427300Y500380D01*
X853440Y423600D02*
X853440Y404440D01*
X878840Y404440D02*
X878840Y423600D01*
X853440Y452700D02*
X853440Y471860D01*
X878840Y471860D02*
X878840Y452700D01*
D17*
X148000Y398000D02*
X148000Y292000D01*
X177000Y263000D01*
X148000Y398000D02*
X147460Y398660D01*
X177000Y263000D02*
X177800Y262890D01*
X177000Y111000D02*
X148000Y111000D01*
X147160Y111840D01*
X177000Y111000D02*
X177800Y110490D01*
X71000Y345000D02*
X43000Y345000D01*
X31000Y333000D01*
X71000Y345000D02*
X71120Y345440D01*
X31000Y333000D02*
X30480Y332740D01*
X665000Y551000D02*
X665480Y551180D01*
X73000Y354000D02*
X73000Y351000D01*
X73000Y354000D02*
X139000Y420000D01*
X172000Y420000D01*
X196000Y396000D01*
X216000Y396000D01*
X230000Y410000D01*
X230000Y433200D01*
X73000Y351000D02*
X71120Y345440D01*
X669000Y93000D02*
X685380Y93000D01*
X661380Y93000D02*
X660400Y92710D01*
X685380Y93000D02*
X685800Y92710D01*
X812380Y181000D02*
X812800Y181610D01*
X503000Y64000D02*
X481000Y64000D01*
X435000Y110000D01*
X407000Y110000D01*
X503000Y64000D02*
X503280Y63500D01*
X407000Y110000D02*
X406400Y110490D01*
X147000Y36000D02*
X115000Y36000D01*
X114140Y35560D01*
X147000Y36000D02*
X147160Y35640D01*
X31000Y122000D02*
X31000Y129000D01*
X31000Y122000D02*
X112000Y41000D01*
X31000Y129000D02*
X30480Y129540D01*
X112000Y41000D02*
X114140Y35560D01*
X397000Y108000D02*
X401000Y108000D01*
X353000Y64000D02*
X326000Y37000D01*
X353000Y64000D02*
X397000Y108000D01*
X326000Y37000D02*
X153000Y37000D01*
X401000Y108000D02*
X406400Y110490D01*
X153000Y37000D02*
X147160Y35640D01*
X600460Y22000D02*
X658798Y80338D01*
X600460Y22000D02*
X395000Y22000D01*
X353000Y64000D01*
X658798Y80338D02*
X660400Y80905D01*
X660400Y92710D01*
X219000Y311000D02*
X219000Y391000D01*
X219000Y311000D02*
X384000Y146000D01*
X384000Y123000D01*
X394000Y113000D01*
X219000Y391000D02*
X216000Y396000D01*
X394000Y113000D02*
X397000Y108000D01*
X312420Y551180D02*
X243840Y551180D01*
X312420Y551180D02*
X375920Y551180D01*
X441960Y551180D01*
X444500Y548640D01*
X443230Y547370D01*
X441960Y551180D02*
X665480Y551180D01*
X230000Y433200D02*
X167900Y495300D01*
X167640Y495300D01*
X167640Y530860D01*
X187960Y551180D01*
X243840Y551180D01*
X665480Y551180D02*
X688340Y551180D01*
X726440Y513080D02*
X726440Y408940D01*
X726440Y513080D02*
X688340Y551180D01*
X825500Y370840D02*
X843280Y353060D01*
X843280Y193040D01*
X831240Y181000D02*
X812380Y181000D01*
X764540Y370840D02*
X726440Y408940D01*
X764540Y370840D02*
X802640Y370840D01*
X825500Y370840D01*
X843280Y193040D02*
X831240Y181000D01*
X802640Y370840D02*
X802640Y469900D01*
X833120Y500380D01*
X878840Y500380D01*
X881380Y497840D01*
X881380Y464820D01*
X878840Y462280D01*
X878840Y414020D01*
X436000Y137000D02*
X408000Y137000D01*
X407000Y136000D01*
X436000Y137000D02*
X436880Y137160D01*
X407000Y136000D02*
X406400Y135890D01*
X71000Y307000D02*
X31000Y307000D01*
X71000Y307000D02*
X71120Y307340D01*
X31000Y307000D02*
X30480Y307340D01*
X514000Y138000D02*
X538000Y162000D01*
X514000Y138000D02*
X513080Y137160D01*
X538000Y162000D02*
X538480Y162560D01*
X539000Y168000D02*
X539000Y195000D01*
X538480Y195580D01*
X539000Y168000D02*
X538480Y162560D01*
X547000Y157000D02*
X583380Y157000D01*
X547000Y157000D02*
X544000Y160000D01*
X583380Y157000D02*
X584200Y156210D01*
X544000Y160000D02*
X538480Y162560D01*
X177000Y86000D02*
X115000Y86000D01*
X114140Y86360D01*
X177000Y86000D02*
X177800Y85090D01*
X147460Y474860D02*
X135300Y487020D01*
X665000Y577000D02*
X665480Y576580D01*
X186000Y88000D02*
X183000Y88000D01*
X186000Y88000D02*
X200000Y102000D01*
X200000Y272000D01*
X185000Y287000D01*
X182000Y287000D01*
X168000Y301000D01*
X168000Y382000D01*
X172000Y386000D01*
X206000Y420000D02*
X153000Y473000D01*
X183000Y88000D02*
X177800Y85090D01*
X153000Y473000D02*
X147460Y474860D01*
X556900Y156210D02*
X556900Y136140D01*
X556900Y156210D02*
X584200Y156210D01*
X753540Y432420D02*
X753540Y546640D01*
X753540Y432420D02*
X753460Y432340D01*
X723600Y576580D02*
X665480Y576580D01*
X723600Y576580D02*
X753540Y546640D01*
D18*
X172000Y386000D03*
X206000Y420000D03*
X556900Y136140D03*
X753460Y432340D03*
D17*
X312420Y576580D02*
X243840Y576580D01*
X312420Y576580D02*
X320040Y576580D01*
X312420Y576580D02*
X375920Y576580D01*
X436880Y576580D01*
X665480Y576580D01*
X157480Y576580D02*
X135300Y554400D01*
X157480Y576580D02*
X243840Y576580D01*
X135300Y554400D02*
X135300Y487020D01*
X407000Y162000D02*
X462000Y162000D01*
X462280Y162560D01*
X407000Y162000D02*
X406400Y161290D01*
X548000Y67000D02*
X548000Y64000D01*
X548000Y67000D02*
X465000Y150000D01*
X465000Y157000D01*
X548000Y64000D02*
X548280Y63500D01*
X465000Y157000D02*
X462280Y162560D01*
X697000Y382500D02*
X697000Y509000D01*
X681000Y525000D01*
X666000Y525000D01*
X665480Y525780D01*
X406000Y213000D02*
X406400Y212090D01*
X312420Y525780D02*
X314224Y528000D01*
X247586Y528000D02*
X243840Y525780D01*
X660000Y524000D02*
X665480Y525780D01*
X796290Y283210D02*
X812800Y283210D01*
X796290Y283210D02*
X697000Y382500D01*
X665480Y525780D02*
X436880Y525780D01*
X375920Y525780D01*
X316444Y525780D01*
X314224Y528000D01*
X312420Y525780D02*
X243840Y525780D01*
X210820Y525780D01*
X200660Y515620D01*
X200660Y497840D01*
X364000Y334500D01*
X382270Y212090D02*
X406400Y212090D01*
X382270Y212090D02*
X364000Y230360D01*
X364000Y334500D01*
X650000Y500000D02*
X665000Y500000D01*
X812380Y258000D02*
X812800Y257810D01*
X665000Y500000D02*
X665480Y500380D01*
X406000Y187000D02*
X397000Y187000D01*
X406000Y187000D02*
X406400Y186690D01*
X324216Y500216D02*
X312420Y500380D01*
X453400Y311680D02*
X528720Y387000D01*
X453400Y311680D02*
X453400Y215700D01*
X425444Y187744D01*
X406400Y186690D01*
X614680Y500380D02*
X665480Y500380D01*
X614680Y500380D02*
X434340Y500380D01*
X431800Y497840D01*
X436880Y500380D02*
X375920Y500380D01*
X335280Y500380D01*
X312420Y500380D01*
X243840Y500380D01*
X333000Y498100D02*
X335280Y500380D01*
X613680Y481059D02*
X614680Y482059D01*
X629000Y387000D02*
X758000Y258000D01*
X812380Y258000D01*
X613680Y467360D02*
X614680Y468360D01*
X614680Y387000D02*
X528720Y387000D01*
X614680Y387000D02*
X629000Y387000D01*
X614680Y387000D02*
X613680Y388000D01*
X613680Y467360D01*
X613680Y481059D01*
X614680Y482059D02*
X614680Y500380D01*
X539000Y309860D02*
X539000Y272000D01*
X539000Y309860D02*
X563140Y334000D01*
X591000Y334000D01*
X539000Y272000D02*
X538480Y271780D01*
X591000Y334000D02*
X590908Y334092D01*
X584200Y334010D01*
X31000Y256000D02*
X31000Y238000D01*
X31000Y181000D01*
X30480Y180340D01*
X31000Y256000D02*
X30480Y256540D01*
X407000Y85000D02*
X431000Y85000D01*
X443420Y72580D02*
X474000Y42000D01*
X443420Y72580D02*
X431000Y85000D01*
X474000Y42000D02*
X567000Y42000D01*
X605959Y80959D01*
X407000Y85000D02*
X406400Y85090D01*
X605959Y80959D02*
X609600Y92710D01*
X634380Y93000D02*
X635000Y92710D01*
X615380Y93000D02*
X609600Y92710D01*
X82060Y238000D02*
X31000Y238000D01*
X406400Y85090D02*
X406400Y80160D01*
D18*
X82060Y238000D03*
X440340Y46220D03*
D17*
X443420Y49300D02*
X443420Y72580D01*
X443420Y49300D02*
X440340Y46220D01*
X609600Y92710D02*
X634090Y92710D01*
X634380Y93000D01*
X609600Y92710D02*
X638810Y121920D01*
X849220Y121920D02*
X869540Y142240D01*
X849220Y121920D02*
X638810Y121920D01*
X869540Y142240D02*
X869540Y367440D01*
X853440Y383540D02*
X853440Y414020D01*
X853440Y383540D02*
X869540Y367440D01*
X853440Y414020D02*
X853440Y462280D01*
X177000Y162000D02*
X168000Y162000D01*
X134000Y196000D01*
X134000Y248000D01*
X101000Y281000D01*
X31000Y281000D01*
X177000Y162000D02*
X177800Y161290D01*
X31000Y281000D02*
X30480Y281940D01*
X97000Y308000D02*
X97000Y345000D01*
X97000Y308000D02*
X96520Y307340D01*
X97000Y345000D02*
X96520Y345440D01*
X172000Y187000D02*
X177000Y187000D01*
X172000Y187000D02*
X154000Y205000D01*
X154000Y257000D01*
X103000Y308000D01*
X177000Y187000D02*
X177800Y186690D01*
X103000Y308000D02*
X96520Y307340D01*
X711200Y92710D02*
X711200Y33020D01*
X736600Y33020D02*
X736600Y92710D01*
X762000Y92710D02*
X762000Y33020D01*
X788365Y91745D02*
X787400Y92710D01*
X787400Y33020D01*
X158527Y138540D02*
X103100Y138540D01*
X87640Y154000D01*
X31000Y154000D01*
X158527Y138540D02*
X177800Y135890D01*
X31000Y154000D02*
X30480Y154940D01*
M02*
