G04 EAGLE Gerber RS-274X export*
G75*
%MOMM*%
%FSLAX34Y34*%
%LPD*%
%INBottom Copper*%
%IPPOS*%
%AMOC8*
5,1,8,0,0,1.08239X$1,22.5*%
G01*
%ADD10P,1.853918X8X112.500000*%
%ADD11P,1.853918X8X292.500000*%
%ADD12C,1.900000*%
%ADD13P,2.056541X8X22.500000*%
%ADD14P,2.597736X8X22.500000*%
%ADD15P,1.853918X8X202.500000*%
%ADD16C,1.916000*%
%ADD17C,1.200000*%
%ADD18C,2.000000*%


D10*
X152240Y35640D03*
X152240Y111840D03*
D11*
X129380Y86360D03*
X129380Y35560D03*
D12*
X177800Y110490D03*
X177800Y135890D03*
X177800Y161290D03*
X177800Y186690D03*
X177800Y212090D03*
X177800Y237490D03*
X177800Y262890D03*
X406400Y110490D03*
X406400Y135890D03*
X406400Y161290D03*
X406400Y186690D03*
X406400Y212090D03*
X406400Y237490D03*
X406400Y262890D03*
X177800Y85090D03*
X406400Y85090D03*
D13*
X503280Y63500D03*
X548280Y63500D03*
D14*
X560780Y88500D03*
X490780Y88500D03*
D15*
X513080Y137160D03*
X436880Y137160D03*
D11*
X147460Y474860D03*
X147460Y398660D03*
D15*
X93980Y459740D03*
X68580Y459740D03*
X93980Y436880D03*
X68580Y436880D03*
D10*
X538480Y195580D03*
X538480Y271780D03*
D15*
X538480Y162560D03*
X462280Y162560D03*
D16*
X655900Y576580D02*
X675060Y576580D01*
X675060Y551180D02*
X655900Y551180D01*
X655900Y525780D02*
X675060Y525780D01*
X675060Y500380D02*
X655900Y500380D01*
X655900Y474980D02*
X675060Y474980D01*
X675060Y449580D02*
X655900Y449580D01*
X655900Y424180D02*
X675060Y424180D01*
X675060Y398780D02*
X655900Y398780D01*
D12*
X584200Y181610D03*
X584200Y207010D03*
X584200Y232410D03*
X584200Y257810D03*
X584200Y283210D03*
X584200Y308610D03*
X584200Y334010D03*
X812800Y181610D03*
X812800Y207010D03*
X812800Y232410D03*
X812800Y257810D03*
X812800Y283210D03*
X812800Y308610D03*
X812800Y334010D03*
X584200Y156210D03*
X812800Y156210D03*
X812800Y92710D03*
X787400Y92710D03*
X762000Y92710D03*
X736600Y92710D03*
X711200Y92710D03*
X685800Y92710D03*
X660400Y92710D03*
X635000Y92710D03*
X609600Y92710D03*
D16*
X787400Y42600D02*
X787400Y23440D01*
X762000Y23440D02*
X762000Y42600D01*
X736600Y42600D02*
X736600Y23440D01*
X711200Y23440D02*
X711200Y42600D01*
X40060Y104140D02*
X20900Y104140D01*
X20900Y129540D02*
X40060Y129540D01*
X40060Y154940D02*
X20900Y154940D01*
X853440Y404440D02*
X853440Y423600D01*
X878840Y423600D02*
X878840Y404440D01*
X853440Y452700D02*
X853440Y471860D01*
X878840Y471860D02*
X878840Y452700D01*
X83240Y200660D02*
X64080Y200660D01*
X64080Y226060D02*
X83240Y226060D01*
X83240Y251460D02*
X64080Y251460D01*
X64080Y276860D02*
X83240Y276860D01*
X42600Y383540D02*
X23440Y383540D01*
X23440Y408940D02*
X42600Y408940D01*
X42600Y434340D02*
X23440Y434340D01*
X23440Y459740D02*
X42600Y459740D01*
X513660Y497840D02*
X532820Y497840D01*
X532820Y523240D02*
X513660Y523240D01*
X513660Y548640D02*
X532820Y548640D01*
X532820Y574040D02*
X513660Y574040D01*
X451540Y497840D02*
X432380Y497840D01*
X432380Y523240D02*
X451540Y523240D01*
X451540Y548640D02*
X432380Y548640D01*
X432380Y574040D02*
X451540Y574040D01*
X370260Y574040D02*
X351100Y574040D01*
X351100Y548640D02*
X370260Y548640D01*
X370260Y523240D02*
X351100Y523240D01*
X351100Y497840D02*
X370260Y497840D01*
X294060Y574040D02*
X274900Y574040D01*
X274900Y548640D02*
X294060Y548640D01*
X294060Y523240D02*
X274900Y523240D01*
X274900Y497840D02*
X294060Y497840D01*
D17*
X148000Y398000D02*
X148000Y292000D01*
X177000Y263000D01*
X148000Y398000D02*
X147460Y398660D01*
X177000Y263000D02*
X177800Y262890D01*
X177000Y111000D02*
X153080Y111000D01*
X152240Y111840D01*
X177000Y111000D02*
X177800Y110490D01*
X83660Y111840D02*
X65960Y129540D01*
X83660Y111840D02*
X152240Y111840D01*
X65960Y129540D02*
X30480Y129540D01*
X408000Y137000D02*
X436000Y137000D01*
X408000Y137000D02*
X407000Y136000D01*
X436000Y137000D02*
X436880Y137160D01*
X407000Y136000D02*
X406400Y135890D01*
X67564Y434000D02*
X68580Y436880D01*
X67224Y434340D02*
X67564Y434000D01*
X67224Y434340D02*
X33020Y434340D01*
X407000Y162000D02*
X462000Y162000D01*
X462280Y162560D01*
X407000Y162000D02*
X406400Y161290D01*
X548000Y67000D02*
X548000Y64000D01*
X548000Y67000D02*
X465000Y150000D01*
X465000Y157000D01*
X548000Y64000D02*
X548280Y63500D01*
X465000Y157000D02*
X462280Y162560D01*
X539000Y272000D02*
X539000Y309860D01*
X563140Y334000D01*
X591000Y334000D01*
X539000Y272000D02*
X538480Y271780D01*
X591000Y334000D02*
X590908Y334092D01*
X584200Y334010D01*
X31000Y354840D02*
X31000Y381442D01*
X18300Y354840D02*
X18300Y167120D01*
X30480Y154940D01*
X407000Y85000D02*
X431000Y85000D01*
X443420Y72580D02*
X474000Y42000D01*
X443420Y72580D02*
X431000Y85000D01*
X474000Y42000D02*
X567000Y42000D01*
X605959Y80959D01*
X407000Y85000D02*
X406400Y85090D01*
X605959Y80959D02*
X609600Y92710D01*
X634380Y93000D02*
X635000Y92710D01*
X615380Y93000D02*
X609600Y92710D01*
X51580Y354840D02*
X31000Y354840D01*
X18300Y354840D01*
X406400Y85090D02*
X406400Y80160D01*
D18*
X51580Y354840D03*
X440340Y46220D03*
D17*
X443420Y49300D02*
X443420Y72580D01*
X443420Y49300D02*
X440340Y46220D01*
X609600Y92710D02*
X634090Y92710D01*
X634380Y93000D01*
X609600Y92710D02*
X638810Y121920D01*
X849220Y121920D02*
X869540Y142240D01*
X849220Y121920D02*
X638810Y121920D01*
X869540Y142240D02*
X869540Y367440D01*
X853440Y383540D02*
X853440Y414020D01*
X853440Y383540D02*
X869540Y367440D01*
X853440Y414020D02*
X853440Y462280D01*
X94460Y437540D02*
X93980Y436880D01*
X97000Y456972D02*
X93980Y459740D01*
X164380Y187000D02*
X177000Y187000D01*
X91440Y434340D02*
X93980Y436880D01*
X177000Y187000D02*
X177800Y186690D01*
X93980Y438020D02*
X93980Y459740D01*
X93980Y438020D02*
X94460Y437540D01*
X107000Y244380D02*
X164380Y187000D01*
X107000Y244380D02*
X107000Y365760D01*
X94300Y378460D01*
X93980Y378460D01*
X93980Y436880D01*
X711200Y92710D02*
X711200Y33020D01*
X736600Y33020D02*
X736600Y92710D01*
X762000Y92710D02*
X762000Y33020D01*
X788365Y91745D02*
X787400Y92710D01*
X787400Y33020D01*
X177800Y212090D02*
X173900Y215990D01*
X168894Y215990D01*
X127000Y257884D02*
X127000Y383540D01*
X119380Y391160D01*
X127000Y257884D02*
X168894Y215990D01*
D18*
X119380Y391160D03*
X68580Y393700D03*
D17*
X53340Y408940D01*
X33020Y408940D01*
X168910Y161290D02*
X177800Y161290D01*
X168910Y161290D02*
X167640Y160020D01*
X161806Y161290D02*
X177800Y161290D01*
X161806Y161290D02*
X98048Y225048D01*
X80268Y225048D01*
X78740Y223520D01*
X76200Y223520D01*
X73660Y226060D01*
X73660Y200660D02*
X138430Y135890D01*
X177800Y135890D01*
X514000Y138000D02*
X538000Y162000D01*
X514000Y138000D02*
X513080Y137160D01*
X538000Y162000D02*
X538480Y162560D01*
X539000Y168000D02*
X539000Y195000D01*
X538480Y195580D01*
X539000Y168000D02*
X538480Y162560D01*
X547000Y157000D02*
X583380Y157000D01*
X547000Y157000D02*
X544000Y160000D01*
X583380Y157000D02*
X584200Y156210D01*
X544000Y160000D02*
X538480Y162560D01*
X177000Y86000D02*
X130240Y86000D01*
X129380Y86360D01*
X177000Y86000D02*
X177800Y85090D01*
X147460Y474860D02*
X135300Y487020D01*
X665000Y577000D02*
X665480Y576580D01*
X186000Y88000D02*
X183000Y88000D01*
X186000Y88000D02*
X200000Y102000D01*
X200000Y272000D01*
X185000Y287000D01*
X182000Y287000D01*
X168000Y301000D01*
X168000Y384540D01*
X169460Y386000D02*
X172000Y386000D01*
X169460Y386000D02*
X168000Y384540D01*
X206000Y420000D02*
X153000Y473000D01*
X183000Y88000D02*
X177800Y85090D01*
X153000Y473000D02*
X147460Y474860D01*
X556900Y156210D02*
X556900Y136140D01*
X556900Y156210D02*
X584200Y156210D01*
X753540Y432420D02*
X753540Y546640D01*
X753540Y432420D02*
X753460Y432340D01*
X723600Y576580D02*
X665480Y576580D01*
X723600Y576580D02*
X753540Y546640D01*
D18*
X172000Y386000D03*
X206000Y420000D03*
X556900Y136140D03*
X753460Y432340D03*
D17*
X157480Y576580D02*
X135300Y554400D01*
X135300Y487020D01*
X129380Y86360D02*
X104140Y86360D01*
D18*
X104140Y86360D03*
D17*
X73660Y276860D02*
X73660Y322580D01*
D18*
X73660Y322580D03*
D17*
X157480Y576580D02*
X281940Y576580D01*
X284480Y574040D01*
X360680Y574040D01*
X441960Y574040D01*
X523240Y574040D01*
X662940Y574040D02*
X665480Y576580D01*
X662940Y574040D02*
X523240Y574040D01*
X665000Y551000D02*
X665480Y551180D01*
X172000Y420000D02*
X139000Y420000D01*
X172000Y420000D02*
X196000Y396000D01*
X216000Y396000D01*
X230000Y410000D01*
X230000Y433200D01*
X669000Y93000D02*
X685380Y93000D01*
X661380Y93000D02*
X660400Y92710D01*
X685380Y93000D02*
X685800Y92710D01*
X812380Y181000D02*
X812800Y181610D01*
X503000Y64000D02*
X481000Y64000D01*
X435000Y110000D01*
X407000Y110000D01*
X503000Y64000D02*
X503280Y63500D01*
X407000Y110000D02*
X406400Y110490D01*
X152080Y36000D02*
X130240Y36000D01*
X129380Y35560D01*
X152080Y36000D02*
X152240Y35640D01*
X129380Y35560D02*
X127240Y41000D01*
X397000Y108000D02*
X401000Y108000D01*
X294640Y37000D02*
X158080Y37000D01*
X401000Y108000D02*
X406400Y110490D01*
X158080Y37000D02*
X152240Y35640D01*
X600460Y22000D02*
X658798Y80338D01*
X600460Y22000D02*
X395000Y22000D01*
X658798Y80338D02*
X660400Y80905D01*
X660400Y92710D01*
X219000Y311000D02*
X219000Y317500D01*
X219000Y391000D01*
X216000Y396000D01*
X441960Y548640D02*
X445770Y544830D01*
X662940Y548640D02*
X665480Y551180D01*
X230000Y433200D02*
X167900Y495300D01*
X167640Y495300D01*
X167640Y530860D01*
X665480Y551180D02*
X688340Y551180D01*
X726440Y513080D02*
X726440Y408940D01*
X726440Y513080D02*
X688340Y551180D01*
X825500Y370840D02*
X843280Y353060D01*
X843280Y193040D01*
X831240Y181000D02*
X812380Y181000D01*
X764540Y370840D02*
X726440Y408940D01*
X764540Y370840D02*
X802640Y370840D01*
X825500Y370840D01*
X843280Y193040D02*
X831240Y181000D01*
X802640Y370840D02*
X802640Y469900D01*
X833120Y500380D01*
X878840Y500380D01*
X881380Y497840D01*
X881380Y464820D01*
X878840Y462280D01*
X878840Y414020D01*
X68580Y459740D02*
X68580Y480060D01*
X76200Y487680D01*
X106680Y487680D01*
X115300Y479060D01*
X115300Y478736D01*
X124460Y469576D01*
X124460Y434540D02*
X139000Y420000D01*
X124460Y434540D02*
X124460Y469576D01*
X68580Y459740D02*
X33020Y459740D01*
X102580Y62360D02*
X129380Y35560D01*
X102580Y62360D02*
X94199Y62360D01*
X80140Y76419D01*
X80140Y82420D01*
X73660Y88900D01*
D18*
X73660Y88900D03*
D17*
X66040Y88900D01*
X50800Y104140D01*
X30480Y104140D01*
D18*
X73660Y162560D03*
D17*
X57140Y179080D01*
X55141Y179080D01*
X40640Y193581D01*
X40640Y251460D01*
X73660Y251460D01*
X167640Y530860D02*
X185420Y548640D01*
X284480Y548640D01*
X360680Y548640D01*
X441960Y548640D01*
X523240Y548640D02*
X662940Y548640D01*
X523240Y548640D02*
X441960Y548640D01*
X406400Y110490D02*
X367030Y110490D01*
X294640Y38100D02*
X294640Y37000D01*
X294640Y38100D02*
X367030Y110490D01*
X380000Y37000D02*
X395000Y22000D01*
X380000Y37000D02*
X294640Y37000D01*
X367030Y169470D02*
X219000Y317500D01*
X367030Y169470D02*
X367030Y110490D01*
X697000Y382500D02*
X697000Y509000D01*
X681000Y525000D01*
X666000Y525000D01*
X665480Y525780D01*
X406000Y213000D02*
X406400Y212090D01*
X660000Y524000D02*
X665480Y525780D01*
X796290Y283210D02*
X812800Y283210D01*
X796290Y283210D02*
X697000Y382500D01*
X200660Y497840D02*
X200660Y515620D01*
X200660Y497840D02*
X364000Y334500D01*
X382270Y212090D02*
X406400Y212090D01*
X382270Y212090D02*
X364000Y230360D01*
X364000Y334500D01*
X662940Y523240D02*
X665480Y525780D01*
X662940Y523240D02*
X523240Y523240D01*
X441960Y523240D01*
X360680Y523240D01*
X284480Y523240D01*
X208280Y523240D02*
X200660Y515620D01*
X208280Y523240D02*
X284480Y523240D01*
X812380Y258000D02*
X812800Y257810D01*
X665000Y500000D02*
X665480Y500380D01*
X406400Y186690D02*
X406000Y187000D01*
X453400Y311680D02*
X528720Y387000D01*
X453400Y311680D02*
X453400Y215700D01*
X425444Y187744D01*
X406400Y186690D01*
X431800Y497840D02*
X434340Y500380D01*
X629000Y387000D02*
X758000Y258000D01*
X812380Y258000D01*
X613680Y467360D02*
X614680Y468360D01*
X614680Y387000D02*
X528720Y387000D01*
X614680Y387000D02*
X629000Y387000D01*
X614680Y387000D02*
X613680Y388000D01*
X613680Y467360D01*
X613680Y481059D01*
X632621Y500000D01*
X665000Y500000D01*
X613680Y481059D02*
X596899Y497840D01*
X523240Y497840D01*
X441960Y497840D01*
X360680Y497840D01*
X284480Y497840D01*
M02*
