G04 EAGLE Gerber RS-274X export*
G75*
%MOMM*%
%FSLAX34Y34*%
%LPD*%
%INTop Copper*%
%IPPOS*%
%AMOC8*
5,1,8,0,0,1.08239X$1,22.5*%
G01*
%ADD10P,1.853918X8X112.500000*%
%ADD11P,1.853918X8X292.500000*%
%ADD12C,1.900000*%
%ADD13P,2.056541X8X22.500000*%
%ADD14P,2.597736X8X22.500000*%
%ADD15P,1.853918X8X202.500000*%
%ADD16C,1.916000*%
%ADD17C,1.200000*%
%ADD18C,2.000000*%


D10*
X147160Y35640D03*
X147160Y111840D03*
D11*
X114140Y86360D03*
X114140Y35560D03*
D12*
X177800Y110490D03*
X177800Y135890D03*
X177800Y161290D03*
X177800Y186690D03*
X177800Y212090D03*
X177800Y237490D03*
X177800Y262890D03*
X406400Y110490D03*
X406400Y135890D03*
X406400Y161290D03*
X406400Y186690D03*
X406400Y212090D03*
X406400Y237490D03*
X406400Y262890D03*
X177800Y85090D03*
X406400Y85090D03*
D13*
X503280Y63500D03*
X548280Y63500D03*
D14*
X560780Y88500D03*
X490780Y88500D03*
D15*
X513080Y137160D03*
X436880Y137160D03*
D16*
X40060Y332740D02*
X20900Y332740D01*
X20900Y307340D02*
X40060Y307340D01*
X40060Y281940D02*
X20900Y281940D01*
X20900Y256540D02*
X40060Y256540D01*
D11*
X147460Y474860D03*
X147460Y398660D03*
D15*
X96520Y345440D03*
X71120Y345440D03*
X96520Y307340D03*
X71120Y307340D03*
D10*
X538480Y195580D03*
X538480Y271780D03*
D16*
X322000Y576580D02*
X302840Y576580D01*
X302840Y551180D02*
X322000Y551180D01*
X322000Y525780D02*
X302840Y525780D01*
X302840Y500380D02*
X322000Y500380D01*
X253420Y576580D02*
X234260Y576580D01*
X234260Y551180D02*
X253420Y551180D01*
X253420Y525780D02*
X234260Y525780D01*
X234260Y500380D02*
X253420Y500380D01*
D15*
X538480Y162560D03*
X462280Y162560D03*
D16*
X655900Y576580D02*
X675060Y576580D01*
X675060Y551180D02*
X655900Y551180D01*
X655900Y525780D02*
X675060Y525780D01*
X675060Y500380D02*
X655900Y500380D01*
X655900Y474980D02*
X675060Y474980D01*
X675060Y449580D02*
X655900Y449580D01*
X655900Y424180D02*
X675060Y424180D01*
X675060Y398780D02*
X655900Y398780D01*
D12*
X584200Y181610D03*
X584200Y207010D03*
X584200Y232410D03*
X584200Y257810D03*
X584200Y283210D03*
X584200Y308610D03*
X584200Y334010D03*
X812800Y181610D03*
X812800Y207010D03*
X812800Y232410D03*
X812800Y257810D03*
X812800Y283210D03*
X812800Y308610D03*
X812800Y334010D03*
X584200Y156210D03*
X812800Y156210D03*
X812800Y92710D03*
X787400Y92710D03*
X762000Y92710D03*
X736600Y92710D03*
X711200Y92710D03*
X685800Y92710D03*
X660400Y92710D03*
X635000Y92710D03*
X609600Y92710D03*
D16*
X787400Y42600D02*
X787400Y23440D01*
X762000Y23440D02*
X762000Y42600D01*
X736600Y42600D02*
X736600Y23440D01*
X711200Y23440D02*
X711200Y42600D01*
X40060Y129540D02*
X20900Y129540D01*
X20900Y154940D02*
X40060Y154940D01*
X40060Y180340D02*
X20900Y180340D01*
X366340Y576580D02*
X385500Y576580D01*
X385500Y551180D02*
X366340Y551180D01*
X366340Y525780D02*
X385500Y525780D01*
X385500Y500380D02*
X366340Y500380D01*
X427300Y576580D02*
X446460Y576580D01*
X446460Y551180D02*
X427300Y551180D01*
X427300Y525780D02*
X446460Y525780D01*
X446460Y500380D02*
X427300Y500380D01*
X853440Y423600D02*
X853440Y404440D01*
X878840Y404440D02*
X878840Y423600D01*
X853440Y452700D02*
X853440Y471860D01*
X878840Y471860D02*
X878840Y452700D01*
D17*
X206000Y420000D02*
X172000Y386000D01*
X569600Y123440D02*
X655960Y123440D01*
X569600Y123440D02*
X556900Y136140D01*
X655960Y123440D02*
X753460Y220940D01*
X753460Y432340D01*
D18*
X172000Y386000D03*
X206000Y420000D03*
X556900Y136140D03*
X753460Y432340D03*
D17*
X118310Y237310D02*
X82750Y237310D01*
X82060Y238000D01*
X118310Y237310D02*
X192000Y311000D01*
D18*
X82060Y238000D03*
X440340Y46220D03*
D17*
X370340Y46220D01*
X279400Y137160D02*
X279400Y309880D01*
X278280Y311000D01*
X192000Y311000D01*
X279400Y137160D02*
X370340Y46220D01*
M02*
