G04 EAGLE Gerber RS-274X export*
G75*
%MOMM*%
%FSLAX34Y34*%
%LPD*%
%IN*%
%IPPOS*%
%AMOC8*
5,1,8,0,0,1.08239X$1,22.5*%
G01*
%ADD10C,0.254000*%


D10*
X0Y0D02*
X908560Y0D01*
X908560Y596800D01*
X0Y596800D01*
X0Y0D01*
X57200Y553116D02*
X57132Y552071D01*
X56995Y551032D01*
X56790Y550005D01*
X56519Y548993D01*
X56183Y548001D01*
X55782Y547033D01*
X55318Y546094D01*
X54795Y545186D01*
X54213Y544315D01*
X53575Y543484D01*
X52884Y542697D01*
X52143Y541956D01*
X51356Y541265D01*
X50525Y540628D01*
X49654Y540046D01*
X48746Y539522D01*
X47807Y539058D01*
X46839Y538657D01*
X45847Y538321D01*
X44835Y538050D01*
X43808Y537845D01*
X42769Y537709D01*
X41724Y537640D01*
X40676Y537640D01*
X39631Y537709D01*
X38592Y537845D01*
X37565Y538050D01*
X36553Y538321D01*
X35561Y538657D01*
X34593Y539058D01*
X33654Y539522D01*
X32746Y540046D01*
X31875Y540628D01*
X31044Y541265D01*
X30257Y541956D01*
X29516Y542697D01*
X28825Y543484D01*
X28188Y544315D01*
X27606Y545186D01*
X27082Y546094D01*
X26618Y547033D01*
X26217Y548001D01*
X25881Y548993D01*
X25610Y550005D01*
X25405Y551032D01*
X25269Y552071D01*
X25200Y553116D01*
X25200Y554164D01*
X25269Y555209D01*
X25405Y556248D01*
X25610Y557275D01*
X25881Y558287D01*
X26217Y559279D01*
X26618Y560247D01*
X27082Y561186D01*
X27606Y562094D01*
X28188Y562965D01*
X28825Y563796D01*
X29516Y564583D01*
X30257Y565324D01*
X31044Y566015D01*
X31875Y566653D01*
X32746Y567235D01*
X33654Y567758D01*
X34593Y568222D01*
X35561Y568623D01*
X36553Y568959D01*
X37565Y569230D01*
X38592Y569435D01*
X39631Y569572D01*
X40676Y569640D01*
X41724Y569640D01*
X42769Y569572D01*
X43808Y569435D01*
X44835Y569230D01*
X45847Y568959D01*
X46839Y568623D01*
X47807Y568222D01*
X48746Y567758D01*
X49654Y567235D01*
X50525Y566653D01*
X51356Y566015D01*
X52143Y565324D01*
X52884Y564583D01*
X53575Y563796D01*
X54213Y562965D01*
X54795Y562094D01*
X55318Y561186D01*
X55782Y560247D01*
X56183Y559279D01*
X56519Y558287D01*
X56790Y557275D01*
X56995Y556248D01*
X57132Y555209D01*
X57200Y554164D01*
X57200Y553116D01*
X865536Y26620D02*
X864491Y26689D01*
X863452Y26825D01*
X862425Y27030D01*
X861413Y27301D01*
X860421Y27637D01*
X859453Y28038D01*
X858514Y28502D01*
X857606Y29026D01*
X856735Y29608D01*
X855904Y30245D01*
X855117Y30936D01*
X854376Y31677D01*
X853685Y32464D01*
X853048Y33295D01*
X852466Y34166D01*
X851942Y35074D01*
X851478Y36013D01*
X851077Y36981D01*
X850741Y37973D01*
X850470Y38985D01*
X850265Y40012D01*
X850129Y41051D01*
X850060Y42096D01*
X850060Y43144D01*
X850129Y44189D01*
X850265Y45228D01*
X850470Y46255D01*
X850741Y47267D01*
X851077Y48259D01*
X851478Y49227D01*
X851942Y50166D01*
X852466Y51074D01*
X853048Y51945D01*
X853685Y52776D01*
X854376Y53563D01*
X855117Y54304D01*
X855904Y54995D01*
X856735Y55633D01*
X857606Y56215D01*
X858514Y56738D01*
X859453Y57202D01*
X860421Y57603D01*
X861413Y57939D01*
X862425Y58210D01*
X863452Y58415D01*
X864491Y58552D01*
X865536Y58620D01*
X866584Y58620D01*
X867629Y58552D01*
X868668Y58415D01*
X869695Y58210D01*
X870707Y57939D01*
X871699Y57603D01*
X872667Y57202D01*
X873606Y56738D01*
X874514Y56215D01*
X875385Y55633D01*
X876216Y54995D01*
X877003Y54304D01*
X877744Y53563D01*
X878435Y52776D01*
X879073Y51945D01*
X879655Y51074D01*
X880178Y50166D01*
X880642Y49227D01*
X881043Y48259D01*
X881379Y47267D01*
X881650Y46255D01*
X881855Y45228D01*
X881992Y44189D01*
X882060Y43144D01*
X882060Y42096D01*
X881992Y41051D01*
X881855Y40012D01*
X881650Y38985D01*
X881379Y37973D01*
X881043Y36981D01*
X880642Y36013D01*
X880178Y35074D01*
X879655Y34166D01*
X879073Y33295D01*
X878435Y32464D01*
X877744Y31677D01*
X877003Y30936D01*
X876216Y30245D01*
X875385Y29608D01*
X874514Y29026D01*
X873606Y28502D01*
X872667Y28038D01*
X871699Y27637D01*
X870707Y27301D01*
X869695Y27030D01*
X868668Y26825D01*
X867629Y26689D01*
X866584Y26620D01*
X865536Y26620D01*
X865536Y537160D02*
X864491Y537229D01*
X863452Y537365D01*
X862425Y537570D01*
X861413Y537841D01*
X860421Y538177D01*
X859453Y538578D01*
X858514Y539042D01*
X857606Y539566D01*
X856735Y540148D01*
X855904Y540785D01*
X855117Y541476D01*
X854376Y542217D01*
X853685Y543004D01*
X853048Y543835D01*
X852466Y544706D01*
X851942Y545614D01*
X851478Y546553D01*
X851077Y547521D01*
X850741Y548513D01*
X850470Y549525D01*
X850265Y550552D01*
X850129Y551591D01*
X850060Y552636D01*
X850060Y553684D01*
X850129Y554729D01*
X850265Y555768D01*
X850470Y556795D01*
X850741Y557807D01*
X851077Y558799D01*
X851478Y559767D01*
X851942Y560706D01*
X852466Y561614D01*
X853048Y562485D01*
X853685Y563316D01*
X854376Y564103D01*
X855117Y564844D01*
X855904Y565535D01*
X856735Y566173D01*
X857606Y566755D01*
X858514Y567278D01*
X859453Y567742D01*
X860421Y568143D01*
X861413Y568479D01*
X862425Y568750D01*
X863452Y568955D01*
X864491Y569092D01*
X865536Y569160D01*
X866584Y569160D01*
X867629Y569092D01*
X868668Y568955D01*
X869695Y568750D01*
X870707Y568479D01*
X871699Y568143D01*
X872667Y567742D01*
X873606Y567278D01*
X874514Y566755D01*
X875385Y566173D01*
X876216Y565535D01*
X877003Y564844D01*
X877744Y564103D01*
X878435Y563316D01*
X879073Y562485D01*
X879655Y561614D01*
X880178Y560706D01*
X880642Y559767D01*
X881043Y558799D01*
X881379Y557807D01*
X881650Y556795D01*
X881855Y555768D01*
X881992Y554729D01*
X882060Y553684D01*
X882060Y552636D01*
X881992Y551591D01*
X881855Y550552D01*
X881650Y549525D01*
X881379Y548513D01*
X881043Y547521D01*
X880642Y546553D01*
X880178Y545614D01*
X879655Y544706D01*
X879073Y543835D01*
X878435Y543004D01*
X877744Y542217D01*
X877003Y541476D01*
X876216Y540785D01*
X875385Y540148D01*
X874514Y539566D01*
X873606Y539042D01*
X872667Y538578D01*
X871699Y538177D01*
X870707Y537841D01*
X869695Y537570D01*
X868668Y537365D01*
X867629Y537229D01*
X866584Y537160D01*
X865536Y537160D01*
X57200Y42576D02*
X57132Y41531D01*
X56995Y40492D01*
X56790Y39465D01*
X56519Y38453D01*
X56183Y37461D01*
X55782Y36493D01*
X55318Y35554D01*
X54795Y34646D01*
X54213Y33775D01*
X53575Y32944D01*
X52884Y32157D01*
X52143Y31416D01*
X51356Y30725D01*
X50525Y30088D01*
X49654Y29506D01*
X48746Y28982D01*
X47807Y28518D01*
X46839Y28117D01*
X45847Y27781D01*
X44835Y27510D01*
X43808Y27305D01*
X42769Y27169D01*
X41724Y27100D01*
X40676Y27100D01*
X39631Y27169D01*
X38592Y27305D01*
X37565Y27510D01*
X36553Y27781D01*
X35561Y28117D01*
X34593Y28518D01*
X33654Y28982D01*
X32746Y29506D01*
X31875Y30088D01*
X31044Y30725D01*
X30257Y31416D01*
X29516Y32157D01*
X28825Y32944D01*
X28188Y33775D01*
X27606Y34646D01*
X27082Y35554D01*
X26618Y36493D01*
X26217Y37461D01*
X25881Y38453D01*
X25610Y39465D01*
X25405Y40492D01*
X25269Y41531D01*
X25200Y42576D01*
X25200Y43624D01*
X25269Y44669D01*
X25405Y45708D01*
X25610Y46735D01*
X25881Y47747D01*
X26217Y48739D01*
X26618Y49707D01*
X27082Y50646D01*
X27606Y51554D01*
X28188Y52425D01*
X28825Y53256D01*
X29516Y54043D01*
X30257Y54784D01*
X31044Y55475D01*
X31875Y56113D01*
X32746Y56695D01*
X33654Y57218D01*
X34593Y57682D01*
X35561Y58083D01*
X36553Y58419D01*
X37565Y58690D01*
X38592Y58895D01*
X39631Y59032D01*
X40676Y59100D01*
X41724Y59100D01*
X42769Y59032D01*
X43808Y58895D01*
X44835Y58690D01*
X45847Y58419D01*
X46839Y58083D01*
X47807Y57682D01*
X48746Y57218D01*
X49654Y56695D01*
X50525Y56113D01*
X51356Y55475D01*
X52143Y54784D01*
X52884Y54043D01*
X53575Y53256D01*
X54213Y52425D01*
X54795Y51554D01*
X55318Y50646D01*
X55782Y49707D01*
X56183Y48739D01*
X56519Y47747D01*
X56790Y46735D01*
X56995Y45708D01*
X57132Y44669D01*
X57200Y43624D01*
X57200Y42576D01*
M02*
