G04 EAGLE Gerber RS-274X export*
G75*
%MOMM*%
%FSLAX34Y34*%
%LPD*%
%INSilkscreen Top*%
%IPPOS*%
%AMOC8*
5,1,8,0,0,1.08239X$1,22.5*%
G01*
%ADD10C,0.152400*%
%ADD11R,0.508000X0.381000*%
%ADD12C,0.101600*%
%ADD13C,0.304800*%
%ADD14C,0.127000*%
%ADD15C,0.203200*%
%ADD16C,0.076200*%
%ADD17R,0.381000X0.508000*%
%ADD18R,0.584200X0.609600*%
%ADD19C,0.762000*%
%ADD20R,0.762000X0.508000*%
%ADD21R,0.762000X1.016000*%


D10*
X142080Y50880D02*
X142082Y50780D01*
X142088Y50681D01*
X142098Y50581D01*
X142111Y50483D01*
X142129Y50384D01*
X142150Y50287D01*
X142175Y50191D01*
X142204Y50095D01*
X142237Y50001D01*
X142273Y49908D01*
X142313Y49817D01*
X142357Y49727D01*
X142404Y49639D01*
X142454Y49553D01*
X142508Y49469D01*
X142565Y49387D01*
X142625Y49308D01*
X142689Y49230D01*
X142755Y49156D01*
X142824Y49084D01*
X142896Y49015D01*
X142970Y48949D01*
X143048Y48885D01*
X143127Y48825D01*
X143209Y48768D01*
X143293Y48714D01*
X143379Y48664D01*
X143467Y48617D01*
X143557Y48573D01*
X143648Y48533D01*
X143741Y48497D01*
X143835Y48464D01*
X143931Y48435D01*
X144027Y48410D01*
X144124Y48389D01*
X144223Y48371D01*
X144321Y48358D01*
X144421Y48348D01*
X144520Y48342D01*
X144620Y48340D01*
X159860Y48340D02*
X159960Y48342D01*
X160059Y48348D01*
X160159Y48358D01*
X160257Y48371D01*
X160356Y48389D01*
X160453Y48410D01*
X160549Y48435D01*
X160645Y48464D01*
X160739Y48497D01*
X160832Y48533D01*
X160923Y48573D01*
X161013Y48617D01*
X161101Y48664D01*
X161187Y48714D01*
X161271Y48768D01*
X161353Y48825D01*
X161432Y48885D01*
X161510Y48949D01*
X161584Y49015D01*
X161656Y49084D01*
X161725Y49156D01*
X161791Y49230D01*
X161855Y49308D01*
X161915Y49387D01*
X161972Y49469D01*
X162026Y49553D01*
X162076Y49639D01*
X162123Y49727D01*
X162167Y49817D01*
X162207Y49908D01*
X162243Y50001D01*
X162276Y50095D01*
X162305Y50191D01*
X162330Y50287D01*
X162351Y50384D01*
X162369Y50483D01*
X162382Y50581D01*
X162392Y50681D01*
X162398Y50780D01*
X162400Y50880D01*
X162400Y96600D02*
X162398Y96700D01*
X162392Y96799D01*
X162382Y96899D01*
X162369Y96997D01*
X162351Y97096D01*
X162330Y97193D01*
X162305Y97289D01*
X162276Y97385D01*
X162243Y97479D01*
X162207Y97572D01*
X162167Y97663D01*
X162123Y97753D01*
X162076Y97841D01*
X162026Y97927D01*
X161972Y98011D01*
X161915Y98093D01*
X161855Y98172D01*
X161791Y98250D01*
X161725Y98324D01*
X161656Y98396D01*
X161584Y98465D01*
X161510Y98531D01*
X161432Y98595D01*
X161353Y98655D01*
X161271Y98712D01*
X161187Y98766D01*
X161101Y98816D01*
X161013Y98863D01*
X160923Y98907D01*
X160832Y98947D01*
X160739Y98983D01*
X160645Y99016D01*
X160549Y99045D01*
X160453Y99070D01*
X160356Y99091D01*
X160257Y99109D01*
X160159Y99122D01*
X160059Y99132D01*
X159960Y99138D01*
X159860Y99140D01*
X144620Y99140D02*
X144520Y99138D01*
X144421Y99132D01*
X144321Y99122D01*
X144223Y99109D01*
X144124Y99091D01*
X144027Y99070D01*
X143931Y99045D01*
X143835Y99016D01*
X143741Y98983D01*
X143648Y98947D01*
X143557Y98907D01*
X143467Y98863D01*
X143379Y98816D01*
X143293Y98766D01*
X143209Y98712D01*
X143127Y98655D01*
X143048Y98595D01*
X142970Y98531D01*
X142896Y98465D01*
X142824Y98396D01*
X142755Y98324D01*
X142689Y98250D01*
X142625Y98172D01*
X142565Y98093D01*
X142508Y98011D01*
X142454Y97927D01*
X142404Y97841D01*
X142357Y97753D01*
X142313Y97663D01*
X142273Y97572D01*
X142237Y97479D01*
X142204Y97385D01*
X142175Y97289D01*
X142150Y97193D01*
X142129Y97096D01*
X142111Y96997D01*
X142098Y96899D01*
X142088Y96799D01*
X142082Y96700D01*
X142080Y96600D01*
X144620Y48340D02*
X159860Y48340D01*
X142080Y50880D02*
X142080Y54690D01*
X143350Y55960D01*
X162400Y54690D02*
X162400Y50880D01*
X162400Y54690D02*
X161130Y55960D01*
X143350Y91520D02*
X142080Y92790D01*
X143350Y91520D02*
X143350Y55960D01*
X161130Y91520D02*
X162400Y92790D01*
X161130Y91520D02*
X161130Y55960D01*
X142080Y92790D02*
X142080Y96600D01*
X162400Y96600D02*
X162400Y92790D01*
X159860Y99140D02*
X144620Y99140D01*
D11*
X152240Y101045D03*
X152240Y46435D03*
D12*
X138778Y48848D02*
X129880Y48848D01*
X129880Y53297D01*
X131363Y54780D01*
X134329Y54780D01*
X135812Y53297D01*
X135812Y48848D01*
X135812Y51814D02*
X138778Y54780D01*
X132846Y57969D02*
X129880Y60935D01*
X138778Y60935D01*
X138778Y57969D02*
X138778Y63901D01*
D10*
X140810Y77470D02*
X140808Y77610D01*
X140802Y77750D01*
X140793Y77890D01*
X140779Y78029D01*
X140762Y78168D01*
X140741Y78306D01*
X140716Y78444D01*
X140687Y78581D01*
X140655Y78717D01*
X140618Y78852D01*
X140578Y78986D01*
X140535Y79119D01*
X140487Y79251D01*
X140437Y79382D01*
X140382Y79511D01*
X140324Y79638D01*
X140263Y79764D01*
X140198Y79888D01*
X140129Y80010D01*
X140058Y80130D01*
X139983Y80248D01*
X139905Y80365D01*
X139823Y80479D01*
X139739Y80590D01*
X139651Y80699D01*
X139561Y80806D01*
X139467Y80911D01*
X139371Y81012D01*
X139272Y81111D01*
X139171Y81207D01*
X139066Y81301D01*
X138959Y81391D01*
X138850Y81479D01*
X138739Y81563D01*
X138625Y81645D01*
X138508Y81723D01*
X138390Y81798D01*
X138270Y81869D01*
X138148Y81938D01*
X138024Y82003D01*
X137898Y82064D01*
X137771Y82122D01*
X137642Y82177D01*
X137511Y82227D01*
X137379Y82275D01*
X137246Y82318D01*
X137112Y82358D01*
X136977Y82395D01*
X136841Y82427D01*
X136704Y82456D01*
X136566Y82481D01*
X136428Y82502D01*
X136289Y82519D01*
X136150Y82533D01*
X136010Y82542D01*
X135870Y82548D01*
X135730Y82550D01*
X123030Y82550D02*
X122890Y82548D01*
X122750Y82542D01*
X122610Y82533D01*
X122471Y82519D01*
X122332Y82502D01*
X122194Y82481D01*
X122056Y82456D01*
X121919Y82427D01*
X121783Y82395D01*
X121648Y82358D01*
X121514Y82318D01*
X121381Y82275D01*
X121249Y82227D01*
X121118Y82177D01*
X120989Y82122D01*
X120862Y82064D01*
X120736Y82003D01*
X120612Y81938D01*
X120490Y81869D01*
X120370Y81798D01*
X120252Y81723D01*
X120135Y81645D01*
X120021Y81563D01*
X119910Y81479D01*
X119801Y81391D01*
X119694Y81301D01*
X119589Y81207D01*
X119488Y81111D01*
X119389Y81012D01*
X119293Y80911D01*
X119199Y80806D01*
X119109Y80699D01*
X119021Y80590D01*
X118937Y80479D01*
X118855Y80365D01*
X118777Y80248D01*
X118702Y80130D01*
X118631Y80010D01*
X118562Y79888D01*
X118497Y79764D01*
X118436Y79638D01*
X118378Y79511D01*
X118323Y79382D01*
X118273Y79251D01*
X118225Y79119D01*
X118182Y78986D01*
X118142Y78852D01*
X118105Y78717D01*
X118073Y78581D01*
X118044Y78444D01*
X118019Y78306D01*
X117998Y78168D01*
X117981Y78029D01*
X117967Y77890D01*
X117958Y77750D01*
X117952Y77610D01*
X117950Y77470D01*
X140810Y77470D02*
X140810Y44450D01*
X117950Y44450D02*
X117950Y77470D01*
X140810Y44450D02*
X140808Y44310D01*
X140802Y44170D01*
X140793Y44030D01*
X140779Y43891D01*
X140762Y43752D01*
X140741Y43614D01*
X140716Y43476D01*
X140687Y43339D01*
X140655Y43203D01*
X140618Y43068D01*
X140578Y42934D01*
X140535Y42801D01*
X140487Y42669D01*
X140437Y42538D01*
X140382Y42409D01*
X140324Y42282D01*
X140263Y42156D01*
X140198Y42032D01*
X140129Y41910D01*
X140058Y41790D01*
X139983Y41672D01*
X139905Y41555D01*
X139823Y41441D01*
X139739Y41330D01*
X139651Y41221D01*
X139561Y41114D01*
X139467Y41009D01*
X139371Y40908D01*
X139272Y40809D01*
X139171Y40713D01*
X139066Y40619D01*
X138959Y40529D01*
X138850Y40441D01*
X138739Y40357D01*
X138625Y40275D01*
X138508Y40197D01*
X138390Y40122D01*
X138270Y40051D01*
X138148Y39982D01*
X138024Y39917D01*
X137898Y39856D01*
X137771Y39798D01*
X137642Y39743D01*
X137511Y39693D01*
X137379Y39645D01*
X137246Y39602D01*
X137112Y39562D01*
X136977Y39525D01*
X136841Y39493D01*
X136704Y39464D01*
X136566Y39439D01*
X136428Y39418D01*
X136289Y39401D01*
X136150Y39387D01*
X136010Y39378D01*
X135870Y39372D01*
X135730Y39370D01*
X123030Y39370D02*
X122890Y39372D01*
X122750Y39378D01*
X122610Y39387D01*
X122471Y39401D01*
X122332Y39418D01*
X122194Y39439D01*
X122056Y39464D01*
X121919Y39493D01*
X121783Y39525D01*
X121648Y39562D01*
X121514Y39602D01*
X121381Y39645D01*
X121249Y39693D01*
X121118Y39743D01*
X120989Y39798D01*
X120862Y39856D01*
X120736Y39917D01*
X120612Y39982D01*
X120490Y40051D01*
X120370Y40122D01*
X120252Y40197D01*
X120135Y40275D01*
X120021Y40357D01*
X119910Y40441D01*
X119801Y40529D01*
X119694Y40619D01*
X119589Y40713D01*
X119488Y40809D01*
X119389Y40908D01*
X119293Y41009D01*
X119199Y41114D01*
X119109Y41221D01*
X119021Y41330D01*
X118937Y41441D01*
X118855Y41555D01*
X118777Y41672D01*
X118702Y41790D01*
X118631Y41910D01*
X118562Y42032D01*
X118497Y42156D01*
X118436Y42282D01*
X118378Y42409D01*
X118323Y42538D01*
X118273Y42669D01*
X118225Y42801D01*
X118182Y42934D01*
X118142Y43068D01*
X118105Y43203D01*
X118073Y43339D01*
X118044Y43476D01*
X118019Y43614D01*
X117998Y43752D01*
X117981Y43891D01*
X117967Y44030D01*
X117958Y44170D01*
X117952Y44310D01*
X117950Y44450D01*
D13*
X129380Y64008D02*
X137000Y64008D01*
X129380Y64008D02*
X121760Y64008D01*
X129380Y57658D02*
X137000Y57658D01*
X129380Y57658D02*
X121760Y57658D01*
D10*
X129380Y57658D02*
X129380Y48260D01*
X129380Y64008D02*
X129380Y73660D01*
D14*
X143975Y65517D02*
X145882Y67424D01*
X143975Y65517D02*
X143975Y61704D01*
X145882Y59797D01*
X153508Y59797D01*
X155415Y61704D01*
X155415Y65517D01*
X153508Y67424D01*
X147789Y71491D02*
X143975Y75304D01*
X155415Y75304D01*
X155415Y71491D02*
X155415Y79118D01*
D10*
X6910Y553640D02*
X6920Y554482D01*
X6951Y555323D01*
X7003Y556163D01*
X7075Y557001D01*
X7168Y557837D01*
X7281Y558671D01*
X7415Y559502D01*
X7569Y560330D01*
X7743Y561153D01*
X7938Y561972D01*
X8152Y562786D01*
X8387Y563594D01*
X8641Y564396D01*
X8914Y565192D01*
X9208Y565981D01*
X9520Y566762D01*
X9852Y567536D01*
X10202Y568301D01*
X10571Y569057D01*
X10959Y569804D01*
X11365Y570541D01*
X11788Y571269D01*
X12230Y571985D01*
X12689Y572691D01*
X13165Y573384D01*
X13658Y574067D01*
X14168Y574736D01*
X14693Y575393D01*
X15235Y576037D01*
X15793Y576668D01*
X16366Y577284D01*
X16953Y577887D01*
X17556Y578474D01*
X18172Y579047D01*
X18803Y579605D01*
X19447Y580147D01*
X20104Y580672D01*
X20773Y581182D01*
X21456Y581675D01*
X22149Y582151D01*
X22855Y582610D01*
X23571Y583052D01*
X24299Y583475D01*
X25036Y583881D01*
X25783Y584269D01*
X26539Y584638D01*
X27304Y584988D01*
X28078Y585320D01*
X28859Y585632D01*
X29648Y585926D01*
X30444Y586199D01*
X31246Y586453D01*
X32054Y586688D01*
X32868Y586902D01*
X33687Y587097D01*
X34510Y587271D01*
X35338Y587425D01*
X36169Y587559D01*
X37003Y587672D01*
X37839Y587765D01*
X38677Y587837D01*
X39517Y587889D01*
X40358Y587920D01*
X41200Y587930D01*
X42042Y587920D01*
X42883Y587889D01*
X43723Y587837D01*
X44561Y587765D01*
X45397Y587672D01*
X46231Y587559D01*
X47062Y587425D01*
X47890Y587271D01*
X48713Y587097D01*
X49532Y586902D01*
X50346Y586688D01*
X51154Y586453D01*
X51956Y586199D01*
X52752Y585926D01*
X53541Y585632D01*
X54322Y585320D01*
X55096Y584988D01*
X55861Y584638D01*
X56617Y584269D01*
X57364Y583881D01*
X58101Y583475D01*
X58829Y583052D01*
X59545Y582610D01*
X60251Y582151D01*
X60944Y581675D01*
X61627Y581182D01*
X62296Y580672D01*
X62953Y580147D01*
X63597Y579605D01*
X64228Y579047D01*
X64844Y578474D01*
X65447Y577887D01*
X66034Y577284D01*
X66607Y576668D01*
X67165Y576037D01*
X67707Y575393D01*
X68232Y574736D01*
X68742Y574067D01*
X69235Y573384D01*
X69711Y572691D01*
X70170Y571985D01*
X70612Y571269D01*
X71035Y570541D01*
X71441Y569804D01*
X71829Y569057D01*
X72198Y568301D01*
X72548Y567536D01*
X72880Y566762D01*
X73192Y565981D01*
X73486Y565192D01*
X73759Y564396D01*
X74013Y563594D01*
X74248Y562786D01*
X74462Y561972D01*
X74657Y561153D01*
X74831Y560330D01*
X74985Y559502D01*
X75119Y558671D01*
X75232Y557837D01*
X75325Y557001D01*
X75397Y556163D01*
X75449Y555323D01*
X75480Y554482D01*
X75490Y553640D01*
X75480Y552798D01*
X75449Y551957D01*
X75397Y551117D01*
X75325Y550279D01*
X75232Y549443D01*
X75119Y548609D01*
X74985Y547778D01*
X74831Y546950D01*
X74657Y546127D01*
X74462Y545308D01*
X74248Y544494D01*
X74013Y543686D01*
X73759Y542884D01*
X73486Y542088D01*
X73192Y541299D01*
X72880Y540518D01*
X72548Y539744D01*
X72198Y538979D01*
X71829Y538223D01*
X71441Y537476D01*
X71035Y536739D01*
X70612Y536011D01*
X70170Y535295D01*
X69711Y534589D01*
X69235Y533896D01*
X68742Y533213D01*
X68232Y532544D01*
X67707Y531887D01*
X67165Y531243D01*
X66607Y530612D01*
X66034Y529996D01*
X65447Y529393D01*
X64844Y528806D01*
X64228Y528233D01*
X63597Y527675D01*
X62953Y527133D01*
X62296Y526608D01*
X61627Y526098D01*
X60944Y525605D01*
X60251Y525129D01*
X59545Y524670D01*
X58829Y524228D01*
X58101Y523805D01*
X57364Y523399D01*
X56617Y523011D01*
X55861Y522642D01*
X55096Y522292D01*
X54322Y521960D01*
X53541Y521648D01*
X52752Y521354D01*
X51956Y521081D01*
X51154Y520827D01*
X50346Y520592D01*
X49532Y520378D01*
X48713Y520183D01*
X47890Y520009D01*
X47062Y519855D01*
X46231Y519721D01*
X45397Y519608D01*
X44561Y519515D01*
X43723Y519443D01*
X42883Y519391D01*
X42042Y519360D01*
X41200Y519350D01*
X40358Y519360D01*
X39517Y519391D01*
X38677Y519443D01*
X37839Y519515D01*
X37003Y519608D01*
X36169Y519721D01*
X35338Y519855D01*
X34510Y520009D01*
X33687Y520183D01*
X32868Y520378D01*
X32054Y520592D01*
X31246Y520827D01*
X30444Y521081D01*
X29648Y521354D01*
X28859Y521648D01*
X28078Y521960D01*
X27304Y522292D01*
X26539Y522642D01*
X25783Y523011D01*
X25036Y523399D01*
X24299Y523805D01*
X23571Y524228D01*
X22855Y524670D01*
X22149Y525129D01*
X21456Y525605D01*
X20773Y526098D01*
X20104Y526608D01*
X19447Y527133D01*
X18803Y527675D01*
X18172Y528233D01*
X17556Y528806D01*
X16953Y529393D01*
X16366Y529996D01*
X15793Y530612D01*
X15235Y531243D01*
X14693Y531887D01*
X14168Y532544D01*
X13658Y533213D01*
X13165Y533896D01*
X12689Y534589D01*
X12230Y535295D01*
X11788Y536011D01*
X11365Y536739D01*
X10959Y537476D01*
X10571Y538223D01*
X10202Y538979D01*
X9852Y539744D01*
X9520Y540518D01*
X9208Y541299D01*
X8914Y542088D01*
X8641Y542884D01*
X8387Y543686D01*
X8152Y544494D01*
X7938Y545308D01*
X7743Y546127D01*
X7569Y546950D01*
X7415Y547778D01*
X7281Y548609D01*
X7168Y549443D01*
X7075Y550279D01*
X7003Y551117D01*
X6951Y551957D01*
X6920Y552798D01*
X6910Y553640D01*
D15*
X24200Y553640D02*
X24205Y554057D01*
X24220Y554474D01*
X24246Y554891D01*
X24282Y555306D01*
X24328Y555721D01*
X24384Y556134D01*
X24450Y556546D01*
X24527Y556957D01*
X24613Y557365D01*
X24709Y557771D01*
X24816Y558174D01*
X24932Y558575D01*
X25058Y558973D01*
X25194Y559367D01*
X25339Y559758D01*
X25494Y560146D01*
X25658Y560529D01*
X25832Y560908D01*
X26015Y561283D01*
X26207Y561654D01*
X26409Y562019D01*
X26619Y562380D01*
X26837Y562735D01*
X27065Y563085D01*
X27301Y563429D01*
X27545Y563767D01*
X27798Y564099D01*
X28059Y564425D01*
X28327Y564744D01*
X28604Y565057D01*
X28888Y565362D01*
X29179Y565661D01*
X29478Y565952D01*
X29783Y566236D01*
X30096Y566513D01*
X30415Y566781D01*
X30741Y567042D01*
X31073Y567295D01*
X31411Y567539D01*
X31755Y567775D01*
X32105Y568003D01*
X32460Y568221D01*
X32821Y568431D01*
X33186Y568633D01*
X33557Y568825D01*
X33932Y569008D01*
X34311Y569182D01*
X34694Y569346D01*
X35082Y569501D01*
X35473Y569646D01*
X35867Y569782D01*
X36265Y569908D01*
X36666Y570024D01*
X37069Y570131D01*
X37475Y570227D01*
X37883Y570313D01*
X38294Y570390D01*
X38706Y570456D01*
X39119Y570512D01*
X39534Y570558D01*
X39949Y570594D01*
X40366Y570620D01*
X40783Y570635D01*
X41200Y570640D01*
X41617Y570635D01*
X42034Y570620D01*
X42451Y570594D01*
X42866Y570558D01*
X43281Y570512D01*
X43694Y570456D01*
X44106Y570390D01*
X44517Y570313D01*
X44925Y570227D01*
X45331Y570131D01*
X45734Y570024D01*
X46135Y569908D01*
X46533Y569782D01*
X46927Y569646D01*
X47318Y569501D01*
X47706Y569346D01*
X48089Y569182D01*
X48468Y569008D01*
X48843Y568825D01*
X49214Y568633D01*
X49579Y568431D01*
X49940Y568221D01*
X50295Y568003D01*
X50645Y567775D01*
X50989Y567539D01*
X51327Y567295D01*
X51659Y567042D01*
X51985Y566781D01*
X52304Y566513D01*
X52617Y566236D01*
X52922Y565952D01*
X53221Y565661D01*
X53512Y565362D01*
X53796Y565057D01*
X54073Y564744D01*
X54341Y564425D01*
X54602Y564099D01*
X54855Y563767D01*
X55099Y563429D01*
X55335Y563085D01*
X55563Y562735D01*
X55781Y562380D01*
X55991Y562019D01*
X56193Y561654D01*
X56385Y561283D01*
X56568Y560908D01*
X56742Y560529D01*
X56906Y560146D01*
X57061Y559758D01*
X57206Y559367D01*
X57342Y558973D01*
X57468Y558575D01*
X57584Y558174D01*
X57691Y557771D01*
X57787Y557365D01*
X57873Y556957D01*
X57950Y556546D01*
X58016Y556134D01*
X58072Y555721D01*
X58118Y555306D01*
X58154Y554891D01*
X58180Y554474D01*
X58195Y554057D01*
X58200Y553640D01*
X58195Y553223D01*
X58180Y552806D01*
X58154Y552389D01*
X58118Y551974D01*
X58072Y551559D01*
X58016Y551146D01*
X57950Y550734D01*
X57873Y550323D01*
X57787Y549915D01*
X57691Y549509D01*
X57584Y549106D01*
X57468Y548705D01*
X57342Y548307D01*
X57206Y547913D01*
X57061Y547522D01*
X56906Y547134D01*
X56742Y546751D01*
X56568Y546372D01*
X56385Y545997D01*
X56193Y545626D01*
X55991Y545261D01*
X55781Y544900D01*
X55563Y544545D01*
X55335Y544195D01*
X55099Y543851D01*
X54855Y543513D01*
X54602Y543181D01*
X54341Y542855D01*
X54073Y542536D01*
X53796Y542223D01*
X53512Y541918D01*
X53221Y541619D01*
X52922Y541328D01*
X52617Y541044D01*
X52304Y540767D01*
X51985Y540499D01*
X51659Y540238D01*
X51327Y539985D01*
X50989Y539741D01*
X50645Y539505D01*
X50295Y539277D01*
X49940Y539059D01*
X49579Y538849D01*
X49214Y538647D01*
X48843Y538455D01*
X48468Y538272D01*
X48089Y538098D01*
X47706Y537934D01*
X47318Y537779D01*
X46927Y537634D01*
X46533Y537498D01*
X46135Y537372D01*
X45734Y537256D01*
X45331Y537149D01*
X44925Y537053D01*
X44517Y536967D01*
X44106Y536890D01*
X43694Y536824D01*
X43281Y536768D01*
X42866Y536722D01*
X42451Y536686D01*
X42034Y536660D01*
X41617Y536645D01*
X41200Y536640D01*
X40783Y536645D01*
X40366Y536660D01*
X39949Y536686D01*
X39534Y536722D01*
X39119Y536768D01*
X38706Y536824D01*
X38294Y536890D01*
X37883Y536967D01*
X37475Y537053D01*
X37069Y537149D01*
X36666Y537256D01*
X36265Y537372D01*
X35867Y537498D01*
X35473Y537634D01*
X35082Y537779D01*
X34694Y537934D01*
X34311Y538098D01*
X33932Y538272D01*
X33557Y538455D01*
X33186Y538647D01*
X32821Y538849D01*
X32460Y539059D01*
X32105Y539277D01*
X31755Y539505D01*
X31411Y539741D01*
X31073Y539985D01*
X30741Y540238D01*
X30415Y540499D01*
X30096Y540767D01*
X29783Y541044D01*
X29478Y541328D01*
X29179Y541619D01*
X28888Y541918D01*
X28604Y542223D01*
X28327Y542536D01*
X28059Y542855D01*
X27798Y543181D01*
X27545Y543513D01*
X27301Y543851D01*
X27065Y544195D01*
X26837Y544545D01*
X26619Y544900D01*
X26409Y545261D01*
X26207Y545626D01*
X26015Y545997D01*
X25832Y546372D01*
X25658Y546751D01*
X25494Y547134D01*
X25339Y547522D01*
X25194Y547913D01*
X25058Y548307D01*
X24932Y548705D01*
X24816Y549106D01*
X24709Y549509D01*
X24613Y549915D01*
X24527Y550323D01*
X24450Y550734D01*
X24384Y551146D01*
X24328Y551559D01*
X24282Y551974D01*
X24246Y552389D01*
X24220Y552806D01*
X24205Y553223D01*
X24200Y553640D01*
D14*
X184150Y199390D02*
X190500Y193040D01*
X190500Y180340D01*
X184150Y173990D01*
X190500Y167640D01*
X190500Y154940D01*
X184150Y148590D01*
X190500Y142240D01*
X190500Y129540D01*
X184150Y123190D01*
X190500Y116840D01*
X190500Y104140D01*
X184150Y97790D01*
X165100Y193040D02*
X171450Y199390D01*
X165100Y180340D02*
X171450Y173990D01*
X165100Y167640D01*
X165100Y154940D02*
X171450Y148590D01*
X165100Y142240D01*
X165100Y129540D02*
X171450Y123190D01*
X165100Y116840D01*
X165100Y104140D02*
X171450Y97790D01*
X165100Y339090D02*
X213360Y339090D01*
X370840Y339090D02*
X419100Y339090D01*
X419100Y269240D01*
X419100Y256540D01*
X419100Y243840D01*
X419100Y231140D01*
X419100Y218440D01*
X419100Y205740D01*
X419100Y-3810D01*
X165100Y205740D02*
X165100Y218440D01*
X165100Y231140D01*
X165100Y243840D01*
X165100Y256540D01*
X165100Y269240D01*
X165100Y339090D01*
X171450Y97790D02*
X165100Y91440D01*
X165100Y78740D02*
X171450Y72390D01*
X184150Y72390D01*
X190500Y78740D01*
X190500Y91440D01*
X184150Y97790D01*
D12*
X196088Y88993D02*
X198037Y90942D01*
X201935Y90942D01*
X203884Y88993D01*
X203884Y87044D01*
X201935Y85095D01*
X199986Y85095D01*
X201935Y85095D02*
X203884Y83146D01*
X203884Y81197D01*
X201935Y79248D01*
X198037Y79248D01*
X196088Y81197D01*
X207782Y83146D02*
X207782Y90942D01*
X207782Y83146D02*
X211680Y79248D01*
X215578Y83146D01*
X215578Y90942D01*
X219476Y88993D02*
X221425Y90942D01*
X225323Y90942D01*
X227272Y88993D01*
X227272Y87044D01*
X225323Y85095D01*
X223374Y85095D01*
X225323Y85095D02*
X227272Y83146D01*
X227272Y81197D01*
X225323Y79248D01*
X221425Y79248D01*
X219476Y81197D01*
X207772Y250937D02*
X196078Y250937D01*
X196078Y256784D01*
X198027Y258733D01*
X201925Y258733D01*
X203874Y256784D01*
X203874Y250937D01*
X203874Y254835D02*
X207772Y258733D01*
X198027Y270427D02*
X196078Y268478D01*
X196078Y264580D01*
X198027Y262631D01*
X199976Y262631D01*
X201925Y264580D01*
X201925Y268478D01*
X203874Y270427D01*
X205823Y270427D01*
X207772Y268478D01*
X207772Y264580D01*
X205823Y262631D01*
X207772Y278223D02*
X196078Y278223D01*
X196078Y274325D02*
X196078Y282121D01*
D14*
X412750Y199390D02*
X419100Y193040D01*
X419100Y180340D02*
X412750Y173990D01*
X419100Y167640D01*
X419100Y154940D02*
X412750Y148590D01*
X419100Y142240D01*
X419100Y129540D02*
X412750Y123190D01*
X419100Y116840D01*
X419100Y104140D02*
X412750Y97790D01*
X393700Y193040D02*
X400050Y199390D01*
X393700Y180340D02*
X400050Y173990D01*
X393700Y167640D01*
X393700Y154940D02*
X400050Y148590D01*
X393700Y142240D01*
X393700Y129540D02*
X400050Y123190D01*
X393700Y116840D01*
X393700Y104140D02*
X400050Y97790D01*
X393700Y91440D01*
X393700Y78740D02*
X400050Y72390D01*
X412750Y72390D01*
X419100Y78740D01*
X419100Y91440D02*
X412750Y97790D01*
D12*
X373536Y90942D02*
X365740Y90942D01*
X365740Y85095D01*
X369638Y87044D01*
X371587Y87044D01*
X373536Y85095D01*
X373536Y81197D01*
X371587Y79248D01*
X367689Y79248D01*
X365740Y81197D01*
X377434Y83146D02*
X377434Y90942D01*
X377434Y83146D02*
X381332Y79248D01*
X385230Y83146D01*
X385230Y90942D01*
D14*
X171450Y199390D02*
X165100Y205740D01*
X165100Y218440D02*
X171450Y224790D01*
X165100Y231140D01*
X165100Y243840D02*
X171450Y250190D01*
X165100Y256540D01*
X165100Y269240D02*
X171450Y275590D01*
X184150Y275590D01*
X190500Y269240D01*
X190500Y256540D01*
X184150Y250190D01*
X190500Y243840D01*
X190500Y231140D01*
X184150Y224790D01*
X190500Y218440D01*
X190500Y205740D01*
X184150Y199390D01*
X393700Y91440D02*
X393700Y78740D01*
X393700Y104140D02*
X393700Y116840D01*
X393700Y129540D02*
X393700Y142240D01*
X393700Y154940D02*
X393700Y167640D01*
X393700Y180340D02*
X393700Y193040D01*
X400050Y199390D02*
X393700Y205740D01*
X393700Y218440D01*
X400050Y224790D01*
X393700Y231140D01*
X393700Y243840D01*
X400050Y250190D01*
X393700Y256540D01*
X393700Y269240D01*
X400050Y275590D01*
X412750Y275590D01*
X419100Y269240D01*
X419100Y256540D02*
X412750Y250190D01*
X419100Y243840D01*
X419100Y231140D02*
X412750Y224790D01*
X419100Y218440D01*
X419100Y205740D02*
X412750Y199390D01*
X165100Y205740D02*
X165100Y66040D01*
X184150Y66040D01*
X184150Y46990D01*
X184150Y21590D01*
X184150Y-3810D01*
X184150Y46990D02*
X171450Y46990D01*
X171450Y21590D01*
X184150Y21590D01*
X184150Y-3810D02*
X241300Y-3810D01*
X241300Y11430D01*
X330200Y11430D02*
X330200Y-3810D01*
X419100Y-3810D01*
X323850Y2540D02*
X247650Y2540D01*
X323850Y2540D02*
X323850Y11430D01*
X247650Y11430D02*
X247650Y2540D01*
X247650Y11430D02*
X241300Y11430D01*
X323850Y11430D02*
X330200Y11430D01*
D12*
X268717Y30397D02*
X268717Y40142D01*
X268717Y30397D02*
X270666Y28448D01*
X274564Y28448D01*
X276513Y30397D01*
X276513Y40142D01*
X286258Y40142D02*
X288207Y38193D01*
X286258Y40142D02*
X282360Y40142D01*
X280411Y38193D01*
X280411Y36244D01*
X282360Y34295D01*
X286258Y34295D01*
X288207Y32346D01*
X288207Y30397D01*
X286258Y28448D01*
X282360Y28448D01*
X280411Y30397D01*
X292105Y28448D02*
X292105Y40142D01*
X297952Y40142D01*
X299901Y38193D01*
X299901Y36244D01*
X297952Y34295D01*
X299901Y32346D01*
X299901Y30397D01*
X297952Y28448D01*
X292105Y28448D01*
X292105Y34295D02*
X297952Y34295D01*
D16*
X190881Y29591D02*
X190881Y38997D01*
X195584Y38997D01*
X197152Y37429D01*
X197152Y34294D01*
X195584Y32726D01*
X190881Y32726D01*
X194016Y32726D02*
X197152Y29591D01*
X200236Y38997D02*
X206507Y38997D01*
X200236Y38997D02*
X200236Y29591D01*
X206507Y29591D01*
X203372Y34294D02*
X200236Y34294D01*
X214294Y38997D02*
X215862Y37429D01*
X214294Y38997D02*
X211159Y38997D01*
X209591Y37429D01*
X209591Y35862D01*
X211159Y34294D01*
X214294Y34294D01*
X215862Y32726D01*
X215862Y31159D01*
X214294Y29591D01*
X211159Y29591D01*
X209591Y31159D01*
X218947Y38997D02*
X225217Y38997D01*
X218947Y38997D02*
X218947Y29591D01*
X225217Y29591D01*
X222082Y34294D02*
X218947Y34294D01*
X231437Y29591D02*
X231437Y38997D01*
X228302Y38997D02*
X234572Y38997D01*
D10*
X241019Y159512D02*
X241019Y175782D01*
X241019Y159512D02*
X249154Y159512D01*
X251865Y162224D01*
X251865Y173070D01*
X249154Y175782D01*
X241019Y175782D01*
X257390Y170359D02*
X262813Y175782D01*
X262813Y159512D01*
X257390Y159512D02*
X268237Y159512D01*
X290133Y159512D02*
X290133Y170359D01*
X292845Y170359D01*
X295557Y167647D01*
X295557Y159512D01*
X295557Y167647D02*
X298268Y170359D01*
X300980Y167647D01*
X300980Y159512D01*
X306505Y170359D02*
X309217Y170359D01*
X309217Y159512D01*
X311928Y159512D02*
X306505Y159512D01*
X309217Y175782D02*
X309217Y178494D01*
X317419Y170359D02*
X317419Y159512D01*
X317419Y170359D02*
X325554Y170359D01*
X328266Y167647D01*
X328266Y159512D01*
X333791Y170359D02*
X336502Y170359D01*
X336502Y159512D01*
X333791Y159512D02*
X339214Y159512D01*
X336502Y175782D02*
X336502Y178494D01*
D14*
X247650Y66040D02*
X247650Y59690D01*
X247650Y53340D02*
X247650Y46990D01*
X247650Y40640D02*
X247650Y34290D01*
X247650Y27940D02*
X247650Y21590D01*
X247650Y15240D02*
X247650Y11430D01*
X247650Y66040D02*
X254000Y66040D01*
X260350Y66040D02*
X266700Y66040D01*
X273050Y66040D02*
X279400Y66040D01*
X285750Y66040D02*
X292100Y66040D01*
X298450Y66040D02*
X304800Y66040D01*
X311150Y66040D02*
X317500Y66040D01*
X323850Y66040D02*
X323850Y59690D01*
X323850Y53340D02*
X323850Y46990D01*
X323850Y40640D02*
X323850Y34290D01*
X323850Y27940D02*
X323850Y21590D01*
X323850Y15240D02*
X323850Y11430D01*
X213360Y281940D02*
X213360Y339090D01*
X370840Y339090D02*
X370840Y281940D01*
X370840Y341630D02*
X213360Y341630D01*
X370840Y341630D02*
X370840Y339090D01*
X213360Y339090D02*
X213360Y341630D01*
X213360Y281940D02*
X370840Y281940D01*
X243620Y304165D02*
X243620Y313486D01*
X248281Y318147D01*
X252942Y313486D01*
X252942Y304165D01*
X252942Y311156D02*
X243620Y311156D01*
X257653Y304165D02*
X257653Y318147D01*
X266974Y304165D01*
X266974Y318147D01*
X276346Y318147D02*
X276346Y304165D01*
X271686Y318147D02*
X281007Y318147D01*
X285719Y318147D02*
X295040Y318147D01*
X285719Y318147D02*
X285719Y304165D01*
X295040Y304165D01*
X290379Y311156D02*
X285719Y311156D01*
X299751Y304165D02*
X299751Y318147D01*
X309073Y304165D01*
X309073Y318147D01*
X313784Y318147D02*
X313784Y304165D01*
X323105Y304165D02*
X313784Y318147D01*
X323105Y318147D02*
X323105Y304165D01*
X327817Y304165D02*
X327817Y313486D01*
X332478Y318147D01*
X337138Y313486D01*
X337138Y304165D01*
X337138Y311156D02*
X327817Y311156D01*
D12*
X207772Y226304D02*
X199976Y226304D01*
X196078Y230202D01*
X199976Y234100D01*
X207772Y234100D01*
X201925Y234100D02*
X201925Y226304D01*
X205823Y237998D02*
X198027Y237998D01*
X196078Y239947D01*
X196078Y243845D01*
X198027Y245794D01*
X205823Y245794D01*
X207772Y243845D01*
X207772Y239947D01*
X205823Y237998D01*
X198027Y245794D01*
D14*
X213360Y281940D02*
X213360Y104140D01*
D12*
X207772Y200904D02*
X196078Y200904D01*
X207772Y200904D02*
X207772Y206751D01*
X205823Y208700D01*
X198027Y208700D01*
X196078Y206751D01*
X196078Y200904D01*
X198027Y212598D02*
X205823Y212598D01*
X198027Y212598D02*
X196078Y214547D01*
X196078Y218445D01*
X198027Y220394D01*
X205823Y220394D01*
X207772Y218445D01*
X207772Y214547D01*
X205823Y212598D01*
X198027Y220394D01*
X196078Y175504D02*
X207772Y175504D01*
X207772Y181351D01*
X205823Y183300D01*
X198027Y183300D01*
X196078Y181351D01*
X196078Y175504D01*
X196078Y187198D02*
X196078Y194994D01*
X196078Y187198D02*
X201925Y187198D01*
X199976Y191096D01*
X199976Y193045D01*
X201925Y194994D01*
X205823Y194994D01*
X207772Y193045D01*
X207772Y189147D01*
X205823Y187198D01*
X207772Y150104D02*
X196078Y150104D01*
X207772Y150104D02*
X207772Y155951D01*
X205823Y157900D01*
X198027Y157900D01*
X196078Y155951D01*
X196078Y150104D01*
X198027Y165696D02*
X196078Y169594D01*
X198027Y165696D02*
X201925Y161798D01*
X205823Y161798D01*
X207772Y163747D01*
X207772Y167645D01*
X205823Y169594D01*
X203874Y169594D01*
X201925Y167645D01*
X201925Y161798D01*
X196078Y124704D02*
X207772Y124704D01*
X207772Y130551D01*
X205823Y132500D01*
X198027Y132500D01*
X196078Y130551D01*
X196078Y124704D01*
X196078Y136398D02*
X196078Y144194D01*
X198027Y144194D01*
X205823Y136398D01*
X207772Y136398D01*
X207772Y99304D02*
X196078Y99304D01*
X207772Y99304D02*
X207772Y105151D01*
X205823Y107100D01*
X198027Y107100D01*
X196078Y105151D01*
X196078Y99304D01*
X198027Y110998D02*
X196078Y112947D01*
X196078Y116845D01*
X198027Y118794D01*
X199976Y118794D01*
X201925Y116845D01*
X203874Y118794D01*
X205823Y118794D01*
X207772Y116845D01*
X207772Y112947D01*
X205823Y110998D01*
X203874Y110998D01*
X201925Y112947D01*
X199976Y110998D01*
X198027Y110998D01*
X201925Y112947D02*
X201925Y116845D01*
X376418Y255602D02*
X388112Y255602D01*
X376418Y251704D02*
X376418Y259500D01*
X376418Y263398D02*
X388112Y271194D01*
X388112Y263398D02*
X376418Y271194D01*
X376418Y226304D02*
X388112Y226304D01*
X376418Y226304D02*
X376418Y232151D01*
X378367Y234100D01*
X382265Y234100D01*
X384214Y232151D01*
X384214Y226304D01*
X384214Y230202D02*
X388112Y234100D01*
X388112Y245794D02*
X376418Y237998D01*
X376418Y245794D02*
X388112Y237998D01*
D14*
X370840Y281940D02*
X370840Y121920D01*
D12*
X376418Y200904D02*
X388112Y200904D01*
X388112Y206751D01*
X386163Y208700D01*
X378367Y208700D01*
X376418Y206751D01*
X376418Y200904D01*
X380316Y212598D02*
X376418Y216496D01*
X388112Y216496D01*
X388112Y212598D02*
X388112Y220394D01*
X388112Y175504D02*
X376418Y175504D01*
X388112Y175504D02*
X388112Y181351D01*
X386163Y183300D01*
X378367Y183300D01*
X376418Y181351D01*
X376418Y175504D01*
X388112Y187198D02*
X388112Y194994D01*
X388112Y187198D02*
X380316Y194994D01*
X378367Y194994D01*
X376418Y193045D01*
X376418Y189147D01*
X378367Y187198D01*
X376418Y150104D02*
X388112Y150104D01*
X388112Y155951D01*
X386163Y157900D01*
X378367Y157900D01*
X376418Y155951D01*
X376418Y150104D01*
X378367Y161798D02*
X376418Y163747D01*
X376418Y167645D01*
X378367Y169594D01*
X380316Y169594D01*
X382265Y167645D01*
X382265Y165696D01*
X382265Y167645D02*
X384214Y169594D01*
X386163Y169594D01*
X388112Y167645D01*
X388112Y163747D01*
X386163Y161798D01*
X388112Y124704D02*
X376418Y124704D01*
X388112Y124704D02*
X388112Y130551D01*
X386163Y132500D01*
X378367Y132500D01*
X376418Y130551D01*
X376418Y124704D01*
X376418Y142245D02*
X388112Y142245D01*
X382265Y136398D02*
X376418Y142245D01*
X382265Y144194D02*
X382265Y136398D01*
D14*
X350520Y104140D02*
X213360Y104140D01*
D12*
X359893Y116342D02*
X361842Y114393D01*
X359893Y116342D02*
X355995Y116342D01*
X354046Y114393D01*
X354046Y106597D01*
X355995Y104648D01*
X359893Y104648D01*
X361842Y106597D01*
X361842Y110495D01*
X357944Y110495D01*
X365740Y104648D02*
X365740Y116342D01*
X373536Y104648D01*
X373536Y116342D01*
X377434Y116342D02*
X377434Y104648D01*
X383281Y104648D01*
X385230Y106597D01*
X385230Y114393D01*
X383281Y116342D01*
X377434Y116342D01*
X432308Y322497D02*
X432308Y332242D01*
X432308Y322497D02*
X434257Y320548D01*
X438155Y320548D01*
X440104Y322497D01*
X440104Y332242D01*
X444002Y322497D02*
X445951Y320548D01*
X449849Y320548D01*
X451798Y322497D01*
X451798Y324446D01*
X449849Y326395D01*
X445951Y326395D01*
X444002Y328344D01*
X444002Y330293D01*
X445951Y332242D01*
X449849Y332242D01*
X451798Y330293D01*
X447900Y334191D02*
X447900Y318599D01*
X455696Y328344D02*
X459594Y332242D01*
X459594Y320548D01*
X455696Y320548D02*
X463492Y320548D01*
D14*
X488280Y36000D02*
X508280Y36000D01*
X543280Y36000D01*
X563280Y36000D01*
X563280Y113500D01*
X488280Y113500D02*
X488280Y36000D01*
X508280Y36000D02*
X508280Y41000D01*
X543280Y41000D01*
X543280Y36000D01*
X490780Y113500D02*
X488280Y113500D01*
X490780Y113500D02*
X490780Y76000D01*
X560780Y113500D02*
X563280Y113500D01*
X560780Y113500D02*
X560780Y76000D01*
X490780Y76000D01*
X513080Y38100D02*
X513080Y-63500D01*
X538480Y-63500D01*
X538480Y38100D01*
D10*
X497840Y127000D02*
X497940Y127002D01*
X498039Y127008D01*
X498139Y127018D01*
X498237Y127031D01*
X498336Y127049D01*
X498433Y127070D01*
X498529Y127095D01*
X498625Y127124D01*
X498719Y127157D01*
X498812Y127193D01*
X498903Y127233D01*
X498993Y127277D01*
X499081Y127324D01*
X499167Y127374D01*
X499251Y127428D01*
X499333Y127485D01*
X499412Y127545D01*
X499490Y127609D01*
X499564Y127675D01*
X499636Y127744D01*
X499705Y127816D01*
X499771Y127890D01*
X499835Y127968D01*
X499895Y128047D01*
X499952Y128129D01*
X500006Y128213D01*
X500056Y128299D01*
X500103Y128387D01*
X500147Y128477D01*
X500187Y128568D01*
X500223Y128661D01*
X500256Y128755D01*
X500285Y128851D01*
X500310Y128947D01*
X500331Y129044D01*
X500349Y129143D01*
X500362Y129241D01*
X500372Y129341D01*
X500378Y129440D01*
X500380Y129540D01*
X500380Y144780D02*
X500378Y144880D01*
X500372Y144979D01*
X500362Y145079D01*
X500349Y145177D01*
X500331Y145276D01*
X500310Y145373D01*
X500285Y145469D01*
X500256Y145565D01*
X500223Y145659D01*
X500187Y145752D01*
X500147Y145843D01*
X500103Y145933D01*
X500056Y146021D01*
X500006Y146107D01*
X499952Y146191D01*
X499895Y146273D01*
X499835Y146352D01*
X499771Y146430D01*
X499705Y146504D01*
X499636Y146576D01*
X499564Y146645D01*
X499490Y146711D01*
X499412Y146775D01*
X499333Y146835D01*
X499251Y146892D01*
X499167Y146946D01*
X499081Y146996D01*
X498993Y147043D01*
X498903Y147087D01*
X498812Y147127D01*
X498719Y147163D01*
X498625Y147196D01*
X498529Y147225D01*
X498433Y147250D01*
X498336Y147271D01*
X498237Y147289D01*
X498139Y147302D01*
X498039Y147312D01*
X497940Y147318D01*
X497840Y147320D01*
X452120Y147320D02*
X452020Y147318D01*
X451921Y147312D01*
X451821Y147302D01*
X451723Y147289D01*
X451624Y147271D01*
X451527Y147250D01*
X451431Y147225D01*
X451335Y147196D01*
X451241Y147163D01*
X451148Y147127D01*
X451057Y147087D01*
X450967Y147043D01*
X450879Y146996D01*
X450793Y146946D01*
X450709Y146892D01*
X450627Y146835D01*
X450548Y146775D01*
X450470Y146711D01*
X450396Y146645D01*
X450324Y146576D01*
X450255Y146504D01*
X450189Y146430D01*
X450125Y146352D01*
X450065Y146273D01*
X450008Y146191D01*
X449954Y146107D01*
X449904Y146021D01*
X449857Y145933D01*
X449813Y145843D01*
X449773Y145752D01*
X449737Y145659D01*
X449704Y145565D01*
X449675Y145469D01*
X449650Y145373D01*
X449629Y145276D01*
X449611Y145177D01*
X449598Y145079D01*
X449588Y144979D01*
X449582Y144880D01*
X449580Y144780D01*
X449580Y129540D02*
X449582Y129440D01*
X449588Y129341D01*
X449598Y129241D01*
X449611Y129143D01*
X449629Y129044D01*
X449650Y128947D01*
X449675Y128851D01*
X449704Y128755D01*
X449737Y128661D01*
X449773Y128568D01*
X449813Y128477D01*
X449857Y128387D01*
X449904Y128299D01*
X449954Y128213D01*
X450008Y128129D01*
X450065Y128047D01*
X450125Y127968D01*
X450189Y127890D01*
X450255Y127816D01*
X450324Y127744D01*
X450396Y127675D01*
X450470Y127609D01*
X450548Y127545D01*
X450627Y127485D01*
X450709Y127428D01*
X450793Y127374D01*
X450879Y127324D01*
X450967Y127277D01*
X451057Y127233D01*
X451148Y127193D01*
X451241Y127157D01*
X451335Y127124D01*
X451431Y127095D01*
X451527Y127070D01*
X451624Y127049D01*
X451723Y127031D01*
X451821Y127018D01*
X451921Y127008D01*
X452020Y127002D01*
X452120Y127000D01*
X500380Y129540D02*
X500380Y144780D01*
X497840Y127000D02*
X494030Y127000D01*
X492760Y128270D01*
X494030Y147320D02*
X497840Y147320D01*
X494030Y147320D02*
X492760Y146050D01*
X457200Y128270D02*
X455930Y127000D01*
X457200Y128270D02*
X492760Y128270D01*
X457200Y146050D02*
X455930Y147320D01*
X457200Y146050D02*
X492760Y146050D01*
X455930Y127000D02*
X452120Y127000D01*
X452120Y147320D02*
X455930Y147320D01*
X449580Y144780D02*
X449580Y129540D01*
D17*
X447675Y137160D03*
X502285Y137160D03*
D12*
X480105Y141486D02*
X480105Y132588D01*
X480105Y141486D02*
X484554Y141486D01*
X486037Y140003D01*
X486037Y137037D01*
X484554Y135554D01*
X480105Y135554D01*
X483071Y135554D02*
X486037Y132588D01*
X489227Y141486D02*
X495158Y141486D01*
X489227Y141486D02*
X489227Y137037D01*
X492193Y138520D01*
X493675Y138520D01*
X495158Y137037D01*
X495158Y134071D01*
X493675Y132588D01*
X490710Y132588D01*
X489227Y134071D01*
D10*
X157620Y459620D02*
X157618Y459720D01*
X157612Y459819D01*
X157602Y459919D01*
X157589Y460017D01*
X157571Y460116D01*
X157550Y460213D01*
X157525Y460309D01*
X157496Y460405D01*
X157463Y460499D01*
X157427Y460592D01*
X157387Y460683D01*
X157343Y460773D01*
X157296Y460861D01*
X157246Y460947D01*
X157192Y461031D01*
X157135Y461113D01*
X157075Y461192D01*
X157011Y461270D01*
X156945Y461344D01*
X156876Y461416D01*
X156804Y461485D01*
X156730Y461551D01*
X156652Y461615D01*
X156573Y461675D01*
X156491Y461732D01*
X156407Y461786D01*
X156321Y461836D01*
X156233Y461883D01*
X156143Y461927D01*
X156052Y461967D01*
X155959Y462003D01*
X155865Y462036D01*
X155769Y462065D01*
X155673Y462090D01*
X155576Y462111D01*
X155477Y462129D01*
X155379Y462142D01*
X155279Y462152D01*
X155180Y462158D01*
X155080Y462160D01*
X139840Y462160D02*
X139740Y462158D01*
X139641Y462152D01*
X139541Y462142D01*
X139443Y462129D01*
X139344Y462111D01*
X139247Y462090D01*
X139151Y462065D01*
X139055Y462036D01*
X138961Y462003D01*
X138868Y461967D01*
X138777Y461927D01*
X138687Y461883D01*
X138599Y461836D01*
X138513Y461786D01*
X138429Y461732D01*
X138347Y461675D01*
X138268Y461615D01*
X138190Y461551D01*
X138116Y461485D01*
X138044Y461416D01*
X137975Y461344D01*
X137909Y461270D01*
X137845Y461192D01*
X137785Y461113D01*
X137728Y461031D01*
X137674Y460947D01*
X137624Y460861D01*
X137577Y460773D01*
X137533Y460683D01*
X137493Y460592D01*
X137457Y460499D01*
X137424Y460405D01*
X137395Y460309D01*
X137370Y460213D01*
X137349Y460116D01*
X137331Y460017D01*
X137318Y459919D01*
X137308Y459819D01*
X137302Y459720D01*
X137300Y459620D01*
X137300Y413900D02*
X137302Y413800D01*
X137308Y413701D01*
X137318Y413601D01*
X137331Y413503D01*
X137349Y413404D01*
X137370Y413307D01*
X137395Y413211D01*
X137424Y413115D01*
X137457Y413021D01*
X137493Y412928D01*
X137533Y412837D01*
X137577Y412747D01*
X137624Y412659D01*
X137674Y412573D01*
X137728Y412489D01*
X137785Y412407D01*
X137845Y412328D01*
X137909Y412250D01*
X137975Y412176D01*
X138044Y412104D01*
X138116Y412035D01*
X138190Y411969D01*
X138268Y411905D01*
X138347Y411845D01*
X138429Y411788D01*
X138513Y411734D01*
X138599Y411684D01*
X138687Y411637D01*
X138777Y411593D01*
X138868Y411553D01*
X138961Y411517D01*
X139055Y411484D01*
X139151Y411455D01*
X139247Y411430D01*
X139344Y411409D01*
X139443Y411391D01*
X139541Y411378D01*
X139641Y411368D01*
X139740Y411362D01*
X139840Y411360D01*
X155080Y411360D02*
X155180Y411362D01*
X155279Y411368D01*
X155379Y411378D01*
X155477Y411391D01*
X155576Y411409D01*
X155673Y411430D01*
X155769Y411455D01*
X155865Y411484D01*
X155959Y411517D01*
X156052Y411553D01*
X156143Y411593D01*
X156233Y411637D01*
X156321Y411684D01*
X156407Y411734D01*
X156491Y411788D01*
X156573Y411845D01*
X156652Y411905D01*
X156730Y411969D01*
X156804Y412035D01*
X156876Y412104D01*
X156945Y412176D01*
X157011Y412250D01*
X157075Y412328D01*
X157135Y412407D01*
X157192Y412489D01*
X157246Y412573D01*
X157296Y412659D01*
X157343Y412747D01*
X157387Y412837D01*
X157427Y412928D01*
X157463Y413021D01*
X157496Y413115D01*
X157525Y413211D01*
X157550Y413307D01*
X157571Y413404D01*
X157589Y413503D01*
X157602Y413601D01*
X157612Y413701D01*
X157618Y413800D01*
X157620Y413900D01*
X155080Y462160D02*
X139840Y462160D01*
X157620Y459620D02*
X157620Y455810D01*
X156350Y454540D01*
X137300Y455810D02*
X137300Y459620D01*
X137300Y455810D02*
X138570Y454540D01*
X156350Y418980D02*
X157620Y417710D01*
X156350Y418980D02*
X156350Y454540D01*
X138570Y418980D02*
X137300Y417710D01*
X138570Y418980D02*
X138570Y454540D01*
X157620Y417710D02*
X157620Y413900D01*
X137300Y413900D02*
X137300Y417710D01*
X139840Y411360D02*
X155080Y411360D01*
D11*
X147460Y409455D03*
X147460Y464065D03*
D12*
X160914Y444425D02*
X169812Y444425D01*
X160914Y444425D02*
X160914Y448874D01*
X162397Y450357D01*
X165363Y450357D01*
X166846Y448874D01*
X166846Y444425D01*
X166846Y447391D02*
X169812Y450357D01*
X169812Y453547D02*
X169812Y459478D01*
X169812Y453547D02*
X163880Y459478D01*
X162397Y459478D01*
X160914Y457995D01*
X160914Y455030D01*
X162397Y453547D01*
D10*
X831770Y42620D02*
X831780Y43462D01*
X831811Y44303D01*
X831863Y45143D01*
X831935Y45981D01*
X832028Y46817D01*
X832141Y47651D01*
X832275Y48482D01*
X832429Y49310D01*
X832603Y50133D01*
X832798Y50952D01*
X833012Y51766D01*
X833247Y52574D01*
X833501Y53376D01*
X833774Y54172D01*
X834068Y54961D01*
X834380Y55742D01*
X834712Y56516D01*
X835062Y57281D01*
X835431Y58037D01*
X835819Y58784D01*
X836225Y59521D01*
X836648Y60249D01*
X837090Y60965D01*
X837549Y61671D01*
X838025Y62364D01*
X838518Y63047D01*
X839028Y63716D01*
X839553Y64373D01*
X840095Y65017D01*
X840653Y65648D01*
X841226Y66264D01*
X841813Y66867D01*
X842416Y67454D01*
X843032Y68027D01*
X843663Y68585D01*
X844307Y69127D01*
X844964Y69652D01*
X845633Y70162D01*
X846316Y70655D01*
X847009Y71131D01*
X847715Y71590D01*
X848431Y72032D01*
X849159Y72455D01*
X849896Y72861D01*
X850643Y73249D01*
X851399Y73618D01*
X852164Y73968D01*
X852938Y74300D01*
X853719Y74612D01*
X854508Y74906D01*
X855304Y75179D01*
X856106Y75433D01*
X856914Y75668D01*
X857728Y75882D01*
X858547Y76077D01*
X859370Y76251D01*
X860198Y76405D01*
X861029Y76539D01*
X861863Y76652D01*
X862699Y76745D01*
X863537Y76817D01*
X864377Y76869D01*
X865218Y76900D01*
X866060Y76910D01*
X866902Y76900D01*
X867743Y76869D01*
X868583Y76817D01*
X869421Y76745D01*
X870257Y76652D01*
X871091Y76539D01*
X871922Y76405D01*
X872750Y76251D01*
X873573Y76077D01*
X874392Y75882D01*
X875206Y75668D01*
X876014Y75433D01*
X876816Y75179D01*
X877612Y74906D01*
X878401Y74612D01*
X879182Y74300D01*
X879956Y73968D01*
X880721Y73618D01*
X881477Y73249D01*
X882224Y72861D01*
X882961Y72455D01*
X883689Y72032D01*
X884405Y71590D01*
X885111Y71131D01*
X885804Y70655D01*
X886487Y70162D01*
X887156Y69652D01*
X887813Y69127D01*
X888457Y68585D01*
X889088Y68027D01*
X889704Y67454D01*
X890307Y66867D01*
X890894Y66264D01*
X891467Y65648D01*
X892025Y65017D01*
X892567Y64373D01*
X893092Y63716D01*
X893602Y63047D01*
X894095Y62364D01*
X894571Y61671D01*
X895030Y60965D01*
X895472Y60249D01*
X895895Y59521D01*
X896301Y58784D01*
X896689Y58037D01*
X897058Y57281D01*
X897408Y56516D01*
X897740Y55742D01*
X898052Y54961D01*
X898346Y54172D01*
X898619Y53376D01*
X898873Y52574D01*
X899108Y51766D01*
X899322Y50952D01*
X899517Y50133D01*
X899691Y49310D01*
X899845Y48482D01*
X899979Y47651D01*
X900092Y46817D01*
X900185Y45981D01*
X900257Y45143D01*
X900309Y44303D01*
X900340Y43462D01*
X900350Y42620D01*
X900340Y41778D01*
X900309Y40937D01*
X900257Y40097D01*
X900185Y39259D01*
X900092Y38423D01*
X899979Y37589D01*
X899845Y36758D01*
X899691Y35930D01*
X899517Y35107D01*
X899322Y34288D01*
X899108Y33474D01*
X898873Y32666D01*
X898619Y31864D01*
X898346Y31068D01*
X898052Y30279D01*
X897740Y29498D01*
X897408Y28724D01*
X897058Y27959D01*
X896689Y27203D01*
X896301Y26456D01*
X895895Y25719D01*
X895472Y24991D01*
X895030Y24275D01*
X894571Y23569D01*
X894095Y22876D01*
X893602Y22193D01*
X893092Y21524D01*
X892567Y20867D01*
X892025Y20223D01*
X891467Y19592D01*
X890894Y18976D01*
X890307Y18373D01*
X889704Y17786D01*
X889088Y17213D01*
X888457Y16655D01*
X887813Y16113D01*
X887156Y15588D01*
X886487Y15078D01*
X885804Y14585D01*
X885111Y14109D01*
X884405Y13650D01*
X883689Y13208D01*
X882961Y12785D01*
X882224Y12379D01*
X881477Y11991D01*
X880721Y11622D01*
X879956Y11272D01*
X879182Y10940D01*
X878401Y10628D01*
X877612Y10334D01*
X876816Y10061D01*
X876014Y9807D01*
X875206Y9572D01*
X874392Y9358D01*
X873573Y9163D01*
X872750Y8989D01*
X871922Y8835D01*
X871091Y8701D01*
X870257Y8588D01*
X869421Y8495D01*
X868583Y8423D01*
X867743Y8371D01*
X866902Y8340D01*
X866060Y8330D01*
X865218Y8340D01*
X864377Y8371D01*
X863537Y8423D01*
X862699Y8495D01*
X861863Y8588D01*
X861029Y8701D01*
X860198Y8835D01*
X859370Y8989D01*
X858547Y9163D01*
X857728Y9358D01*
X856914Y9572D01*
X856106Y9807D01*
X855304Y10061D01*
X854508Y10334D01*
X853719Y10628D01*
X852938Y10940D01*
X852164Y11272D01*
X851399Y11622D01*
X850643Y11991D01*
X849896Y12379D01*
X849159Y12785D01*
X848431Y13208D01*
X847715Y13650D01*
X847009Y14109D01*
X846316Y14585D01*
X845633Y15078D01*
X844964Y15588D01*
X844307Y16113D01*
X843663Y16655D01*
X843032Y17213D01*
X842416Y17786D01*
X841813Y18373D01*
X841226Y18976D01*
X840653Y19592D01*
X840095Y20223D01*
X839553Y20867D01*
X839028Y21524D01*
X838518Y22193D01*
X838025Y22876D01*
X837549Y23569D01*
X837090Y24275D01*
X836648Y24991D01*
X836225Y25719D01*
X835819Y26456D01*
X835431Y27203D01*
X835062Y27959D01*
X834712Y28724D01*
X834380Y29498D01*
X834068Y30279D01*
X833774Y31068D01*
X833501Y31864D01*
X833247Y32666D01*
X833012Y33474D01*
X832798Y34288D01*
X832603Y35107D01*
X832429Y35930D01*
X832275Y36758D01*
X832141Y37589D01*
X832028Y38423D01*
X831935Y39259D01*
X831863Y40097D01*
X831811Y40937D01*
X831780Y41778D01*
X831770Y42620D01*
D15*
X849060Y42620D02*
X849065Y43037D01*
X849080Y43454D01*
X849106Y43871D01*
X849142Y44286D01*
X849188Y44701D01*
X849244Y45114D01*
X849310Y45526D01*
X849387Y45937D01*
X849473Y46345D01*
X849569Y46751D01*
X849676Y47154D01*
X849792Y47555D01*
X849918Y47953D01*
X850054Y48347D01*
X850199Y48738D01*
X850354Y49126D01*
X850518Y49509D01*
X850692Y49888D01*
X850875Y50263D01*
X851067Y50634D01*
X851269Y50999D01*
X851479Y51360D01*
X851697Y51715D01*
X851925Y52065D01*
X852161Y52409D01*
X852405Y52747D01*
X852658Y53079D01*
X852919Y53405D01*
X853187Y53724D01*
X853464Y54037D01*
X853748Y54342D01*
X854039Y54641D01*
X854338Y54932D01*
X854643Y55216D01*
X854956Y55493D01*
X855275Y55761D01*
X855601Y56022D01*
X855933Y56275D01*
X856271Y56519D01*
X856615Y56755D01*
X856965Y56983D01*
X857320Y57201D01*
X857681Y57411D01*
X858046Y57613D01*
X858417Y57805D01*
X858792Y57988D01*
X859171Y58162D01*
X859554Y58326D01*
X859942Y58481D01*
X860333Y58626D01*
X860727Y58762D01*
X861125Y58888D01*
X861526Y59004D01*
X861929Y59111D01*
X862335Y59207D01*
X862743Y59293D01*
X863154Y59370D01*
X863566Y59436D01*
X863979Y59492D01*
X864394Y59538D01*
X864809Y59574D01*
X865226Y59600D01*
X865643Y59615D01*
X866060Y59620D01*
X866477Y59615D01*
X866894Y59600D01*
X867311Y59574D01*
X867726Y59538D01*
X868141Y59492D01*
X868554Y59436D01*
X868966Y59370D01*
X869377Y59293D01*
X869785Y59207D01*
X870191Y59111D01*
X870594Y59004D01*
X870995Y58888D01*
X871393Y58762D01*
X871787Y58626D01*
X872178Y58481D01*
X872566Y58326D01*
X872949Y58162D01*
X873328Y57988D01*
X873703Y57805D01*
X874074Y57613D01*
X874439Y57411D01*
X874800Y57201D01*
X875155Y56983D01*
X875505Y56755D01*
X875849Y56519D01*
X876187Y56275D01*
X876519Y56022D01*
X876845Y55761D01*
X877164Y55493D01*
X877477Y55216D01*
X877782Y54932D01*
X878081Y54641D01*
X878372Y54342D01*
X878656Y54037D01*
X878933Y53724D01*
X879201Y53405D01*
X879462Y53079D01*
X879715Y52747D01*
X879959Y52409D01*
X880195Y52065D01*
X880423Y51715D01*
X880641Y51360D01*
X880851Y50999D01*
X881053Y50634D01*
X881245Y50263D01*
X881428Y49888D01*
X881602Y49509D01*
X881766Y49126D01*
X881921Y48738D01*
X882066Y48347D01*
X882202Y47953D01*
X882328Y47555D01*
X882444Y47154D01*
X882551Y46751D01*
X882647Y46345D01*
X882733Y45937D01*
X882810Y45526D01*
X882876Y45114D01*
X882932Y44701D01*
X882978Y44286D01*
X883014Y43871D01*
X883040Y43454D01*
X883055Y43037D01*
X883060Y42620D01*
X883055Y42203D01*
X883040Y41786D01*
X883014Y41369D01*
X882978Y40954D01*
X882932Y40539D01*
X882876Y40126D01*
X882810Y39714D01*
X882733Y39303D01*
X882647Y38895D01*
X882551Y38489D01*
X882444Y38086D01*
X882328Y37685D01*
X882202Y37287D01*
X882066Y36893D01*
X881921Y36502D01*
X881766Y36114D01*
X881602Y35731D01*
X881428Y35352D01*
X881245Y34977D01*
X881053Y34606D01*
X880851Y34241D01*
X880641Y33880D01*
X880423Y33525D01*
X880195Y33175D01*
X879959Y32831D01*
X879715Y32493D01*
X879462Y32161D01*
X879201Y31835D01*
X878933Y31516D01*
X878656Y31203D01*
X878372Y30898D01*
X878081Y30599D01*
X877782Y30308D01*
X877477Y30024D01*
X877164Y29747D01*
X876845Y29479D01*
X876519Y29218D01*
X876187Y28965D01*
X875849Y28721D01*
X875505Y28485D01*
X875155Y28257D01*
X874800Y28039D01*
X874439Y27829D01*
X874074Y27627D01*
X873703Y27435D01*
X873328Y27252D01*
X872949Y27078D01*
X872566Y26914D01*
X872178Y26759D01*
X871787Y26614D01*
X871393Y26478D01*
X870995Y26352D01*
X870594Y26236D01*
X870191Y26129D01*
X869785Y26033D01*
X869377Y25947D01*
X868966Y25870D01*
X868554Y25804D01*
X868141Y25748D01*
X867726Y25702D01*
X867311Y25666D01*
X866894Y25640D01*
X866477Y25625D01*
X866060Y25620D01*
X865643Y25625D01*
X865226Y25640D01*
X864809Y25666D01*
X864394Y25702D01*
X863979Y25748D01*
X863566Y25804D01*
X863154Y25870D01*
X862743Y25947D01*
X862335Y26033D01*
X861929Y26129D01*
X861526Y26236D01*
X861125Y26352D01*
X860727Y26478D01*
X860333Y26614D01*
X859942Y26759D01*
X859554Y26914D01*
X859171Y27078D01*
X858792Y27252D01*
X858417Y27435D01*
X858046Y27627D01*
X857681Y27829D01*
X857320Y28039D01*
X856965Y28257D01*
X856615Y28485D01*
X856271Y28721D01*
X855933Y28965D01*
X855601Y29218D01*
X855275Y29479D01*
X854956Y29747D01*
X854643Y30024D01*
X854338Y30308D01*
X854039Y30599D01*
X853748Y30898D01*
X853464Y31203D01*
X853187Y31516D01*
X852919Y31835D01*
X852658Y32161D01*
X852405Y32493D01*
X852161Y32831D01*
X851925Y33175D01*
X851697Y33525D01*
X851479Y33880D01*
X851269Y34241D01*
X851067Y34606D01*
X850875Y34977D01*
X850692Y35352D01*
X850518Y35731D01*
X850354Y36114D01*
X850199Y36502D01*
X850054Y36893D01*
X849918Y37287D01*
X849792Y37685D01*
X849676Y38086D01*
X849569Y38489D01*
X849473Y38895D01*
X849387Y39303D01*
X849310Y39714D01*
X849244Y40126D01*
X849188Y40539D01*
X849142Y40954D01*
X849106Y41369D01*
X849080Y41786D01*
X849065Y42203D01*
X849060Y42620D01*
D10*
X831770Y553160D02*
X831780Y554002D01*
X831811Y554843D01*
X831863Y555683D01*
X831935Y556521D01*
X832028Y557357D01*
X832141Y558191D01*
X832275Y559022D01*
X832429Y559850D01*
X832603Y560673D01*
X832798Y561492D01*
X833012Y562306D01*
X833247Y563114D01*
X833501Y563916D01*
X833774Y564712D01*
X834068Y565501D01*
X834380Y566282D01*
X834712Y567056D01*
X835062Y567821D01*
X835431Y568577D01*
X835819Y569324D01*
X836225Y570061D01*
X836648Y570789D01*
X837090Y571505D01*
X837549Y572211D01*
X838025Y572904D01*
X838518Y573587D01*
X839028Y574256D01*
X839553Y574913D01*
X840095Y575557D01*
X840653Y576188D01*
X841226Y576804D01*
X841813Y577407D01*
X842416Y577994D01*
X843032Y578567D01*
X843663Y579125D01*
X844307Y579667D01*
X844964Y580192D01*
X845633Y580702D01*
X846316Y581195D01*
X847009Y581671D01*
X847715Y582130D01*
X848431Y582572D01*
X849159Y582995D01*
X849896Y583401D01*
X850643Y583789D01*
X851399Y584158D01*
X852164Y584508D01*
X852938Y584840D01*
X853719Y585152D01*
X854508Y585446D01*
X855304Y585719D01*
X856106Y585973D01*
X856914Y586208D01*
X857728Y586422D01*
X858547Y586617D01*
X859370Y586791D01*
X860198Y586945D01*
X861029Y587079D01*
X861863Y587192D01*
X862699Y587285D01*
X863537Y587357D01*
X864377Y587409D01*
X865218Y587440D01*
X866060Y587450D01*
X866902Y587440D01*
X867743Y587409D01*
X868583Y587357D01*
X869421Y587285D01*
X870257Y587192D01*
X871091Y587079D01*
X871922Y586945D01*
X872750Y586791D01*
X873573Y586617D01*
X874392Y586422D01*
X875206Y586208D01*
X876014Y585973D01*
X876816Y585719D01*
X877612Y585446D01*
X878401Y585152D01*
X879182Y584840D01*
X879956Y584508D01*
X880721Y584158D01*
X881477Y583789D01*
X882224Y583401D01*
X882961Y582995D01*
X883689Y582572D01*
X884405Y582130D01*
X885111Y581671D01*
X885804Y581195D01*
X886487Y580702D01*
X887156Y580192D01*
X887813Y579667D01*
X888457Y579125D01*
X889088Y578567D01*
X889704Y577994D01*
X890307Y577407D01*
X890894Y576804D01*
X891467Y576188D01*
X892025Y575557D01*
X892567Y574913D01*
X893092Y574256D01*
X893602Y573587D01*
X894095Y572904D01*
X894571Y572211D01*
X895030Y571505D01*
X895472Y570789D01*
X895895Y570061D01*
X896301Y569324D01*
X896689Y568577D01*
X897058Y567821D01*
X897408Y567056D01*
X897740Y566282D01*
X898052Y565501D01*
X898346Y564712D01*
X898619Y563916D01*
X898873Y563114D01*
X899108Y562306D01*
X899322Y561492D01*
X899517Y560673D01*
X899691Y559850D01*
X899845Y559022D01*
X899979Y558191D01*
X900092Y557357D01*
X900185Y556521D01*
X900257Y555683D01*
X900309Y554843D01*
X900340Y554002D01*
X900350Y553160D01*
X900340Y552318D01*
X900309Y551477D01*
X900257Y550637D01*
X900185Y549799D01*
X900092Y548963D01*
X899979Y548129D01*
X899845Y547298D01*
X899691Y546470D01*
X899517Y545647D01*
X899322Y544828D01*
X899108Y544014D01*
X898873Y543206D01*
X898619Y542404D01*
X898346Y541608D01*
X898052Y540819D01*
X897740Y540038D01*
X897408Y539264D01*
X897058Y538499D01*
X896689Y537743D01*
X896301Y536996D01*
X895895Y536259D01*
X895472Y535531D01*
X895030Y534815D01*
X894571Y534109D01*
X894095Y533416D01*
X893602Y532733D01*
X893092Y532064D01*
X892567Y531407D01*
X892025Y530763D01*
X891467Y530132D01*
X890894Y529516D01*
X890307Y528913D01*
X889704Y528326D01*
X889088Y527753D01*
X888457Y527195D01*
X887813Y526653D01*
X887156Y526128D01*
X886487Y525618D01*
X885804Y525125D01*
X885111Y524649D01*
X884405Y524190D01*
X883689Y523748D01*
X882961Y523325D01*
X882224Y522919D01*
X881477Y522531D01*
X880721Y522162D01*
X879956Y521812D01*
X879182Y521480D01*
X878401Y521168D01*
X877612Y520874D01*
X876816Y520601D01*
X876014Y520347D01*
X875206Y520112D01*
X874392Y519898D01*
X873573Y519703D01*
X872750Y519529D01*
X871922Y519375D01*
X871091Y519241D01*
X870257Y519128D01*
X869421Y519035D01*
X868583Y518963D01*
X867743Y518911D01*
X866902Y518880D01*
X866060Y518870D01*
X865218Y518880D01*
X864377Y518911D01*
X863537Y518963D01*
X862699Y519035D01*
X861863Y519128D01*
X861029Y519241D01*
X860198Y519375D01*
X859370Y519529D01*
X858547Y519703D01*
X857728Y519898D01*
X856914Y520112D01*
X856106Y520347D01*
X855304Y520601D01*
X854508Y520874D01*
X853719Y521168D01*
X852938Y521480D01*
X852164Y521812D01*
X851399Y522162D01*
X850643Y522531D01*
X849896Y522919D01*
X849159Y523325D01*
X848431Y523748D01*
X847715Y524190D01*
X847009Y524649D01*
X846316Y525125D01*
X845633Y525618D01*
X844964Y526128D01*
X844307Y526653D01*
X843663Y527195D01*
X843032Y527753D01*
X842416Y528326D01*
X841813Y528913D01*
X841226Y529516D01*
X840653Y530132D01*
X840095Y530763D01*
X839553Y531407D01*
X839028Y532064D01*
X838518Y532733D01*
X838025Y533416D01*
X837549Y534109D01*
X837090Y534815D01*
X836648Y535531D01*
X836225Y536259D01*
X835819Y536996D01*
X835431Y537743D01*
X835062Y538499D01*
X834712Y539264D01*
X834380Y540038D01*
X834068Y540819D01*
X833774Y541608D01*
X833501Y542404D01*
X833247Y543206D01*
X833012Y544014D01*
X832798Y544828D01*
X832603Y545647D01*
X832429Y546470D01*
X832275Y547298D01*
X832141Y548129D01*
X832028Y548963D01*
X831935Y549799D01*
X831863Y550637D01*
X831811Y551477D01*
X831780Y552318D01*
X831770Y553160D01*
D15*
X849060Y553160D02*
X849065Y553577D01*
X849080Y553994D01*
X849106Y554411D01*
X849142Y554826D01*
X849188Y555241D01*
X849244Y555654D01*
X849310Y556066D01*
X849387Y556477D01*
X849473Y556885D01*
X849569Y557291D01*
X849676Y557694D01*
X849792Y558095D01*
X849918Y558493D01*
X850054Y558887D01*
X850199Y559278D01*
X850354Y559666D01*
X850518Y560049D01*
X850692Y560428D01*
X850875Y560803D01*
X851067Y561174D01*
X851269Y561539D01*
X851479Y561900D01*
X851697Y562255D01*
X851925Y562605D01*
X852161Y562949D01*
X852405Y563287D01*
X852658Y563619D01*
X852919Y563945D01*
X853187Y564264D01*
X853464Y564577D01*
X853748Y564882D01*
X854039Y565181D01*
X854338Y565472D01*
X854643Y565756D01*
X854956Y566033D01*
X855275Y566301D01*
X855601Y566562D01*
X855933Y566815D01*
X856271Y567059D01*
X856615Y567295D01*
X856965Y567523D01*
X857320Y567741D01*
X857681Y567951D01*
X858046Y568153D01*
X858417Y568345D01*
X858792Y568528D01*
X859171Y568702D01*
X859554Y568866D01*
X859942Y569021D01*
X860333Y569166D01*
X860727Y569302D01*
X861125Y569428D01*
X861526Y569544D01*
X861929Y569651D01*
X862335Y569747D01*
X862743Y569833D01*
X863154Y569910D01*
X863566Y569976D01*
X863979Y570032D01*
X864394Y570078D01*
X864809Y570114D01*
X865226Y570140D01*
X865643Y570155D01*
X866060Y570160D01*
X866477Y570155D01*
X866894Y570140D01*
X867311Y570114D01*
X867726Y570078D01*
X868141Y570032D01*
X868554Y569976D01*
X868966Y569910D01*
X869377Y569833D01*
X869785Y569747D01*
X870191Y569651D01*
X870594Y569544D01*
X870995Y569428D01*
X871393Y569302D01*
X871787Y569166D01*
X872178Y569021D01*
X872566Y568866D01*
X872949Y568702D01*
X873328Y568528D01*
X873703Y568345D01*
X874074Y568153D01*
X874439Y567951D01*
X874800Y567741D01*
X875155Y567523D01*
X875505Y567295D01*
X875849Y567059D01*
X876187Y566815D01*
X876519Y566562D01*
X876845Y566301D01*
X877164Y566033D01*
X877477Y565756D01*
X877782Y565472D01*
X878081Y565181D01*
X878372Y564882D01*
X878656Y564577D01*
X878933Y564264D01*
X879201Y563945D01*
X879462Y563619D01*
X879715Y563287D01*
X879959Y562949D01*
X880195Y562605D01*
X880423Y562255D01*
X880641Y561900D01*
X880851Y561539D01*
X881053Y561174D01*
X881245Y560803D01*
X881428Y560428D01*
X881602Y560049D01*
X881766Y559666D01*
X881921Y559278D01*
X882066Y558887D01*
X882202Y558493D01*
X882328Y558095D01*
X882444Y557694D01*
X882551Y557291D01*
X882647Y556885D01*
X882733Y556477D01*
X882810Y556066D01*
X882876Y555654D01*
X882932Y555241D01*
X882978Y554826D01*
X883014Y554411D01*
X883040Y553994D01*
X883055Y553577D01*
X883060Y553160D01*
X883055Y552743D01*
X883040Y552326D01*
X883014Y551909D01*
X882978Y551494D01*
X882932Y551079D01*
X882876Y550666D01*
X882810Y550254D01*
X882733Y549843D01*
X882647Y549435D01*
X882551Y549029D01*
X882444Y548626D01*
X882328Y548225D01*
X882202Y547827D01*
X882066Y547433D01*
X881921Y547042D01*
X881766Y546654D01*
X881602Y546271D01*
X881428Y545892D01*
X881245Y545517D01*
X881053Y545146D01*
X880851Y544781D01*
X880641Y544420D01*
X880423Y544065D01*
X880195Y543715D01*
X879959Y543371D01*
X879715Y543033D01*
X879462Y542701D01*
X879201Y542375D01*
X878933Y542056D01*
X878656Y541743D01*
X878372Y541438D01*
X878081Y541139D01*
X877782Y540848D01*
X877477Y540564D01*
X877164Y540287D01*
X876845Y540019D01*
X876519Y539758D01*
X876187Y539505D01*
X875849Y539261D01*
X875505Y539025D01*
X875155Y538797D01*
X874800Y538579D01*
X874439Y538369D01*
X874074Y538167D01*
X873703Y537975D01*
X873328Y537792D01*
X872949Y537618D01*
X872566Y537454D01*
X872178Y537299D01*
X871787Y537154D01*
X871393Y537018D01*
X870995Y536892D01*
X870594Y536776D01*
X870191Y536669D01*
X869785Y536573D01*
X869377Y536487D01*
X868966Y536410D01*
X868554Y536344D01*
X868141Y536288D01*
X867726Y536242D01*
X867311Y536206D01*
X866894Y536180D01*
X866477Y536165D01*
X866060Y536160D01*
X865643Y536165D01*
X865226Y536180D01*
X864809Y536206D01*
X864394Y536242D01*
X863979Y536288D01*
X863566Y536344D01*
X863154Y536410D01*
X862743Y536487D01*
X862335Y536573D01*
X861929Y536669D01*
X861526Y536776D01*
X861125Y536892D01*
X860727Y537018D01*
X860333Y537154D01*
X859942Y537299D01*
X859554Y537454D01*
X859171Y537618D01*
X858792Y537792D01*
X858417Y537975D01*
X858046Y538167D01*
X857681Y538369D01*
X857320Y538579D01*
X856965Y538797D01*
X856615Y539025D01*
X856271Y539261D01*
X855933Y539505D01*
X855601Y539758D01*
X855275Y540019D01*
X854956Y540287D01*
X854643Y540564D01*
X854338Y540848D01*
X854039Y541139D01*
X853748Y541438D01*
X853464Y541743D01*
X853187Y542056D01*
X852919Y542375D01*
X852658Y542701D01*
X852405Y543033D01*
X852161Y543371D01*
X851925Y543715D01*
X851697Y544065D01*
X851479Y544420D01*
X851269Y544781D01*
X851067Y545146D01*
X850875Y545517D01*
X850692Y545892D01*
X850518Y546271D01*
X850354Y546654D01*
X850199Y547042D01*
X850054Y547433D01*
X849918Y547827D01*
X849792Y548225D01*
X849676Y548626D01*
X849569Y549029D01*
X849473Y549435D01*
X849387Y549843D01*
X849310Y550254D01*
X849244Y550666D01*
X849188Y551079D01*
X849142Y551494D01*
X849106Y551909D01*
X849080Y552326D01*
X849065Y552743D01*
X849060Y553160D01*
D10*
X78740Y459740D02*
X78745Y460114D01*
X78758Y460488D01*
X78781Y460861D01*
X78813Y461234D01*
X78855Y461606D01*
X78905Y461976D01*
X78964Y462345D01*
X79033Y462713D01*
X79110Y463079D01*
X79197Y463443D01*
X79292Y463805D01*
X79396Y464164D01*
X79509Y464521D01*
X79631Y464874D01*
X79761Y465225D01*
X79900Y465572D01*
X80047Y465916D01*
X80203Y466256D01*
X80367Y466592D01*
X80540Y466924D01*
X80720Y467252D01*
X80908Y467575D01*
X81104Y467893D01*
X81308Y468207D01*
X81520Y468515D01*
X81739Y468818D01*
X81966Y469116D01*
X82199Y469408D01*
X82440Y469694D01*
X82688Y469975D01*
X82942Y470249D01*
X83204Y470516D01*
X83471Y470778D01*
X83745Y471032D01*
X84026Y471280D01*
X84312Y471521D01*
X84604Y471754D01*
X84902Y471981D01*
X85205Y472200D01*
X85513Y472412D01*
X85827Y472616D01*
X86145Y472812D01*
X86468Y473000D01*
X86796Y473180D01*
X87128Y473353D01*
X87464Y473517D01*
X87804Y473673D01*
X88148Y473820D01*
X88495Y473959D01*
X88846Y474089D01*
X89199Y474211D01*
X89556Y474324D01*
X89915Y474428D01*
X90277Y474523D01*
X90641Y474610D01*
X91007Y474687D01*
X91375Y474756D01*
X91744Y474815D01*
X92114Y474865D01*
X92486Y474907D01*
X92859Y474939D01*
X93232Y474962D01*
X93606Y474975D01*
X93980Y474980D01*
X94354Y474975D01*
X94728Y474962D01*
X95101Y474939D01*
X95474Y474907D01*
X95846Y474865D01*
X96216Y474815D01*
X96585Y474756D01*
X96953Y474687D01*
X97319Y474610D01*
X97683Y474523D01*
X98045Y474428D01*
X98404Y474324D01*
X98761Y474211D01*
X99114Y474089D01*
X99465Y473959D01*
X99812Y473820D01*
X100156Y473673D01*
X100496Y473517D01*
X100832Y473353D01*
X101164Y473180D01*
X101492Y473000D01*
X101815Y472812D01*
X102133Y472616D01*
X102447Y472412D01*
X102755Y472200D01*
X103058Y471981D01*
X103356Y471754D01*
X103648Y471521D01*
X103934Y471280D01*
X104215Y471032D01*
X104489Y470778D01*
X104756Y470516D01*
X105018Y470249D01*
X105272Y469975D01*
X105520Y469694D01*
X105761Y469408D01*
X105994Y469116D01*
X106221Y468818D01*
X106440Y468515D01*
X106652Y468207D01*
X106856Y467893D01*
X107052Y467575D01*
X107240Y467252D01*
X107420Y466924D01*
X107593Y466592D01*
X107757Y466256D01*
X107913Y465916D01*
X108060Y465572D01*
X108199Y465225D01*
X108329Y464874D01*
X108451Y464521D01*
X108564Y464164D01*
X108668Y463805D01*
X108763Y463443D01*
X108850Y463079D01*
X108927Y462713D01*
X108996Y462345D01*
X109055Y461976D01*
X109105Y461606D01*
X109147Y461234D01*
X109179Y460861D01*
X109202Y460488D01*
X109215Y460114D01*
X109220Y459740D01*
X109215Y459366D01*
X109202Y458992D01*
X109179Y458619D01*
X109147Y458246D01*
X109105Y457874D01*
X109055Y457504D01*
X108996Y457135D01*
X108927Y456767D01*
X108850Y456401D01*
X108763Y456037D01*
X108668Y455675D01*
X108564Y455316D01*
X108451Y454959D01*
X108329Y454606D01*
X108199Y454255D01*
X108060Y453908D01*
X107913Y453564D01*
X107757Y453224D01*
X107593Y452888D01*
X107420Y452556D01*
X107240Y452228D01*
X107052Y451905D01*
X106856Y451587D01*
X106652Y451273D01*
X106440Y450965D01*
X106221Y450662D01*
X105994Y450364D01*
X105761Y450072D01*
X105520Y449786D01*
X105272Y449505D01*
X105018Y449231D01*
X104756Y448964D01*
X104489Y448702D01*
X104215Y448448D01*
X103934Y448200D01*
X103648Y447959D01*
X103356Y447726D01*
X103058Y447499D01*
X102755Y447280D01*
X102447Y447068D01*
X102133Y446864D01*
X101815Y446668D01*
X101492Y446480D01*
X101164Y446300D01*
X100832Y446127D01*
X100496Y445963D01*
X100156Y445807D01*
X99812Y445660D01*
X99465Y445521D01*
X99114Y445391D01*
X98761Y445269D01*
X98404Y445156D01*
X98045Y445052D01*
X97683Y444957D01*
X97319Y444870D01*
X96953Y444793D01*
X96585Y444724D01*
X96216Y444665D01*
X95846Y444615D01*
X95474Y444573D01*
X95101Y444541D01*
X94728Y444518D01*
X94354Y444505D01*
X93980Y444500D01*
X93606Y444505D01*
X93232Y444518D01*
X92859Y444541D01*
X92486Y444573D01*
X92114Y444615D01*
X91744Y444665D01*
X91375Y444724D01*
X91007Y444793D01*
X90641Y444870D01*
X90277Y444957D01*
X89915Y445052D01*
X89556Y445156D01*
X89199Y445269D01*
X88846Y445391D01*
X88495Y445521D01*
X88148Y445660D01*
X87804Y445807D01*
X87464Y445963D01*
X87128Y446127D01*
X86796Y446300D01*
X86468Y446480D01*
X86145Y446668D01*
X85827Y446864D01*
X85513Y447068D01*
X85205Y447280D01*
X84902Y447499D01*
X84604Y447726D01*
X84312Y447959D01*
X84026Y448200D01*
X83745Y448448D01*
X83471Y448702D01*
X83204Y448964D01*
X82942Y449231D01*
X82688Y449505D01*
X82440Y449786D01*
X82199Y450072D01*
X81966Y450364D01*
X81739Y450662D01*
X81520Y450965D01*
X81308Y451273D01*
X81104Y451587D01*
X80908Y451905D01*
X80720Y452228D01*
X80540Y452556D01*
X80367Y452888D01*
X80203Y453224D01*
X80047Y453564D01*
X79900Y453908D01*
X79761Y454255D01*
X79631Y454606D01*
X79509Y454959D01*
X79396Y455316D01*
X79292Y455675D01*
X79197Y456037D01*
X79110Y456401D01*
X79033Y456767D01*
X78964Y457135D01*
X78905Y457504D01*
X78855Y457874D01*
X78813Y458246D01*
X78781Y458619D01*
X78758Y458992D01*
X78745Y459366D01*
X78740Y459740D01*
D18*
X81661Y459740D03*
D14*
X55987Y448955D02*
X55987Y437515D01*
X55987Y448955D02*
X61707Y448955D01*
X63614Y447048D01*
X63614Y443235D01*
X61707Y441328D01*
X55987Y441328D01*
X59800Y441328D02*
X63614Y437515D01*
X73401Y437515D02*
X73401Y448955D01*
X67681Y443235D01*
X75308Y443235D01*
D10*
X78740Y436880D02*
X78745Y437254D01*
X78758Y437628D01*
X78781Y438001D01*
X78813Y438374D01*
X78855Y438746D01*
X78905Y439116D01*
X78964Y439485D01*
X79033Y439853D01*
X79110Y440219D01*
X79197Y440583D01*
X79292Y440945D01*
X79396Y441304D01*
X79509Y441661D01*
X79631Y442014D01*
X79761Y442365D01*
X79900Y442712D01*
X80047Y443056D01*
X80203Y443396D01*
X80367Y443732D01*
X80540Y444064D01*
X80720Y444392D01*
X80908Y444715D01*
X81104Y445033D01*
X81308Y445347D01*
X81520Y445655D01*
X81739Y445958D01*
X81966Y446256D01*
X82199Y446548D01*
X82440Y446834D01*
X82688Y447115D01*
X82942Y447389D01*
X83204Y447656D01*
X83471Y447918D01*
X83745Y448172D01*
X84026Y448420D01*
X84312Y448661D01*
X84604Y448894D01*
X84902Y449121D01*
X85205Y449340D01*
X85513Y449552D01*
X85827Y449756D01*
X86145Y449952D01*
X86468Y450140D01*
X86796Y450320D01*
X87128Y450493D01*
X87464Y450657D01*
X87804Y450813D01*
X88148Y450960D01*
X88495Y451099D01*
X88846Y451229D01*
X89199Y451351D01*
X89556Y451464D01*
X89915Y451568D01*
X90277Y451663D01*
X90641Y451750D01*
X91007Y451827D01*
X91375Y451896D01*
X91744Y451955D01*
X92114Y452005D01*
X92486Y452047D01*
X92859Y452079D01*
X93232Y452102D01*
X93606Y452115D01*
X93980Y452120D01*
X94354Y452115D01*
X94728Y452102D01*
X95101Y452079D01*
X95474Y452047D01*
X95846Y452005D01*
X96216Y451955D01*
X96585Y451896D01*
X96953Y451827D01*
X97319Y451750D01*
X97683Y451663D01*
X98045Y451568D01*
X98404Y451464D01*
X98761Y451351D01*
X99114Y451229D01*
X99465Y451099D01*
X99812Y450960D01*
X100156Y450813D01*
X100496Y450657D01*
X100832Y450493D01*
X101164Y450320D01*
X101492Y450140D01*
X101815Y449952D01*
X102133Y449756D01*
X102447Y449552D01*
X102755Y449340D01*
X103058Y449121D01*
X103356Y448894D01*
X103648Y448661D01*
X103934Y448420D01*
X104215Y448172D01*
X104489Y447918D01*
X104756Y447656D01*
X105018Y447389D01*
X105272Y447115D01*
X105520Y446834D01*
X105761Y446548D01*
X105994Y446256D01*
X106221Y445958D01*
X106440Y445655D01*
X106652Y445347D01*
X106856Y445033D01*
X107052Y444715D01*
X107240Y444392D01*
X107420Y444064D01*
X107593Y443732D01*
X107757Y443396D01*
X107913Y443056D01*
X108060Y442712D01*
X108199Y442365D01*
X108329Y442014D01*
X108451Y441661D01*
X108564Y441304D01*
X108668Y440945D01*
X108763Y440583D01*
X108850Y440219D01*
X108927Y439853D01*
X108996Y439485D01*
X109055Y439116D01*
X109105Y438746D01*
X109147Y438374D01*
X109179Y438001D01*
X109202Y437628D01*
X109215Y437254D01*
X109220Y436880D01*
X109215Y436506D01*
X109202Y436132D01*
X109179Y435759D01*
X109147Y435386D01*
X109105Y435014D01*
X109055Y434644D01*
X108996Y434275D01*
X108927Y433907D01*
X108850Y433541D01*
X108763Y433177D01*
X108668Y432815D01*
X108564Y432456D01*
X108451Y432099D01*
X108329Y431746D01*
X108199Y431395D01*
X108060Y431048D01*
X107913Y430704D01*
X107757Y430364D01*
X107593Y430028D01*
X107420Y429696D01*
X107240Y429368D01*
X107052Y429045D01*
X106856Y428727D01*
X106652Y428413D01*
X106440Y428105D01*
X106221Y427802D01*
X105994Y427504D01*
X105761Y427212D01*
X105520Y426926D01*
X105272Y426645D01*
X105018Y426371D01*
X104756Y426104D01*
X104489Y425842D01*
X104215Y425588D01*
X103934Y425340D01*
X103648Y425099D01*
X103356Y424866D01*
X103058Y424639D01*
X102755Y424420D01*
X102447Y424208D01*
X102133Y424004D01*
X101815Y423808D01*
X101492Y423620D01*
X101164Y423440D01*
X100832Y423267D01*
X100496Y423103D01*
X100156Y422947D01*
X99812Y422800D01*
X99465Y422661D01*
X99114Y422531D01*
X98761Y422409D01*
X98404Y422296D01*
X98045Y422192D01*
X97683Y422097D01*
X97319Y422010D01*
X96953Y421933D01*
X96585Y421864D01*
X96216Y421805D01*
X95846Y421755D01*
X95474Y421713D01*
X95101Y421681D01*
X94728Y421658D01*
X94354Y421645D01*
X93980Y421640D01*
X93606Y421645D01*
X93232Y421658D01*
X92859Y421681D01*
X92486Y421713D01*
X92114Y421755D01*
X91744Y421805D01*
X91375Y421864D01*
X91007Y421933D01*
X90641Y422010D01*
X90277Y422097D01*
X89915Y422192D01*
X89556Y422296D01*
X89199Y422409D01*
X88846Y422531D01*
X88495Y422661D01*
X88148Y422800D01*
X87804Y422947D01*
X87464Y423103D01*
X87128Y423267D01*
X86796Y423440D01*
X86468Y423620D01*
X86145Y423808D01*
X85827Y424004D01*
X85513Y424208D01*
X85205Y424420D01*
X84902Y424639D01*
X84604Y424866D01*
X84312Y425099D01*
X84026Y425340D01*
X83745Y425588D01*
X83471Y425842D01*
X83204Y426104D01*
X82942Y426371D01*
X82688Y426645D01*
X82440Y426926D01*
X82199Y427212D01*
X81966Y427504D01*
X81739Y427802D01*
X81520Y428105D01*
X81308Y428413D01*
X81104Y428727D01*
X80908Y429045D01*
X80720Y429368D01*
X80540Y429696D01*
X80367Y430028D01*
X80203Y430364D01*
X80047Y430704D01*
X79900Y431048D01*
X79761Y431395D01*
X79631Y431746D01*
X79509Y432099D01*
X79396Y432456D01*
X79292Y432815D01*
X79197Y433177D01*
X79110Y433541D01*
X79033Y433907D01*
X78964Y434275D01*
X78905Y434644D01*
X78855Y435014D01*
X78813Y435386D01*
X78781Y435759D01*
X78758Y436132D01*
X78745Y436506D01*
X78740Y436880D01*
D18*
X81661Y436880D03*
D14*
X55987Y426095D02*
X55987Y414655D01*
X55987Y426095D02*
X61707Y426095D01*
X63614Y424188D01*
X63614Y420375D01*
X61707Y418468D01*
X55987Y418468D01*
X59800Y418468D02*
X63614Y414655D01*
X71494Y424188D02*
X75308Y426095D01*
X71494Y424188D02*
X67681Y420375D01*
X67681Y416562D01*
X69588Y414655D01*
X73401Y414655D01*
X75308Y416562D01*
X75308Y418468D01*
X73401Y420375D01*
X67681Y420375D01*
D10*
X528320Y210820D02*
X528322Y210720D01*
X528328Y210621D01*
X528338Y210521D01*
X528351Y210423D01*
X528369Y210324D01*
X528390Y210227D01*
X528415Y210131D01*
X528444Y210035D01*
X528477Y209941D01*
X528513Y209848D01*
X528553Y209757D01*
X528597Y209667D01*
X528644Y209579D01*
X528694Y209493D01*
X528748Y209409D01*
X528805Y209327D01*
X528865Y209248D01*
X528929Y209170D01*
X528995Y209096D01*
X529064Y209024D01*
X529136Y208955D01*
X529210Y208889D01*
X529288Y208825D01*
X529367Y208765D01*
X529449Y208708D01*
X529533Y208654D01*
X529619Y208604D01*
X529707Y208557D01*
X529797Y208513D01*
X529888Y208473D01*
X529981Y208437D01*
X530075Y208404D01*
X530171Y208375D01*
X530267Y208350D01*
X530364Y208329D01*
X530463Y208311D01*
X530561Y208298D01*
X530661Y208288D01*
X530760Y208282D01*
X530860Y208280D01*
X546100Y208280D02*
X546200Y208282D01*
X546299Y208288D01*
X546399Y208298D01*
X546497Y208311D01*
X546596Y208329D01*
X546693Y208350D01*
X546789Y208375D01*
X546885Y208404D01*
X546979Y208437D01*
X547072Y208473D01*
X547163Y208513D01*
X547253Y208557D01*
X547341Y208604D01*
X547427Y208654D01*
X547511Y208708D01*
X547593Y208765D01*
X547672Y208825D01*
X547750Y208889D01*
X547824Y208955D01*
X547896Y209024D01*
X547965Y209096D01*
X548031Y209170D01*
X548095Y209248D01*
X548155Y209327D01*
X548212Y209409D01*
X548266Y209493D01*
X548316Y209579D01*
X548363Y209667D01*
X548407Y209757D01*
X548447Y209848D01*
X548483Y209941D01*
X548516Y210035D01*
X548545Y210131D01*
X548570Y210227D01*
X548591Y210324D01*
X548609Y210423D01*
X548622Y210521D01*
X548632Y210621D01*
X548638Y210720D01*
X548640Y210820D01*
X548640Y256540D02*
X548638Y256640D01*
X548632Y256739D01*
X548622Y256839D01*
X548609Y256937D01*
X548591Y257036D01*
X548570Y257133D01*
X548545Y257229D01*
X548516Y257325D01*
X548483Y257419D01*
X548447Y257512D01*
X548407Y257603D01*
X548363Y257693D01*
X548316Y257781D01*
X548266Y257867D01*
X548212Y257951D01*
X548155Y258033D01*
X548095Y258112D01*
X548031Y258190D01*
X547965Y258264D01*
X547896Y258336D01*
X547824Y258405D01*
X547750Y258471D01*
X547672Y258535D01*
X547593Y258595D01*
X547511Y258652D01*
X547427Y258706D01*
X547341Y258756D01*
X547253Y258803D01*
X547163Y258847D01*
X547072Y258887D01*
X546979Y258923D01*
X546885Y258956D01*
X546789Y258985D01*
X546693Y259010D01*
X546596Y259031D01*
X546497Y259049D01*
X546399Y259062D01*
X546299Y259072D01*
X546200Y259078D01*
X546100Y259080D01*
X530860Y259080D02*
X530760Y259078D01*
X530661Y259072D01*
X530561Y259062D01*
X530463Y259049D01*
X530364Y259031D01*
X530267Y259010D01*
X530171Y258985D01*
X530075Y258956D01*
X529981Y258923D01*
X529888Y258887D01*
X529797Y258847D01*
X529707Y258803D01*
X529619Y258756D01*
X529533Y258706D01*
X529449Y258652D01*
X529367Y258595D01*
X529288Y258535D01*
X529210Y258471D01*
X529136Y258405D01*
X529064Y258336D01*
X528995Y258264D01*
X528929Y258190D01*
X528865Y258112D01*
X528805Y258033D01*
X528748Y257951D01*
X528694Y257867D01*
X528644Y257781D01*
X528597Y257693D01*
X528553Y257603D01*
X528513Y257512D01*
X528477Y257419D01*
X528444Y257325D01*
X528415Y257229D01*
X528390Y257133D01*
X528369Y257036D01*
X528351Y256937D01*
X528338Y256839D01*
X528328Y256739D01*
X528322Y256640D01*
X528320Y256540D01*
X530860Y208280D02*
X546100Y208280D01*
X528320Y210820D02*
X528320Y214630D01*
X529590Y215900D01*
X548640Y214630D02*
X548640Y210820D01*
X548640Y214630D02*
X547370Y215900D01*
X529590Y251460D02*
X528320Y252730D01*
X529590Y251460D02*
X529590Y215900D01*
X547370Y251460D02*
X548640Y252730D01*
X547370Y251460D02*
X547370Y215900D01*
X528320Y252730D02*
X528320Y256540D01*
X548640Y256540D02*
X548640Y252730D01*
X546100Y259080D02*
X530860Y259080D01*
D11*
X538480Y260985D03*
X538480Y206375D03*
D12*
X525018Y208788D02*
X516120Y208788D01*
X516120Y213237D01*
X517603Y214720D01*
X520569Y214720D01*
X522052Y213237D01*
X522052Y208788D01*
X522052Y211754D02*
X525018Y214720D01*
X516120Y217909D02*
X516120Y223841D01*
X517603Y223841D01*
X523535Y217909D01*
X525018Y217909D01*
D10*
X525780Y154940D02*
X525778Y154840D01*
X525772Y154741D01*
X525762Y154641D01*
X525749Y154543D01*
X525731Y154444D01*
X525710Y154347D01*
X525685Y154251D01*
X525656Y154155D01*
X525623Y154061D01*
X525587Y153968D01*
X525547Y153877D01*
X525503Y153787D01*
X525456Y153699D01*
X525406Y153613D01*
X525352Y153529D01*
X525295Y153447D01*
X525235Y153368D01*
X525171Y153290D01*
X525105Y153216D01*
X525036Y153144D01*
X524964Y153075D01*
X524890Y153009D01*
X524812Y152945D01*
X524733Y152885D01*
X524651Y152828D01*
X524567Y152774D01*
X524481Y152724D01*
X524393Y152677D01*
X524303Y152633D01*
X524212Y152593D01*
X524119Y152557D01*
X524025Y152524D01*
X523929Y152495D01*
X523833Y152470D01*
X523736Y152449D01*
X523637Y152431D01*
X523539Y152418D01*
X523439Y152408D01*
X523340Y152402D01*
X523240Y152400D01*
X525780Y170180D02*
X525778Y170280D01*
X525772Y170379D01*
X525762Y170479D01*
X525749Y170577D01*
X525731Y170676D01*
X525710Y170773D01*
X525685Y170869D01*
X525656Y170965D01*
X525623Y171059D01*
X525587Y171152D01*
X525547Y171243D01*
X525503Y171333D01*
X525456Y171421D01*
X525406Y171507D01*
X525352Y171591D01*
X525295Y171673D01*
X525235Y171752D01*
X525171Y171830D01*
X525105Y171904D01*
X525036Y171976D01*
X524964Y172045D01*
X524890Y172111D01*
X524812Y172175D01*
X524733Y172235D01*
X524651Y172292D01*
X524567Y172346D01*
X524481Y172396D01*
X524393Y172443D01*
X524303Y172487D01*
X524212Y172527D01*
X524119Y172563D01*
X524025Y172596D01*
X523929Y172625D01*
X523833Y172650D01*
X523736Y172671D01*
X523637Y172689D01*
X523539Y172702D01*
X523439Y172712D01*
X523340Y172718D01*
X523240Y172720D01*
X477520Y172720D02*
X477420Y172718D01*
X477321Y172712D01*
X477221Y172702D01*
X477123Y172689D01*
X477024Y172671D01*
X476927Y172650D01*
X476831Y172625D01*
X476735Y172596D01*
X476641Y172563D01*
X476548Y172527D01*
X476457Y172487D01*
X476367Y172443D01*
X476279Y172396D01*
X476193Y172346D01*
X476109Y172292D01*
X476027Y172235D01*
X475948Y172175D01*
X475870Y172111D01*
X475796Y172045D01*
X475724Y171976D01*
X475655Y171904D01*
X475589Y171830D01*
X475525Y171752D01*
X475465Y171673D01*
X475408Y171591D01*
X475354Y171507D01*
X475304Y171421D01*
X475257Y171333D01*
X475213Y171243D01*
X475173Y171152D01*
X475137Y171059D01*
X475104Y170965D01*
X475075Y170869D01*
X475050Y170773D01*
X475029Y170676D01*
X475011Y170577D01*
X474998Y170479D01*
X474988Y170379D01*
X474982Y170280D01*
X474980Y170180D01*
X474980Y154940D02*
X474982Y154840D01*
X474988Y154741D01*
X474998Y154641D01*
X475011Y154543D01*
X475029Y154444D01*
X475050Y154347D01*
X475075Y154251D01*
X475104Y154155D01*
X475137Y154061D01*
X475173Y153968D01*
X475213Y153877D01*
X475257Y153787D01*
X475304Y153699D01*
X475354Y153613D01*
X475408Y153529D01*
X475465Y153447D01*
X475525Y153368D01*
X475589Y153290D01*
X475655Y153216D01*
X475724Y153144D01*
X475796Y153075D01*
X475870Y153009D01*
X475948Y152945D01*
X476027Y152885D01*
X476109Y152828D01*
X476193Y152774D01*
X476279Y152724D01*
X476367Y152677D01*
X476457Y152633D01*
X476548Y152593D01*
X476641Y152557D01*
X476735Y152524D01*
X476831Y152495D01*
X476927Y152470D01*
X477024Y152449D01*
X477123Y152431D01*
X477221Y152418D01*
X477321Y152408D01*
X477420Y152402D01*
X477520Y152400D01*
X525780Y154940D02*
X525780Y170180D01*
X523240Y152400D02*
X519430Y152400D01*
X518160Y153670D01*
X519430Y172720D02*
X523240Y172720D01*
X519430Y172720D02*
X518160Y171450D01*
X482600Y153670D02*
X481330Y152400D01*
X482600Y153670D02*
X518160Y153670D01*
X482600Y171450D02*
X481330Y172720D01*
X482600Y171450D02*
X518160Y171450D01*
X481330Y152400D02*
X477520Y152400D01*
X477520Y172720D02*
X481330Y172720D01*
X474980Y170180D02*
X474980Y154940D01*
D17*
X473075Y162560D03*
X527685Y162560D03*
D12*
X513125Y144026D02*
X513125Y135128D01*
X513125Y144026D02*
X517574Y144026D01*
X519057Y142543D01*
X519057Y139577D01*
X517574Y138094D01*
X513125Y138094D01*
X516091Y138094D02*
X519057Y135128D01*
X522247Y142543D02*
X523730Y144026D01*
X526695Y144026D01*
X528178Y142543D01*
X528178Y141060D01*
X526695Y139577D01*
X525213Y139577D01*
X526695Y139577D02*
X528178Y138094D01*
X528178Y136611D01*
X526695Y135128D01*
X523730Y135128D01*
X522247Y136611D01*
D10*
X678180Y417830D02*
X678180Y430530D01*
X678180Y417830D02*
X671830Y411480D01*
X659130Y411480D01*
X652780Y417830D01*
X678180Y455930D02*
X671830Y462280D01*
X678180Y455930D02*
X678180Y443230D01*
X671830Y436880D01*
X659130Y436880D01*
X652780Y443230D01*
X652780Y455930D01*
X659130Y462280D01*
X671830Y436880D02*
X678180Y430530D01*
X659130Y436880D02*
X652780Y430530D01*
X652780Y417830D01*
X678180Y494030D02*
X678180Y506730D01*
X678180Y494030D02*
X671830Y487680D01*
X659130Y487680D01*
X652780Y494030D01*
X671830Y487680D02*
X678180Y481330D01*
X678180Y468630D01*
X671830Y462280D01*
X659130Y462280D01*
X652780Y468630D01*
X652780Y481330D01*
X659130Y487680D01*
X678180Y532130D02*
X671830Y538480D01*
X678180Y532130D02*
X678180Y519430D01*
X671830Y513080D01*
X659130Y513080D01*
X652780Y519430D01*
X652780Y532130D01*
X659130Y538480D01*
X671830Y513080D02*
X678180Y506730D01*
X659130Y513080D02*
X652780Y506730D01*
X652780Y494030D01*
X678180Y570230D02*
X678180Y582930D01*
X678180Y570230D02*
X671830Y563880D01*
X659130Y563880D01*
X652780Y570230D01*
X671830Y563880D02*
X678180Y557530D01*
X678180Y544830D01*
X671830Y538480D01*
X659130Y538480D01*
X652780Y544830D01*
X652780Y557530D01*
X659130Y563880D01*
X659130Y589280D02*
X671830Y589280D01*
X678180Y582930D01*
X659130Y589280D02*
X652780Y582930D01*
X652780Y570230D01*
X678180Y405130D02*
X678180Y392430D01*
X671830Y386080D01*
X659130Y386080D01*
X652780Y392430D01*
X671830Y411480D02*
X678180Y405130D01*
X659130Y411480D02*
X652780Y405130D01*
X652780Y392430D01*
D14*
X693926Y555595D02*
X695833Y557502D01*
X695833Y559408D01*
X693926Y561315D01*
X684393Y561315D01*
X684393Y559408D02*
X684393Y563222D01*
X684393Y567289D02*
X695833Y567289D01*
X684393Y567289D02*
X684393Y573009D01*
X686300Y574916D01*
X690113Y574916D01*
X692020Y573009D01*
X692020Y567289D01*
X688207Y578983D02*
X684393Y582796D01*
X695833Y582796D01*
X695833Y578983D02*
X695833Y586609D01*
D10*
X6910Y43100D02*
X6920Y43942D01*
X6951Y44783D01*
X7003Y45623D01*
X7075Y46461D01*
X7168Y47297D01*
X7281Y48131D01*
X7415Y48962D01*
X7569Y49790D01*
X7743Y50613D01*
X7938Y51432D01*
X8152Y52246D01*
X8387Y53054D01*
X8641Y53856D01*
X8914Y54652D01*
X9208Y55441D01*
X9520Y56222D01*
X9852Y56996D01*
X10202Y57761D01*
X10571Y58517D01*
X10959Y59264D01*
X11365Y60001D01*
X11788Y60729D01*
X12230Y61445D01*
X12689Y62151D01*
X13165Y62844D01*
X13658Y63527D01*
X14168Y64196D01*
X14693Y64853D01*
X15235Y65497D01*
X15793Y66128D01*
X16366Y66744D01*
X16953Y67347D01*
X17556Y67934D01*
X18172Y68507D01*
X18803Y69065D01*
X19447Y69607D01*
X20104Y70132D01*
X20773Y70642D01*
X21456Y71135D01*
X22149Y71611D01*
X22855Y72070D01*
X23571Y72512D01*
X24299Y72935D01*
X25036Y73341D01*
X25783Y73729D01*
X26539Y74098D01*
X27304Y74448D01*
X28078Y74780D01*
X28859Y75092D01*
X29648Y75386D01*
X30444Y75659D01*
X31246Y75913D01*
X32054Y76148D01*
X32868Y76362D01*
X33687Y76557D01*
X34510Y76731D01*
X35338Y76885D01*
X36169Y77019D01*
X37003Y77132D01*
X37839Y77225D01*
X38677Y77297D01*
X39517Y77349D01*
X40358Y77380D01*
X41200Y77390D01*
X42042Y77380D01*
X42883Y77349D01*
X43723Y77297D01*
X44561Y77225D01*
X45397Y77132D01*
X46231Y77019D01*
X47062Y76885D01*
X47890Y76731D01*
X48713Y76557D01*
X49532Y76362D01*
X50346Y76148D01*
X51154Y75913D01*
X51956Y75659D01*
X52752Y75386D01*
X53541Y75092D01*
X54322Y74780D01*
X55096Y74448D01*
X55861Y74098D01*
X56617Y73729D01*
X57364Y73341D01*
X58101Y72935D01*
X58829Y72512D01*
X59545Y72070D01*
X60251Y71611D01*
X60944Y71135D01*
X61627Y70642D01*
X62296Y70132D01*
X62953Y69607D01*
X63597Y69065D01*
X64228Y68507D01*
X64844Y67934D01*
X65447Y67347D01*
X66034Y66744D01*
X66607Y66128D01*
X67165Y65497D01*
X67707Y64853D01*
X68232Y64196D01*
X68742Y63527D01*
X69235Y62844D01*
X69711Y62151D01*
X70170Y61445D01*
X70612Y60729D01*
X71035Y60001D01*
X71441Y59264D01*
X71829Y58517D01*
X72198Y57761D01*
X72548Y56996D01*
X72880Y56222D01*
X73192Y55441D01*
X73486Y54652D01*
X73759Y53856D01*
X74013Y53054D01*
X74248Y52246D01*
X74462Y51432D01*
X74657Y50613D01*
X74831Y49790D01*
X74985Y48962D01*
X75119Y48131D01*
X75232Y47297D01*
X75325Y46461D01*
X75397Y45623D01*
X75449Y44783D01*
X75480Y43942D01*
X75490Y43100D01*
X75480Y42258D01*
X75449Y41417D01*
X75397Y40577D01*
X75325Y39739D01*
X75232Y38903D01*
X75119Y38069D01*
X74985Y37238D01*
X74831Y36410D01*
X74657Y35587D01*
X74462Y34768D01*
X74248Y33954D01*
X74013Y33146D01*
X73759Y32344D01*
X73486Y31548D01*
X73192Y30759D01*
X72880Y29978D01*
X72548Y29204D01*
X72198Y28439D01*
X71829Y27683D01*
X71441Y26936D01*
X71035Y26199D01*
X70612Y25471D01*
X70170Y24755D01*
X69711Y24049D01*
X69235Y23356D01*
X68742Y22673D01*
X68232Y22004D01*
X67707Y21347D01*
X67165Y20703D01*
X66607Y20072D01*
X66034Y19456D01*
X65447Y18853D01*
X64844Y18266D01*
X64228Y17693D01*
X63597Y17135D01*
X62953Y16593D01*
X62296Y16068D01*
X61627Y15558D01*
X60944Y15065D01*
X60251Y14589D01*
X59545Y14130D01*
X58829Y13688D01*
X58101Y13265D01*
X57364Y12859D01*
X56617Y12471D01*
X55861Y12102D01*
X55096Y11752D01*
X54322Y11420D01*
X53541Y11108D01*
X52752Y10814D01*
X51956Y10541D01*
X51154Y10287D01*
X50346Y10052D01*
X49532Y9838D01*
X48713Y9643D01*
X47890Y9469D01*
X47062Y9315D01*
X46231Y9181D01*
X45397Y9068D01*
X44561Y8975D01*
X43723Y8903D01*
X42883Y8851D01*
X42042Y8820D01*
X41200Y8810D01*
X40358Y8820D01*
X39517Y8851D01*
X38677Y8903D01*
X37839Y8975D01*
X37003Y9068D01*
X36169Y9181D01*
X35338Y9315D01*
X34510Y9469D01*
X33687Y9643D01*
X32868Y9838D01*
X32054Y10052D01*
X31246Y10287D01*
X30444Y10541D01*
X29648Y10814D01*
X28859Y11108D01*
X28078Y11420D01*
X27304Y11752D01*
X26539Y12102D01*
X25783Y12471D01*
X25036Y12859D01*
X24299Y13265D01*
X23571Y13688D01*
X22855Y14130D01*
X22149Y14589D01*
X21456Y15065D01*
X20773Y15558D01*
X20104Y16068D01*
X19447Y16593D01*
X18803Y17135D01*
X18172Y17693D01*
X17556Y18266D01*
X16953Y18853D01*
X16366Y19456D01*
X15793Y20072D01*
X15235Y20703D01*
X14693Y21347D01*
X14168Y22004D01*
X13658Y22673D01*
X13165Y23356D01*
X12689Y24049D01*
X12230Y24755D01*
X11788Y25471D01*
X11365Y26199D01*
X10959Y26936D01*
X10571Y27683D01*
X10202Y28439D01*
X9852Y29204D01*
X9520Y29978D01*
X9208Y30759D01*
X8914Y31548D01*
X8641Y32344D01*
X8387Y33146D01*
X8152Y33954D01*
X7938Y34768D01*
X7743Y35587D01*
X7569Y36410D01*
X7415Y37238D01*
X7281Y38069D01*
X7168Y38903D01*
X7075Y39739D01*
X7003Y40577D01*
X6951Y41417D01*
X6920Y42258D01*
X6910Y43100D01*
D15*
X24200Y43100D02*
X24205Y43517D01*
X24220Y43934D01*
X24246Y44351D01*
X24282Y44766D01*
X24328Y45181D01*
X24384Y45594D01*
X24450Y46006D01*
X24527Y46417D01*
X24613Y46825D01*
X24709Y47231D01*
X24816Y47634D01*
X24932Y48035D01*
X25058Y48433D01*
X25194Y48827D01*
X25339Y49218D01*
X25494Y49606D01*
X25658Y49989D01*
X25832Y50368D01*
X26015Y50743D01*
X26207Y51114D01*
X26409Y51479D01*
X26619Y51840D01*
X26837Y52195D01*
X27065Y52545D01*
X27301Y52889D01*
X27545Y53227D01*
X27798Y53559D01*
X28059Y53885D01*
X28327Y54204D01*
X28604Y54517D01*
X28888Y54822D01*
X29179Y55121D01*
X29478Y55412D01*
X29783Y55696D01*
X30096Y55973D01*
X30415Y56241D01*
X30741Y56502D01*
X31073Y56755D01*
X31411Y56999D01*
X31755Y57235D01*
X32105Y57463D01*
X32460Y57681D01*
X32821Y57891D01*
X33186Y58093D01*
X33557Y58285D01*
X33932Y58468D01*
X34311Y58642D01*
X34694Y58806D01*
X35082Y58961D01*
X35473Y59106D01*
X35867Y59242D01*
X36265Y59368D01*
X36666Y59484D01*
X37069Y59591D01*
X37475Y59687D01*
X37883Y59773D01*
X38294Y59850D01*
X38706Y59916D01*
X39119Y59972D01*
X39534Y60018D01*
X39949Y60054D01*
X40366Y60080D01*
X40783Y60095D01*
X41200Y60100D01*
X41617Y60095D01*
X42034Y60080D01*
X42451Y60054D01*
X42866Y60018D01*
X43281Y59972D01*
X43694Y59916D01*
X44106Y59850D01*
X44517Y59773D01*
X44925Y59687D01*
X45331Y59591D01*
X45734Y59484D01*
X46135Y59368D01*
X46533Y59242D01*
X46927Y59106D01*
X47318Y58961D01*
X47706Y58806D01*
X48089Y58642D01*
X48468Y58468D01*
X48843Y58285D01*
X49214Y58093D01*
X49579Y57891D01*
X49940Y57681D01*
X50295Y57463D01*
X50645Y57235D01*
X50989Y56999D01*
X51327Y56755D01*
X51659Y56502D01*
X51985Y56241D01*
X52304Y55973D01*
X52617Y55696D01*
X52922Y55412D01*
X53221Y55121D01*
X53512Y54822D01*
X53796Y54517D01*
X54073Y54204D01*
X54341Y53885D01*
X54602Y53559D01*
X54855Y53227D01*
X55099Y52889D01*
X55335Y52545D01*
X55563Y52195D01*
X55781Y51840D01*
X55991Y51479D01*
X56193Y51114D01*
X56385Y50743D01*
X56568Y50368D01*
X56742Y49989D01*
X56906Y49606D01*
X57061Y49218D01*
X57206Y48827D01*
X57342Y48433D01*
X57468Y48035D01*
X57584Y47634D01*
X57691Y47231D01*
X57787Y46825D01*
X57873Y46417D01*
X57950Y46006D01*
X58016Y45594D01*
X58072Y45181D01*
X58118Y44766D01*
X58154Y44351D01*
X58180Y43934D01*
X58195Y43517D01*
X58200Y43100D01*
X58195Y42683D01*
X58180Y42266D01*
X58154Y41849D01*
X58118Y41434D01*
X58072Y41019D01*
X58016Y40606D01*
X57950Y40194D01*
X57873Y39783D01*
X57787Y39375D01*
X57691Y38969D01*
X57584Y38566D01*
X57468Y38165D01*
X57342Y37767D01*
X57206Y37373D01*
X57061Y36982D01*
X56906Y36594D01*
X56742Y36211D01*
X56568Y35832D01*
X56385Y35457D01*
X56193Y35086D01*
X55991Y34721D01*
X55781Y34360D01*
X55563Y34005D01*
X55335Y33655D01*
X55099Y33311D01*
X54855Y32973D01*
X54602Y32641D01*
X54341Y32315D01*
X54073Y31996D01*
X53796Y31683D01*
X53512Y31378D01*
X53221Y31079D01*
X52922Y30788D01*
X52617Y30504D01*
X52304Y30227D01*
X51985Y29959D01*
X51659Y29698D01*
X51327Y29445D01*
X50989Y29201D01*
X50645Y28965D01*
X50295Y28737D01*
X49940Y28519D01*
X49579Y28309D01*
X49214Y28107D01*
X48843Y27915D01*
X48468Y27732D01*
X48089Y27558D01*
X47706Y27394D01*
X47318Y27239D01*
X46927Y27094D01*
X46533Y26958D01*
X46135Y26832D01*
X45734Y26716D01*
X45331Y26609D01*
X44925Y26513D01*
X44517Y26427D01*
X44106Y26350D01*
X43694Y26284D01*
X43281Y26228D01*
X42866Y26182D01*
X42451Y26146D01*
X42034Y26120D01*
X41617Y26105D01*
X41200Y26100D01*
X40783Y26105D01*
X40366Y26120D01*
X39949Y26146D01*
X39534Y26182D01*
X39119Y26228D01*
X38706Y26284D01*
X38294Y26350D01*
X37883Y26427D01*
X37475Y26513D01*
X37069Y26609D01*
X36666Y26716D01*
X36265Y26832D01*
X35867Y26958D01*
X35473Y27094D01*
X35082Y27239D01*
X34694Y27394D01*
X34311Y27558D01*
X33932Y27732D01*
X33557Y27915D01*
X33186Y28107D01*
X32821Y28309D01*
X32460Y28519D01*
X32105Y28737D01*
X31755Y28965D01*
X31411Y29201D01*
X31073Y29445D01*
X30741Y29698D01*
X30415Y29959D01*
X30096Y30227D01*
X29783Y30504D01*
X29478Y30788D01*
X29179Y31079D01*
X28888Y31378D01*
X28604Y31683D01*
X28327Y31996D01*
X28059Y32315D01*
X27798Y32641D01*
X27545Y32973D01*
X27301Y33311D01*
X27065Y33655D01*
X26837Y34005D01*
X26619Y34360D01*
X26409Y34721D01*
X26207Y35086D01*
X26015Y35457D01*
X25832Y35832D01*
X25658Y36211D01*
X25494Y36594D01*
X25339Y36982D01*
X25194Y37373D01*
X25058Y37767D01*
X24932Y38165D01*
X24816Y38566D01*
X24709Y38969D01*
X24613Y39375D01*
X24527Y39783D01*
X24450Y40194D01*
X24384Y40606D01*
X24328Y41019D01*
X24282Y41434D01*
X24246Y41849D01*
X24220Y42266D01*
X24205Y42683D01*
X24200Y43100D01*
D14*
X590550Y270510D02*
X596900Y264160D01*
X596900Y251460D01*
X590550Y245110D01*
X596900Y238760D01*
X596900Y226060D01*
X590550Y219710D01*
X596900Y213360D01*
X596900Y200660D01*
X590550Y194310D01*
X596900Y187960D01*
X596900Y175260D01*
X590550Y168910D01*
X571500Y264160D02*
X577850Y270510D01*
X571500Y251460D02*
X577850Y245110D01*
X571500Y238760D01*
X571500Y226060D02*
X577850Y219710D01*
X571500Y213360D01*
X571500Y200660D02*
X577850Y194310D01*
X571500Y187960D01*
X571500Y175260D02*
X577850Y168910D01*
D12*
X603758Y201168D02*
X603758Y212862D01*
X603758Y201168D02*
X609605Y201168D01*
X611554Y203117D01*
X611554Y210913D01*
X609605Y212862D01*
X603758Y212862D01*
X615452Y212862D02*
X623248Y212862D01*
X623248Y210913D01*
X615452Y203117D01*
X615452Y201168D01*
D14*
X571500Y353060D02*
X825500Y353060D01*
X825500Y340360D01*
X825500Y327660D01*
X825500Y314960D01*
X825500Y302260D01*
X825500Y289560D01*
X825500Y276860D01*
X825500Y67310D01*
D12*
X603758Y226568D02*
X603758Y238262D01*
X603758Y226568D02*
X609605Y226568D01*
X611554Y228517D01*
X611554Y236313D01*
X609605Y238262D01*
X603758Y238262D01*
X619350Y236313D02*
X623248Y238262D01*
X619350Y236313D02*
X615452Y232415D01*
X615452Y228517D01*
X617401Y226568D01*
X621299Y226568D01*
X623248Y228517D01*
X623248Y230466D01*
X621299Y232415D01*
X615452Y232415D01*
X603758Y251968D02*
X603758Y263662D01*
X603758Y251968D02*
X609605Y251968D01*
X611554Y253917D01*
X611554Y261713D01*
X609605Y263662D01*
X603758Y263662D01*
X615452Y263662D02*
X623248Y263662D01*
X615452Y263662D02*
X615452Y257815D01*
X619350Y259764D01*
X621299Y259764D01*
X623248Y257815D01*
X623248Y253917D01*
X621299Y251968D01*
X617401Y251968D01*
X615452Y253917D01*
X603758Y187462D02*
X603758Y175768D01*
X609605Y175768D01*
X611554Y177717D01*
X611554Y185513D01*
X609605Y187462D01*
X603758Y187462D01*
X615452Y185513D02*
X617401Y187462D01*
X621299Y187462D01*
X623248Y185513D01*
X623248Y183564D01*
X621299Y181615D01*
X623248Y179666D01*
X623248Y177717D01*
X621299Y175768D01*
X617401Y175768D01*
X615452Y177717D01*
X615452Y179666D01*
X617401Y181615D01*
X615452Y183564D01*
X615452Y185513D01*
X617401Y181615D02*
X621299Y181615D01*
D14*
X571500Y276860D02*
X571500Y289560D01*
X571500Y302260D01*
X571500Y314960D01*
X571500Y327660D01*
X571500Y340360D01*
X571500Y353060D01*
X577850Y168910D02*
X571500Y162560D01*
X571500Y149860D02*
X577850Y143510D01*
X590550Y143510D01*
X596900Y149860D01*
X596900Y162560D01*
X590550Y168910D01*
D12*
X603758Y160113D02*
X605707Y162062D01*
X609605Y162062D01*
X611554Y160113D01*
X611554Y158164D01*
X609605Y156215D01*
X607656Y156215D01*
X609605Y156215D02*
X611554Y154266D01*
X611554Y152317D01*
X609605Y150368D01*
X605707Y150368D01*
X603758Y152317D01*
X615452Y154266D02*
X615452Y162062D01*
X615452Y154266D02*
X619350Y150368D01*
X623248Y154266D01*
X623248Y162062D01*
X627146Y160113D02*
X629095Y162062D01*
X632993Y162062D01*
X634942Y160113D01*
X634942Y158164D01*
X632993Y156215D01*
X631044Y156215D01*
X632993Y156215D02*
X634942Y154266D01*
X634942Y152317D01*
X632993Y150368D01*
X629095Y150368D01*
X627146Y152317D01*
X603758Y277368D02*
X603758Y289062D01*
X603758Y277368D02*
X609605Y277368D01*
X611554Y279317D01*
X611554Y287113D01*
X609605Y289062D01*
X603758Y289062D01*
X615452Y287113D02*
X615452Y279317D01*
X615452Y287113D02*
X617401Y289062D01*
X621299Y289062D01*
X623248Y287113D01*
X623248Y279317D01*
X621299Y277368D01*
X617401Y277368D01*
X615452Y279317D01*
X623248Y287113D01*
X603758Y302768D02*
X603758Y310564D01*
X607656Y314462D01*
X611554Y310564D01*
X611554Y302768D01*
X611554Y308615D02*
X603758Y308615D01*
X615452Y304717D02*
X615452Y312513D01*
X617401Y314462D01*
X621299Y314462D01*
X623248Y312513D01*
X623248Y304717D01*
X621299Y302768D01*
X617401Y302768D01*
X615452Y304717D01*
X623248Y312513D01*
X603758Y328168D02*
X603758Y339862D01*
X609605Y339862D01*
X611554Y337913D01*
X611554Y334015D01*
X609605Y332066D01*
X603758Y332066D01*
X607656Y332066D02*
X611554Y328168D01*
X623248Y337913D02*
X621299Y339862D01*
X617401Y339862D01*
X615452Y337913D01*
X615452Y335964D01*
X617401Y334015D01*
X621299Y334015D01*
X623248Y332066D01*
X623248Y330117D01*
X621299Y328168D01*
X617401Y328168D01*
X615452Y330117D01*
X631044Y328168D02*
X631044Y339862D01*
X627146Y339862D02*
X634942Y339862D01*
D14*
X819150Y270510D02*
X825500Y264160D01*
X825500Y251460D02*
X819150Y245110D01*
X825500Y238760D01*
X825500Y226060D02*
X819150Y219710D01*
X825500Y213360D01*
X825500Y200660D02*
X819150Y194310D01*
X825500Y187960D01*
X825500Y175260D02*
X819150Y168910D01*
X800100Y264160D02*
X806450Y270510D01*
X800100Y251460D02*
X806450Y245110D01*
X800100Y238760D01*
X800100Y226060D02*
X806450Y219710D01*
X800100Y213360D01*
X800100Y200660D02*
X806450Y194310D01*
X800100Y187960D01*
X800100Y175260D02*
X806450Y168910D01*
X800100Y162560D01*
X800100Y149860D02*
X806450Y143510D01*
X819150Y143510D01*
X825500Y149860D01*
X825500Y162560D02*
X819150Y168910D01*
D12*
X774768Y328168D02*
X774768Y339862D01*
X770870Y339862D02*
X778666Y339862D01*
X782564Y339862D02*
X790360Y328168D01*
X782564Y328168D02*
X790360Y339862D01*
X770870Y314462D02*
X770870Y302768D01*
X770870Y314462D02*
X776717Y314462D01*
X778666Y312513D01*
X778666Y308615D01*
X776717Y306666D01*
X770870Y306666D01*
X774768Y306666D02*
X778666Y302768D01*
X790360Y302768D02*
X782564Y314462D01*
X790360Y314462D02*
X782564Y302768D01*
X770870Y289062D02*
X770870Y277368D01*
X776717Y277368D01*
X778666Y279317D01*
X778666Y287113D01*
X776717Y289062D01*
X770870Y289062D01*
X782564Y285164D02*
X786462Y289062D01*
X786462Y277368D01*
X782564Y277368D02*
X790360Y277368D01*
X770870Y263662D02*
X770870Y251968D01*
X776717Y251968D01*
X778666Y253917D01*
X778666Y261713D01*
X776717Y263662D01*
X770870Y263662D01*
X782564Y251968D02*
X790360Y251968D01*
X782564Y251968D02*
X790360Y259764D01*
X790360Y261713D01*
X788411Y263662D01*
X784513Y263662D01*
X782564Y261713D01*
X770870Y238262D02*
X770870Y226568D01*
X776717Y226568D01*
X778666Y228517D01*
X778666Y236313D01*
X776717Y238262D01*
X770870Y238262D01*
X782564Y236313D02*
X784513Y238262D01*
X788411Y238262D01*
X790360Y236313D01*
X790360Y234364D01*
X788411Y232415D01*
X786462Y232415D01*
X788411Y232415D02*
X790360Y230466D01*
X790360Y228517D01*
X788411Y226568D01*
X784513Y226568D01*
X782564Y228517D01*
X770870Y212862D02*
X770870Y201168D01*
X776717Y201168D01*
X778666Y203117D01*
X778666Y210913D01*
X776717Y212862D01*
X770870Y212862D01*
X788411Y212862D02*
X788411Y201168D01*
X782564Y207015D02*
X788411Y212862D01*
X790360Y207015D02*
X782564Y207015D01*
X765023Y187462D02*
X766972Y185513D01*
X765023Y187462D02*
X761125Y187462D01*
X759176Y185513D01*
X759176Y177717D01*
X761125Y175768D01*
X765023Y175768D01*
X766972Y177717D01*
X766972Y181615D01*
X763074Y181615D01*
X770870Y175768D02*
X770870Y187462D01*
X778666Y175768D01*
X778666Y187462D01*
X782564Y187462D02*
X782564Y175768D01*
X788411Y175768D01*
X790360Y177717D01*
X790360Y185513D01*
X788411Y187462D01*
X782564Y187462D01*
X778666Y162062D02*
X770870Y162062D01*
X770870Y156215D01*
X774768Y158164D01*
X776717Y158164D01*
X778666Y156215D01*
X778666Y152317D01*
X776717Y150368D01*
X772819Y150368D01*
X770870Y152317D01*
X782564Y154266D02*
X782564Y162062D01*
X782564Y154266D02*
X786462Y150368D01*
X790360Y154266D01*
X790360Y162062D01*
D14*
X577850Y270510D02*
X571500Y276860D01*
X571500Y289560D02*
X577850Y295910D01*
X571500Y302260D01*
X571500Y314960D02*
X577850Y321310D01*
X571500Y327660D01*
X571500Y340360D02*
X577850Y346710D01*
X590550Y346710D01*
X596900Y340360D01*
X596900Y327660D01*
X590550Y321310D01*
X596900Y314960D01*
X596900Y302260D01*
X590550Y295910D01*
X596900Y289560D01*
X596900Y276860D01*
X590550Y270510D01*
X800100Y162560D02*
X800100Y149860D01*
X800100Y175260D02*
X800100Y187960D01*
X800100Y200660D02*
X800100Y213360D01*
X800100Y226060D02*
X800100Y238760D01*
X800100Y251460D02*
X800100Y264160D01*
X806450Y270510D02*
X800100Y276860D01*
X800100Y289560D01*
X806450Y295910D01*
X800100Y302260D01*
X800100Y314960D01*
X806450Y321310D01*
X800100Y327660D01*
X800100Y340360D01*
X806450Y346710D01*
X819150Y346710D01*
X825500Y340360D01*
X825500Y327660D02*
X819150Y321310D01*
X825500Y314960D01*
X825500Y302260D02*
X819150Y295910D01*
X825500Y289560D01*
X825500Y276860D02*
X819150Y270510D01*
X571500Y276860D02*
X571500Y137160D01*
X590550Y137160D01*
X590550Y67310D01*
X825500Y67310D01*
D12*
X605194Y31730D02*
X597398Y31730D01*
X605194Y31730D02*
X609092Y35628D01*
X605194Y39526D01*
X597398Y39526D01*
X597398Y43424D02*
X609092Y43424D01*
X601296Y47322D02*
X597398Y43424D01*
X601296Y47322D02*
X597398Y51220D01*
X609092Y51220D01*
X622798Y31730D02*
X630594Y31730D01*
X634492Y35628D01*
X630594Y39526D01*
X622798Y39526D01*
X622798Y43424D02*
X634492Y43424D01*
X626696Y47322D02*
X622798Y43424D01*
X626696Y47322D02*
X622798Y51220D01*
X634492Y51220D01*
X650147Y27832D02*
X648198Y25883D01*
X648198Y21985D01*
X650147Y20036D01*
X657943Y20036D01*
X659892Y21985D01*
X659892Y25883D01*
X657943Y27832D01*
X654045Y27832D01*
X654045Y23934D01*
X659892Y31730D02*
X648198Y31730D01*
X659892Y39526D01*
X648198Y39526D01*
X648198Y43424D02*
X659892Y43424D01*
X659892Y49271D01*
X657943Y51220D01*
X650147Y51220D01*
X648198Y49271D01*
X648198Y43424D01*
X673598Y25883D02*
X675547Y27832D01*
X673598Y25883D02*
X673598Y21985D01*
X675547Y20036D01*
X683343Y20036D01*
X685292Y21985D01*
X685292Y25883D01*
X683343Y27832D01*
X679445Y27832D01*
X679445Y23934D01*
X685292Y31730D02*
X673598Y31730D01*
X685292Y39526D01*
X673598Y39526D01*
X673598Y43424D02*
X685292Y43424D01*
X685292Y49271D01*
X683343Y51220D01*
X675547Y51220D01*
X673598Y49271D01*
X673598Y43424D01*
X702896Y31730D02*
X710692Y31730D01*
X702896Y31730D02*
X698998Y35628D01*
X702896Y39526D01*
X710692Y39526D01*
X704845Y39526D02*
X704845Y31730D01*
X702896Y43424D02*
X698998Y47322D01*
X710692Y47322D01*
X710692Y43424D02*
X710692Y51220D01*
X728296Y31730D02*
X736092Y31730D01*
X728296Y31730D02*
X724398Y35628D01*
X728296Y39526D01*
X736092Y39526D01*
X730245Y39526D02*
X730245Y31730D01*
X736092Y43424D02*
X736092Y51220D01*
X736092Y43424D02*
X728296Y51220D01*
X726347Y51220D01*
X724398Y49271D01*
X724398Y45373D01*
X726347Y43424D01*
X749798Y31730D02*
X761492Y31730D01*
X749798Y31730D02*
X749798Y37577D01*
X751747Y39526D01*
X753696Y39526D01*
X755645Y37577D01*
X757594Y39526D01*
X759543Y39526D01*
X761492Y37577D01*
X761492Y31730D01*
X755645Y31730D02*
X755645Y37577D01*
X753696Y43424D02*
X749798Y47322D01*
X761492Y47322D01*
X761492Y43424D02*
X761492Y51220D01*
X775198Y31730D02*
X786892Y31730D01*
X775198Y31730D02*
X775198Y37577D01*
X777147Y39526D01*
X779096Y39526D01*
X781045Y37577D01*
X782994Y39526D01*
X784943Y39526D01*
X786892Y37577D01*
X786892Y31730D01*
X781045Y31730D02*
X781045Y37577D01*
X786892Y43424D02*
X786892Y51220D01*
X786892Y43424D02*
X779096Y51220D01*
X777147Y51220D01*
X775198Y49271D01*
X775198Y45373D01*
X777147Y43424D01*
X800598Y49271D02*
X802547Y51220D01*
X800598Y49271D02*
X800598Y45373D01*
X802547Y43424D01*
X804496Y43424D01*
X806445Y45373D01*
X806445Y49271D01*
X808394Y51220D01*
X810343Y51220D01*
X812292Y49271D01*
X812292Y45373D01*
X810343Y43424D01*
X838708Y342817D02*
X838708Y352562D01*
X838708Y342817D02*
X840657Y340868D01*
X844555Y340868D01*
X846504Y342817D01*
X846504Y352562D01*
X850402Y342817D02*
X852351Y340868D01*
X856249Y340868D01*
X858198Y342817D01*
X858198Y344766D01*
X856249Y346715D01*
X852351Y346715D01*
X850402Y348664D01*
X850402Y350613D01*
X852351Y352562D01*
X856249Y352562D01*
X858198Y350613D01*
X854300Y354511D02*
X854300Y338919D01*
X865994Y350613D02*
X869892Y352562D01*
X865994Y350613D02*
X862096Y346715D01*
X862096Y342817D01*
X864045Y340868D01*
X867943Y340868D01*
X869892Y342817D01*
X869892Y344766D01*
X867943Y346715D01*
X862096Y346715D01*
D10*
X800100Y13970D02*
X774700Y13970D01*
X774700Y-11430D01*
X800100Y-11430D01*
X800100Y13970D01*
D19*
X787400Y-17780D02*
X787400Y-74930D01*
D10*
X774700Y13970D02*
X749300Y13970D01*
X749300Y-11430D01*
X774700Y-11430D01*
D19*
X762000Y-17780D02*
X762000Y-74930D01*
D10*
X749300Y13970D02*
X723900Y13970D01*
X723900Y-11430D01*
X749300Y-11430D01*
D19*
X736600Y-17780D02*
X736600Y-74930D01*
D10*
X723900Y13970D02*
X698500Y13970D01*
X698500Y-11430D01*
X723900Y-11430D01*
D19*
X711200Y-17780D02*
X711200Y-74930D01*
D20*
X787400Y-13970D03*
X762000Y-13970D03*
X736600Y-13970D03*
X711200Y-13970D03*
D21*
X787400Y19050D03*
X762000Y19050D03*
X736600Y19050D03*
X711200Y19050D03*
D14*
X816608Y-1427D02*
X818515Y480D01*
X818515Y2386D01*
X816608Y4293D01*
X807075Y4293D01*
X807075Y2386D02*
X807075Y6200D01*
X807075Y10267D02*
X818515Y10267D01*
X807075Y10267D02*
X807075Y15987D01*
X808982Y17894D01*
X812795Y17894D01*
X814702Y15987D01*
X814702Y10267D01*
X818515Y21961D02*
X818515Y29587D01*
X818515Y21961D02*
X810889Y29587D01*
X808982Y29587D01*
X807075Y27681D01*
X807075Y23868D01*
X808982Y21961D01*
D10*
X17780Y97790D02*
X17780Y110490D01*
X24130Y116840D01*
X36830Y116840D01*
X43180Y110490D01*
X24130Y116840D02*
X17780Y123190D01*
X17780Y135890D01*
X24130Y142240D01*
X36830Y142240D01*
X43180Y135890D01*
X43180Y123190D01*
X36830Y116840D01*
X36830Y91440D02*
X24130Y91440D01*
X17780Y97790D01*
X36830Y91440D02*
X43180Y97790D01*
X43180Y110490D01*
X24130Y142240D02*
X17780Y148590D01*
X17780Y161290D01*
X24130Y167640D01*
X36830Y167640D01*
X43180Y161290D01*
X43180Y148590D01*
X36830Y142240D01*
D14*
X11557Y93220D02*
X9650Y91313D01*
X11557Y93220D02*
X11557Y95126D01*
X9650Y97033D01*
X117Y97033D01*
X117Y95126D02*
X117Y98940D01*
X117Y103007D02*
X11557Y103007D01*
X117Y103007D02*
X117Y108727D01*
X2024Y110633D01*
X5837Y110633D01*
X7744Y108727D01*
X7744Y103007D01*
X2024Y114701D02*
X117Y116608D01*
X117Y120421D01*
X2024Y122327D01*
X3931Y122327D01*
X5837Y120421D01*
X5837Y118514D01*
X5837Y120421D02*
X7744Y122327D01*
X9650Y122327D01*
X11557Y120421D01*
X11557Y116608D01*
X9650Y114701D01*
D10*
X847090Y426720D02*
X859790Y426720D01*
X866140Y420370D01*
X866140Y407670D01*
X859790Y401320D01*
X840740Y407670D02*
X840740Y420370D01*
X847090Y426720D01*
X840740Y407670D02*
X847090Y401320D01*
X859790Y401320D01*
X866140Y420370D02*
X872490Y426720D01*
X885190Y426720D01*
X891540Y420370D01*
X891540Y407670D01*
X885190Y401320D01*
X872490Y401320D01*
X866140Y407670D01*
D14*
X842520Y432943D02*
X840613Y434850D01*
X842520Y432943D02*
X844426Y432943D01*
X846333Y434850D01*
X846333Y444383D01*
X844426Y444383D02*
X848240Y444383D01*
X852307Y444383D02*
X852307Y432943D01*
X852307Y444383D02*
X858027Y444383D01*
X859933Y442476D01*
X859933Y438663D01*
X858027Y436756D01*
X852307Y436756D01*
X869721Y432943D02*
X869721Y444383D01*
X864001Y438663D01*
X871627Y438663D01*
D10*
X859790Y474980D02*
X847090Y474980D01*
X859790Y474980D02*
X866140Y468630D01*
X866140Y455930D01*
X859790Y449580D01*
X840740Y455930D02*
X840740Y468630D01*
X847090Y474980D01*
X840740Y455930D02*
X847090Y449580D01*
X859790Y449580D01*
X866140Y468630D02*
X872490Y474980D01*
X885190Y474980D01*
X891540Y468630D01*
X891540Y455930D01*
X885190Y449580D01*
X872490Y449580D01*
X866140Y455930D01*
D14*
X842520Y481203D02*
X840613Y483110D01*
X842520Y481203D02*
X844426Y481203D01*
X846333Y483110D01*
X846333Y492643D01*
X844426Y492643D02*
X848240Y492643D01*
X852307Y492643D02*
X852307Y481203D01*
X852307Y492643D02*
X858027Y492643D01*
X859933Y490736D01*
X859933Y486923D01*
X858027Y485016D01*
X852307Y485016D01*
X864001Y492643D02*
X871627Y492643D01*
X864001Y492643D02*
X864001Y486923D01*
X867814Y488830D01*
X869721Y488830D01*
X871627Y486923D01*
X871627Y483110D01*
X869721Y481203D01*
X865908Y481203D01*
X864001Y483110D01*
D10*
X67310Y238760D02*
X60960Y245110D01*
X60960Y257810D01*
X67310Y264160D01*
X80010Y264160D01*
X86360Y257810D01*
X86360Y245110D01*
X80010Y238760D01*
X60960Y207010D02*
X60960Y194310D01*
X60960Y207010D02*
X67310Y213360D01*
X80010Y213360D01*
X86360Y207010D01*
X67310Y213360D02*
X60960Y219710D01*
X60960Y232410D01*
X67310Y238760D01*
X80010Y238760D01*
X86360Y232410D01*
X86360Y219710D01*
X80010Y213360D01*
X80010Y187960D02*
X67310Y187960D01*
X60960Y194310D01*
X80010Y187960D02*
X86360Y194310D01*
X86360Y207010D01*
X60960Y270510D02*
X60960Y283210D01*
X67310Y289560D01*
X80010Y289560D01*
X86360Y283210D01*
X67310Y264160D02*
X60960Y270510D01*
X80010Y264160D02*
X86360Y270510D01*
X86360Y283210D01*
D14*
X54737Y189740D02*
X52830Y187833D01*
X54737Y189740D02*
X54737Y191646D01*
X52830Y193553D01*
X43297Y193553D01*
X43297Y191646D02*
X43297Y195460D01*
X43297Y199527D02*
X54737Y199527D01*
X43297Y199527D02*
X43297Y205247D01*
X45204Y207153D01*
X49017Y207153D01*
X50924Y205247D01*
X50924Y199527D01*
X45204Y215034D02*
X43297Y218847D01*
X45204Y215034D02*
X49017Y211221D01*
X52830Y211221D01*
X54737Y213128D01*
X54737Y216941D01*
X52830Y218847D01*
X50924Y218847D01*
X49017Y216941D01*
X49017Y211221D01*
D10*
X26670Y421640D02*
X20320Y427990D01*
X20320Y440690D01*
X26670Y447040D01*
X39370Y447040D01*
X45720Y440690D01*
X45720Y427990D01*
X39370Y421640D01*
X20320Y389890D02*
X20320Y377190D01*
X20320Y389890D02*
X26670Y396240D01*
X39370Y396240D01*
X45720Y389890D01*
X26670Y396240D02*
X20320Y402590D01*
X20320Y415290D01*
X26670Y421640D01*
X39370Y421640D01*
X45720Y415290D01*
X45720Y402590D01*
X39370Y396240D01*
X39370Y370840D02*
X26670Y370840D01*
X20320Y377190D01*
X39370Y370840D02*
X45720Y377190D01*
X45720Y389890D01*
X20320Y453390D02*
X20320Y466090D01*
X26670Y472440D01*
X39370Y472440D01*
X45720Y466090D01*
X26670Y447040D02*
X20320Y453390D01*
X39370Y447040D02*
X45720Y453390D01*
X45720Y466090D01*
D14*
X14097Y372620D02*
X12190Y370713D01*
X14097Y372620D02*
X14097Y374526D01*
X12190Y376433D01*
X2657Y376433D01*
X2657Y374526D02*
X2657Y378340D01*
X2657Y382407D02*
X14097Y382407D01*
X2657Y382407D02*
X2657Y388127D01*
X4564Y390033D01*
X8377Y390033D01*
X10284Y388127D01*
X10284Y382407D01*
X2657Y394101D02*
X2657Y401727D01*
X4564Y401727D01*
X12190Y394101D01*
X14097Y394101D01*
D10*
X510540Y542290D02*
X516890Y535940D01*
X510540Y542290D02*
X510540Y554990D01*
X516890Y561340D01*
X529590Y561340D01*
X535940Y554990D01*
X535940Y542290D01*
X529590Y535940D01*
X510540Y504190D02*
X510540Y491490D01*
X510540Y504190D02*
X516890Y510540D01*
X529590Y510540D01*
X535940Y504190D01*
X516890Y510540D02*
X510540Y516890D01*
X510540Y529590D01*
X516890Y535940D01*
X529590Y535940D01*
X535940Y529590D01*
X535940Y516890D01*
X529590Y510540D01*
X529590Y485140D02*
X516890Y485140D01*
X510540Y491490D01*
X529590Y485140D02*
X535940Y491490D01*
X535940Y504190D01*
X510540Y567690D02*
X510540Y580390D01*
X516890Y586740D01*
X529590Y586740D01*
X535940Y580390D01*
X516890Y561340D02*
X510540Y567690D01*
X529590Y561340D02*
X535940Y567690D01*
X535940Y580390D01*
D14*
X504317Y486920D02*
X502410Y485013D01*
X504317Y486920D02*
X504317Y488826D01*
X502410Y490733D01*
X492877Y490733D01*
X492877Y488826D02*
X492877Y492640D01*
X492877Y496707D02*
X504317Y496707D01*
X492877Y496707D02*
X492877Y502427D01*
X494784Y504333D01*
X498597Y504333D01*
X500504Y502427D01*
X500504Y496707D01*
X494784Y508401D02*
X492877Y510308D01*
X492877Y514121D01*
X494784Y516027D01*
X496691Y516027D01*
X498597Y514121D01*
X500504Y516027D01*
X502410Y516027D01*
X504317Y514121D01*
X504317Y510308D01*
X502410Y508401D01*
X500504Y508401D01*
X498597Y510308D01*
X496691Y508401D01*
X494784Y508401D01*
X498597Y510308D02*
X498597Y514121D01*
D10*
X435610Y535940D02*
X429260Y542290D01*
X429260Y554990D01*
X435610Y561340D01*
X448310Y561340D01*
X454660Y554990D01*
X454660Y542290D01*
X448310Y535940D01*
X429260Y504190D02*
X429260Y491490D01*
X429260Y504190D02*
X435610Y510540D01*
X448310Y510540D01*
X454660Y504190D01*
X435610Y510540D02*
X429260Y516890D01*
X429260Y529590D01*
X435610Y535940D01*
X448310Y535940D01*
X454660Y529590D01*
X454660Y516890D01*
X448310Y510540D01*
X448310Y485140D02*
X435610Y485140D01*
X429260Y491490D01*
X448310Y485140D02*
X454660Y491490D01*
X454660Y504190D01*
X429260Y567690D02*
X429260Y580390D01*
X435610Y586740D01*
X448310Y586740D01*
X454660Y580390D01*
X435610Y561340D02*
X429260Y567690D01*
X448310Y561340D02*
X454660Y567690D01*
X454660Y580390D01*
D14*
X423037Y486920D02*
X421130Y485013D01*
X423037Y486920D02*
X423037Y488826D01*
X421130Y490733D01*
X411597Y490733D01*
X411597Y488826D02*
X411597Y492640D01*
X411597Y496707D02*
X423037Y496707D01*
X411597Y496707D02*
X411597Y502427D01*
X413504Y504333D01*
X417317Y504333D01*
X419224Y502427D01*
X419224Y496707D01*
X421130Y508401D02*
X423037Y510308D01*
X423037Y514121D01*
X421130Y516027D01*
X413504Y516027D01*
X411597Y514121D01*
X411597Y510308D01*
X413504Y508401D01*
X415411Y508401D01*
X417317Y510308D01*
X417317Y516027D01*
D10*
X373380Y529590D02*
X367030Y535940D01*
X373380Y529590D02*
X373380Y516890D01*
X367030Y510540D01*
X354330Y510540D01*
X347980Y516890D01*
X347980Y529590D01*
X354330Y535940D01*
X373380Y567690D02*
X373380Y580390D01*
X373380Y567690D02*
X367030Y561340D01*
X354330Y561340D01*
X347980Y567690D01*
X367030Y561340D02*
X373380Y554990D01*
X373380Y542290D01*
X367030Y535940D01*
X354330Y535940D01*
X347980Y542290D01*
X347980Y554990D01*
X354330Y561340D01*
X354330Y586740D02*
X367030Y586740D01*
X373380Y580390D01*
X354330Y586740D02*
X347980Y580390D01*
X347980Y567690D01*
X373380Y504190D02*
X373380Y491490D01*
X367030Y485140D01*
X354330Y485140D01*
X347980Y491490D01*
X367030Y510540D02*
X373380Y504190D01*
X354330Y510540D02*
X347980Y504190D01*
X347980Y491490D01*
D14*
X389126Y541361D02*
X391033Y543268D01*
X391033Y545174D01*
X389126Y547081D01*
X379593Y547081D01*
X379593Y545174D02*
X379593Y548988D01*
X379593Y553055D02*
X391033Y553055D01*
X379593Y553055D02*
X379593Y558775D01*
X381500Y560682D01*
X385313Y560682D01*
X387220Y558775D01*
X387220Y553055D01*
X383407Y564749D02*
X379593Y568562D01*
X391033Y568562D01*
X391033Y564749D02*
X391033Y572375D01*
X389126Y576443D02*
X381500Y576443D01*
X379593Y578350D01*
X379593Y582163D01*
X381500Y584069D01*
X389126Y584069D01*
X391033Y582163D01*
X391033Y578350D01*
X389126Y576443D01*
X381500Y584069D01*
D10*
X297180Y529590D02*
X290830Y535940D01*
X297180Y529590D02*
X297180Y516890D01*
X290830Y510540D01*
X278130Y510540D01*
X271780Y516890D01*
X271780Y529590D01*
X278130Y535940D01*
X297180Y567690D02*
X297180Y580390D01*
X297180Y567690D02*
X290830Y561340D01*
X278130Y561340D01*
X271780Y567690D01*
X290830Y561340D02*
X297180Y554990D01*
X297180Y542290D01*
X290830Y535940D01*
X278130Y535940D01*
X271780Y542290D01*
X271780Y554990D01*
X278130Y561340D01*
X278130Y586740D02*
X290830Y586740D01*
X297180Y580390D01*
X278130Y586740D02*
X271780Y580390D01*
X271780Y567690D01*
X297180Y504190D02*
X297180Y491490D01*
X290830Y485140D01*
X278130Y485140D01*
X271780Y491490D01*
X290830Y510540D02*
X297180Y504190D01*
X278130Y510540D02*
X271780Y504190D01*
X271780Y491490D01*
D14*
X312926Y541361D02*
X314833Y543268D01*
X314833Y545174D01*
X312926Y547081D01*
X303393Y547081D01*
X303393Y545174D02*
X303393Y548988D01*
X303393Y553055D02*
X314833Y553055D01*
X303393Y553055D02*
X303393Y558775D01*
X305300Y560682D01*
X309113Y560682D01*
X311020Y558775D01*
X311020Y553055D01*
X307207Y564749D02*
X303393Y568562D01*
X314833Y568562D01*
X314833Y564749D02*
X314833Y572375D01*
X307207Y576443D02*
X303393Y580256D01*
X314833Y580256D01*
X314833Y576443D02*
X314833Y584069D01*
M02*
