G04 EAGLE Gerber RS-274X export*
G75*
%MOMM*%
%FSLAX34Y34*%
%LPD*%
%INSoldermask Bottom*%
%IPPOS*%
%AMOC8*
5,1,8,0,0,1.08239X$1,22.5*%
G01*
%ADD10P,2.073859X8X112.500000*%
%ADD11P,2.073859X8X292.500000*%
%ADD12C,3.403200*%
%ADD13C,2.103200*%
%ADD14P,2.276483X8X22.500000*%
%ADD15P,2.817678X8X22.500000*%
%ADD16P,2.073859X8X202.500000*%
%ADD17C,2.119200*%
%ADD18C,2.203200*%


D10*
X152240Y35640D03*
X152240Y111840D03*
D11*
X129380Y86360D03*
X129380Y35560D03*
D12*
X41200Y553640D03*
D13*
X177800Y110490D03*
X177800Y135890D03*
X177800Y161290D03*
X177800Y186690D03*
X177800Y212090D03*
X177800Y237490D03*
X177800Y262890D03*
X406400Y110490D03*
X406400Y135890D03*
X406400Y161290D03*
X406400Y186690D03*
X406400Y212090D03*
X406400Y237490D03*
X406400Y262890D03*
X177800Y85090D03*
X406400Y85090D03*
D14*
X503280Y63500D03*
X548280Y63500D03*
D15*
X560780Y88500D03*
X490780Y88500D03*
D16*
X513080Y137160D03*
X436880Y137160D03*
D11*
X147460Y474860D03*
X147460Y398660D03*
D12*
X866060Y42620D03*
X866060Y553160D03*
D16*
X93980Y459740D03*
X68580Y459740D03*
X93980Y436880D03*
X68580Y436880D03*
D10*
X538480Y195580D03*
X538480Y271780D03*
D16*
X538480Y162560D03*
X462280Y162560D03*
D17*
X655900Y576580D02*
X675060Y576580D01*
X675060Y551180D02*
X655900Y551180D01*
X655900Y525780D02*
X675060Y525780D01*
X675060Y500380D02*
X655900Y500380D01*
X655900Y474980D02*
X675060Y474980D01*
X675060Y449580D02*
X655900Y449580D01*
X655900Y424180D02*
X675060Y424180D01*
X675060Y398780D02*
X655900Y398780D01*
D12*
X41200Y43100D03*
D13*
X584200Y181610D03*
X584200Y207010D03*
X584200Y232410D03*
X584200Y257810D03*
X584200Y283210D03*
X584200Y308610D03*
X584200Y334010D03*
X812800Y181610D03*
X812800Y207010D03*
X812800Y232410D03*
X812800Y257810D03*
X812800Y283210D03*
X812800Y308610D03*
X812800Y334010D03*
X584200Y156210D03*
X812800Y156210D03*
X812800Y92710D03*
X787400Y92710D03*
X762000Y92710D03*
X736600Y92710D03*
X711200Y92710D03*
X685800Y92710D03*
X660400Y92710D03*
X635000Y92710D03*
X609600Y92710D03*
D17*
X787400Y42600D02*
X787400Y23440D01*
X762000Y23440D02*
X762000Y42600D01*
X736600Y42600D02*
X736600Y23440D01*
X711200Y23440D02*
X711200Y42600D01*
X40060Y104140D02*
X20900Y104140D01*
X20900Y129540D02*
X40060Y129540D01*
X40060Y154940D02*
X20900Y154940D01*
X853440Y404440D02*
X853440Y423600D01*
X878840Y423600D02*
X878840Y404440D01*
X853440Y452700D02*
X853440Y471860D01*
X878840Y471860D02*
X878840Y452700D01*
X83240Y200660D02*
X64080Y200660D01*
X64080Y226060D02*
X83240Y226060D01*
X83240Y251460D02*
X64080Y251460D01*
X64080Y276860D02*
X83240Y276860D01*
X42600Y383540D02*
X23440Y383540D01*
X23440Y408940D02*
X42600Y408940D01*
X42600Y434340D02*
X23440Y434340D01*
X23440Y459740D02*
X42600Y459740D01*
X513660Y497840D02*
X532820Y497840D01*
X532820Y523240D02*
X513660Y523240D01*
X513660Y548640D02*
X532820Y548640D01*
X532820Y574040D02*
X513660Y574040D01*
X451540Y497840D02*
X432380Y497840D01*
X432380Y523240D02*
X451540Y523240D01*
X451540Y548640D02*
X432380Y548640D01*
X432380Y574040D02*
X451540Y574040D01*
X370260Y574040D02*
X351100Y574040D01*
X351100Y548640D02*
X370260Y548640D01*
X370260Y523240D02*
X351100Y523240D01*
X351100Y497840D02*
X370260Y497840D01*
X294060Y574040D02*
X274900Y574040D01*
X274900Y548640D02*
X294060Y548640D01*
X294060Y523240D02*
X274900Y523240D01*
X274900Y497840D02*
X294060Y497840D01*
D18*
X51580Y354840D03*
X440340Y46220D03*
X119380Y391160D03*
X68580Y393700D03*
X172000Y386000D03*
X206000Y420000D03*
X556900Y136140D03*
X753460Y432340D03*
X104140Y86360D03*
X73660Y322580D03*
X73660Y88900D03*
X73660Y162560D03*
M02*
